<?xml version="1.0" encoding="utf-8"?>
<!-- Generator: Adobe Illustrator 25.2.1, SVG Export Plug-In . SVG Version: 6.00 Build 0)  -->
<svg version="1.1" id="Layer_1" xmlns="http://www.w3.org/2000/svg" xmlns:xlink="http://www.w3.org/1999/xlink" x="0px" y="0px"
	 viewBox="0 0 1436.1 683.1" style="enable-background:new 0 0 1436.1 683.1;" xml:space="preserve">
<style type="text/css">
	.st0{fill:#FFFFFF;}
</style>
<path class="st0" d="M1145.7,410.1l-10.4-11.3c-5.1,7.1-12.5,10.7-22.2,10.7c-4,0-7.7-0.7-10.9-2c-3.1-1.4-5.6-3.3-7.4-5.8
	c-1.7-2.5-2.6-5.4-2.6-8.6c0-3.8,1.3-7.3,4-10.6c2.7-3.3,7.4-6.9,14.1-10.9l-0.8-0.8c-3.3-3.6-5.6-6.5-6.7-8.7
	c-1.2-2.3-1.7-4.8-1.7-7.4c0-3.9,1.3-7,3.9-9.4c2.6-2.4,6.1-3.6,10.6-3.6c4.2,0,7.5,1.1,9.9,3.3c2.4,2.1,3.6,5,3.6,8.7
	c0,2.2-0.5,4.2-1.5,6c-1,1.8-2.6,3.6-4.9,5.6c-2.2,1.9-5.4,4.1-9.6,6.6l22,24c2.4-3.8,4.1-8.6,5.3-14.6l1.6,0.4
	c-1.2,6.2-3.1,11.4-5.7,15.5l10.7,11.7L1145.7,410.1z M1103.2,354.6c0,2.4,0.5,4.6,1.6,6.7c1.2,2.1,3.4,5,6.6,8.5l0.7,0.7
	c4-2.4,7.1-4.5,9.2-6.2c2.2-1.7,3.7-3.4,4.7-5.1s1.4-3.5,1.4-5.6c0-3.1-1-5.6-3.1-7.4c-2.1-1.9-4.9-2.8-8.6-2.8c-3.9,0-7,1-9.2,3.1
	C1104.3,348.5,1103.2,351.2,1103.2,354.6z M1113.2,407.8c9.2,0,16.2-3.4,21-10.3l-22.5-24.7c-4.5,2.8-8.1,5.2-10.6,7.4
	c-2.5,2.1-4.3,4.2-5.4,6.1c-1,2-1.5,4.2-1.5,6.6c0,4.4,1.7,8,5.2,10.8C1102.9,406.4,1107.5,407.8,1113.2,407.8z M982.2,458.9
	c8.3,0,14.7,2,19.4,5.9c4.7,3.8,7,9.2,7,16.2c0,7-2.3,12.4-7,16.3c-4.7,3.8-11.1,5.8-19.4,5.8h-20.8v23h-1.9v-67.2H982.2z
	 M982.4,501.2c7.8,0,13.8-1.8,18-5.3c4.2-3.5,6.3-8.5,6.3-15c0-6.5-2.1-11.5-6.3-15c-4.2-3.5-10.1-5.3-18-5.3h-21v40.5H982.4z
	 M1062.1,476.5l-26.4,57.6c-1.8,4-3.8,6.8-6,8.4s-4.9,2.5-8,2.5c-4.5,0-8.1-1.5-10.8-4.4l1.4-1.5c1.3,1.5,2.8,2.5,4.2,3.2
	c1.5,0.6,3.2,1,5.2,1c2.6,0,4.8-0.7,6.6-2.2c1.9-1.4,3.7-3.9,5.4-7.5l3.5-7.6l-22.8-49.4h2.2l21.6,47.4l21.6-47.4H1062.1z
	 M1097.5,522.8c-1.1,1.2-2.5,2-4.3,2.7c-1.7,0.6-3.5,0.9-5.4,0.9c-3.8,0-6.8-1.1-8.9-3.3c-2-2.2-3.1-5.2-3.1-8.9v-35.9h-9.6v-1.8
	h9.6v-10.8h1.9v10.8h16.8v1.8h-16.8v35.4c0,3.5,0.9,6.2,2.6,8.1c1.7,1.9,4.3,2.8,7.6,2.8s6.1-1,8.3-3.1L1097.5,522.8z M1135,476.2
	c6.2,0,11.1,1.8,14.6,5.4c3.5,3.5,5.3,8.6,5.3,15.3v29.3h-1.9v-29.3c0-6.1-1.6-10.7-4.7-13.9c-3.1-3.3-7.5-4.9-13.2-4.9
	c-6.5,0-11.6,2-15.4,5.9c-3.7,3.8-5.6,8.9-5.6,15.3v27h-1.9v-71.2h1.9v34.8c1.5-4.2,4.1-7.5,7.7-9.9
	C1125.5,477.4,1129.8,476.2,1135,476.2z M1194.6,526.4c-4.5,0-8.7-1.1-12.4-3.2c-3.7-2.2-6.5-5.2-8.6-9c-2.1-3.8-3.1-8.2-3.1-13
	c0-4.8,1-9.1,3.1-12.9c2.1-3.8,5-6.8,8.6-8.9c3.7-2.2,7.8-3.3,12.4-3.3c4.5,0,8.6,1.1,12.3,3.3c3.7,2.1,6.6,5.1,8.6,8.9
	c2.1,3.8,3.2,8.1,3.2,12.9c0,4.8-1.1,9.1-3.2,13c-2,3.8-4.9,6.8-8.6,9C1203.3,525.3,1199.2,526.4,1194.6,526.4z M1194.6,524.6
	c4.2,0,7.9-1,11.3-3c3.4-2,6.1-4.7,8-8.3c1.9-3.6,2.9-7.6,2.9-12.1c0-4.5-1-8.5-2.9-12c-1.9-3.6-4.6-6.3-8-8.3c-3.4-2-7.2-3-11.3-3
	c-4.2,0-7.9,1-11.3,3c-3.4,1.9-6,4.7-8,8.3c-1.9,3.5-2.9,7.5-2.9,12c0,4.5,1,8.5,2.9,12.1c1.9,3.5,4.6,6.3,8,8.3
	C1186.7,523.6,1190.5,524.6,1194.6,524.6z M1257.8,476.2c6.2,0,11.1,1.8,14.6,5.4c3.5,3.5,5.3,8.6,5.3,15.3v29.3h-1.9v-29.3
	c0-6.1-1.6-10.7-4.7-13.9c-3.1-3.3-7.4-4.9-13.2-4.9c-6.5,0-11.6,2-15.4,5.9c-3.7,3.8-5.6,8.9-5.6,15.3v27h-1.9v-49.6h1.9v13.2
	c1.5-4.2,4.1-7.5,7.7-9.9C1248.2,477.4,1252.6,476.2,1257.8,476.2z"/>
<path class="st0" d="M887.1,287.4c-4.9,0-9.4-0.9-13.7-2.6c-4.3-1.8-7.6-4.1-9.9-6.9l1.3-1.2c2.2,2.6,5.3,4.7,9.3,6.4
	c4,1.7,8.3,2.5,12.9,2.5c7,0,12.2-1.4,15.7-4.1c3.6-2.8,5.4-6.4,5.4-10.8c0-3.5-0.9-6.2-2.8-8.3s-4.2-3.6-6.9-4.6
	c-2.7-1-6.3-2.1-10.9-3.2c-4.9-1.2-8.8-2.4-11.7-3.5c-2.9-1.2-5.3-2.9-7.4-5.2c-2-2.4-3-5.5-3-9.4c0-3.1,0.8-5.9,2.4-8.4
	s4.1-4.6,7.5-6.1c3.4-1.5,7.6-2.3,12.6-2.3c3.6,0,7.1,0.6,10.6,1.7c3.5,1.1,6.4,2.6,8.9,4.4l-1.1,1.5c-2.6-1.9-5.6-3.4-8.8-4.3
	c-3.2-1-6.4-1.5-9.5-1.5c-6.7,0-11.8,1.4-15.4,4.3c-3.5,2.8-5.3,6.4-5.3,10.8c0,3.5,0.9,6.2,2.8,8.4c1.9,2,4.2,3.6,6.9,4.6
	s6.5,2.1,11.1,3.3c4.9,1.2,8.7,2.4,11.6,3.6c2.9,1.1,5.3,2.8,7.3,5.1c2,2.2,3,5.3,3,9.1c0,3.1-0.8,5.9-2.5,8.4s-4.2,4.6-7.7,6.1
	C896.4,286.6,892.2,287.4,887.1,287.4z M966.7,262.2h-44.2c0,4.5,1,8.5,3,12.1c2,3.5,4.7,6.3,8.2,8.3c3.5,2,7.5,3,11.8,3
	c3.4,0,6.6-0.6,9.5-1.9c3-1.3,5.5-3.3,7.4-5.8l1.3,1.3c-2.2,2.6-4.9,4.6-8.1,6c-3.2,1.4-6.6,2.1-10.2,2.1c-4.7,0-9-1.1-12.8-3.2
	c-3.7-2.2-6.7-5.2-8.8-9c-2.1-3.8-3.2-8.2-3.2-13c0-4.8,1-9.1,3-12.9c2-3.8,4.7-6.8,8.2-8.9c3.5-2.2,7.5-3.3,11.8-3.3
	c4.3,0,8.2,1.1,11.7,3.2c3.5,2.1,6.3,5,8.3,8.7c2,3.7,3.1,7.9,3.1,12.7V262.2z M943.7,239c-3.8,0-7.3,0.9-10.5,2.8s-5.7,4.4-7.6,7.7
	c-1.9,3.3-2.9,6.9-3.1,10.9h42.3c-0.2-4-1.2-7.7-3.2-10.9c-1.9-3.3-4.4-5.8-7.6-7.7S947.5,239,943.7,239z M1005.7,237.2
	c6.2,0,11.1,1.8,14.6,5.4c3.5,3.5,5.3,8.6,5.3,15.3v29.3h-1.9v-29.3c0-6.1-1.6-10.7-4.7-13.9c-3.1-3.3-7.5-4.9-13.2-4.9
	c-6.5,0-11.6,2-15.4,5.9c-3.7,3.8-5.6,8.9-5.6,15.3v27h-1.9v-49.6h1.9v13.2c1.5-4.2,4.1-7.5,7.7-9.9
	C996.1,238.4,1000.5,237.2,1005.7,237.2z M1058.5,287.4c-4,0-7.7-0.6-11.2-1.9s-6.2-2.9-8.2-4.9l1.2-1.5c1.9,1.9,4.5,3.4,7.7,4.7
	c3.3,1.2,6.8,1.8,10.6,1.8c5.6,0,9.8-1,12.5-2.9c2.7-2,4-4.7,4-8.2c0-2.5-0.7-4.4-2.2-5.9c-1.4-1.5-3.2-2.5-5.3-3.2
	c-2-0.7-4.9-1.4-8.5-2.1c-3.9-0.7-7.1-1.4-9.5-2.2c-2.4-0.8-4.4-2.1-6-3.8c-1.6-1.8-2.4-4.3-2.4-7.4c0-3.6,1.5-6.6,4.4-9
	c3-2.5,7.4-3.7,13.2-3.7c3.1,0,6.1,0.5,9.1,1.4c3,0.9,5.4,2.1,7.3,3.6l-1.2,1.5c-1.9-1.5-4.2-2.7-6.9-3.6s-5.5-1.2-8.4-1.2
	c-5.2,0-9.1,1-11.7,3.1c-2.6,2-3.8,4.6-3.8,7.9c0,2.6,0.7,4.7,2.2,6.2c1.5,1.5,3.3,2.6,5.5,3.3c2.2,0.7,5.1,1.4,8.6,2
	c3.9,0.8,7,1.5,9.3,2.3s4.3,2,5.9,3.7c1.6,1.7,2.4,4,2.4,7c0,3.9-1.6,7-4.7,9.4C1069,286.2,1064.5,287.4,1058.5,287.4z
	 M1131.6,262.2h-44.2c0,4.5,1,8.5,3,12.1c2,3.5,4.7,6.3,8.2,8.3c3.5,2,7.5,3,11.8,3c3.4,0,6.6-0.6,9.5-1.9c3-1.3,5.5-3.3,7.4-5.8
	l1.3,1.3c-2.2,2.6-4.9,4.6-8.1,6c-3.2,1.4-6.6,2.1-10.2,2.1c-4.7,0-9-1.1-12.8-3.2c-3.7-2.2-6.7-5.2-8.8-9c-2.1-3.8-3.2-8.2-3.2-13
	c0-4.8,1-9.1,3-12.9c2-3.8,4.7-6.8,8.2-8.9c3.5-2.2,7.5-3.3,11.8-3.3c4.3,0,8.2,1.1,11.7,3.2s6.3,5,8.3,8.7
	c2.1,3.7,3.1,7.9,3.1,12.7V262.2z M1108.6,239c-3.8,0-7.3,0.9-10.5,2.8s-5.7,4.4-7.6,7.7c-1.9,3.3-2.9,6.9-3.1,10.9h42.3
	c-0.2-4-1.3-7.7-3.2-10.9c-1.9-3.3-4.4-5.8-7.6-7.7C1115.9,239.9,1112.4,239,1108.6,239z M1226.3,219.9v67.2h-1.9v-33.2h-49v33.2
	h-1.9v-67.2h1.9v32.2h49v-32.2H1226.3z M1266,237.2c5.8,0,10.2,1.5,13.2,4.5c3.1,2.9,4.6,7.2,4.6,12.9v32.5h-1.9v-10.6
	c-1.6,3.4-4,6-7.3,8c-3.2,1.9-7.1,2.9-11.6,2.9c-5.5,0-9.8-1.2-13-3.7c-3.1-2.6-4.6-6-4.6-10.2c0-4,1.4-7.2,4.1-9.6
	c2.8-2.5,7.3-3.7,13.5-3.7h18.8v-5.5c0-5.2-1.3-9.1-4-11.7c-2.6-2.6-6.5-3.9-11.7-3.9c-3.6,0-6.9,0.6-10.1,1.9c-3.1,1.2-5.7,2.9-8,5
	l-1.3-1.3c2.4-2.3,5.2-4.1,8.6-5.4C1258.8,237.8,1262.3,237.2,1266,237.2z M1263,285.6c9.2,0,15.5-4.2,18.9-12.7v-10.9H1263
	c-5.4,0-9.3,1-11.9,3.1c-2.5,2-3.8,4.8-3.8,8.4c0,3.8,1.4,6.8,4.1,8.9S1258,285.6,1263,285.6z M1327.8,283.8c-1.1,1.2-2.5,2-4.3,2.7
	c-1.7,0.6-3.5,0.9-5.4,0.9c-3.8,0-6.8-1.1-8.9-3.3c-2.1-2.2-3.1-5.2-3.1-8.9v-35.9h-9.6v-1.8h9.6v-10.8h1.9v10.8h16.8v1.8H1308v35.4
	c0,3.5,0.9,6.2,2.6,8.1c1.7,1.9,4.3,2.8,7.6,2.8c3.3,0,6.1-1,8.3-3.1L1327.8,283.8z"/>
<path d="M161.2,232.6v6.5c0,1.5,0.8,2.6,2.3,2.9c0.9,0.3,3.9,0.9,8.8,1.9v88.1l-8.8,1.7c-1.5,0.3-2.3,1.4-2.3,2.9v6.5h79.3v-25.6
	h-7.4c-1.9,0-3.1,0.6-3.4,2.5c0,0.5-0.3,4.3-0.9,11.1h-41.3v-37.8h40.7v-11.7h-40.7v-36.7h41.3c0.6,7.4,1.1,11.4,1.1,11.9
	c0.3,1.9,1.4,2.6,3.2,2.6h7.4v-26.7H161.2z M290.4,339.7c-0.1,0-0.9,0-2.5-0.1l-13.7-19.4l13-17.9c1.8-0.1,2.8-0.1,2.8-0.1
	c1.2-0.1,1.8-0.6,1.8-1.6v-1.7h-2h-3.9h-0.4h-6.8v1.7c0,1,0.6,1.5,1.8,1.6c0.1,0,0.9,0,2.3,0.1l-10.3,14.7c-0.4,0.5-0.7,1.1-0.8,1.6
	l-11.2-16.3c1.2-0.1,2-0.1,2.1-0.1c1.2-0.1,1.8-0.6,1.8-1.6v-1.7h-6.8h-0.3h-0.1h-4h-2v1.7c0,1,0.6,1.5,1.8,1.6c0,0,1,0,2.8,0.1
	l12.9,18.1l-13.6,19.2c-1.6,0.1-2.3,0.1-2.4,0.1c-1.2,0.1-1.8,0.6-1.8,1.6v1.8h4.1h2.3h6.8v-1.8c0-1-0.6-1.5-1.8-1.6
	c-0.1,0-1,0-2.7-0.1l11.2-15.7c0.3-0.4,0.4-0.8,0.6-1.4l11.9,17.1c-1.5,0.1-2.4,0.1-2.5,0.1c-1.2,0.1-1.7,0.6-1.7,1.6v1.8h6.7h2.4h4
	v-1.8C292.1,340.3,291.5,339.8,290.4,339.7z M337.3,303.8c-3-3.7-7.3-5.7-12.7-5.7c-3.3,0-6.1,0.8-8.8,2.4c-2.6,1.6-4.9,3.6-6.8,6.3
	l-0.4-6.8c0-0.4-0.1-0.7-0.4-0.9c-0.3-0.2-0.6-0.2-1-0.2h-2.3h-6.4v1.7c0,1,0.6,1.5,1.8,1.6h0.4c0.2,0,0.4,0.1,0.7,0.1h1.3
	c0.6,0,1.3,0.1,2.1,0.1v52.8c-1,0-1.9,0.2-2.6,0.2h-1.5h-0.5c-1.2,0.1-1.8,0.6-1.8,1.6v1.8h6.4h4.3h6.4v-1.8c0-1-0.6-1.5-1.8-1.6
	h-0.4h-0.7c-0.3,0-0.7-0.1-1.3-0.1c-0.6,0-1.3-0.1-2.1-0.1v-18c1.6,2.1,3.5,3.8,5.7,4.9c2.2,1.1,4.8,1.6,7.8,1.6
	c3.1,0,5.8-0.6,8.2-1.8s4.4-2.8,6-4.8c1.6-2,2.9-4.5,3.7-7.3c0.9-2.8,1.2-5.9,1.2-9.1C341.9,313.1,340.4,307.5,337.3,303.8z
	 M336.5,328.7c-0.6,2.4-1.7,4.4-3,6.2c-1.3,1.8-2.9,3-4.9,4c-2,1-4.3,1.4-6.8,1.4c-2.7,0-5-0.5-7-1.6s-3.9-2.8-5.6-5.3v-23.2
	c1.9-2.8,3.9-4.9,6.3-6.4s5.1-2.2,8-2.2c4.5,0,8,1.5,10.4,4.6c2.4,3.1,3.6,7.9,3.6,14.5C337.5,323.6,337.2,326.3,336.5,328.7z
	 M365,339.7h-0.4h-0.7c-0.3,0-0.7-0.1-1.3-0.1c-0.6,0-1.3-0.1-2.1-0.1v-61.1h-4.3h-6.4v1.8c0,1,0.6,1.5,1.8,1.6h0.4
	c0.2,0,0.4,0.1,0.7,0.1h1.3c0.6,0,1.3,0.1,2.1,0.1v57.6c-1,0-1.9,0.2-2.6,0.2H352h-0.5c-1.2,0.1-1.8,0.6-1.8,1.6v1.8h6.4h4.3h6.4
	v-1.8C366.7,340.3,366.1,339.8,365,339.7z M393.8,298.1c-3.2,0-6,0.6-8.5,1.7c-2.5,1.1-4.6,2.6-6.4,4.5c-1.8,2-3,4.4-3.9,7.2
	s-1.4,6-1.4,9.4c0,3.5,0.5,6.6,1.4,9.3s2.1,5.2,3.9,7.2c1.8,2,3.9,3.5,6.4,4.5c2.5,1.1,5.3,1.6,8.5,1.6c3.2,0,6-0.5,8.4-1.6
	c2.5-1.1,4.6-2.6,6.3-4.5c1.7-2,3.1-4.4,4-7.2s1.3-5.9,1.3-9.3c0-3.5-0.4-6.6-1.3-9.4s-2.3-5.2-4-7.2c-1.7-2-3.8-3.5-6.3-4.5
	C399.7,298.7,397,298.1,393.8,298.1z M393.8,340.3c-2.7,0-5-0.4-6.9-1.3c-2-0.9-3.6-2.2-5-3.9c-1.3-1.7-2.2-3.7-2.9-6.1
	c-0.7-2.4-1-5.1-1-8s0.3-5.6,1-8c0.7-2.4,1.6-4.4,2.9-6.1s3-3.1,5-4c2-0.9,4.3-1.3,6.9-1.3s4.9,0.4,6.8,1.3c2,0.9,3.6,2.3,5,4
	c1.3,1.7,2.3,3.7,2.9,6.1c0.6,2.4,1,5.1,1,8s-0.4,5.6-1,8c-0.6,2.4-1.6,4.4-2.9,6.1c-1.3,1.7-3,3-5,3.9
	C398.7,339.8,396.4,340.3,393.8,340.3z M450.4,298.5c-1.2-0.3-2.3-0.4-3.6-0.4c-3.5,0-6.4,1-8.8,3c-2.4,2-4.3,4.9-5.7,8.4l-0.4-9.3
	c0-0.5-0.2-0.9-0.4-1.1c-0.2-0.2-0.5-0.3-1.1-0.3h-2.2h-6.4v1.7c0,1.2,0.6,1.5,1.7,1.6c0.5,0,1.1,0,4.7,0.2v37.1
	c-3.6,0.2-4.2,0.2-4.7,0.2c-1.1,0.1-1.7,0.4-1.7,1.6v1.8h6.4h4.2h6.4v-1.8c0-1.2-0.6-1.5-1.7-1.6c-0.5,0-1.1,0-4.7-0.2v-25.1
	c1.3-3.9,3.1-6.9,5.2-9c2.1-2,4.9-3.1,8.3-3.1c0.9,0,1.7,0.1,2.4,0.2c0.7,0.1,1.4,0.2,1.9,0.4c0.5,0.2,0.8,0.4,1.2,0.4
	c0.4,0.1,0.6,0.2,0.8,0.2c0.5,0,0.8-0.3,0.9-0.7l0.5-2.9C452.6,299.2,451.5,298.8,450.4,298.5z M478.6,298.1c-3.1,0-6,0.6-8.4,1.7
	c-2.5,1.1-4.5,2.6-6.2,4.5c-1.7,2-3,4.3-3.9,6.9s-1.4,5.6-1.4,8.8c0,3.7,0.5,7.1,1.5,10c1,2.9,2.3,5.3,4.1,7.4
	c1.8,2,3.9,3.6,6.4,4.6c2.5,1.1,5.2,1.5,8.3,1.5c1.7,0,3.4-0.1,5-0.4s3.2-0.8,4.6-1.3c1.4-0.5,2.8-1.2,3.9-2
	c1.2-0.8,2.1-1.6,2.8-2.5l-1.2-1.4c-0.2-0.3-0.5-0.4-0.9-0.4c-0.3,0-0.8,0.2-1.4,0.7c-0.6,0.5-1.5,1.1-2.7,1.7
	c-1.1,0.6-2.5,1.1-4.1,1.6c-1.6,0.5-3.6,0.8-5.8,0.8c-2.5,0-4.7-0.4-6.8-1.3c-2-0.9-3.7-2.1-5.2-3.8s-2.5-3.8-3.3-6.3
	c-0.8-2.5-1.2-5.5-1.2-8.8v-0.8h31.9c0.4,0,0.7-0.1,0.9-0.4s0.4-0.7,0.4-1.3c0-3.1-0.4-5.9-1.3-8.3c-0.9-2.4-2-4.5-3.6-6.1
	c-1.5-1.6-3.4-2.8-5.5-3.7C483.4,298.5,481.1,298.1,478.6,298.1z M478.7,301.3c2,0,3.8,0.4,5.5,1.1c1.7,0.7,3.1,1.7,4.3,3
	c1.2,1.3,2.1,2.8,2.8,4.7c0.6,1.9,1,4,1,6.4h-29.1c0.3-2.3,0.8-4.4,1.6-6.3c0.8-1.9,1.9-3.5,3.2-4.8c1.3-1.3,2.9-2.3,4.7-3
	S476.4,301.3,478.7,301.3z M212,387h-0.4H208h-0.7h-8.9v1.7c0,1,0.6,1.5,1.8,1.6h0.7c0.4,0,0.8,0.1,1.5,0.1s1.5,0.1,2.4,0.1
	l-16.4,26.5c-0.4,0.7-0.8,1.3-1.1,2c-0.3,0.6-0.5,1.3-0.8,2c-0.3-0.6-0.5-1.3-0.8-2c-0.3-0.6-0.6-1.2-1.1-2l-16.5-26.5
	c0.9,0,1.7-0.1,2.4-0.1c0.7,0,1.2-0.1,1.6-0.1h0.6c1.2-0.1,1.8-0.6,1.8-1.6V387h-8.9h-0.7h-3.6h-0.4h-2.8v1.7c0,1,0.6,1.5,1.8,1.6
	c1.5,0.1,2.7,0.2,3.3,0.2l21.1,33.4v22.4c-1.1,0-2,0.1-2.9,0.1c-0.9,0-1.5,0.1-2,0.1h-0.8c-1.2,0.1-1.8,0.6-1.8,1.6v1.8h7.5h4.5h7.5
	V448c0-1-0.5-1.5-1.7-1.6h-0.9c-0.4,0-1.1-0.1-2-0.1s-1.9-0.1-2.9-0.1v-22.4l21.1-33.4c0.7,0,1.8-0.1,3.3-0.2
	c1.2-0.1,1.8-0.6,1.8-1.6V387H212z M240.6,404.8c-3.2,0-6,0.6-8.5,1.7c-2.5,1.1-4.6,2.6-6.4,4.5c-1.8,2-3,4.4-3.9,7.2
	c-0.9,2.8-1.4,6-1.4,9.4c0,3.5,0.5,6.6,1.4,9.3c0.9,2.8,2.1,5.2,3.9,7.2c1.8,2,3.9,3.5,6.4,4.5c2.5,1.1,5.3,1.6,8.5,1.6
	s6-0.5,8.4-1.6c2.5-1.1,4.6-2.6,6.3-4.5c1.7-2,3.1-4.4,4-7.2c0.9-2.8,1.3-5.9,1.3-9.3c0-3.5-0.4-6.6-1.3-9.4s-2.3-5.2-4-7.2
	c-1.7-2-3.8-3.5-6.3-4.5C246.5,405.5,243.8,404.8,240.6,404.8z M240.6,447c-2.7,0-5-0.4-6.9-1.3s-3.6-2.2-5-3.9
	c-1.3-1.7-2.2-3.7-2.9-6.1s-1-5.1-1-8c0-2.9,0.3-5.6,1-8s1.6-4.4,2.9-6.1c1.3-1.7,3-3.1,5-4c2-0.9,4.3-1.3,6.9-1.3s4.9,0.4,6.8,1.3
	c2,0.9,3.6,2.3,5,4s2.3,3.7,2.9,6.1s1,5.1,1,8c0,2.9-0.4,5.6-1,8s-1.6,4.4-2.9,6.1s-3,3-5,3.9C245.5,446.6,243.2,447,240.6,447z
	 M311.7,446.4h-0.4h-0.7c-0.3,0-0.7-0.1-1.3-0.1c-0.6,0-1.3-0.1-2.1-0.1v-40.7l-4.3,0.1h-6.4v1.7c0,1,0.6,1.5,1.8,1.6h0.4
	c0.2,0,0.4,0.1,0.7,0.1h1.3c0.6,0,1.3,0.1,2.1,0.1v29.7c-2,2.6-4.3,4.6-6.8,6.1c-2.5,1.4-5.2,2.2-8,2.2c-3.9,0-6.8-1.2-8.7-3.6
	c-1.9-2.4-2.8-5.6-2.8-9.8v-28.3l-4.3,0.1h-6.4v1.7c0,1,0.6,1.5,1.8,1.6h0.4c0.2,0,0.4,0.1,0.7,0.1h1.3c0.6,0,1.3,0.1,2.1,0.1v24.7
	c0,2.6,0.4,4.9,1,6.9c0.6,2,1.5,3.8,2.8,5.2c1.2,1.4,2.7,2.6,4.5,3.4c1.9,0.8,4,1.2,6.5,1.2c3.3,0,6.3-0.8,9-2.3
	c2.7-1.5,5.1-3.6,7.1-6.1l0.4,6.6c0,0.8,0.5,1.2,1.3,1.2h2.3h6.4V448C313.5,447,312.8,446.5,311.7,446.4z M350.3,405.3
	c-1.2-0.3-2.3-0.4-3.6-0.4c-3.5,0-6.4,1-8.8,3s-4.3,4.9-5.7,8.4l-0.4-9.3c0-0.5-0.2-0.9-0.4-1.1s-0.5-0.3-1.1-0.3h-2.2h-6.4v1.7
	c0,1.2,0.6,1.5,1.7,1.6c0.5,0,1.1,0,4.7,0.2v37.1c-3.6,0.2-4.2,0.2-4.7,0.2c-1.1,0.1-1.7,0.4-1.7,1.6v1.8h6.4h4.2h6.4V448
	c0-1.2-0.6-1.5-1.7-1.6c-0.5,0-1.1,0-4.7-0.2v-25.1c1.3-3.9,3.1-6.9,5.2-9c2.1-2,4.9-3.1,8.3-3.1c0.9,0,1.7,0.1,2.4,0.2
	c0.7,0.1,1.4,0.2,1.9,0.4c0.5,0.2,0.8,0.4,1.2,0.4c0.4,0.1,0.6,0.2,0.8,0.2c0.5,0,0.8-0.3,0.9-0.7l0.5-2.9
	C352.5,406,351.5,405.5,350.3,405.3z M421.3,391.8c-3.7-3.2-9.3-4.8-16.7-4.8h-15.3h-7.6v1.7c0,1,0.6,1.5,1.8,1.6h0.9
	c0.4,0,1.1,0.1,2,0.1s1.9,0.1,2.9,0.1v55.8c-1.1,0-2,0.1-2.9,0.1s-1.5,0.1-2,0.1h-0.9c-1.2,0.1-1.8,0.6-1.8,1.6v1.8h7.6h4.5h7.5V448
	c0-1-0.6-1.5-1.8-1.6h-0.8c-0.4,0-1.2-0.1-2-0.1s-1.8-0.1-2.8-0.1v-21.8h10.8c3.5,0,6.6-0.5,9.3-1.4c2.8-1,5.1-2.2,7-3.9
	c2-1.7,3.5-3.6,4.4-6c1.1-2.3,1.5-4.8,1.5-7.6C426.9,399.7,425,395,421.3,391.8z M421.1,411.7c-0.8,1.9-2,3.5-3.5,4.8
	c-1.5,1.3-3.4,2.4-5.6,3.2c-2.2,0.8-4.7,1.2-7.5,1.2h-10.8v-30.3h10.8c5.9,0,10.3,1.3,13.3,3.9c2.9,2.6,4.4,6.3,4.4,11.1
	C422.3,407.8,421.9,409.8,421.1,411.7z M440.2,393.1c0.4,0.4,0.8,0.6,1.2,0.8c0.4,0.2,1,0.4,1.5,0.4c0.5,0,1.1-0.2,1.5-0.4
	c0.4-0.2,0.9-0.4,1.2-0.8s0.7-0.8,0.9-1.2c0.2-0.4,0.4-1,0.4-1.5c0-0.5-0.2-1-0.4-1.5c-0.2-0.4-0.5-0.9-0.9-1.2s-0.8-0.7-1.2-0.9
	c-0.4-0.2-1-0.3-1.5-0.3c-0.5,0-1.1,0.1-1.5,0.3s-0.9,0.5-1.2,0.9c-0.4,0.4-0.6,0.8-0.8,1.2c-0.2,0.4-0.4,1-0.4,1.5
	c0,0.5,0.2,1.1,0.4,1.5C439.6,392.3,439.8,392.7,440.2,393.1z M449.7,446.4h-0.4h-0.7c-0.3,0-0.7-0.1-1.3-0.1
	c-0.6,0-1.3-0.1-2.1-0.1v-40.7h-4.3h-6.4v1.8c0,1,0.6,1.5,1.8,1.6h0.4c0.2,0,0.4,0.1,0.7,0.1h1.3c0.6,0,1.3,0.1,2.1,0.1v37.1
	c-1,0-1.9,0.2-2.6,0.2h-1.5h-0.5c-1.2,0.1-1.8,0.6-1.8,1.6v1.8h6.4h4.3h6.4V448C451.5,447,450.8,446.5,449.7,446.4z"/>
</svg>
