<?xml version="1.0" encoding="utf-8"?>
<!-- Generator: Adobe Illustrator 25.2.1, SVG Export Plug-In . SVG Version: 6.00 Build 0)  -->
<svg version="1.1" id="Layer_1" xmlns="http://www.w3.org/2000/svg" xmlns:xlink="http://www.w3.org/1999/xlink" x="0px" y="0px"
	 viewBox="0 0 1436.1 683.1" style="enable-background:new 0 0 1436.1 683.1;" xml:space="preserve">
<style type="text/css">
	.st0{clip-path:url(#SVGID_2_);}
	.st1{fill:#75A928;}
	.st2{fill:#BC1142;}
	.st3{clip-path:url(#SVGID_4_);}
	.st4{clip-path:url(#SVGID_6_);}
	.st5{clip-path:url(#SVGID_8_);}
	.st6{fill:#FFFFFF;}
</style>
<g>
	<defs>
		
			<rect id="SVGID_1_" x="1098.8" y="54.4" transform="matrix(0.4246 -0.9054 0.9054 0.4246 560.9423 1236.4497)" width="309" height="245"/>
	</defs>
	<clipPath id="SVGID_2_">
		<use xlink:href="#SVGID_1_"  style="overflow:visible;"/>
	</clipPath>
	<g class="st0">
		<path d="M1269.3,14.5c-1.4-0.6-3.2-0.8-5.6-0.3c-3.4-3.6-7.3-6.1-12.5-4.5c-5.3-3.4-7.8-2.7-10.1-1.6c-1.2-0.6-8.7-5.6-14.9-1.9
			c-8.7-5.4-14.7-0.3-14.3,7.4c-3.3,2-6.6,4-4.8,11.6c-3,2.4-3.6,6.2-1.9,12c-3,3.9-2.6,7.9-0.2,11.9c-3.4,5.7,1,12,2.3,14.1
			c-0.9,3.8-1,7.8,5.1,12.9c-1.3,5.7,2.5,8.6,6.1,11.6c-17.1,1.5-33.5,6.4-45.2,31.6l-3.6,2.6c-19.8,2.1-47.8,25.7-37.6,60.4
			c-2.2,8.3-2.4,14.9-3.1,22c-8.3,26,6.9,47.2,11.8,51.1c5.1,9.8,10.9,19.6,20.6,29c5.6,16.3,15.4,26,27.2,31.6
			c0.2,0.1,0.3,0.2,0.5,0.2c11.8,5.6,25.6,6.8,41.7,0.7c13.4,1.4,24.6-0.4,35.4-2.7c6.1,1.2,32.1-0.6,46.8-23.6
			c5-5.1,9.9-9.5,14.9-16.5c33.2-14.3,33.4-50.9,22.4-67.5l-0.3-4.4c11.9-25.2,5.2-40.8-4.6-55c4.6,0.8,9.2,1.9,12.8-2.7
			c7.8,1.5,10.8-1.1,13.2-4.3c2.4-0.4,10.2-1,12.3-7.2c4.5-0.8,7.9-3,9-7.8c5.6-2.3,8.1-5.3,8-9.1c7-3.5,6.4-7.3,5.9-11.1
			c6.2-4.5,6.3-12.4-3.5-15.7c-1.1-7.2-9.7-9.7-11-10.3c-0.6-2.4-1.7-4.8-7.7-6.7c-2.1-5-6.5-6.4-11.4-6.7c-3.2-6.3-8-4.7-12.3-5.3
			c-5.1-4.8-7.8-2.8-11.3-3.1c-5.9-4.5-9.4-2.4-14-0.7l-3.7-1.8c-12.7,1.2-23.3,10.8-27.9,16.1c1.1-7,1.8-21.2-5.4-31.8l-3.7-1.7
			c-1.7-4.7-2.3-8.7-9.5-10.4c-2.5-2.5-2.6-5.9-9.6-6.7C1273.5,18.4,1272,15.7,1269.3,14.5z"/>
		<path class="st1" d="M1237.3,31c20.1,26,30.3,44.2,34.3,57.6c-12.4,15.2-35.3,5.5-43.3,1.1c2.1,0,3.9-0.3,5.1-1.5
			c-1.4-2.4-9.3-4.6-13.1-9.8c2.2,0.5,3.3,0.5,4.8-0.5c-4.1-3.8-8.7-7.6-10.5-11.5c1.6,0.8,3,1.9,5.9,1.4c-3.2-4.4-7-8.4-8.9-13.6
			c2.3,1,4.7,2.2,5.7,1.7c-2.8-4.3-4.9-8.6-6.2-12.9c2.9,1.8,4.4,2.1,5.4,2c-1.6-4.5-4.1-8.8-4.2-13.4c1.9,1.9,3.9,3.2,6,2.7
			c0.1-2.8-3.7-6.2-3.7-12.7c2.3,1.4,4.8,2.9,5.6,2.6c1-5.2,0.3-8.7-0.3-12.2c5.3,2.4,13.2,6.2,13,5.6l-1.7-4.8
			c5.8,1,10.2,5.1,13.5,8c2.3-0.5,1.4-3.1,0.1-5.8c4.1,2.6,7.5,5.5,10.4,8.5c2.7-0.8,0.4-4-0.3-6.4c6.1,4.4,8.1,7.5,10.1,10.7
			c3-1,1.8-3.6,1.2-5.9c4.2,4.2,5.7,7.9,7.3,11.6c1.5-0.8,3.4-1.1,3.1-4.9c2.6,3.8,4.2,7.5,4.9,11.1c2.9-0.4,2.9-2.7,3.7-4.5
			c2.3,4.8,3.2,9.1,4.6,13.6c0.8-0.2,2-1.4,3.5-3.4c4.9,12.8,7.3,40.5-15.1,40.5C1268.8,65.7,1254.6,47.7,1237.3,31z"/>
		<path class="st1" d="M1377.6,96.8c-32.8,1.2-53.4,5-66.2,10.4c-3.8,19.3,18.3,30.6,26.8,34c-1.3-1.6-2.3-3.2-2.1-4.8
			c2.8-0.5,9.5,4.2,15.9,3.8c-1.8-1.3-2.5-2.2-2.7-4c5.6,0.7,11.4,1.8,15.6,0.7c-1.7-0.8-3.4-1.1-4.8-3.6c5.4-0.3,10.9,0,16.2-1.9
			c-2.2-1.1-4.6-2.2-5-3.4c5.1-0.6,9.7-1.7,13.9-3.4c-3.3-1.1-4.5-2-5-2.9c4.4-1.7,9.4-2.5,13-5.4c-2.7-0.3-5-1-5.9-2.9
			c2.1-1.8,7.1-1.1,12.1-5.3c-2.6-0.9-5.3-1.8-5.6-2.6c3.3-4.1,6.5-5.8,9.6-7.6c-5.2-2.5-13.2-6.2-12.6-6.4l4.8-1.8
			c-4.5-3.8-10.4-4.6-14.8-5.2c-1.1-2.1,1.5-3,4.3-3.8c-4.6-1.5-9-2.3-13.2-2.6c-1.1-2.6,2.8-2.8,5.2-3.8c-7.3-1.9-11-1.4-14.7-1
			c-1.1-2.9,1.6-3.7,3.8-4.7c-5.9-0.5-9.7,0.7-13.5,1.8c-0.3-1.7-1.3-3.3,1.8-5.5c-4.6,0.4-8.4,1.6-11.7,3.3c-1.6-2.5,0.3-4,1.1-5.8
			c-5.2,1.3-9,3.4-13.4,5.2c-0.4-0.7-0.2-2.4,0.4-4.9c-12.9,4.5-35.7,20.3-21.5,37.5C1330.9,94.8,1353.8,94.2,1377.6,96.8
			L1377.6,96.8z"/>
		<path class="st2" d="M1257.1,254.7c-3.6,7.7-10.4,13.6-18.9,16.3c-8.5,2.7-18,2-26.4-2s-15-10.8-18.4-19c-3.4-8.3-3.2-17.2,0.4-25
			c3.6-7.7,10.4-13.6,18.9-16.3c8.5-2.7,18-2,26.4,2c8.4,3.9,15,10.8,18.4,19C1260.9,238,1260.7,247,1257.1,254.7L1257.1,254.7z"/>
		<path class="st2" d="M1246.2,148c4.4,7.1,5.2,15.9,2.4,24.5c-2.8,8.6-9.1,16.3-17.5,21.4c-8.4,5.1-18.1,7.2-27.2,5.8
			c-9-1.4-16.5-6.2-20.9-13.2s-5.2-15.9-2.4-24.5s9.1-16.3,17.5-21.4c8.4-5.1,18.1-7.2,27.2-5.8
			C1234.3,136.1,1241.8,140.9,1246.2,148L1246.2,148z"/>
		<path class="st2" d="M1282.3,163c-8.2,1.2-15.6,6.1-20.4,13.8c-4.8,7.7-6.7,17.5-5.3,27.2c1.4,9.7,6.1,18.5,12.9,24.6
			c6.8,6,15.3,8.8,23.5,7.6c8.2-1.2,15.6-6.1,20.4-13.8c4.8-7.7,6.7-17.5,5.3-27.2c-1.4-9.7-6.1-18.5-12.9-24.6
			C1299,164.6,1290.5,161.8,1282.3,163L1282.3,163z"/>
		<path class="st2" d="M1174,131.2c15.9,2.9-22.7,60.8-31.8,50.3C1134.3,165.3,1144.2,133.6,1174,131.2z"/>
		<path class="st2" d="M1338.1,207.2c-12.4-10.4-32.2,56.3-18.3,56.6C1337.2,259.6,1355.3,231.7,1338.1,207.2z"/>
		<path class="st2" d="M1311.7,138.3c26.4,7.3,39.9,31.4,26.7,57.5C1332.8,205.5,1302,135.5,1311.7,138.3L1311.7,138.3z"/>
		<path class="st2" d="M1244.5,105.8c-22.5-15.6-49.7-10.6-61.3,16.2C1179.3,132.6,1252.8,111.5,1244.5,105.8z"/>
		<path class="st2" d="M1282.5,116.1c-14.4-7.2-33.7-2.6-36.8,3.9c-3.8,7.9,4,21.4,21.1,29.6c17.5,8.4,31.8,7,35.7-1.1
			C1307,139.3,1295.6,122,1282.5,116.1L1282.5,116.1z"/>
		<path class="st2" d="M1207.6,278.3c13,5.4,27.9,18.1,25,24.2c-2.6,6.1-24.6,12.2-39.7,4.9c-16.1-6.7-25.1-27.5-22.7-32.1
			C1173.1,268.3,1195.1,272,1207.6,278.3z"/>
		<path class="st2" d="M1177.7,219.7c4,15.1-0.9,36.2-11.1,38.3c-9.2,1-25.7-9-29.8-32.5c-1.4-18.8,6.8-33.4,14.7-35.1
			C1162.8,189.3,1172.9,202.8,1177.7,219.7z"/>
		<path class="st2" d="M1271.5,259.5c-15.2,6.9-30.4,25.2-26.4,35.3c4.4,8.4,23.1,16.3,45.4,3.9c15.8-8,22.3-30.6,19.3-38.8
			C1304.5,249.5,1288.6,252.1,1271.5,259.5L1271.5,259.5z"/>
	</g>
</g>
<g>
	<defs>
		
			<rect id="SVGID_3_" x="1193.5" y="333.6" transform="matrix(0.8997 -0.4365 0.4365 0.8997 -90.7061 635.3866)" width="287.8" height="363"/>
	</defs>
	<clipPath id="SVGID_4_">
		<use xlink:href="#SVGID_3_"  style="overflow:visible;"/>
	</clipPath>
	<g class="st3">
		<path d="M1201.1,380.5c-1.6,0.8-3.1,2.3-4.3,4.9c-5.8,0.5-10.9,2.1-13.3,8.1c-7,2.3-8.3,5.1-8.9,8c-1.5,0.7-11.5,3.8-12.7,12.3
			c-11.4,4-11.1,13.2-3.8,18.5c-0.6,4.5-1.2,9,7.1,13c-0.1,4.5,3,7.9,9.6,10.6c1.3,5.6,5.3,8.2,10.7,9c2.6,7.3,11.8,7.9,14.6,8.3
			c2.8,3.7,6.3,6.7,15.5,4.8c4.3,5.4,9.7,4.1,15.1,3c-11.3,16.7-18.9,35.3-4.6,64.6l-0.3,5.2c-12.7,19.7-11.8,62.7,27.3,78.9
			c6,8.1,11.9,13.2,17.8,19.1c17.6,26.8,48.2,28.6,55.3,27.1c12.8,2.6,25.9,4.5,41.7,2.7c19,6.9,35.1,5.2,48.9-1.5
			c0.2-0.1,0.4-0.2,0.6-0.3c13.8-6.7,25.1-18.3,31.4-37.5c11.1-11.2,17.8-22.8,23.7-34.4c5.6-4.7,23.2-29.8,13-60.2
			c-1-8.3-1.3-16.1-4-25.8c11.5-40.8-21.8-68.1-45.1-70.3l-4.3-3c-14.2-29.5-33.5-34.9-53.6-36.4c4.1-3.6,8.5-7,6.9-13.7
			c7.1-6.1,7-10.7,5.8-15.2c1.4-2.5,6.6-10,2.5-16.6c2.6-4.7,3.1-9.4-0.5-14c2-6.8,1.2-11.3-2.4-14.1c2-9-1.9-11.3-5.8-13.6
			c0.4-9-6.7-14.9-16.9-8.4c-7.4-4.3-16.1,1.7-17.5,2.4c-2.6-1.3-5.6-2-11.8,2.1c-6.1-1.8-10.6,1.2-14.6,5.5
			c-8.1-1.8-10.1,3.8-13.9,7.3c-8.2,1.1-8.3,5.1-11.1,8c-8.5,2.1-9.1,6.8-11,12.3l-4.3,2c-8.3,12.5-7.3,29.2-5.9,37.4
			c-5.5-6.2-18.1-17.3-33-18.5l-4.3,2.2c-5.5-1.9-9.6-4.4-16.5,1c-4.1,0.4-7.3-2-13.2,3.8C1207.7,379.5,1204.2,378.8,1201.1,380.5z"
			/>
		<path class="st1" d="M1192.5,421.8c38.6,0.9,62.8,5.1,77.9,11.2c4.7,22.6-21.1,36.2-31,40.3c1.5-1.9,2.6-3.8,2.4-5.7
			c-3.2-0.5-11,5.1-18.6,4.7c2.1-1.6,2.9-2.6,3.2-4.8c-6.5,0.9-13.3,2.3-18.3,1.1c1.9-0.9,3.9-1.4,5.6-4.3c-6.4-0.3-12.8,0.2-19-1.9
			c2.6-1.3,5.4-2.7,5.8-4c-6-0.6-11.5-1.9-16.4-3.8c3.9-1.3,5.2-2.5,5.8-3.5c-5.2-1.9-11.1-2.7-15.3-6.1c3.2-0.4,5.8-1.2,6.9-3.5
			c-2.5-2.1-8.3-1.2-14.3-6c3-1.1,6.2-2.2,6.5-3.1c-3.9-4.7-7.7-6.7-11.4-8.7c6.1-3.1,15.4-7.4,14.7-7.7l-5.6-2
			c5.2-4.5,12.2-5.6,17.3-6.4c1.2-2.5-1.8-3.5-5.2-4.4c5.4-1.8,10.5-2.8,15.5-3.2c1.2-3.1-3.4-3.3-6.1-4.4
			c8.6-2.3,12.9-1.8,17.2-1.4c1.3-3.5-1.9-4.3-4.5-5.5c7-0.7,11.4,0.7,15.9,1.9c0.4-2,1.5-3.9-2.2-6.4c5.4,0.4,9.9,1.7,13.8,3.7
			c1.8-2.9-0.3-4.7-1.3-6.7c6.1,1.4,10.7,3.9,15.8,5.9c0.4-0.8,0.2-2.8-0.5-5.7c15.3,5,42.3,23.3,25.9,43.7
			C1247.4,418.7,1220.5,418.3,1192.5,421.8z"/>
		<path class="st1" d="M1356.3,342.4c-23.2,30.9-34.9,52.4-39.4,68.1c14.8,17.7,41.5,5.9,50.8,0.7c-2.4,0-4.6-0.3-6-1.7
			c1.6-2.9,10.9-5.5,15.2-11.7c-2.5,0.6-3.8,0.7-5.7-0.5c4.8-4.5,10.1-9,12.2-13.7c-1.9,1-3.5,2.2-6.9,1.7
			c3.7-5.2,8.1-9.9,10.2-16.1c-2.6,1.2-5.4,2.6-6.7,2c3.2-5.1,5.6-10.2,7.1-15.2c-3.4,2.2-5.2,2.6-6.3,2.4
			c1.8-5.3,4.7-10.4,4.7-15.8c-2.3,2.2-4.6,3.8-7,3.3c-0.1-3.2,4.2-7.3,4.1-15c-2.7,1.7-5.6,3.5-6.5,3.1c-1.3-6-0.5-10.2,0.2-14.4
			c-6.2,2.9-15.3,7.5-15.2,6.8l1.9-5.7c-6.8,1.3-12,6.1-15.7,9.6c-2.8-0.6-1.7-3.6-0.2-6.8c-4.7,3.1-8.8,6.5-12.1,10.1
			c-3.2-0.9-0.5-4.7,0.3-7.5c-7.1,5.3-9.4,9-11.7,12.7c-3.5-1.1-2.2-4.2-1.5-6.9c-4.8,5.1-6.5,9.3-8.4,13.7c-1.8-0.9-4-1.2-3.7-5.7
			c-3,4.4-4.8,8.8-5.6,13.1c-3.4-0.4-3.4-3.2-4.5-5.2c-2.6,5.7-3.6,10.8-5.2,16.1c-0.9-0.2-2.3-1.6-4.2-4
			c-5.5,15.1-7.9,47.6,18.3,47.3C1319.8,383.5,1336.2,362.2,1356.3,342.4L1356.3,342.4z"/>
		<path class="st2" d="M1411.3,569.1c4.4,9,4.7,19.6,0.8,29.3c-3.8,9.7-11.5,17.9-21.3,22.7c-9.8,4.8-20.9,5.7-31,2.7
			c-10-3-18.1-9.8-22.5-18.8c-4.4-9-4.7-19.6-0.8-29.3c3.8-9.7,11.5-17.9,21.3-22.7c9.8-4.8,21-5.7,31-2.7
			C1398.8,553.3,1406.9,560.1,1411.3,569.1L1411.3,569.1z"/>
		<path class="st2" d="M1305.8,500.2c9.7,1.2,18.4,7,24.2,15.9c5.8,9,8.2,20.4,6.6,31.8c-1.5,11.4-6.8,21.9-14.8,29.1
			c-7.9,7.2-17.8,10.5-27.5,9.3c-9.7-1.2-18.4-7-24.2-15.9c-5.8-9-8.2-20.4-6.6-31.8c1.5-11.4,6.8-21.9,14.8-29.1
			C1286.2,502.3,1296.1,498.9,1305.8,500.2L1305.8,500.2z"/>
		<path class="st2" d="M1346.2,478.3c-5,8.4-5.9,18.8-2.4,28.8c3.5,10.1,11,19,20.9,24.9c9.9,5.9,21.4,8.2,32,6.4
			c10.6-1.8,19.3-7.5,24.3-15.9c5-8.4,5.9-18.8,2.4-28.8c-3.5-10.1-11-19-20.9-24.9c-9.9-5.9-21.4-8.2-32-6.4
			C1360,464.2,1351.3,469.9,1346.2,478.3L1346.2,478.3z"/>
		<path class="st2" d="M1237.1,553.7c14.4-12.5,38.7,65.6,22.4,66.2C1238.9,615.2,1217.3,582.7,1237.1,553.7z"/>
		<path class="st2" d="M1345.4,433.2c26.2-18.7,58.2-13.2,72.2,18.1C1422.4,463.6,1335.7,440,1345.4,433.2L1345.4,433.2z"/>
		<path class="st2" d="M1266.1,470.5c-30.9,9-46.4,37.5-30.5,67.9C1242.3,549.8,1277.4,467.2,1266.1,470.5z"/>
		<path class="st2" d="M1303.6,443.4c-17.3,7.8-27.3,28.8-23.6,36.4c4.4,9.2,22.5,12.1,42.7,2.6c20.6-9.8,29.9-23.8,25.4-33.4
			C1342.9,438.3,1318.6,435.9,1303.6,443.4L1303.6,443.4z"/>
		<path class="st2" d="M1396.2,631.8c14.5-7.9,37.1-12.1,40.6-4.9c3.6,6.9-7,31.5-24.9,39.8c-18,9.7-43.7,2.6-46.1-3
			C1361.7,655.8,1381.3,638.6,1396.2,631.8z"/>
		<path class="st2" d="M1320.7,615.7c16.8,7.6,32.4,27.6,26.8,38.5c-5.9,9.1-27.2,16.8-51.6,3.2c-18.1-12.6-25.4-30.9-21.1-39.4
			C1281.9,606.8,1301.7,607.6,1320.7,615.7z"/>
		<path class="st2" d="M1426.3,559.5c-4.9,18.9,0.5,46.4,12.7,50.2c10.9,2.2,31.9-9,37.1-38.6c4.3-20.3-11.4-43-21.2-46.4
			C1441.6,522,1432.3,538.4,1426.3,559.5L1426.3,559.5z"/>
	</g>
</g>
<g>
	<defs>
		
			<rect id="SVGID_5_" x="899.4" y="32.8" transform="matrix(0.8997 -0.4365 0.4365 0.8997 28.25 455.377)" width="211.6" height="266.8"/>
	</defs>
	<clipPath id="SVGID_6_">
		<use xlink:href="#SVGID_5_"  style="overflow:visible;"/>
	</clipPath>
	<g class="st4">
		<path d="M904.9,67.2c-1.2,0.6-2.3,1.7-3.2,3.6c-4.3,0.4-8,1.6-9.8,5.9c-5.1,1.7-6.1,3.8-6.6,5.9c-1.1,0.5-8.5,2.8-9.4,9
			c-8.4,2.9-8.2,9.7-2.8,13.6c-0.4,3.3-0.9,6.6,5.2,9.5c0,3.3,2.2,5.8,7,7.8c1,4.1,3.9,6,7.8,6.6c1.9,5.4,8.6,5.8,10.7,6.1
			c2,2.7,4.7,4.9,11.4,3.5c3.1,4,7.1,3,11.1,2.2c-8.3,12.3-13.9,25.9-3.4,47.5l-0.2,3.8c-9.3,14.5-8.7,46.1,20.1,58
			c4.4,6,8.7,9.7,13.1,14.1c12.9,19.7,35.4,21,40.7,19.9c9.4,1.9,19.1,3.3,30.6,2c14,5.1,25.8,3.8,35.9-1.1c0.2-0.1,0.3-0.1,0.4-0.2
			c10.1-4.9,18.5-13.5,23.1-27.6c8.2-8.3,13.1-16.7,17.4-25.3c4.1-3.4,17.1-21.9,9.6-44.3c-0.7-6.1-1-11.8-2.9-19
			c8.4-30-16-50.1-33.1-51.7l-3.1-2.2c-10.4-21.7-24.6-25.7-39.4-26.8c3-2.6,6.3-5.1,5.1-10.1c5.3-4.5,5.1-7.9,4.3-11.2
			c1.1-1.8,4.9-7.3,1.8-12.2c1.9-3.5,2.3-6.9-0.3-10.3c1.5-5,0.9-8.3-1.7-10.3c1.5-6.6-1.4-8.3-4.2-10c0.3-6.6-4.9-11-12.4-6.2
			c-5.4-3.2-11.8,1.2-12.9,1.8c-1.9-0.9-4.1-1.5-8.7,1.5c-4.5-1.3-7.8,0.9-10.7,4c-5.9-1.3-7.5,2.8-10.2,5.4c-6,0.8-6.1,3.7-8.2,5.9
			c-6.3,1.6-6.7,5-8.1,9.1l-3.2,1.5c-6.1,9.2-5.4,21.5-4.3,27.5c-4.1-4.5-13.3-12.7-24.3-13.6l-3.1,1.6c-4.1-1.4-7-3.2-12.1,0.7
			c-3,0.3-5.3-1.5-9.7,2.8C909.8,66.5,907.2,66,904.9,67.2z"/>
		<path class="st1" d="M898.6,97.6c28.4,0.7,46.1,3.7,57.3,8.3c3.5,16.6-15.5,26.6-22.8,29.7c1.1-1.4,1.9-2.8,1.8-4.2
			c-2.4-0.4-8.1,3.8-13.7,3.4c1.5-1.2,2.1-1.9,2.3-3.5c-4.8,0.7-9.8,1.7-13.5,0.8c1.4-0.7,2.9-1,4.1-3.2c-4.7-0.2-9.4,0.1-14-1.4
			c1.9-1,4-2,4.2-2.9c-4.4-0.5-8.4-1.4-12-2.8c2.8-1,3.8-1.8,4.3-2.6c-3.8-1.4-8.2-2-11.3-4.5c2.3-0.3,4.3-0.9,5.1-2.5
			c-1.8-1.5-6.1-0.9-10.5-4.4c2.2-0.8,4.5-1.6,4.8-2.3c-2.9-3.5-5.7-4.9-8.4-6.4c4.5-2.2,11.3-5.5,10.8-5.7l-4.2-1.5
			c3.8-3.3,9-4.1,12.7-4.7c0.9-1.9-1.3-2.6-3.8-3.2c4-1.3,7.8-2.1,11.4-2.4c0.9-2.3-2.5-2.4-4.5-3.3c6.3-1.7,9.5-1.4,12.6-1
			c0.9-2.5-1.4-3.2-3.3-4.1c5.1-0.5,8.4,0.5,11.7,1.4c0.3-1.5,1.1-2.8-1.6-4.7c3.9,0.3,7.3,1.2,10.1,2.8c1.3-2.1-0.3-3.4-1-5
			c4.5,1,7.8,2.8,11.6,4.3c0.3-0.6,0.2-2.1-0.4-4.2c11.2,3.7,31.1,17.1,19,32.1C939,95.3,919.2,95.1,898.6,97.6z"/>
		<path class="st1" d="M1019,39.2c-17,22.7-25.6,38.5-29,50.1c10.9,13,30.5,4.3,37.4,0.5c-1.8,0-3.4-0.2-4.4-1.2
			c1.2-2.1,8-4,11.2-8.6c-1.8,0.5-2.8,0.5-4.2-0.3c3.5-3.3,7.4-6.6,9-10.1c-1.4,0.7-2.6,1.6-5.1,1.3c2.7-3.8,5.9-7.3,7.5-11.8
			c-1.9,0.9-4,1.9-4.9,1.5c2.4-3.7,4.1-7.5,5.2-11.2c-2.5,1.6-3.8,1.9-4.7,1.7c1.3-3.9,3.5-7.7,3.4-11.7c-1.7,1.7-3.4,2.8-5.2,2.4
			c-0.1-2.4,3.1-5.4,3-11c-2,1.2-4.1,2.6-4.8,2.3c-1-4.4-0.4-7.5,0.2-10.6c-4.5,2.1-11.3,5.5-11.2,5l1.4-4.2
			c-5,0.9-8.8,4.5-11.6,7.1c-2-0.4-1.2-2.6-0.2-5c-3.5,2.3-6.4,4.8-8.9,7.5c-2.3-0.7-0.4-3.4,0.2-5.5c-5.2,3.9-6.9,6.6-8.6,9.3
			c-2.6-0.8-1.6-3.1-1.1-5.1c-3.6,3.7-4.8,6.9-6.2,10.1c-1.3-0.7-2.9-0.9-2.7-4.2c-2.2,3.3-3.5,6.5-4.1,9.7
			c-2.5-0.3-2.5-2.3-3.3-3.8c-1.9,4.2-2.6,7.9-3.8,11.8c-0.7-0.1-1.7-1.1-3.1-2.9c-4.1,11.1-5.8,35,13.5,34.8
			C992.2,69.5,1004.3,53.8,1019,39.2L1019,39.2z"/>
		<path class="st2" d="M1059.5,205.9c3.2,6.6,3.5,14.4,0.6,21.6c-2.8,7.2-8.5,13.2-15.7,16.7c-7.2,3.5-15.4,4.2-22.8,2
			c-7.4-2.2-13.3-7.2-16.6-13.8c-3.2-6.6-3.4-14.4-0.6-21.6c2.8-7.2,8.5-13.2,15.7-16.7c7.2-3.5,15.4-4.2,22.8-2
			C1050.3,194.3,1056.2,199.3,1059.5,205.9L1059.5,205.9z"/>
		<path class="st2" d="M981.9,155.2c7.1,0.9,13.5,5.1,17.8,11.7c4.2,6.6,6,15,4.9,23.4c-1.1,8.4-5,16.1-10.9,21.4
			c-5.8,5.3-13.1,7.7-20.2,6.8c-7.1-0.9-13.5-5.1-17.8-11.7c-4.2-6.6-6-15-4.9-23.4c1.1-8.4,5-16.1,10.9-21.4
			C967.5,156.8,974.7,154.3,981.9,155.2L981.9,155.2z"/>
		<path class="st2" d="M1011.6,139.2c-3.7,6.2-4.3,13.8-1.8,21.2c2.5,7.4,8.1,14,15.4,18.3c7.3,4.3,15.7,6,23.5,4.7
			c7.8-1.3,14.2-5.5,17.9-11.7c3.7-6.2,4.3-13.8,1.8-21.2c-2.5-7.4-8.1-14-15.3-18.3c-7.3-4.3-15.8-6-23.5-4.7
			C1021.8,128.8,1015.3,133,1011.6,139.2L1011.6,139.2z"/>
		<path class="st2" d="M931.4,194.6c10.6-9.2,28.5,48.2,16.4,48.6C932.8,239.8,916.8,215.9,931.4,194.6z"/>
		<path class="st2" d="M1071.6,125.8c-13.7,2.6,20.3,52.2,28,43C1106.3,154.8,1097.4,127.5,1071.6,125.8z"/>
		<path class="st2" d="M1011,106c19.3-13.7,42.8-9.7,53.1,13.3C1067.6,128.3,1003.9,111,1011,106L1011,106z"/>
		<path class="st2" d="M952.7,133.4c-22.7,6.6-34.1,27.6-22.4,49.9C935.2,191.7,961.1,131,952.7,133.4z"/>
		<path class="st2" d="M980.3,113.5c-12.7,5.8-20,21.2-17.4,26.8c3.3,6.8,16.5,8.9,31.4,1.9c15.1-7.2,22-17.5,18.7-24.5
			C1009.2,109.7,991.3,108,980.3,113.5L980.3,113.5z"/>
		<path class="st2" d="M1048.4,252c10.7-5.8,27.3-8.9,29.9-3.6c2.7,5-5.2,23.2-18.3,29.3c-13.2,7.1-32.1,1.9-33.9-2.2
			C1023,269.7,1037.4,257,1048.4,252z"/>
		<path class="st2" d="M992.8,240.2c12.3,5.6,23.8,20.3,19.7,28.3c-4.3,6.7-20,12.4-38,2.3c-13.3-9.3-18.7-22.7-15.5-29
			C964.3,233.6,978.9,234.2,992.8,240.2z"/>
		<path class="st2" d="M1070.5,198.9c-3.6,13.9,0.4,34.1,9.3,36.9c8,1.6,23.5-6.6,27.3-28.4c3.2-14.9-8.4-31.6-15.6-34.1
			C1081.7,171.3,1074.9,183.3,1070.5,198.9L1070.5,198.9z"/>
	</g>
</g>
<g>
	<defs>
		
			<rect id="SVGID_7_" x="980.2" y="293.8" transform="matrix(0.9969 -7.916411e-02 7.916411e-02 0.9969 -28.6804 86.0352)" width="181" height="221.8"/>
	</defs>
	<clipPath id="SVGID_8_">
		<use xlink:href="#SVGID_7_"  style="overflow:visible;"/>
	</clipPath>
	<g class="st5">
		<path d="M1021.9,297.9c-1.1,0.1-2.3,0.6-3.7,1.8c-3.5-1-6.9-1.2-9.7,1.7c-4.6-0.2-6,1.1-7,2.6c-1,0.1-7.6-0.4-10.3,4.2
			c-7.6-0.3-9.6,5.1-6.5,9.7c-1.4,2.4-2.8,4.8,1.2,9c-1.1,2.6-0.1,5.2,3.2,8.1c-0.5,3.5,1.2,5.8,4.2,7.5c-0.1,4.8,5.1,7.1,6.6,8
			c0.8,2.7,2.2,5.2,8,6.2c1.3,4,4.7,4.5,8.1,5.1c-10.4,7-19.2,15.9-17.5,35.8l-1.4,2.9c-12,8.4-21.4,33.1-2.2,51
			c1.6,6,3.9,10.2,6,14.8c4.1,19.2,21.6,26.9,26.2,27.7c6.9,4.3,14.2,8.3,23.8,10.7c9.5,8.1,19.3,10.7,29,10c0.1,0,0.3,0,0.4,0
			c9.6-0.8,18.9-4.9,27-14.4c9.1-3.9,15.7-9,21.8-14.4c4.4-1.4,20.4-11.8,21.5-31.4c1.3-4.9,2.9-9.5,3.6-15.6
			c16.1-20.7,2.9-43.6-10.2-50l-1.8-2.6c-1.5-19.9-11.6-27.3-23-32.6c3.2-1.1,6.6-2.1,7.2-6.3c5.6-1.9,6.6-4.6,6.9-7.4
			c1.4-1.1,6.2-4.2,5.3-8.9c2.6-2.1,4-4.7,2.9-8.1c2.7-3.5,3.3-6.2,1.8-8.5c3.2-4.7,1.5-6.8-0.3-9c2.3-5-0.5-10-7.9-8.5
			c-3.3-4.1-9.8-2.6-10.8-2.5c-1.2-1.3-2.8-2.4-7.4-1.4c-3.2-2.4-6.5-1.7-9.8-0.1c-4.3-2.8-6.8-0.1-9.8,1.1c-5.1-1.2-6,1.1-8.4,2.1
			c-5.5-0.7-6.9,1.9-9.3,4.6l-3,0.2c-7.7,5.3-11,15-12.1,20c-1.8-4.7-6.6-13.9-15.1-17.9l-3,0.3c-2.8-2.3-4.6-4.6-9.9-3.1
			c-2.5-0.7-3.8-2.7-8.6-0.8C1026.1,298.8,1024.1,297.6,1021.9,297.9z"/>
		<path class="st1" d="M1007.4,319.5c22.4,9.1,35.5,16.8,43,23.6c-2.4,13.9-20.7,16-27.4,16.1c1.3-0.7,2.4-1.6,2.7-2.7
			c-1.8-1-7.6,0.5-12-1.5c1.6-0.4,2.3-0.8,3-2c-4-0.9-8.3-1.6-11-3.4c1.3-0.1,2.6,0.1,4.3-1.2c-3.7-1.6-7.5-2.7-10.7-5.3
			c1.8-0.2,3.8-0.3,4.3-1c-3.4-1.7-6.3-3.6-8.7-5.8c2.6,0.1,3.6-0.2,4.2-0.7c-2.6-2.2-5.9-4-7.6-6.9c1.9,0.5,3.7,0.6,4.9-0.4
			c-1-1.7-4.6-2.5-7-6.6c2,0,4.1,0.1,4.5-0.4c-1.2-3.6-3-5.5-4.7-7.5c4.3-0.4,10.7-0.8,10.4-1.2l-2.8-2.4c4.1-1.4,8.4-0.5,11.6,0.2
			c1.3-1.2-0.2-2.4-2-3.6c3.6,0.2,6.8,0.7,9.8,1.6c1.4-1.5-1.2-2.6-2.6-3.9c5.5,0.6,8,1.8,10.4,3c1.5-1.7-0.1-2.9-1.4-4.1
			c4.2,1.2,6.5,2.9,8.9,4.6c0.7-1.1,1.8-1.9,0.2-4.1c3.1,1.4,5.4,3.2,7.2,5.2c1.7-1.3,0.9-2.7,0.8-4.1c3.2,2.2,5.4,4.6,7.9,6.9
			c0.4-0.4,0.8-1.5,1-3.4c7.8,6.2,19.4,22.6,5.1,30.6C1040.3,329.9,1024.6,323.7,1007.4,319.5z"/>
		<path class="st1" d="M1121.5,310.5c-20.7,12.5-32.5,22.2-38.7,30.1c4.6,13.4,22.9,12.5,29.6,11.6c-1.4-0.5-2.6-1.2-3.1-2.3
			c1.6-1.3,7.6-0.7,11.6-3.3c-1.6-0.2-2.4-0.4-3.2-1.5c3.8-1.5,8-2.9,10.3-5.1c-1.3,0.1-2.6,0.5-4.4-0.5c3.4-2.1,7-3.9,9.7-6.9
			c-1.8,0.1-3.8,0.3-4.4-0.3c3.1-2.2,5.6-4.6,7.7-7.1c-2.5,0.5-3.6,0.3-4.3-0.1c2.2-2.6,5.2-4.9,6.4-8c-1.8,0.8-3.5,1.2-4.9,0.3
			c0.7-1.9,4.1-3.2,5.8-7.6c-2,0.3-4.1,0.7-4.5,0.4c0.6-3.7,2.1-5.9,3.4-8.2c-4.3,0.3-10.7,0.9-10.4,0.5l2.4-2.8
			c-4.2-0.8-8.4,0.8-11.4,2c-1.5-1-0.2-2.4,1.4-3.9c-3.5,0.7-6.6,1.8-9.4,3.1c-1.7-1.2,0.8-2.8,1.9-4.2c-5.4,1.4-7.6,3-9.8,4.6
			c-1.8-1.4-0.3-2.9,0.7-4.3c-4,1.8-6,3.9-8.1,5.9c-0.8-0.9-2.1-1.6-0.8-4.1c-2.8,1.9-4.8,4-6.3,6.3c-1.9-1-1.3-2.6-1.4-4
			c-2.8,2.6-4.6,5.3-6.7,8c-0.5-0.3-1-1.4-1.5-3.2c-6.7,7.4-15.6,25.4-0.2,31C1090.7,325.9,1105.2,317.3,1121.5,310.5L1121.5,310.5z
			"/>
		<path class="st2" d="M1101.5,451.9c0.5,6.1-1.8,12.2-6.3,16.9s-10.9,7.7-17.7,8.2c-6.8,0.5-13.6-1.4-18.8-5.3
			c-5.2-3.9-8.3-9.6-8.8-15.7c-0.5-6.1,1.8-12.2,6.3-16.9c4.5-4.7,10.8-7.7,17.7-8.2c6.8-0.5,13.6,1.4,18.8,5.3
			C1097.9,440.1,1101.1,445.7,1101.5,451.9L1101.5,451.9z"/>
		<path class="st2" d="M1055.6,389.2c5.4,2.9,9.2,8,10.5,14.4c1.3,6.4,0.1,13.4-3.4,19.6c-3.5,6.2-9,11-15.3,13.3
			c-6.3,2.3-12.9,2.1-18.3-0.8c-5.4-2.9-9.1-8-10.5-14.4c-1.3-6.4-0.1-13.4,3.4-19.6c3.5-6.2,9-11,15.3-13.3
			C1043.7,386.1,1050.3,386.4,1055.6,389.2L1055.6,389.2z"/>
		<path class="st2" d="M1084.4,385.7c-4.9,3.7-7.8,9.4-8.1,15.9c-0.3,6.5,2,13.3,6.5,18.8c4.4,5.5,10.6,9.4,17.2,10.7
			c6.6,1.3,13,0,17.9-3.7c4.9-3.7,7.8-9.4,8.1-15.9c0.3-6.5-2-13.3-6.5-18.8c-4.4-5.5-10.7-9.4-17.2-10.7S1089.2,382.1,1084.4,385.7
			L1084.4,385.7z"/>
		<path class="st2" d="M1003.2,404.6c11.3-3.9,7.6,46-2.1,42.7C990.1,440,984.9,416.7,1003.2,404.6z"/>
		<path class="st2" d="M1136.3,393.4c-11.8-2.1-0.2,46.6,8.8,41.8C1154.8,426.3,1156.3,402.5,1136.3,393.4z"/>
		<path class="st2" d="M1094.2,359.8c19.6-4.8,37.1,5.3,38.1,26.3C1132.3,394.2,1087,361.6,1094.2,359.8L1094.2,359.8z"/>
		<path class="st2" d="M1039.2,363.6c-20.1-1.7-35.8,11.1-33.5,32C1007.1,403.5,1046.7,364.2,1039.2,363.6z"/>
		<path class="st2" d="M1067.4,356.4c-11.9,0.6-22.6,10.4-22.2,15.5c0.5,6.2,10.4,11.9,24.4,10.9c14.3-1,23-7,22.5-13.4
			C1091.6,362.2,1077.9,355.5,1067.4,356.4L1067.4,356.4z"/>
		<path class="st2" d="M1078.3,484.2c10.3-1.3,24.5,1.3,24.9,6.2c0.6,4.7-11.4,16.4-23.8,17.2c-12.8,1.6-26.2-8.2-26.3-11.9
			C1052.6,490.3,1068,484.8,1078.3,484.2z"/>
		<path class="st2" d="M1037.8,458.4c8.1,8,12.6,22.9,6.8,27.8c-5.5,3.9-19.8,3.6-30.9-9.6c-7.7-11.2-7.8-23.2-3.3-27.1
			C1017.1,444.7,1028.6,449.5,1037.8,458.4z"/>
		<path class="st2" d="M1112.5,449.7c-7.3,9.7-10.4,26.6-4.1,31.4c5.9,3.7,20.8,1.9,30.6-13.8c7.2-10.6,3.2-27-1.7-31.1
			C1130.1,431.7,1120.9,439,1112.5,449.7L1112.5,449.7z"/>
	</g>
</g>
<path d="M114.8,252c11-3.5,19.5-8.8,25.5-16.3c2.8-3.5,4.5-7.3,6-11.3s2-9,2-15s-1-11.8-3.5-17.8c-7.8-18-27.5-27.3-59.5-27.3H10v11
	c0,2.5,1.3,4,3.8,4.5c1.5,0.5,6.3,1.5,14.3,3v142.5l-14.3,3c-2.5,0.5-3.8,2-3.8,4.5v11h81.3c19.8,0,35.3-4.8,46.5-14.3
	c11-9,16.5-21.3,16.5-36.8C154.3,271,141.3,257.3,114.8,252z M52.3,184h33c13.5,0,23,2.5,29.5,7.5s9.5,12.5,9.5,23
	c0,4.5-1,8.5-2.5,12.5c-5,12-17.5,18-37.5,18h-32V184z M91.3,324.8h-39v-62.3H91c13.3,0,23.3,2.5,29.8,8s9.5,12.8,9.5,22
	c0,4.8-0.5,9-2,13c-5,13-17.3,19.5-37.3,19.5L91.3,324.8z M224,338.5h-1h-2.3c-1,0-2.2-0.1-3.3-0.1v-41c0-4-0.4-7.5-1.4-10.8
	c-1-3.3-2.4-6-4.3-8.4c-1.9-2.3-4.3-4-7.2-5.2c-2.9-1.3-6.2-1.9-10.1-1.9c-5.2,0-9.8,1-14,2.9c-4.2,1.9-8.1,4.8-11.8,8.5l1.2,2.2
	c0.4,0.9,1.2,1.3,2.2,1.3c0.7,0,1.7-0.6,2.7-1.6s2.4-1.9,4.2-3c1.7-1.2,3.6-2.2,6-3.2c2.4-1,5.3-1.4,8.8-1.4c5.6,0,9.9,1.7,12.8,5.3
	c2.9,3.6,4.2,8.6,4.2,15.3v7.5c-8.1,0.1-15,0.9-20.7,2c-5.8,1.2-10.5,2.7-14.3,4.6c-3.7,1.9-6.3,4.2-8.1,6.8s-2.6,5.3-2.6,8.4
	c0,3.3,0.6,6.2,1.6,8.5c1.2,2.3,2.6,4.2,4.3,5.6c1.7,1.4,3.9,2.6,6.2,3.3s4.6,1.2,7.1,1.2c2.9,0,5.6-0.3,8.1-0.9
	c2.4-0.6,4.6-1.4,6.8-2.4s4.2-2.3,6.2-3.9c1.9-1.6,3.7-3.3,5.8-5.2l1,9.2c0.3,1.3,1.3,2,2.7,2h0.1h2.6h9.5v-2.9
	C226.9,339.5,225.9,338.7,224,338.5z M210.6,328c-1.7,1.7-3.3,3.5-5,4.9c-1.7,1.4-3.6,2.7-5.6,3.9c-2,1.2-4.2,1.9-6.5,2.4
	c-2.3,0.6-4.9,0.9-7.6,0.9c-1.9,0-3.7-0.1-5.5-0.7c-1.7-0.6-3.2-1.3-4.5-2.4c-1.3-1.2-2.4-2.6-3.2-4.3c-0.9-1.7-1.2-3.7-1.2-6.2
	c0-2.6,0.7-4.9,2.3-6.9c1.6-2,3.9-3.6,7.1-5s7.2-2.6,12.1-3.5c4.9-0.9,10.8-1.4,17.6-1.6V328z M305.8,338.5H305h-0.7h-1.6
	c-0.7,0-1.6-0.1-2.4-0.1l-28.1-30.5c-0.6-0.6-1-1.2-1.6-1.7c-0.6-0.6-1.3-0.9-2-1.3c0.6-0.3,1-0.7,1.4-1.2s1-0.9,1.4-1.3l25.6-24.3
	c0.9,0,1.6-0.1,2.3-0.1s1.3-0.1,1.9-0.1h1c1.9-0.1,2.7-1,2.7-2.6v-2.9h-7.5h-2.9h-11.8v2.9c0,1.6,1,2.4,2.9,2.6c0.1,0,1.3,0,3.6,0.1
	l-24.8,23.6c-0.7,0.7-1.4,1.2-2,1.3c-0.6,0.1-1.2,0.3-1.9,0.3h-3.3v-63.8h-6.9h-10.4v2.7c0,1.6,1,2.4,2.9,2.6h0.7
	c0.3,0,0.7,0.1,1.2,0.1h2.2c1,0,2.2,0.1,3.5,0.1v93.3c-1.6,0-3,0.3-4.2,0.3h-2.4H243c-1.9,0.1-2.9,1-2.9,2.6v2.9h10.4h6.9h10.4v-2.9
	c0-1.6-1-2.4-2.9-2.6h-0.7H263c-0.4,0-1.2-0.1-2.2-0.1s-2.2-0.1-3.5-0.1v-30.4h3.2c1.4,0,2.4,0.1,3.2,0.4c0.7,0.3,1.4,1,2.3,1.9
	l30.1,32.1c0.6,0.6,1,1,1.6,1.3c0.6,0.3,1,0.4,1.7,0.4h0.4h5.6h3.2v-2.9C308.6,339.5,307.6,338.7,305.8,338.5z M347.8,271.1
	c-5,0-9.6,1-13.7,2.7c-4,1.7-7.3,4.2-10.1,7.3c-2.7,3.2-4.9,6.9-6.3,11.2s-2.3,9.1-2.3,14.3c0,6,0.9,11.5,2.4,16.3
	c1.6,4.8,3.7,8.6,6.6,12c2.9,3.3,6.3,5.8,10.4,7.5c4,1.7,8.5,2.4,13.4,2.4c2.7,0,5.5-0.1,8.1-0.7c2.6-0.6,5.2-1.3,7.5-2.2
	c2.3-0.9,4.5-1.9,6.3-3.2c1.9-1.3,3.5-2.6,4.6-4l-1.9-2.3c-0.3-0.4-0.9-0.7-1.4-0.7c-0.4,0-1.3,0.3-2.3,1.2c-1,0.9-2.4,1.7-4.3,2.7
	c-1.7,1-4,1.7-6.6,2.6c-2.6,0.9-5.8,1.3-9.4,1.3c-4,0-7.6-0.7-10.9-2.2c-3.3-1.4-6-3.5-8.4-6.2c-2.3-2.7-4-6.2-5.3-10.2
	c-1.3-4-1.9-8.9-1.9-14.3v-1.3h51.7c0.7,0,1.2-0.1,1.4-0.6s0.6-1.2,0.6-2.2c0-5-0.7-9.5-2.2-13.4c-1.4-3.9-3.3-7.3-5.9-9.9
	c-2.4-2.6-5.5-4.6-8.9-6C355.6,271.9,351.9,271.1,347.8,271.1z M348,276.3c3.3,0,6.2,0.6,8.9,1.7c2.7,1.2,5,2.7,6.9,4.9
	s3.5,4.6,4.5,7.6c1,3,1.6,6.5,1.6,10.4h-47.2c0.4-3.7,1.3-7.2,2.6-10.2c1.3-3,3-5.6,5.2-7.8s4.8-3.7,7.6-4.9S344.2,276.3,348,276.3z
	 M432.8,252.1c0.6,0.6,1.3,1,2,1.3c0.7,0.3,1.6,0.6,2.4,0.6c0.9,0,1.7-0.3,2.4-0.6c0.7-0.3,1.4-0.7,2-1.3c0.6-0.6,1.2-1.3,1.4-2
	s0.6-1.6,0.6-2.4s-0.3-1.6-0.6-2.4c-0.3-0.7-0.9-1.4-1.4-2c-0.6-0.6-1.3-1.2-2-1.4c-0.7-0.3-1.6-0.4-2.4-0.4c-0.9,0-1.7,0.1-2.4,0.4
	c-0.7,0.3-1.4,0.9-2,1.4c-0.6,0.6-1,1.3-1.3,2s-0.6,1.6-0.6,2.4s0.3,1.7,0.6,2.4S432.3,251.6,432.8,252.1z M448.3,338.5h-0.7h-1.2
	c-0.4,0-1.2-0.1-2.2-0.1s-2.2-0.1-3.5-0.1v-66h-6.9h-10.4v2.9c0,1.6,1,2.4,2.9,2.6h0.7c0.3,0,0.7,0.1,1.2,0.1h2.2
	c1,0,2.2,0.1,3.5,0.1v60.2c-1.6,0-3,0.3-4.2,0.3h-2.4h-0.9c-1.9,0.1-2.9,1-2.9,2.6v2.9h10.4h6.9h10.4v-2.9
	C451.1,339.5,450.1,338.7,448.3,338.5z M486.9,345.2c3,0,5.9-0.7,8.8-1.9c2.7-1.2,5-2.7,6.9-4.8l-1.9-3.2c-0.4-0.4-0.7-0.6-1.2-0.6
	c-0.3,0-0.9,0.1-1.4,0.7s-1.3,1-2.2,1.6c-0.9,0.6-2,1.2-3.3,1.7c-1.3,0.6-2.6,0.7-4.3,0.7c-1.4,0-2.9-0.3-4-0.7
	c-1.2-0.4-2.2-1.2-3-2c-0.9-0.9-1.6-2-2.2-3.5c-0.6-1.4-0.7-3-0.7-5v-48.5H501v-5.2h-22.6v-27.4h-3.3c-0.6,0-0.9,0.3-1.2,0.6
	c-0.3,0.3-0.6,0.7-0.6,1.2l-1.7,25.6l-12.2,0.9v2.6c0,0.6,0.1,0.9,0.4,1.2c0.3,0.3,0.9,0.6,1.4,0.6h10.2v49c0,5.6,1.3,9.6,4,12.4
	S482,345.2,486.9,345.2z M526.8,242h-6.6v41.2v6.2c0,1.9,0,3.9,0.1,5.9c0,2,0.3,4.2,0.4,6.3c0.1,2.2,0.1,4.5,0.3,7.2h4.8
	c0.1-2.7,0.3-5,0.4-7.2s0.3-4.3,0.3-6.3s0.3-4,0.3-5.9v-6.2V242z M516.6,338.4c0,1.9,0.6,3.5,1.9,4.8c1.3,1.3,2.9,1.9,4.8,1.9
	c0.9,0,1.7-0.1,2.6-0.4c0.9-0.3,1.6-0.9,2.2-1.4c0.6-0.6,1.2-1.2,1.4-2c0.3-0.9,0.6-1.7,0.6-2.7c0-0.9-0.3-1.7-0.6-2.6
	c-0.3-0.9-0.9-1.4-1.4-2c-0.6-0.6-1.3-1.2-2.2-1.4s-1.7-0.6-2.6-0.6c-1,0-1.7,0.3-2.6,0.6c-0.9,0.3-1.6,0.9-2.2,1.4s-1.2,1.2-1.4,2
	C516.8,336.7,516.6,337.5,516.6,338.4z"/>
<path class="st6" d="M65.1,433l-11.4-15.8c-1.5,0.3-3.2,0.4-5.2,0.4H34.5V433h-1.3v-44.8h15.2c5.5,0,9.8,1.3,12.9,3.9
	c3.1,2.6,4.7,6.2,4.7,10.8c0,3.6-1,6.6-2.9,9c-1.9,2.4-4.6,4-8.1,4.9L66.7,433H65.1z M48.6,416.4c5.2,0,9.2-1.2,12-3.5
	c2.8-2.3,4.2-5.7,4.2-10c0-4.3-1.4-7.6-4.2-10c-2.8-2.3-6.8-3.5-12-3.5h-14v27H48.6z M94.2,388.2c5.5,0,9.8,1.3,12.9,3.9
	c3.1,2.6,4.7,6.2,4.7,10.8s-1.6,8.3-4.7,10.9c-3.1,2.6-7.4,3.8-12.9,3.8H80.4V433h-1.3v-44.8H94.2z M94.4,416.4
	c5.2,0,9.2-1.2,12-3.5c2.8-2.3,4.2-5.7,4.2-10c0-4.3-1.4-7.6-4.2-10c-2.8-2.3-6.8-3.5-12-3.5h-14v27H94.4z M123.9,388.2h1.3V433
	h-1.3V388.2z M188,431.8v1.2h-29.8v-44.8h28.9v1.2h-27.6v20.2h24.7v1.2h-24.7v20.9H188z M227.4,385.5V433h-1.3v-10.1
	c-1.1,3.2-3,5.7-5.6,7.6c-2.6,1.8-5.7,2.8-9.2,2.8c-3,0-5.7-0.7-8.2-2.1c-2.4-1.5-4.4-3.5-5.8-6c-1.4-2.6-2.1-5.4-2.1-8.6
	c0-3.2,0.7-6.1,2.1-8.6c1.4-2.6,3.3-4.5,5.8-6c2.5-1.5,5.2-2.2,8.2-2.2c3.4,0,6.4,0.9,9.1,2.8c2.7,1.8,4.6,4.3,5.7,7.4v-24.4H227.4z
	 M211.3,432c2.8,0,5.3-0.7,7.6-2c2.3-1.3,4-3.2,5.3-5.5c1.3-2.4,1.9-5.1,1.9-8.1s-0.6-5.7-1.9-8c-1.3-2.4-3.1-4.2-5.3-5.5
	c-2.3-1.3-4.8-2-7.6-2c-2.8,0-5.3,0.7-7.6,2c-2.3,1.3-4,3.1-5.3,5.5c-1.3,2.3-1.9,5-1.9,8s0.6,5.7,1.9,8.1c1.3,2.3,3.1,4.2,5.3,5.5
	C206,431.3,208.6,432,211.3,432z M242.1,399.9h1.3V433h-1.3V399.9z M242.8,390.8c-0.5,0-0.9-0.2-1.2-0.5c-0.3-0.3-0.4-0.7-0.4-1.2
	c0-0.5,0.1-0.9,0.4-1.2c0.3-0.3,0.7-0.5,1.2-0.5c0.4,0,0.8,0.2,1.2,0.5c0.3,0.3,0.5,0.7,0.5,1.2c0,0.4-0.2,0.8-0.5,1.2
	C243.6,390.6,243.2,390.8,242.8,390.8z M273.1,430.8c-0.7,0.8-1.7,1.4-2.9,1.8c-1.2,0.4-2.3,0.6-3.6,0.6c-2.6,0-4.5-0.7-6-2.2
	c-1.4-1.5-2-3.5-2-6v-23.9h-6.4v-1.2h6.4v-7.2h1.3v7.2h11.2v1.2h-11.2v23.6c0,2.3,0.6,4.1,1.7,5.4c1.2,1.2,2.8,1.9,5.1,1.9
	c2.2,0,4.1-0.7,5.5-2L273.1,430.8z M282.9,399.9h1.3V433h-1.3V399.9z M283.6,390.8c-0.5,0-0.9-0.2-1.2-0.5c-0.3-0.3-0.4-0.7-0.4-1.2
	c0-0.5,0.1-0.9,0.4-1.2c0.3-0.3,0.7-0.5,1.2-0.5c0.4,0,0.8,0.2,1.2,0.5c0.3,0.3,0.5,0.7,0.5,1.2c0,0.4-0.2,0.8-0.5,1.2
	C284.4,390.6,284,390.8,283.6,390.8z M311.1,433.2c-3,0-5.8-0.7-8.3-2.1c-2.4-1.5-4.4-3.5-5.8-6c-1.4-2.6-2-5.4-2-8.6
	c0-3.2,0.7-6.1,2-8.6c1.4-2.6,3.3-4.5,5.8-6c2.5-1.5,5.2-2.2,8.3-2.2c3,0,5.8,0.7,8.2,2.2c2.5,1.4,4.4,3.4,5.8,6
	c1.4,2.5,2.1,5.4,2.1,8.6c0,3.2-0.7,6.1-2.1,8.6c-1.4,2.6-3.3,4.6-5.8,6C316.8,432.5,314.1,433.2,311.1,433.2z M311.1,432
	c2.8,0,5.3-0.7,7.6-2c2.3-1.3,4-3.2,5.3-5.5c1.3-2.4,1.9-5.1,1.9-8.1s-0.6-5.7-1.9-8c-1.3-2.4-3.1-4.2-5.3-5.5c-2.3-1.3-4.8-2-7.6-2
	c-2.8,0-5.3,0.7-7.6,2c-2.3,1.3-4,3.1-5.3,5.5c-1.3,2.3-1.9,5-1.9,8s0.6,5.7,1.9,8.1c1.3,2.3,3.1,4.2,5.3,5.5
	C305.8,431.3,308.3,432,311.1,432z M353.2,399.7c4.1,0,7.4,1.2,9.7,3.6c2.3,2.3,3.5,5.7,3.5,10.2V433h-1.3v-19.5
	c0-4.1-1-7.1-3.1-9.3c-2-2.2-5-3.3-8.8-3.3c-4.3,0-7.7,1.3-10.2,3.9c-2.5,2.6-3.7,6-3.7,10.2v18H338v-33.1h1.3v8.8
	c1-2.8,2.7-5,5.1-6.6C346.8,400.5,349.7,399.7,353.2,399.7z"/>
</svg>
