<?xml version="1.0" encoding="utf-8"?>
<!-- Generator: Adobe Illustrator 25.2.1, SVG Export Plug-In . SVG Version: 6.00 Build 0)  -->
<svg version="1.1" id="Layer_1" xmlns="http://www.w3.org/2000/svg" xmlns:xlink="http://www.w3.org/1999/xlink" x="0px" y="0px"
	 viewBox="0 0 1436.1 683.1" style="enable-background:new 0 0 1436.1 683.1;" xml:space="preserve">
<style type="text/css">
	.st0{fill:#FFFFFF;}
</style>
<g>
	<g>
		<path class="st0" d="M217.3,128c-4.9,0-9.4-0.9-13.7-2.6c-4.3-1.8-7.6-4.1-9.9-6.9l1.3-1.2c2.2,2.6,5.3,4.7,9.3,6.4
			c4,1.7,8.3,2.5,12.9,2.5c7,0,12.2-1.4,15.7-4.1c3.6-2.8,5.4-6.4,5.4-10.8c0-3.5-0.9-6.2-2.8-8.3c-1.9-2-4.2-3.6-6.9-4.6
			c-2.7-1-6.3-2.1-10.9-3.2c-4.9-1.2-8.8-2.4-11.7-3.5c-2.9-1.2-5.3-2.9-7.4-5.2c-2-2.4-3-5.5-3-9.4c0-3.1,0.8-5.9,2.4-8.4
			c1.6-2.6,4.1-4.6,7.5-6.1s7.6-2.3,12.6-2.3c3.6,0,7.1,0.6,10.6,1.7c3.5,1.1,6.4,2.6,8.9,4.4l-1.1,1.5c-2.6-1.9-5.6-3.4-8.8-4.3
			c-3.2-1-6.4-1.5-9.5-1.5c-6.7,0-11.8,1.4-15.4,4.3c-3.5,2.8-5.3,6.4-5.3,10.8c0,3.5,0.9,6.2,2.8,8.4c1.9,2,4.2,3.6,6.9,4.6
			s6.5,2.1,11.1,3.3c4.9,1.2,8.7,2.4,11.6,3.6c2.9,1.1,5.3,2.8,7.3,5.1c2,2.2,3,5.3,3,9.1c0,3.1-0.8,5.9-2.5,8.4s-4.2,4.6-7.7,6.1
			C226.6,127.3,222.4,128,217.3,128z M296.9,102.9h-44.2c0,4.5,1,8.5,3,12.1c2,3.5,4.7,6.3,8.2,8.3c3.5,2,7.5,3,11.8,3
			c3.4,0,6.6-0.6,9.5-1.9c3-1.3,5.5-3.3,7.4-5.8l1.3,1.3c-2.2,2.6-4.9,4.6-8.1,6c-3.2,1.4-6.6,2.1-10.2,2.1c-4.7,0-9-1.1-12.8-3.2
			c-3.7-2.2-6.7-5.2-8.8-9c-2.1-3.8-3.2-8.2-3.2-13c0-4.8,1-9.1,3-12.9c2-3.8,4.7-6.8,8.2-8.9c3.5-2.2,7.5-3.3,11.8-3.3
			c4.3,0,8.2,1.1,11.7,3.2c3.5,2.1,6.3,5,8.3,8.7c2,3.7,3.1,7.9,3.1,12.7V102.9z M273.9,79.7c-3.8,0-7.3,0.9-10.5,2.8
			c-3.1,1.9-5.7,4.4-7.6,7.7c-1.9,3.3-2.9,6.9-3.1,10.9h42.3c-0.2-4-1.2-7.7-3.2-10.9c-1.9-3.3-4.4-5.8-7.6-7.7
			C281.2,80.6,277.7,79.7,273.9,79.7z M335.9,77.8c6.2,0,11.1,1.8,14.6,5.4c3.5,3.5,5.3,8.6,5.3,15.3v29.3h-1.9V98.5
			c0-6.1-1.6-10.7-4.7-13.9c-3.1-3.3-7.5-4.9-13.2-4.9c-6.5,0-11.6,2-15.4,5.9c-3.7,3.8-5.6,8.9-5.6,15.3v27h-1.9V78.1h1.9v13.2
			c1.5-4.2,4.1-7.5,7.7-9.9C326.3,79,330.7,77.8,335.9,77.8z M388.7,128c-4,0-7.7-0.6-11.2-1.9c-3.5-1.3-6.2-2.9-8.2-4.9l1.2-1.5
			c1.9,1.9,4.5,3.4,7.7,4.7c3.3,1.2,6.8,1.8,10.6,1.8c5.6,0,9.8-1,12.5-2.9c2.7-2,4-4.7,4-8.2c0-2.5-0.7-4.4-2.2-5.9
			c-1.4-1.5-3.2-2.5-5.3-3.2c-2-0.7-4.9-1.4-8.5-2.1c-3.9-0.7-7.1-1.4-9.5-2.2c-2.4-0.8-4.4-2.1-6-3.8c-1.6-1.8-2.4-4.3-2.4-7.4
			c0-3.6,1.5-6.6,4.4-9c3-2.5,7.4-3.7,13.2-3.7c3.1,0,6.1,0.5,9.1,1.4c3,0.9,5.4,2.1,7.3,3.6l-1.2,1.5c-1.9-1.5-4.2-2.7-6.9-3.6
			c-2.7-0.8-5.5-1.2-8.4-1.2c-5.2,0-9.1,1-11.7,3.1c-2.6,2-3.8,4.6-3.8,7.9c0,2.6,0.7,4.7,2.2,6.2c1.5,1.5,3.3,2.6,5.5,3.3
			s5.1,1.4,8.6,2c3.9,0.8,7,1.5,9.3,2.3c2.3,0.8,4.3,2,5.9,3.7c1.6,1.7,2.4,4,2.4,7c0,3.9-1.6,7-4.7,9.4
			C399.3,126.9,394.7,128,388.7,128z M461.8,102.9h-44.2c0,4.5,1,8.5,3,12.1c2,3.5,4.7,6.3,8.2,8.3c3.5,2,7.5,3,11.8,3
			c3.4,0,6.6-0.6,9.5-1.9c3-1.3,5.5-3.3,7.4-5.8l1.3,1.3c-2.2,2.6-4.9,4.6-8.1,6c-3.2,1.4-6.6,2.1-10.2,2.1c-4.7,0-9-1.1-12.8-3.2
			c-3.7-2.2-6.7-5.2-8.8-9c-2.1-3.8-3.2-8.2-3.2-13c0-4.8,1-9.1,3-12.9c2-3.8,4.7-6.8,8.2-8.9c3.5-2.2,7.5-3.3,11.8-3.3
			c4.3,0,8.2,1.1,11.7,3.2c3.5,2.1,6.3,5,8.3,8.7c2,3.7,3.1,7.9,3.1,12.7V102.9z M438.8,79.7c-3.8,0-7.3,0.9-10.5,2.8
			c-3.1,1.9-5.7,4.4-7.6,7.7c-1.9,3.3-2.9,6.9-3.1,10.9H460c-0.2-4-1.2-7.7-3.2-10.9c-1.9-3.3-4.4-5.8-7.6-7.7
			C446.1,80.6,442.6,79.7,438.8,79.7z M532.5,60.5v67.2h-1.9V94.5h-49v33.2h-1.9V60.5h1.9v32.2h49V60.5H532.5z M572.2,77.8
			c5.8,0,10.1,1.5,13.2,4.5c3.1,2.9,4.6,7.2,4.6,12.9v32.5h-1.9v-10.6c-1.6,3.4-4,6-7.3,8c-3.2,1.9-7.1,2.9-11.6,2.9
			c-5.5,0-9.8-1.2-13-3.7c-3.1-2.6-4.6-6-4.6-10.2c0-4,1.4-7.2,4.1-9.6c2.8-2.5,7.3-3.7,13.5-3.7h18.8v-5.5c0-5.2-1.3-9.1-4-11.7
			c-2.6-2.6-6.5-3.9-11.7-3.9c-3.6,0-6.9,0.6-10.1,1.9c-3.1,1.2-5.7,2.9-8,5l-1.3-1.3c2.4-2.3,5.2-4.1,8.6-5.4
			C565,78.5,568.5,77.8,572.2,77.8z M569.2,126.2c9.2,0,15.5-4.2,18.9-12.7v-10.9h-18.9c-5.4,0-9.3,1-11.9,3.1
			c-2.5,2-3.7,4.8-3.7,8.4c0,3.8,1.4,6.8,4.1,8.9S564.2,126.2,569.2,126.2z M634,124.5c-1.1,1.2-2.5,2-4.3,2.7
			c-1.7,0.6-3.5,0.9-5.4,0.9c-3.8,0-6.8-1.1-8.9-3.3c-2-2.2-3.1-5.2-3.1-8.9V79.9h-9.6v-1.8h9.6V67.3h1.9v10.8H631v1.8h-16.8v35.4
			c0,3.5,0.9,6.2,2.6,8.1c1.7,1.9,4.3,2.8,7.6,2.8s6.1-1,8.3-3.1L634,124.5z"/>
		<path class="st0" d="M177.4,239.2h-9.4v-0.7h19.4v0.7h-9.4v24.5h-0.7V239.2z M200.3,245c2.3,0,4.2,0.7,5.5,2c1.3,1.3,2,3.2,2,5.7
			v11h-0.7v-11c0-2.3-0.6-4-1.8-5.2c-1.2-1.2-2.8-1.8-4.9-1.8c-2.4,0-4.3,0.7-5.8,2.2c-1.4,1.4-2.1,3.3-2.1,5.7v10.1h-0.7V237h0.7
			v13.1c0.6-1.6,1.5-2.8,2.9-3.7C196.7,245.5,198.4,245,200.3,245z M230.9,254.4h-16.6c0,1.7,0.4,3.2,1.1,4.5
			c0.7,1.3,1.8,2.4,3.1,3.1c1.3,0.7,2.8,1.1,4.4,1.1c1.3,0,2.5-0.2,3.6-0.7c1.1-0.5,2.1-1.2,2.8-2.2l0.5,0.5c-0.8,1-1.8,1.7-3,2.3
			c-1.2,0.5-2.5,0.8-3.8,0.8c-1.8,0-3.4-0.4-4.8-1.2c-1.4-0.8-2.5-1.9-3.3-3.4c-0.8-1.4-1.2-3.1-1.2-4.9c0-1.8,0.4-3.4,1.1-4.8
			c0.7-1.4,1.8-2.6,3.1-3.3c1.3-0.8,2.8-1.2,4.4-1.2c1.6,0,3.1,0.4,4.4,1.2c1.3,0.8,2.4,1.9,3.1,3.3c0.8,1.4,1.2,3,1.2,4.8V254.4z
			 M222.2,245.7c-1.4,0-2.7,0.3-3.9,1c-1.2,0.7-2.1,1.7-2.8,2.9c-0.7,1.2-1.1,2.6-1.2,4.1h15.9c-0.1-1.5-0.5-2.9-1.2-4.1
			c-0.7-1.2-1.7-2.2-2.8-2.9S223.7,245.7,222.2,245.7z M252.8,263.9c-1.8,0-3.5-0.3-5.1-1c-1.6-0.7-2.8-1.5-3.7-2.6l0.5-0.5
			c0.8,1,2,1.8,3.5,2.4c1.5,0.6,3.1,0.9,4.8,0.9c2.6,0,4.6-0.5,5.9-1.5c1.3-1.1,2-2.4,2-4.1c0-1.3-0.3-2.3-1-3.1
			c-0.7-0.8-1.6-1.3-2.6-1.7c-1-0.4-2.4-0.8-4.1-1.2c-1.8-0.5-3.3-0.9-4.4-1.3c-1.1-0.4-2-1.1-2.8-1.9c-0.7-0.9-1.1-2.1-1.1-3.5
			c0-1.2,0.3-2.2,0.9-3.2c0.6-1,1.5-1.7,2.8-2.3c1.3-0.6,2.8-0.9,4.7-0.9c1.3,0,2.7,0.2,4,0.6c1.3,0.4,2.4,1,3.3,1.7l-0.4,0.6
			c-1-0.7-2.1-1.3-3.3-1.6c-1.2-0.4-2.4-0.6-3.6-0.6c-2.5,0-4.4,0.5-5.8,1.6c-1.3,1.1-2,2.4-2,4.1c0,1.3,0.3,2.3,1,3.1
			c0.7,0.8,1.6,1.3,2.6,1.7s2.4,0.8,4.2,1.2c1.8,0.5,3.3,0.9,4.4,1.3c1.1,0.4,2,1,2.7,1.9c0.7,0.8,1.1,2,1.1,3.4
			c0,1.2-0.3,2.2-0.9,3.2c-0.6,1-1.6,1.7-2.9,2.3C256.3,263.6,254.7,263.9,252.8,263.9z M282.6,254.4h-16.6c0,1.7,0.4,3.2,1.1,4.5
			c0.7,1.3,1.8,2.4,3.1,3.1c1.3,0.7,2.8,1.1,4.4,1.1c1.3,0,2.5-0.2,3.6-0.7c1.1-0.5,2.1-1.2,2.8-2.2l0.5,0.5c-0.8,1-1.8,1.7-3,2.3
			c-1.2,0.5-2.5,0.8-3.8,0.8c-1.8,0-3.4-0.4-4.8-1.2c-1.4-0.8-2.5-1.9-3.3-3.4c-0.8-1.4-1.2-3.1-1.2-4.9c0-1.8,0.4-3.4,1.1-4.8
			c0.7-1.4,1.8-2.6,3.1-3.3c1.3-0.8,2.8-1.2,4.4-1.2c1.6,0,3.1,0.4,4.4,1.2c1.3,0.8,2.4,1.9,3.1,3.3c0.8,1.4,1.2,3,1.2,4.8V254.4z
			 M274,245.7c-1.4,0-2.7,0.3-3.9,1s-2.1,1.7-2.8,2.9c-0.7,1.2-1.1,2.6-1.2,4.1H282c-0.1-1.5-0.5-2.9-1.2-4.1s-1.7-2.2-2.8-2.9
			C276.7,246.1,275.4,245.7,274,245.7z M297.2,245c2.3,0,4.2,0.7,5.5,2c1.3,1.3,2,3.2,2,5.7v11H304v-11c0-2.3-0.6-4-1.8-5.2
			c-1.2-1.2-2.8-1.8-4.9-1.8c-2.4,0-4.3,0.7-5.8,2.2c-1.4,1.4-2.1,3.3-2.1,5.7v10.1h-0.7v-18.6h0.7v5c0.6-1.6,1.5-2.8,2.9-3.7
			C293.7,245.5,295.3,245,297.2,245z M317,263.9c-1.5,0-2.9-0.2-4.2-0.7c-1.3-0.5-2.3-1.1-3.1-1.8l0.4-0.6c0.7,0.7,1.7,1.3,2.9,1.8
			c1.2,0.5,2.5,0.7,4,0.7c2.1,0,3.7-0.4,4.7-1.1c1-0.7,1.5-1.8,1.5-3.1c0-0.9-0.3-1.7-0.8-2.2c-0.5-0.6-1.2-0.9-2-1.2
			c-0.8-0.3-1.8-0.5-3.2-0.8c-1.5-0.3-2.7-0.5-3.6-0.8c-0.9-0.3-1.6-0.8-2.3-1.4c-0.6-0.7-0.9-1.6-0.9-2.8c0-1.3,0.6-2.5,1.7-3.4
			c1.1-0.9,2.8-1.4,4.9-1.4c1.2,0,2.3,0.2,3.4,0.5c1.1,0.3,2,0.8,2.7,1.4l-0.4,0.6c-0.7-0.6-1.6-1-2.6-1.3c-1-0.3-2.1-0.5-3.1-0.5
			c-1.9,0-3.4,0.4-4.4,1.2c-1,0.7-1.4,1.7-1.4,3c0,1,0.3,1.8,0.8,2.3c0.6,0.6,1.2,1,2.1,1.2c0.8,0.3,1.9,0.5,3.2,0.8
			c1.5,0.3,2.6,0.6,3.5,0.9c0.9,0.3,1.6,0.8,2.2,1.4c0.6,0.6,0.9,1.5,0.9,2.6c0,1.5-0.6,2.6-1.8,3.5
			C321,263.4,319.3,263.9,317,263.9z M344.5,254.4h-16.6c0,1.7,0.4,3.2,1.1,4.5c0.7,1.3,1.8,2.4,3.1,3.1c1.3,0.7,2.8,1.1,4.4,1.1
			c1.3,0,2.5-0.2,3.6-0.7c1.1-0.5,2.1-1.2,2.8-2.2l0.5,0.5c-0.8,1-1.8,1.7-3,2.3c-1.2,0.5-2.5,0.8-3.8,0.8c-1.8,0-3.4-0.4-4.8-1.2
			c-1.4-0.8-2.5-1.9-3.3-3.4c-0.8-1.4-1.2-3.1-1.2-4.9c0-1.8,0.4-3.4,1.1-4.8c0.7-1.4,1.8-2.6,3.1-3.3c1.3-0.8,2.8-1.2,4.4-1.2
			c1.6,0,3.1,0.4,4.4,1.2c1.3,0.8,2.4,1.9,3.1,3.3c0.8,1.4,1.2,3,1.2,4.8V254.4z M335.8,245.7c-1.4,0-2.7,0.3-3.9,1
			s-2.1,1.7-2.8,2.9c-0.7,1.2-1.1,2.6-1.2,4.1h15.9c-0.1-1.5-0.5-2.9-1.2-4.1s-1.7-2.2-2.8-2.9S337.3,245.7,335.8,245.7z M380,238.5
			v25.2h-0.7v-12.5h-18.4v12.5h-0.7v-25.2h0.7v12.1h18.4v-12.1H380z M394.9,245c2.2,0,3.8,0.6,4.9,1.7c1.2,1.1,1.7,2.7,1.7,4.8v12.2
			h-0.7v-4c-0.6,1.3-1.5,2.3-2.7,3c-1.2,0.7-2.7,1.1-4.4,1.1c-2.1,0-3.7-0.5-4.9-1.4c-1.2-1-1.7-2.2-1.7-3.8c0-1.5,0.5-2.7,1.5-3.6
			c1.1-0.9,2.7-1.4,5.1-1.4h7.1v-2.1c0-1.9-0.5-3.4-1.5-4.4c-1-1-2.4-1.5-4.4-1.5c-1.3,0-2.6,0.2-3.8,0.7c-1.2,0.5-2.1,1.1-3,1.9
			l-0.5-0.5c0.9-0.9,2-1.5,3.2-2C392.2,245.3,393.5,245,394.9,245z M393.7,263.2c3.5,0,5.8-1.6,7.1-4.8v-4.1h-7.1
			c-2,0-3.5,0.4-4.5,1.2c-0.9,0.8-1.4,1.8-1.4,3.1c0,1.4,0.5,2.5,1.5,3.3C390.4,262.8,391.9,263.2,393.7,263.2z M418,262.5
			c-0.4,0.4-0.9,0.8-1.6,1c-0.6,0.2-1.3,0.3-2,0.3c-1.4,0-2.6-0.4-3.3-1.2c-0.8-0.8-1.2-2-1.2-3.3v-13.5h-3.6v-0.7h3.6v-4.1h0.7v4.1
			h6.3v0.7h-6.3v13.3c0,1.3,0.3,2.3,1,3c0.6,0.7,1.6,1,2.8,1c1.2,0,2.3-0.4,3.1-1.2L418,262.5z M432.6,245.1h0.7v18.6h-0.7V245.1z
			 M432.9,240c-0.3,0-0.5-0.1-0.7-0.3c-0.2-0.2-0.3-0.4-0.3-0.6c0-0.3,0.1-0.5,0.3-0.6c0.2-0.2,0.4-0.3,0.7-0.3
			c0.2,0,0.5,0.1,0.6,0.3c0.2,0.2,0.3,0.4,0.3,0.6c0,0.2-0.1,0.5-0.3,0.6C433.4,239.9,433.2,240,432.9,240z M445.9,263.9
			c-1.5,0-2.9-0.2-4.2-0.7c-1.3-0.5-2.3-1.1-3.1-1.8l0.4-0.6c0.7,0.7,1.7,1.3,2.9,1.8c1.2,0.5,2.5,0.7,4,0.7c2.1,0,3.7-0.4,4.7-1.1
			c1-0.7,1.5-1.8,1.5-3.1c0-0.9-0.3-1.7-0.8-2.2c-0.5-0.6-1.2-0.9-2-1.2c-0.8-0.3-1.8-0.5-3.2-0.8c-1.5-0.3-2.7-0.5-3.6-0.8
			c-0.9-0.3-1.6-0.8-2.3-1.4c-0.6-0.7-0.9-1.6-0.9-2.8c0-1.3,0.6-2.5,1.7-3.4c1.1-0.9,2.8-1.4,4.9-1.4c1.2,0,2.3,0.2,3.4,0.5
			c1.1,0.3,2,0.8,2.7,1.4l-0.4,0.6c-0.7-0.6-1.6-1-2.6-1.3c-1-0.3-2.1-0.5-3.1-0.5c-1.9,0-3.4,0.4-4.4,1.2c-1,0.7-1.4,1.7-1.4,3
			c0,1,0.3,1.8,0.8,2.3c0.6,0.6,1.2,1,2.1,1.2c0.8,0.3,1.9,0.5,3.2,0.8c1.5,0.3,2.6,0.6,3.5,0.9c0.9,0.3,1.6,0.8,2.2,1.4
			c0.6,0.6,0.9,1.5,0.9,2.6c0,1.5-0.6,2.6-1.8,3.5C449.8,263.4,448.1,263.9,445.9,263.9z M475.7,262.5c-0.4,0.4-0.9,0.8-1.6,1
			c-0.6,0.2-1.3,0.3-2,0.3c-1.4,0-2.6-0.4-3.3-1.2c-0.8-0.8-1.2-2-1.2-3.3v-13.5h-3.6v-0.7h3.6v-4.1h0.7v4.1h6.3v0.7h-6.3v13.3
			c0,1.3,0.3,2.3,1,3c0.6,0.7,1.6,1,2.8,1c1.2,0,2.3-0.4,3.1-1.2L475.7,262.5z M489.7,245c2.3,0,4.2,0.7,5.5,2c1.3,1.3,2,3.2,2,5.7
			v11h-0.7v-11c0-2.3-0.6-4-1.8-5.2c-1.2-1.2-2.8-1.8-4.9-1.8c-2.4,0-4.3,0.7-5.8,2.2c-1.4,1.4-2.1,3.3-2.1,5.7v10.1h-0.7V237h0.7
			v13.1c0.6-1.6,1.5-2.8,2.9-3.7C486.1,245.5,487.8,245,489.7,245z M520.3,254.4h-16.6c0,1.7,0.4,3.2,1.1,4.5
			c0.7,1.3,1.8,2.4,3.1,3.1c1.3,0.7,2.8,1.1,4.4,1.1c1.3,0,2.5-0.2,3.6-0.7c1.1-0.5,2.1-1.2,2.8-2.2l0.5,0.5c-0.8,1-1.8,1.7-3,2.3
			c-1.2,0.5-2.5,0.8-3.8,0.8c-1.8,0-3.4-0.4-4.8-1.2c-1.4-0.8-2.5-1.9-3.3-3.4c-0.8-1.4-1.2-3.1-1.2-4.9c0-1.8,0.4-3.4,1.1-4.8
			c0.7-1.4,1.8-2.6,3.1-3.3c1.3-0.8,2.8-1.2,4.4-1.2c1.6,0,3.1,0.4,4.4,1.2c1.3,0.8,2.4,1.9,3.1,3.3c0.8,1.4,1.2,3,1.2,4.8V254.4z
			 M511.7,245.7c-1.4,0-2.7,0.3-3.9,1c-1.2,0.7-2.1,1.7-2.8,2.9c-0.7,1.2-1.1,2.6-1.2,4.1h15.9c-0.1-1.5-0.5-2.9-1.2-4.1
			c-0.7-1.2-1.7-2.2-2.8-2.9S513.1,245.7,511.7,245.7z M558.5,245c2.3,0,4,0.7,5.3,2c1.3,1.3,1.9,3.2,1.9,5.7v11H565v-11
			c0-2.3-0.6-4-1.7-5.2c-1.1-1.2-2.7-1.8-4.8-1.8c-2.4,0-4.2,0.7-5.6,2.2c-1.4,1.4-2.1,3.3-2.1,5.7v10.1h-0.7v-11
			c0-2.3-0.6-4-1.7-5.2c-1.1-1.2-2.7-1.8-4.8-1.8c-2.4,0-4.2,0.7-5.6,2.2c-1.4,1.4-2.1,3.3-2.1,5.7v10.1h-0.7v-18.6h0.7v4.9
			c0.6-1.6,1.5-2.8,2.8-3.7s2.9-1.3,4.8-1.3c1.9,0,3.5,0.5,4.7,1.4c1.2,0.9,2,2.3,2.4,4.1c0.5-1.7,1.4-3,2.7-4
			C554.8,245.5,556.5,245,558.5,245z M580.7,263.9c-1.7,0-3.3-0.4-4.6-1.2c-1.4-0.8-2.4-1.9-3.2-3.4c-0.8-1.4-1.2-3.1-1.2-4.9
			c0-1.8,0.4-3.4,1.2-4.8c0.8-1.4,1.9-2.6,3.2-3.3c1.4-0.8,2.9-1.2,4.6-1.2c1.7,0,3.2,0.4,4.6,1.2c1.4,0.8,2.5,1.9,3.2,3.3
			c0.8,1.4,1.2,3,1.2,4.8c0,1.8-0.4,3.4-1.2,4.9c-0.8,1.4-1.8,2.6-3.2,3.4C583.9,263.5,582.4,263.9,580.7,263.9z M580.7,263.2
			c1.6,0,3-0.4,4.2-1.1c1.3-0.7,2.3-1.8,3-3.1c0.7-1.3,1.1-2.9,1.1-4.5c0-1.7-0.4-3.2-1.1-4.5c-0.7-1.3-1.7-2.4-3-3.1
			c-1.3-0.7-2.7-1.1-4.2-1.1s-3,0.4-4.2,1.1c-1.3,0.7-2.3,1.8-3,3.1c-0.7,1.3-1.1,2.8-1.1,4.5c0,1.7,0.4,3.2,1.1,4.5
			c0.7,1.3,1.7,2.4,3,3.1C577.7,262.8,579.1,263.2,580.7,263.2z M600.1,263.9c-1.5,0-2.9-0.2-4.2-0.7c-1.3-0.5-2.3-1.1-3.1-1.8
			l0.4-0.6c0.7,0.7,1.7,1.3,2.9,1.8c1.2,0.5,2.5,0.7,4,0.7c2.1,0,3.7-0.4,4.7-1.1c1-0.7,1.5-1.8,1.5-3.1c0-0.9-0.3-1.7-0.8-2.2
			c-0.5-0.6-1.2-0.9-2-1.2c-0.8-0.3-1.8-0.5-3.2-0.8c-1.5-0.3-2.7-0.5-3.6-0.8c-0.9-0.3-1.6-0.8-2.3-1.4c-0.6-0.7-0.9-1.6-0.9-2.8
			c0-1.3,0.6-2.5,1.7-3.4c1.1-0.9,2.8-1.4,4.9-1.4c1.2,0,2.3,0.2,3.4,0.5c1.1,0.3,2,0.8,2.7,1.4l-0.4,0.6c-0.7-0.6-1.6-1-2.6-1.3
			c-1-0.3-2.1-0.5-3.1-0.5c-1.9,0-3.4,0.4-4.4,1.2c-1,0.7-1.4,1.7-1.4,3c0,1,0.3,1.8,0.8,2.3c0.6,0.6,1.2,1,2.1,1.2
			c0.8,0.3,1.9,0.5,3.2,0.8c1.5,0.3,2.6,0.6,3.5,0.9s1.6,0.8,2.2,1.4c0.6,0.6,0.9,1.5,0.9,2.6c0,1.5-0.6,2.6-1.8,3.5
			C604.1,263.4,602.3,263.9,600.1,263.9z M620.9,262.5c-0.4,0.4-0.9,0.8-1.6,1c-0.6,0.2-1.3,0.3-2,0.3c-1.4,0-2.6-0.4-3.3-1.2
			c-0.8-0.8-1.2-2-1.2-3.3v-13.5h-3.6v-0.7h3.6v-4.1h0.7v4.1h6.3v0.7h-6.3v13.3c0,1.3,0.3,2.3,1,3c0.6,0.7,1.6,1,2.8,1
			s2.3-0.4,3.1-1.2L620.9,262.5z M181.1,289c1.7,0,3.2,0.4,4.6,1.2c1.4,0.8,2.5,1.9,3.3,3.3c0.8,1.4,1.2,3.1,1.2,4.9
			s-0.4,3.4-1.2,4.9c-0.8,1.4-1.9,2.5-3.3,3.3c-1.4,0.8-2.9,1.2-4.6,1.2c-1.9,0-3.6-0.5-5.1-1.5c-1.5-1.1-2.5-2.5-3.2-4.2v12.6h-0.7
			v-25.6h0.7v5.7c0.6-1.8,1.7-3.2,3.2-4.2C177.4,289.6,179.2,289,181.1,289z M181.1,307.2c1.6,0,3-0.4,4.2-1.1
			c1.3-0.7,2.3-1.8,3-3.1c0.7-1.3,1.1-2.9,1.1-4.5s-0.4-3.2-1.1-4.5c-0.7-1.3-1.7-2.4-3-3.1c-1.3-0.7-2.7-1.1-4.2-1.1
			c-1.6,0-3,0.4-4.2,1.1c-1.3,0.7-2.3,1.8-3,3.1c-0.7,1.3-1.1,2.8-1.1,4.5s0.4,3.2,1.1,4.5c0.7,1.3,1.7,2.4,3,3.1
			C178.1,306.8,179.5,307.2,181.1,307.2z M203.1,307.9c-1.7,0-3.3-0.4-4.6-1.2c-1.4-0.8-2.4-1.9-3.2-3.4c-0.8-1.4-1.2-3.1-1.2-4.9
			c0-1.8,0.4-3.4,1.2-4.8c0.8-1.4,1.9-2.6,3.2-3.3c1.4-0.8,2.9-1.2,4.6-1.2c1.7,0,3.2,0.4,4.6,1.2c1.4,0.8,2.5,1.9,3.2,3.3
			c0.8,1.4,1.2,3,1.2,4.8c0,1.8-0.4,3.4-1.2,4.9c-0.8,1.4-1.8,2.6-3.2,3.4C206.3,307.5,204.8,307.9,203.1,307.9z M203.1,307.2
			c1.6,0,3-0.4,4.2-1.1c1.3-0.7,2.3-1.8,3-3.1c0.7-1.3,1.1-2.9,1.1-4.5c0-1.7-0.4-3.2-1.1-4.5c-0.7-1.3-1.7-2.4-3-3.1
			c-1.3-0.7-2.7-1.1-4.2-1.1c-1.6,0-3,0.4-4.2,1.1c-1.3,0.7-2.3,1.8-3,3.1c-0.7,1.3-1.1,2.8-1.1,4.5c0,1.7,0.4,3.2,1.1,4.5
			c0.7,1.3,1.7,2.4,3,3.1C200.1,306.8,201.5,307.2,203.1,307.2z M227.2,289c1.7,0,3.2,0.4,4.6,1.2c1.4,0.8,2.5,1.9,3.3,3.3
			c0.8,1.4,1.2,3.1,1.2,4.9s-0.4,3.4-1.2,4.9c-0.8,1.4-1.9,2.5-3.3,3.3c-1.4,0.8-2.9,1.2-4.6,1.2c-1.9,0-3.6-0.5-5.1-1.5
			c-1.5-1.1-2.5-2.5-3.2-4.2v12.6h-0.7v-25.6h0.7v5.7c0.6-1.8,1.7-3.2,3.2-4.2C223.6,289.6,225.3,289,227.2,289z M227.2,307.2
			c1.6,0,3-0.4,4.2-1.1c1.3-0.7,2.3-1.8,3-3.1c0.7-1.3,1.1-2.9,1.1-4.5s-0.4-3.2-1.1-4.5c-0.7-1.3-1.7-2.4-3-3.1
			c-1.3-0.7-2.7-1.1-4.2-1.1c-1.6,0-3,0.4-4.2,1.1c-1.3,0.7-2.3,1.8-3,3.1c-0.7,1.3-1.1,2.8-1.1,4.5s0.4,3.2,1.1,4.5
			c0.7,1.3,1.7,2.4,3,3.1C224.3,306.8,225.7,307.2,227.2,307.2z M258,289.1v18.6h-0.7v-4.9c-0.6,1.6-1.5,2.8-2.8,3.7
			c-1.3,0.9-2.9,1.3-4.7,1.3c-2.4,0-4.3-0.7-5.6-2c-1.3-1.3-2-3.3-2-5.8v-11h0.7v11c0,2.3,0.6,4,1.8,5.3c1.2,1.2,2.9,1.8,5.1,1.8
			c2.3,0,4.2-0.7,5.5-2.2c1.3-1.5,2-3.4,2-5.8v-10.1H258z M266.3,281h0.7v26.7h-0.7V281z M281.2,289c2.2,0,3.8,0.6,4.9,1.7
			c1.2,1.1,1.7,2.7,1.7,4.8v12.2h-0.7v-4c-0.6,1.3-1.5,2.3-2.7,3c-1.2,0.7-2.7,1.1-4.4,1.1c-2.1,0-3.7-0.5-4.9-1.4
			c-1.2-1-1.7-2.2-1.7-3.8c0-1.5,0.5-2.7,1.5-3.6c1.1-0.9,2.7-1.4,5.1-1.4h7.1v-2.1c0-1.9-0.5-3.4-1.5-4.4c-1-1-2.4-1.5-4.4-1.5
			c-1.3,0-2.6,0.2-3.8,0.7c-1.2,0.5-2.1,1.1-3,1.9l-0.5-0.5c0.9-0.9,2-1.5,3.2-2C278.5,289.3,279.8,289,281.2,289z M280,307.2
			c3.5,0,5.8-1.6,7.1-4.8v-4.1H280c-2,0-3.5,0.4-4.5,1.2c-0.9,0.8-1.4,1.8-1.4,3.1c0,1.4,0.5,2.5,1.5,3.3
			C276.8,306.8,278.2,307.2,280,307.2z M296.6,294c0.5-1.6,1.4-2.8,2.7-3.6c1.2-0.9,2.8-1.3,4.6-1.3v0.7h-0.2c-2.2,0-4,0.7-5.2,2.2
			c-1.2,1.4-1.9,3.4-1.9,5.8v10h-0.7v-18.6h0.7V294z M339.2,282.5v25.2h-0.7v-12.5h-18.4v12.5h-0.7v-25.2h0.7v12.1h18.4v-12.1H339.2
			z M364,300.2h-15.4l-3.5,7.6h-0.8l11.7-25.2h0.7l11.7,25.2h-0.8L364,300.2z M363.7,299.5l-7.4-15.9l-7.4,15.9H363.7z M377,283.2
			h-9.4v-0.7h19.4v0.7h-9.4v24.5H377V283.2z M407.2,307.9c-1.7,0-3.3-0.4-4.6-1.2c-1.4-0.8-2.4-1.9-3.2-3.4
			c-0.8-1.4-1.2-3.1-1.2-4.9c0-1.8,0.4-3.4,1.2-4.8c0.8-1.4,1.9-2.6,3.2-3.3c1.4-0.8,2.9-1.2,4.6-1.2c1.7,0,3.2,0.4,4.6,1.2
			c1.4,0.8,2.5,1.9,3.2,3.3c0.8,1.4,1.2,3,1.2,4.8c0,1.8-0.4,3.4-1.2,4.9c-0.8,1.4-1.8,2.6-3.2,3.4
			C410.4,307.5,408.9,307.9,407.2,307.9z M407.2,307.2c1.6,0,3-0.4,4.2-1.1c1.3-0.7,2.3-1.8,3-3.1c0.7-1.3,1.1-2.9,1.1-4.5
			c0-1.7-0.4-3.2-1.1-4.5c-0.7-1.3-1.7-2.4-3-3.1c-1.3-0.7-2.7-1.1-4.2-1.1s-3,0.4-4.2,1.1c-1.3,0.7-2.3,1.8-3,3.1
			c-0.7,1.3-1.1,2.8-1.1,4.5c0,1.7,0.4,3.2,1.1,4.5c0.7,1.3,1.7,2.4,3,3.1C404.2,306.8,405.6,307.2,407.2,307.2z M430.8,289
			c2.3,0,4.2,0.7,5.5,2c1.3,1.3,2,3.2,2,5.7v11h-0.7v-11c0-2.3-0.6-4-1.8-5.2c-1.2-1.2-2.8-1.8-4.9-1.8c-2.4,0-4.3,0.7-5.8,2.2
			c-1.4,1.4-2.1,3.3-2.1,5.7v10.1h-0.7v-18.6h0.7v5c0.6-1.6,1.5-2.8,2.9-3.7C427.3,289.5,428.9,289,430.8,289z M473.9,307.7
			l-6.4-8.9c-0.8,0.2-1.8,0.3-3,0.3h-7.8v8.6H456v-25.2h8.5c3.1,0,5.5,0.7,7.3,2.2c1.8,1.4,2.6,3.5,2.6,6.1c0,2-0.5,3.7-1.6,5.1
			c-1.1,1.3-2.6,2.3-4.6,2.8l6.6,9.1H473.9z M464.6,298.4c2.9,0,5.2-0.7,6.7-2c1.6-1.3,2.4-3.2,2.4-5.6c0-2.4-0.8-4.3-2.4-5.6
			c-1.6-1.3-3.8-2-6.7-2h-7.9v15.2H464.6z M486.9,289c2.2,0,3.8,0.6,4.9,1.7c1.2,1.1,1.7,2.7,1.7,4.8v12.2h-0.7v-4
			c-0.6,1.3-1.5,2.3-2.7,3c-1.2,0.7-2.7,1.1-4.4,1.1c-2.1,0-3.7-0.5-4.9-1.4c-1.2-1-1.7-2.2-1.7-3.8c0-1.5,0.5-2.7,1.5-3.6
			c1.1-0.9,2.7-1.4,5.1-1.4h7.1v-2.1c0-1.9-0.5-3.4-1.5-4.4c-1-1-2.4-1.5-4.4-1.5c-1.3,0-2.6,0.2-3.8,0.7c-1.2,0.5-2.1,1.1-3,1.9
			l-0.5-0.5c0.9-0.9,2-1.5,3.2-2C484.2,289.3,485.5,289,486.9,289z M485.7,307.2c3.5,0,5.8-1.6,7.1-4.8v-4.1h-7.1
			c-2,0-3.5,0.4-4.5,1.2c-0.9,0.8-1.4,1.8-1.4,3.1c0,1.4,0.5,2.5,1.5,3.3C482.5,306.8,483.9,307.2,485.7,307.2z M505.9,307.9
			c-1.5,0-2.9-0.2-4.2-0.7c-1.3-0.5-2.3-1.1-3.1-1.8l0.4-0.6c0.7,0.7,1.7,1.3,2.9,1.8c1.2,0.5,2.5,0.7,4,0.7c2.1,0,3.7-0.4,4.7-1.1
			c1-0.7,1.5-1.8,1.5-3.1c0-0.9-0.3-1.7-0.8-2.2c-0.5-0.6-1.2-0.9-2-1.2c-0.8-0.3-1.8-0.5-3.2-0.8c-1.5-0.3-2.7-0.5-3.6-0.8
			c-0.9-0.3-1.6-0.8-2.3-1.4c-0.6-0.7-0.9-1.6-0.9-2.8c0-1.3,0.6-2.5,1.7-3.4c1.1-0.9,2.8-1.4,4.9-1.4c1.2,0,2.3,0.2,3.4,0.5
			c1.1,0.3,2,0.8,2.7,1.4l-0.4,0.6c-0.7-0.6-1.6-1-2.6-1.3s-2.1-0.5-3.1-0.5c-1.9,0-3.4,0.4-4.4,1.2c-1,0.7-1.4,1.7-1.4,3
			c0,1,0.3,1.8,0.8,2.3c0.6,0.6,1.2,1,2.1,1.2c0.8,0.3,1.9,0.5,3.2,0.8c1.5,0.3,2.6,0.6,3.5,0.9c0.9,0.3,1.6,0.8,2.2,1.4
			c0.6,0.6,0.9,1.5,0.9,2.6c0,1.5-0.6,2.6-1.8,3.5C509.9,307.4,508.2,307.9,505.9,307.9z M527.3,289c1.7,0,3.2,0.4,4.6,1.2
			c1.4,0.8,2.5,1.9,3.3,3.3c0.8,1.4,1.2,3.1,1.2,4.9s-0.4,3.4-1.2,4.9c-0.8,1.4-1.9,2.5-3.3,3.3c-1.4,0.8-2.9,1.2-4.6,1.2
			c-1.9,0-3.6-0.5-5.1-1.5c-1.5-1.1-2.5-2.5-3.2-4.2v12.6h-0.7v-25.6h0.7v5.7c0.6-1.8,1.7-3.2,3.2-4.2
			C523.7,289.6,525.4,289,527.3,289z M527.3,307.2c1.6,0,3-0.4,4.2-1.1c1.3-0.7,2.3-1.8,3-3.1c0.7-1.3,1.1-2.9,1.1-4.5
			s-0.4-3.2-1.1-4.5c-0.7-1.3-1.7-2.4-3-3.1c-1.3-0.7-2.7-1.1-4.2-1.1s-3,0.4-4.2,1.1c-1.3,0.7-2.3,1.8-3,3.1
			c-0.7,1.3-1.1,2.8-1.1,4.5s0.4,3.2,1.1,4.5c0.7,1.3,1.7,2.4,3,3.1C524.3,306.8,525.8,307.2,527.3,307.2z M551.5,289
			c1.7,0,3.2,0.4,4.6,1.2c1.4,0.8,2.5,1.9,3.3,3.3c0.8,1.4,1.2,3,1.2,4.8c0,1.8-0.4,3.4-1.2,4.9s-1.9,2.6-3.3,3.4
			c-1.4,0.8-2.9,1.2-4.6,1.2c-1.9,0-3.7-0.5-5.1-1.5c-1.5-1.1-2.5-2.5-3.2-4.2v5.7h-0.7V281h0.7v13.8c0.6-1.8,1.7-3.1,3.2-4.2
			C547.8,289.6,549.6,289,551.5,289z M551.5,307.2c1.6,0,3-0.4,4.2-1.1c1.3-0.7,2.3-1.8,3-3.1c0.7-1.3,1.1-2.9,1.1-4.5
			c0-1.7-0.4-3.2-1.1-4.5c-0.7-1.3-1.7-2.4-3-3.1c-1.3-0.7-2.7-1.1-4.2-1.1s-3,0.4-4.2,1.1c-1.3,0.7-2.3,1.8-3,3.1
			c-0.7,1.3-1.1,2.8-1.1,4.5c0,1.7,0.4,3.2,1.1,4.5c0.7,1.3,1.7,2.4,3,3.1C548.5,306.8,549.9,307.2,551.5,307.2z M581.6,298.4h-16.6
			c0,1.7,0.4,3.2,1.1,4.5c0.7,1.3,1.8,2.4,3.1,3.1c1.3,0.7,2.8,1.1,4.4,1.1c1.3,0,2.5-0.2,3.6-0.7c1.1-0.5,2.1-1.2,2.8-2.2l0.5,0.5
			c-0.8,1-1.8,1.7-3,2.3c-1.2,0.5-2.5,0.8-3.8,0.8c-1.8,0-3.4-0.4-4.8-1.2c-1.4-0.8-2.5-1.9-3.3-3.4c-0.8-1.4-1.2-3.1-1.2-4.9
			c0-1.8,0.4-3.4,1.1-4.8c0.7-1.4,1.8-2.6,3.1-3.3c1.3-0.8,2.8-1.2,4.4-1.2c1.6,0,3.1,0.4,4.4,1.2c1.3,0.8,2.4,1.9,3.1,3.3
			c0.8,1.4,1.2,3,1.2,4.8V298.4z M573,289.7c-1.4,0-2.7,0.3-3.9,1c-1.2,0.7-2.1,1.7-2.8,2.9c-0.7,1.2-1.1,2.6-1.2,4.1H581
			c-0.1-1.5-0.5-2.9-1.2-4.1c-0.7-1.2-1.7-2.2-2.8-2.9C575.7,290.1,574.4,289.7,573,289.7z M588.4,294c0.5-1.6,1.4-2.8,2.7-3.6
			c1.2-0.9,2.8-1.3,4.6-1.3v0.7h-0.2c-2.2,0-4,0.7-5.2,2.2c-1.2,1.4-1.9,3.4-1.9,5.8v10h-0.7v-18.6h0.7V294z M601.9,294
			c0.5-1.6,1.4-2.8,2.7-3.6c1.2-0.9,2.8-1.3,4.6-1.3v0.7H609c-2.2,0-4,0.7-5.2,2.2c-1.2,1.4-1.9,3.4-1.9,5.8v10h-0.7v-18.6h0.7V294z
			 M629.4,289.1l-9.9,21.6c-0.7,1.5-1.4,2.5-2.3,3.2c-0.8,0.6-1.8,0.9-3,0.9c-1.7,0-3-0.6-4-1.7l0.5-0.6c0.5,0.6,1,0.9,1.6,1.2
			s1.2,0.4,1.9,0.4c1,0,1.8-0.3,2.5-0.8c0.7-0.5,1.4-1.5,2-2.8l1.3-2.8l-8.5-18.5h0.8l8.1,17.8l8.1-17.8H629.4z M181.2,326.5
			c3.1,0,5.5,0.7,7.3,2.2c1.8,1.4,2.6,3.5,2.6,6.1c0,2.6-0.9,4.7-2.6,6.1c-1.8,1.4-4.2,2.2-7.3,2.2h-7.8v8.6h-0.7v-25.2H181.2z
			 M181.3,342.4c2.9,0,5.2-0.7,6.7-2c1.6-1.3,2.4-3.2,2.4-5.6c0-2.4-0.8-4.3-2.4-5.6c-1.6-1.3-3.8-2-6.7-2h-7.9v15.2H181.3z
			 M196.5,333.1h0.7v18.6h-0.7V333.1z M196.9,328c-0.3,0-0.5-0.1-0.7-0.3c-0.2-0.2-0.3-0.4-0.3-0.6c0-0.3,0.1-0.5,0.3-0.6
			c0.2-0.2,0.4-0.3,0.7-0.3c0.2,0,0.5,0.1,0.6,0.3c0.2,0.2,0.3,0.4,0.3,0.6c0,0.2-0.1,0.5-0.3,0.6C197.4,327.9,197.1,328,196.9,328z
			 M215.2,326.5h0.7v25.2h-0.7V326.5z M233.3,350.5c-0.4,0.4-0.9,0.8-1.6,1c-0.6,0.2-1.3,0.3-2,0.3c-1.4,0-2.6-0.4-3.3-1.2
			c-0.8-0.8-1.2-2-1.2-3.3v-13.5h-3.6v-0.7h3.6v-4.1h0.7v4.1h6.3v0.7h-6.3v13.3c0,1.3,0.3,2.3,1,3c0.6,0.7,1.6,1,2.8,1
			s2.3-0.4,3.1-1.2L233.3,350.5z M237.9,324.9c0.3,0,0.5,0.1,0.6,0.3c0.2,0.2,0.3,0.4,0.3,0.6c0,0.2,0,0.5-0.1,1l-1.2,4.8h-0.6
			l1-4.9c-0.3,0-0.5-0.1-0.7-0.3c-0.2-0.2-0.3-0.4-0.3-0.6c0-0.3,0.1-0.5,0.3-0.6C237.4,325,237.7,324.9,237.9,324.9z M249.1,351.9
			c-1.5,0-2.9-0.2-4.2-0.7c-1.3-0.5-2.3-1.1-3.1-1.8l0.4-0.6c0.7,0.7,1.7,1.3,2.9,1.8c1.2,0.5,2.5,0.7,4,0.7c2.1,0,3.7-0.4,4.7-1.1
			c1-0.7,1.5-1.8,1.5-3.1c0-0.9-0.3-1.7-0.8-2.2c-0.5-0.6-1.2-0.9-2-1.2c-0.8-0.3-1.8-0.5-3.2-0.8c-1.5-0.3-2.7-0.5-3.6-0.8
			c-0.9-0.3-1.6-0.8-2.3-1.4c-0.6-0.7-0.9-1.6-0.9-2.8c0-1.3,0.6-2.5,1.7-3.4c1.1-0.9,2.8-1.4,4.9-1.4c1.2,0,2.3,0.2,3.4,0.5
			c1.1,0.3,2,0.8,2.7,1.4l-0.4,0.6c-0.7-0.6-1.6-1-2.6-1.3c-1-0.3-2.1-0.5-3.1-0.5c-1.9,0-3.4,0.4-4.4,1.2c-1,0.7-1.4,1.7-1.4,3
			c0,1,0.3,1.8,0.8,2.3c0.6,0.6,1.2,1,2.1,1.2c0.8,0.3,1.9,0.5,3.2,0.8c1.5,0.3,2.6,0.6,3.5,0.9c0.9,0.3,1.6,0.8,2.2,1.4
			c0.6,0.6,0.9,1.5,0.9,2.6c0,1.5-0.6,2.6-1.8,3.5C253.1,351.4,251.3,351.9,249.1,351.9z M276.4,333c2.2,0,3.8,0.6,4.9,1.7
			c1.2,1.1,1.7,2.7,1.7,4.8v12.2h-0.7v-4c-0.6,1.3-1.5,2.3-2.7,3c-1.2,0.7-2.7,1.1-4.4,1.1c-2.1,0-3.7-0.5-4.9-1.4
			c-1.2-1-1.7-2.2-1.7-3.8c0-1.5,0.5-2.7,1.5-3.6c1.1-0.9,2.7-1.4,5.1-1.4h7.1v-2.1c0-1.9-0.5-3.4-1.5-4.4c-1-1-2.4-1.5-4.4-1.5
			c-1.3,0-2.6,0.2-3.8,0.7c-1.2,0.5-2.1,1.1-3,1.9l-0.5-0.5c0.9-0.9,2-1.5,3.2-2C273.7,333.3,275,333,276.4,333z M275.3,351.2
			c3.5,0,5.8-1.6,7.1-4.8v-4.1h-7.1c-2,0-3.5,0.4-4.5,1.2c-0.9,0.8-1.4,1.8-1.4,3.1c0,1.4,0.5,2.5,1.5,3.3
			C272,350.8,273.4,351.2,275.3,351.2z M299.7,333c2.3,0,4.2,0.7,5.5,2c1.3,1.3,2,3.2,2,5.7v11h-0.7v-11c0-2.3-0.6-4-1.8-5.2
			c-1.2-1.2-2.8-1.8-4.9-1.8c-2.4,0-4.3,0.7-5.8,2.2c-1.4,1.4-2.1,3.3-2.1,5.7v10.1h-0.7v-18.6h0.7v5c0.6-1.6,1.5-2.8,2.9-3.7
			C296.1,333.5,297.7,333,299.7,333z M339.2,342.4h-16.6c0,1.7,0.4,3.2,1.1,4.5c0.7,1.3,1.8,2.4,3.1,3.1c1.3,0.7,2.8,1.1,4.4,1.1
			c1.3,0,2.5-0.2,3.6-0.7c1.1-0.5,2.1-1.2,2.8-2.2l0.5,0.5c-0.8,1-1.8,1.7-3,2.3c-1.2,0.5-2.5,0.8-3.8,0.8c-1.8,0-3.4-0.4-4.8-1.2
			c-1.4-0.8-2.5-1.9-3.3-3.4c-0.8-1.4-1.2-3.1-1.2-4.9c0-1.8,0.4-3.4,1.1-4.8c0.7-1.4,1.8-2.6,3.1-3.3c1.3-0.8,2.8-1.2,4.4-1.2
			c1.6,0,3.1,0.4,4.4,1.2c1.3,0.8,2.4,1.9,3.1,3.3c0.8,1.4,1.2,3,1.2,4.8V342.4z M330.6,333.7c-1.4,0-2.7,0.3-3.9,1
			c-1.2,0.7-2.1,1.7-2.8,2.9c-0.7,1.2-1.1,2.6-1.2,4.1h15.9c-0.1-1.5-0.5-2.9-1.2-4.1s-1.7-2.2-2.8-2.9
			C333.3,334.1,332,333.7,330.6,333.7z M356.6,351.7l-7-9.1l-7.1,9.1h-0.9l7.5-9.6l-7.1-9h0.9l6.6,8.5l6.6-8.5h0.9l-7,9l7.6,9.6
			H356.6z M371.8,333c1.7,0,3.2,0.4,4.6,1.2c1.4,0.8,2.5,1.9,3.3,3.3s1.2,3.1,1.2,4.9c0,1.8-0.4,3.4-1.2,4.9
			c-0.8,1.4-1.9,2.5-3.3,3.3c-1.4,0.8-2.9,1.2-4.6,1.2c-1.9,0-3.6-0.5-5.1-1.5c-1.5-1.1-2.5-2.5-3.2-4.2v12.6h-0.7v-25.6h0.7v5.7
			c0.6-1.8,1.7-3.2,3.2-4.2C368.1,333.6,369.8,333,371.8,333z M371.8,351.2c1.6,0,3-0.4,4.2-1.1c1.3-0.7,2.3-1.8,3-3.1
			c0.7-1.3,1.1-2.9,1.1-4.5s-0.4-3.2-1.1-4.5c-0.7-1.3-1.7-2.4-3-3.1c-1.3-0.7-2.7-1.1-4.2-1.1s-3,0.4-4.2,1.1
			c-1.3,0.7-2.3,1.8-3,3.1c-0.7,1.3-1.1,2.8-1.1,4.5s0.4,3.2,1.1,4.5c0.7,1.3,1.7,2.4,3,3.1C368.8,350.8,370.2,351.2,371.8,351.2z
			 M392.8,333c2.2,0,3.8,0.6,4.9,1.7c1.2,1.1,1.7,2.7,1.7,4.8v12.2h-0.7v-4c-0.6,1.3-1.5,2.3-2.7,3c-1.2,0.7-2.7,1.1-4.4,1.1
			c-2.1,0-3.7-0.5-4.9-1.4c-1.2-1-1.7-2.2-1.7-3.8c0-1.5,0.5-2.7,1.5-3.6c1.1-0.9,2.7-1.4,5.1-1.4h7.1v-2.1c0-1.9-0.5-3.4-1.5-4.4
			c-1-1-2.4-1.5-4.4-1.5c-1.3,0-2.6,0.2-3.8,0.7c-1.2,0.5-2.1,1.1-3,1.9l-0.5-0.5c0.9-0.9,2-1.5,3.2-2
			C390.1,333.3,391.4,333,392.8,333z M391.7,351.2c3.5,0,5.8-1.6,7.1-4.8v-4.1h-7.1c-2,0-3.5,0.4-4.5,1.2c-0.9,0.8-1.4,1.8-1.4,3.1
			c0,1.4,0.5,2.5,1.5,3.3C388.4,350.8,389.8,351.2,391.7,351.2z M416.1,333c2.3,0,4.2,0.7,5.5,2c1.3,1.3,2,3.2,2,5.7v11h-0.7v-11
			c0-2.3-0.6-4-1.8-5.2c-1.2-1.2-2.8-1.8-4.9-1.8c-2.4,0-4.3,0.7-5.8,2.2c-1.4,1.4-2.1,3.3-2.1,5.7v10.1h-0.7v-18.6h0.7v5
			c0.6-1.6,1.5-2.8,2.9-3.7C412.5,333.5,414.1,333,416.1,333z M435.9,351.9c-1.5,0-2.9-0.2-4.2-0.7c-1.3-0.5-2.3-1.1-3.1-1.8
			l0.4-0.6c0.7,0.7,1.7,1.3,2.9,1.8c1.2,0.5,2.5,0.7,4,0.7c2.1,0,3.7-0.4,4.7-1.1c1-0.7,1.5-1.8,1.5-3.1c0-0.9-0.3-1.7-0.8-2.2
			c-0.5-0.6-1.2-0.9-2-1.2c-0.8-0.3-1.8-0.5-3.2-0.8c-1.5-0.3-2.7-0.5-3.6-0.8c-0.9-0.3-1.6-0.8-2.3-1.4c-0.6-0.7-0.9-1.6-0.9-2.8
			c0-1.3,0.6-2.5,1.7-3.4c1.1-0.9,2.8-1.4,4.9-1.4c1.2,0,2.3,0.2,3.4,0.5c1.1,0.3,2,0.8,2.7,1.4l-0.4,0.6c-0.7-0.6-1.6-1-2.6-1.3
			c-1-0.3-2.1-0.5-3.1-0.5c-1.9,0-3.4,0.4-4.4,1.2c-1,0.7-1.4,1.7-1.4,3c0,1,0.3,1.8,0.8,2.3c0.6,0.6,1.2,1,2.1,1.2
			c0.8,0.3,1.9,0.5,3.2,0.8c1.5,0.3,2.6,0.6,3.5,0.9c0.9,0.3,1.6,0.8,2.2,1.4c0.6,0.6,0.9,1.5,0.9,2.6c0,1.5-0.6,2.6-1.8,3.5
			C439.8,351.4,438.1,351.9,435.9,351.9z M448.3,333.1h0.7v18.6h-0.7V333.1z M448.6,328c-0.3,0-0.5-0.1-0.7-0.3
			c-0.2-0.2-0.3-0.4-0.3-0.6c0-0.3,0.1-0.5,0.3-0.6c0.2-0.2,0.4-0.3,0.7-0.3c0.2,0,0.5,0.1,0.6,0.3c0.2,0.2,0.3,0.4,0.3,0.6
			c0,0.2-0.1,0.5-0.3,0.6C449.1,327.9,448.9,328,448.6,328z M464.1,351.9c-1.7,0-3.3-0.4-4.6-1.2c-1.4-0.8-2.4-1.9-3.2-3.4
			c-0.8-1.4-1.2-3.1-1.2-4.9c0-1.8,0.4-3.4,1.2-4.8c0.8-1.4,1.9-2.6,3.2-3.3c1.4-0.8,2.9-1.2,4.6-1.2s3.2,0.4,4.6,1.2
			c1.4,0.8,2.5,1.9,3.2,3.3c0.8,1.4,1.2,3,1.2,4.8c0,1.8-0.4,3.4-1.2,4.9c-0.8,1.4-1.8,2.6-3.2,3.4
			C467.3,351.5,465.8,351.9,464.1,351.9z M464.1,351.2c1.6,0,3-0.4,4.2-1.1c1.3-0.7,2.3-1.8,3-3.1c0.7-1.3,1.1-2.9,1.1-4.5
			s-0.4-3.2-1.1-4.5c-0.7-1.3-1.7-2.4-3-3.1c-1.3-0.7-2.7-1.1-4.2-1.1s-3,0.4-4.2,1.1c-1.3,0.7-2.3,1.8-3,3.1
			c-0.7,1.3-1.1,2.8-1.1,4.5s0.4,3.2,1.1,4.5c0.7,1.3,1.7,2.4,3,3.1C461.1,350.8,462.5,351.2,464.1,351.2z M487.8,333
			c2.3,0,4.2,0.7,5.5,2c1.3,1.3,2,3.2,2,5.7v11h-0.7v-11c0-2.3-0.6-4-1.8-5.2c-1.2-1.2-2.8-1.8-4.9-1.8c-2.4,0-4.3,0.7-5.8,2.2
			c-1.4,1.4-2.1,3.3-2.1,5.7v10.1h-0.7v-18.6h0.7v5c0.6-1.6,1.5-2.8,2.9-3.7C484.2,333.5,485.8,333,487.8,333z M519.2,351.9
			c-1.8,0-3.3-0.4-4.7-1.2c-1.4-0.8-2.5-1.9-3.3-3.3c-0.8-1.4-1.2-3.1-1.2-4.9s0.4-3.4,1.2-4.9c0.8-1.4,1.9-2.6,3.3-3.3
			c1.4-0.8,3-1.2,4.7-1.2c1.4,0,2.6,0.3,3.8,0.8c1.2,0.5,2.1,1.2,2.9,2.2l-0.5,0.5c-0.7-1-1.6-1.7-2.7-2.2c-1.1-0.5-2.3-0.7-3.5-0.7
			c-1.6,0-3.1,0.4-4.4,1.1c-1.3,0.7-2.3,1.8-3,3.1c-0.7,1.3-1.1,2.8-1.1,4.5c0,1.7,0.4,3.2,1.1,4.5s1.7,2.4,3,3.1
			c1.3,0.7,2.7,1.1,4.4,1.1c1.3,0,2.4-0.2,3.5-0.7c1.1-0.5,2-1.2,2.7-2.2l0.5,0.5c-0.8,1-1.7,1.7-2.9,2.3
			C521.9,351.6,520.6,351.9,519.2,351.9z M537.8,333c2.2,0,3.8,0.6,4.9,1.7c1.2,1.1,1.7,2.7,1.7,4.8v12.2h-0.7v-4
			c-0.6,1.3-1.5,2.3-2.7,3c-1.2,0.7-2.7,1.1-4.4,1.1c-2.1,0-3.7-0.5-4.9-1.4c-1.2-1-1.7-2.2-1.7-3.8c0-1.5,0.5-2.7,1.5-3.6
			c1.1-0.9,2.7-1.4,5.1-1.4h7.1v-2.1c0-1.9-0.5-3.4-1.5-4.4c-1-1-2.4-1.5-4.4-1.5c-1.3,0-2.6,0.2-3.8,0.7c-1.2,0.5-2.1,1.1-3,1.9
			l-0.5-0.5c0.9-0.9,2-1.5,3.2-2C535.1,333.3,536.4,333,537.8,333z M536.7,351.2c3.5,0,5.8-1.6,7.1-4.8v-4.1h-7.1
			c-2,0-3.5,0.4-4.5,1.2c-0.9,0.8-1.4,1.8-1.4,3.1c0,1.4,0.5,2.5,1.5,3.3C533.4,350.8,534.8,351.2,536.7,351.2z M553.3,338
			c0.5-1.6,1.4-2.8,2.7-3.6c1.2-0.9,2.8-1.3,4.6-1.3v0.7h-0.2c-2.2,0-4,0.7-5.2,2.2c-1.2,1.4-1.9,3.4-1.9,5.8v10h-0.7v-18.6h0.7V338
			z M581.7,325v26.7H581v-5.7c-0.6,1.8-1.7,3.2-3.2,4.2c-1.5,1-3.2,1.5-5.1,1.5c-1.7,0-3.2-0.4-4.6-1.2c-1.4-0.8-2.4-1.9-3.2-3.4
			s-1.2-3.1-1.2-4.9c0-1.8,0.4-3.4,1.2-4.8c0.8-1.4,1.9-2.6,3.2-3.3c1.4-0.8,2.9-1.2,4.6-1.2c1.9,0,3.6,0.5,5.1,1.6
			c1.5,1,2.6,2.4,3.2,4.2V325H581.7z M572.7,351.2c1.6,0,3-0.4,4.2-1.1c1.3-0.7,2.3-1.8,3-3.1c0.7-1.3,1.1-2.9,1.1-4.5
			s-0.4-3.2-1.1-4.5c-0.7-1.3-1.7-2.4-3-3.1c-1.3-0.7-2.7-1.1-4.2-1.1s-3,0.4-4.2,1.1c-1.3,0.7-2.3,1.8-3,3.1
			c-0.7,1.3-1.1,2.8-1.1,4.5s0.4,3.2,1.1,4.5c0.7,1.3,1.7,2.4,3,3.1C569.7,350.8,571.1,351.2,572.7,351.2z M589.1,351.9
			c-0.2,0-0.5-0.1-0.6-0.3c-0.2-0.2-0.3-0.4-0.3-0.6c0-0.3,0.1-0.5,0.3-0.6c0.2-0.2,0.4-0.3,0.6-0.3c0.3,0,0.5,0.1,0.6,0.3
			c0.2,0.2,0.3,0.4,0.3,0.6c0,0.2-0.1,0.5-0.3,0.6C589.6,351.8,589.4,351.9,589.1,351.9z M177.4,371.2h-9.4v-0.7h19.4v0.7h-9.4v24.5
			h-0.7V371.2z M200.3,377c2.3,0,4.2,0.7,5.5,2c1.3,1.3,2,3.2,2,5.7v11h-0.7v-11c0-2.3-0.6-4-1.8-5.2c-1.2-1.2-2.8-1.8-4.9-1.8
			c-2.4,0-4.3,0.7-5.8,2.2c-1.4,1.4-2.1,3.3-2.1,5.7v10.1h-0.7V369h0.7v13.1c0.6-1.6,1.5-2.8,2.9-3.7
			C196.7,377.5,198.4,377,200.3,377z M230.9,386.4h-16.6c0,1.7,0.4,3.2,1.1,4.5c0.7,1.3,1.8,2.4,3.1,3.1c1.3,0.7,2.8,1.1,4.4,1.1
			c1.3,0,2.5-0.2,3.6-0.7c1.1-0.5,2.1-1.2,2.8-2.2l0.5,0.5c-0.8,1-1.8,1.7-3,2.3c-1.2,0.5-2.5,0.8-3.8,0.8c-1.8,0-3.4-0.4-4.8-1.2
			c-1.4-0.8-2.5-1.9-3.3-3.4c-0.8-1.4-1.2-3.1-1.2-4.9c0-1.8,0.4-3.4,1.1-4.8c0.7-1.4,1.8-2.6,3.1-3.3c1.3-0.8,2.8-1.2,4.4-1.2
			c1.6,0,3.1,0.4,4.4,1.2c1.3,0.8,2.4,1.9,3.1,3.3c0.8,1.4,1.2,3,1.2,4.8V386.4z M222.2,377.7c-1.4,0-2.7,0.3-3.9,1
			c-1.2,0.7-2.1,1.7-2.8,2.9c-0.7,1.2-1.1,2.6-1.2,4.1h15.9c-0.1-1.5-0.5-2.9-1.2-4.1c-0.7-1.2-1.7-2.2-2.8-2.9
			C225,378.1,223.7,377.7,222.2,377.7z M255,377c1.7,0,3.2,0.4,4.6,1.2c1.4,0.8,2.5,1.9,3.3,3.3c0.8,1.4,1.2,3,1.2,4.8
			c0,1.8-0.4,3.4-1.2,4.9s-1.9,2.6-3.3,3.4c-1.4,0.8-2.9,1.2-4.6,1.2c-1.9,0-3.7-0.5-5.1-1.5c-1.5-1.1-2.5-2.5-3.2-4.2v5.7H246V369
			h0.7v13.8c0.6-1.8,1.7-3.1,3.2-4.2C251.4,377.6,253.1,377,255,377z M255,395.2c1.6,0,3-0.4,4.2-1.1c1.3-0.7,2.3-1.8,3-3.1
			c0.7-1.3,1.1-2.9,1.1-4.5s-0.4-3.2-1.1-4.5c-0.7-1.3-1.7-2.4-3-3.1c-1.3-0.7-2.7-1.1-4.2-1.1c-1.6,0-3,0.4-4.2,1.1
			c-1.3,0.7-2.3,1.8-3,3.1c-0.7,1.3-1.1,2.8-1.1,4.5s0.4,3.2,1.1,4.5c0.7,1.3,1.7,2.4,3,3.1C252,394.8,253.4,395.2,255,395.2z
			 M277,395.9c-1.7,0-3.3-0.4-4.6-1.2c-1.4-0.8-2.4-1.9-3.2-3.4c-0.8-1.4-1.2-3.1-1.2-4.9c0-1.8,0.4-3.4,1.2-4.8
			c0.8-1.4,1.9-2.6,3.2-3.3c1.4-0.8,2.9-1.2,4.6-1.2c1.7,0,3.2,0.4,4.6,1.2c1.4,0.8,2.5,1.9,3.2,3.3c0.8,1.4,1.2,3,1.2,4.8
			c0,1.8-0.4,3.4-1.2,4.9c-0.8,1.4-1.8,2.6-3.2,3.4C280.2,395.5,278.7,395.9,277,395.9z M277,395.2c1.6,0,3-0.4,4.2-1.1
			c1.3-0.7,2.3-1.8,3-3.1c0.7-1.3,1.1-2.9,1.1-4.5s-0.4-3.2-1.1-4.5c-0.7-1.3-1.7-2.4-3-3.1c-1.3-0.7-2.7-1.1-4.2-1.1
			c-1.6,0-3,0.4-4.2,1.1c-1.3,0.7-2.3,1.8-3,3.1c-0.7,1.3-1.1,2.8-1.1,4.5s0.4,3.2,1.1,4.5c0.7,1.3,1.7,2.4,3,3.1
			C274,394.8,275.4,395.2,277,395.2z M298,377c2.2,0,3.8,0.6,4.9,1.7c1.2,1.1,1.7,2.7,1.7,4.8v12.2H304v-4c-0.6,1.3-1.5,2.3-2.7,3
			c-1.2,0.7-2.7,1.1-4.4,1.1c-2.1,0-3.7-0.5-4.9-1.4c-1.2-1-1.7-2.2-1.7-3.8c0-1.5,0.5-2.7,1.5-3.6c1.1-0.9,2.7-1.4,5.1-1.4h7.1
			v-2.1c0-1.9-0.5-3.4-1.5-4.4c-1-1-2.4-1.5-4.4-1.5c-1.3,0-2.6,0.2-3.8,0.7c-1.2,0.5-2.1,1.1-3,1.9l-0.5-0.5c0.9-0.9,2-1.5,3.2-2
			C295.3,377.3,296.6,377,298,377z M296.9,395.2c3.5,0,5.8-1.6,7.1-4.8v-4.1h-7.1c-2,0-3.5,0.4-4.5,1.2c-0.9,0.8-1.4,1.8-1.4,3.1
			c0,1.4,0.5,2.5,1.5,3.3C293.6,394.8,295,395.2,296.9,395.2z M313.5,382c0.5-1.6,1.4-2.8,2.7-3.6c1.2-0.9,2.8-1.3,4.6-1.3v0.7h-0.2
			c-2.2,0-4,0.7-5.2,2.2c-1.2,1.4-1.9,3.4-1.9,5.8v10h-0.7v-18.6h0.7V382z M341.9,369v26.7h-0.7v-5.7c-0.6,1.8-1.7,3.2-3.2,4.2
			c-1.5,1-3.2,1.5-5.1,1.5c-1.7,0-3.2-0.4-4.6-1.2c-1.4-0.8-2.4-1.9-3.2-3.4s-1.2-3.1-1.2-4.9c0-1.8,0.4-3.4,1.2-4.8
			c0.8-1.4,1.9-2.6,3.2-3.3c1.4-0.8,2.9-1.2,4.6-1.2c1.9,0,3.6,0.5,5.1,1.6c1.5,1,2.6,2.4,3.2,4.2V369H341.9z M332.9,395.2
			c1.6,0,3-0.4,4.2-1.1c1.3-0.7,2.3-1.8,3-3.1c0.7-1.3,1.1-2.9,1.1-4.5s-0.4-3.2-1.1-4.5c-0.7-1.3-1.7-2.4-3-3.1
			c-1.3-0.7-2.7-1.1-4.2-1.1s-3,0.4-4.2,1.1c-1.3,0.7-2.3,1.8-3,3.1c-0.7,1.3-1.1,2.8-1.1,4.5s0.4,3.2,1.1,4.5
			c0.7,1.3,1.7,2.4,3,3.1C329.9,394.8,331.3,395.2,332.9,395.2z M365.1,377c2.2,0,3.8,0.6,4.9,1.7c1.2,1.1,1.7,2.7,1.7,4.8v12.2
			h-0.7v-4c-0.6,1.3-1.5,2.3-2.7,3c-1.2,0.7-2.7,1.1-4.4,1.1c-2.1,0-3.7-0.5-4.9-1.4c-1.2-1-1.7-2.2-1.7-3.8c0-1.5,0.5-2.7,1.5-3.6
			c1.1-0.9,2.7-1.4,5.1-1.4h7.1v-2.1c0-1.9-0.5-3.4-1.5-4.4c-1-1-2.4-1.5-4.4-1.5c-1.3,0-2.6,0.2-3.8,0.7c-1.2,0.5-2.1,1.1-3,1.9
			l-0.5-0.5c0.9-0.9,2-1.5,3.2-2C362.4,377.3,363.7,377,365.1,377z M364,395.2c3.5,0,5.8-1.6,7.1-4.8v-4.1H364c-2,0-3.5,0.4-4.5,1.2
			c-0.9,0.8-1.4,1.8-1.4,3.1c0,1.4,0.5,2.5,1.5,3.3C360.7,394.8,362.1,395.2,364,395.2z M379.8,369h0.7v26.7h-0.7V369z M388.8,369
			h0.7v26.7h-0.7V369z M404.7,395.9c-1.7,0-3.3-0.4-4.6-1.2c-1.4-0.8-2.4-1.9-3.2-3.4c-0.8-1.4-1.2-3.1-1.2-4.9
			c0-1.8,0.4-3.4,1.2-4.8c0.8-1.4,1.9-2.6,3.2-3.3c1.4-0.8,2.9-1.2,4.6-1.2s3.2,0.4,4.6,1.2c1.4,0.8,2.5,1.9,3.2,3.3
			c0.8,1.4,1.2,3,1.2,4.8c0,1.8-0.4,3.4-1.2,4.9c-0.8,1.4-1.8,2.6-3.2,3.4C407.9,395.5,406.4,395.9,404.7,395.9z M404.7,395.2
			c1.6,0,3-0.4,4.2-1.1c1.3-0.7,2.3-1.8,3-3.1c0.7-1.3,1.1-2.9,1.1-4.5s-0.4-3.2-1.1-4.5c-0.7-1.3-1.7-2.4-3-3.1
			c-1.3-0.7-2.7-1.1-4.2-1.1s-3,0.4-4.2,1.1c-1.3,0.7-2.3,1.8-3,3.1c-0.7,1.3-1.1,2.8-1.1,4.5s0.4,3.2,1.1,4.5
			c0.7,1.3,1.7,2.4,3,3.1C401.7,394.8,403.1,395.2,404.7,395.2z M444.9,377.1l-7.2,18.6h-0.6l-6.8-17.6l-6.9,17.6h-0.6l-7.2-18.6
			h0.7l6.7,17.7l6.8-17.7h0.7l6.8,17.7l6.7-17.7H444.9z M453.6,395.9c-1.5,0-2.9-0.2-4.2-0.7s-2.3-1.1-3.1-1.8l0.4-0.6
			c0.7,0.7,1.7,1.3,2.9,1.8c1.2,0.5,2.5,0.7,4,0.7c2.1,0,3.7-0.4,4.7-1.1c1-0.7,1.5-1.8,1.5-3.1c0-0.9-0.3-1.7-0.8-2.2
			c-0.5-0.6-1.2-0.9-2-1.2c-0.8-0.3-1.8-0.5-3.2-0.8c-1.5-0.3-2.7-0.5-3.6-0.8c-0.9-0.3-1.6-0.8-2.3-1.4c-0.6-0.7-0.9-1.6-0.9-2.8
			c0-1.3,0.6-2.5,1.7-3.4c1.1-0.9,2.8-1.4,4.9-1.4c1.2,0,2.3,0.2,3.4,0.5c1.1,0.3,2,0.8,2.7,1.4l-0.4,0.6c-0.7-0.6-1.6-1-2.6-1.3
			c-1-0.3-2.1-0.5-3.1-0.5c-1.9,0-3.4,0.4-4.4,1.2c-1,0.7-1.4,1.7-1.4,3c0,1,0.3,1.8,0.8,2.3c0.6,0.6,1.2,1,2.1,1.2
			c0.8,0.3,1.9,0.5,3.2,0.8c1.5,0.3,2.6,0.6,3.5,0.9c0.9,0.3,1.6,0.8,2.2,1.4c0.6,0.6,0.9,1.5,0.9,2.6c0,1.5-0.6,2.6-1.8,3.5
			C457.5,395.4,455.8,395.9,453.6,395.9z M488.9,377.1l-9.9,21.6c-0.7,1.5-1.4,2.5-2.3,3.2s-1.8,0.9-3,0.9c-1.7,0-3-0.6-4-1.7
			l0.5-0.6c0.5,0.6,1,0.9,1.6,1.2s1.2,0.4,1.9,0.4c1,0,1.8-0.3,2.5-0.8c0.7-0.5,1.4-1.5,2-2.8l1.3-2.8l-8.5-18.5h0.8l8.1,17.8
			l8.1-17.8H488.9z M499.5,395.9c-1.7,0-3.3-0.4-4.6-1.2c-1.4-0.8-2.4-1.9-3.2-3.4c-0.8-1.4-1.2-3.1-1.2-4.9c0-1.8,0.4-3.4,1.2-4.8
			c0.8-1.4,1.9-2.6,3.2-3.3c1.4-0.8,2.9-1.2,4.6-1.2c1.7,0,3.2,0.4,4.6,1.2c1.4,0.8,2.5,1.9,3.2,3.3c0.8,1.4,1.2,3,1.2,4.8
			c0,1.8-0.4,3.4-1.2,4.9c-0.8,1.4-1.8,2.6-3.2,3.4C502.8,395.5,501.2,395.9,499.5,395.9z M499.5,395.2c1.6,0,3-0.4,4.2-1.1
			c1.3-0.7,2.3-1.8,3-3.1c0.7-1.3,1.1-2.9,1.1-4.5s-0.4-3.2-1.1-4.5c-0.7-1.3-1.7-2.4-3-3.1c-1.3-0.7-2.7-1.1-4.2-1.1
			s-3,0.4-4.2,1.1c-1.3,0.7-2.3,1.8-3,3.1c-0.7,1.3-1.1,2.8-1.1,4.5s0.4,3.2,1.1,4.5c0.7,1.3,1.7,2.4,3,3.1
			C496.6,394.8,498,395.2,499.5,395.2z M530.3,377.1v18.6h-0.7v-4.9c-0.6,1.6-1.5,2.8-2.8,3.7c-1.3,0.9-2.9,1.3-4.7,1.3
			c-2.4,0-4.3-0.7-5.6-2c-1.3-1.3-2-3.3-2-5.8v-11h0.7v11c0,2.3,0.6,4,1.8,5.3c1.2,1.2,2.9,1.8,5.1,1.8c2.3,0,4.2-0.7,5.5-2.2
			c1.3-1.5,2-3.4,2-5.8v-10.1H530.3z M556,394.5c-0.4,0.4-0.9,0.8-1.6,1c-0.6,0.2-1.3,0.3-2,0.3c-1.4,0-2.6-0.4-3.3-1.2
			c-0.8-0.8-1.2-2-1.2-3.3v-13.5h-3.6v-0.7h3.6v-4.1h0.7v4.1h6.3v0.7h-6.3v13.3c0,1.3,0.3,2.3,1,3c0.6,0.7,1.6,1,2.8,1
			s2.3-0.4,3.1-1.2L556,394.5z M567.7,395.9c-1.7,0-3.3-0.4-4.6-1.2c-1.4-0.8-2.4-1.9-3.2-3.4c-0.8-1.4-1.2-3.1-1.2-4.9
			c0-1.8,0.4-3.4,1.2-4.8c0.8-1.4,1.9-2.6,3.2-3.3c1.4-0.8,2.9-1.2,4.6-1.2c1.7,0,3.2,0.4,4.6,1.2c1.4,0.8,2.5,1.9,3.2,3.3
			c0.8,1.4,1.2,3,1.2,4.8c0,1.8-0.4,3.4-1.2,4.9c-0.8,1.4-1.8,2.6-3.2,3.4C570.9,395.5,569.4,395.9,567.7,395.9z M567.7,395.2
			c1.6,0,3-0.4,4.2-1.1c1.3-0.7,2.3-1.8,3-3.1c0.7-1.3,1.1-2.9,1.1-4.5s-0.4-3.2-1.1-4.5c-0.7-1.3-1.7-2.4-3-3.1
			c-1.3-0.7-2.7-1.1-4.2-1.1s-3,0.4-4.2,1.1c-1.3,0.7-2.3,1.8-3,3.1c-0.7,1.3-1.1,2.8-1.1,4.5s0.4,3.2,1.1,4.5
			c0.7,1.3,1.7,2.4,3,3.1C564.7,394.8,566.1,395.2,567.7,395.2z M195.2,421c2.3,0,4,0.7,5.3,2c1.3,1.3,1.9,3.2,1.9,5.7v11h-0.7v-11
			c0-2.3-0.6-4-1.7-5.2c-1.1-1.2-2.7-1.8-4.8-1.8c-2.4,0-4.2,0.7-5.6,2.2c-1.4,1.4-2.1,3.3-2.1,5.7v10.1h-0.7v-11
			c0-2.3-0.6-4-1.7-5.2c-1.1-1.2-2.7-1.8-4.8-1.8c-2.4,0-4.2,0.7-5.6,2.2c-1.4,1.4-2.1,3.3-2.1,5.7v10.1h-0.7v-18.6h0.7v4.9
			c0.6-1.6,1.5-2.8,2.8-3.7c1.3-0.9,2.9-1.3,4.8-1.3c1.9,0,3.5,0.5,4.7,1.4c1.2,0.9,2,2.3,2.4,4.1c0.5-1.7,1.4-3,2.7-4
			C191.5,421.5,193.2,421,195.2,421z M216.5,421c2.2,0,3.8,0.6,4.9,1.7c1.2,1.1,1.7,2.7,1.7,4.8v12.2h-0.7v-4
			c-0.6,1.3-1.5,2.3-2.7,3c-1.2,0.7-2.7,1.1-4.4,1.1c-2.1,0-3.7-0.5-4.9-1.4c-1.2-1-1.7-2.2-1.7-3.8c0-1.5,0.5-2.7,1.5-3.6
			c1.1-0.9,2.7-1.4,5.1-1.4h7.1v-2.1c0-1.9-0.5-3.4-1.5-4.4c-1-1-2.4-1.5-4.4-1.5c-1.3,0-2.6,0.2-3.8,0.7c-1.2,0.5-2.1,1.1-3,1.9
			l-0.5-0.5c0.9-0.9,2-1.5,3.2-2C213.7,421.3,215.1,421,216.5,421z M215.3,439.2c3.5,0,5.8-1.6,7.1-4.8v-4.1h-7.1
			c-2,0-3.5,0.4-4.5,1.2c-0.9,0.8-1.4,1.8-1.4,3.1c0,1.4,0.5,2.5,1.5,3.3C212,438.8,213.5,439.2,215.3,439.2z M237.4,429l-5.5,5v5.8
			h-0.7V413h0.7v20.1l13.1-12h1l-8.1,7.4l8.9,11.2H246L237.4,429z M266.1,430.4h-16.6c0,1.7,0.4,3.2,1.1,4.5
			c0.7,1.3,1.8,2.4,3.1,3.1c1.3,0.7,2.8,1.1,4.4,1.1c1.3,0,2.5-0.2,3.6-0.7c1.1-0.5,2.1-1.2,2.8-2.2l0.5,0.5c-0.8,1-1.8,1.7-3,2.3
			c-1.2,0.5-2.5,0.8-3.8,0.8c-1.8,0-3.4-0.4-4.8-1.2c-1.4-0.8-2.5-1.9-3.3-3.4c-0.8-1.4-1.2-3.1-1.2-4.9c0-1.8,0.4-3.4,1.1-4.8
			c0.7-1.4,1.8-2.6,3.1-3.3c1.3-0.8,2.8-1.2,4.4-1.2c1.6,0,3.1,0.4,4.4,1.2c1.3,0.8,2.4,1.9,3.1,3.3c0.8,1.4,1.2,3,1.2,4.8V430.4z
			 M257.4,421.7c-1.4,0-2.7,0.3-3.9,1c-1.2,0.7-2.1,1.7-2.8,2.9c-0.7,1.2-1.1,2.6-1.2,4.1h15.9c-0.1-1.5-0.5-2.9-1.2-4.1
			s-1.7-2.2-2.8-2.9C260.2,422.1,258.9,421.7,257.4,421.7z M304.3,421c2.3,0,4,0.7,5.3,2c1.3,1.3,1.9,3.2,1.9,5.7v11h-0.7v-11
			c0-2.3-0.6-4-1.7-5.2c-1.1-1.2-2.7-1.8-4.8-1.8c-2.4,0-4.2,0.7-5.6,2.2c-1.4,1.4-2.1,3.3-2.1,5.7v10.1H296v-11
			c0-2.3-0.6-4-1.7-5.2c-1.1-1.2-2.7-1.8-4.8-1.8c-2.4,0-4.2,0.7-5.6,2.2c-1.4,1.4-2.1,3.3-2.1,5.7v10.1h-0.7v-18.6h0.7v4.9
			c0.6-1.6,1.5-2.8,2.8-3.7s2.9-1.3,4.8-1.3c1.9,0,3.5,0.5,4.7,1.4c1.2,0.9,2,2.3,2.4,4.1c0.5-1.7,1.4-3,2.7-4
			C300.6,421.5,302.3,421,304.3,421z M334.7,430.4h-16.6c0,1.7,0.4,3.2,1.1,4.5c0.7,1.3,1.8,2.4,3.1,3.1c1.3,0.7,2.8,1.1,4.4,1.1
			c1.3,0,2.5-0.2,3.6-0.7c1.1-0.5,2.1-1.2,2.8-2.2l0.5,0.5c-0.8,1-1.8,1.7-3,2.3c-1.2,0.5-2.5,0.8-3.8,0.8c-1.8,0-3.4-0.4-4.8-1.2
			c-1.4-0.8-2.5-1.9-3.3-3.4c-0.8-1.4-1.2-3.1-1.2-4.9c0-1.8,0.4-3.4,1.1-4.8c0.7-1.4,1.8-2.6,3.1-3.3c1.3-0.8,2.8-1.2,4.4-1.2
			c1.6,0,3.1,0.4,4.4,1.2c1.3,0.8,2.4,1.9,3.1,3.3c0.8,1.4,1.2,3,1.2,4.8V430.4z M326,421.7c-1.4,0-2.7,0.3-3.9,1
			c-1.2,0.7-2.1,1.7-2.8,2.9c-0.7,1.2-1.1,2.6-1.2,4.1H334c-0.1-1.5-0.5-2.9-1.2-4.1s-1.7-2.2-2.8-2.9
			C328.8,422.1,327.5,421.7,326,421.7z M346.2,421c2.2,0,3.8,0.6,4.9,1.7c1.2,1.1,1.7,2.7,1.7,4.8v12.2h-0.7v-4
			c-0.6,1.3-1.5,2.3-2.7,3c-1.2,0.7-2.7,1.1-4.4,1.1c-2.1,0-3.7-0.5-4.9-1.4c-1.2-1-1.7-2.2-1.7-3.8c0-1.5,0.5-2.7,1.5-3.6
			c1.1-0.9,2.7-1.4,5.1-1.4h7.1v-2.1c0-1.9-0.5-3.4-1.5-4.4c-1-1-2.4-1.5-4.4-1.5c-1.3,0-2.6,0.2-3.8,0.7c-1.2,0.5-2.1,1.1-3,1.9
			l-0.5-0.5c0.9-0.9,2-1.5,3.2-2C343.4,421.3,344.8,421,346.2,421z M345,439.2c3.5,0,5.8-1.6,7.1-4.8v-4.1H345c-2,0-3.5,0.4-4.5,1.2
			c-0.9,0.8-1.4,1.8-1.4,3.1c0,1.4,0.5,2.5,1.5,3.3C341.7,438.8,343.2,439.2,345,439.2z M365.2,439.9c-1.5,0-2.9-0.2-4.2-0.7
			c-1.3-0.5-2.3-1.1-3.1-1.8l0.4-0.6c0.7,0.7,1.7,1.3,2.9,1.8c1.2,0.5,2.5,0.7,4,0.7c2.1,0,3.7-0.4,4.7-1.1c1-0.7,1.5-1.8,1.5-3.1
			c0-0.9-0.3-1.7-0.8-2.2c-0.5-0.6-1.2-0.9-2-1.2c-0.8-0.3-1.8-0.5-3.2-0.8c-1.5-0.3-2.7-0.5-3.6-0.8c-0.9-0.3-1.6-0.8-2.3-1.4
			c-0.6-0.7-0.9-1.6-0.9-2.8c0-1.3,0.6-2.5,1.7-3.4c1.1-0.9,2.8-1.4,4.9-1.4c1.2,0,2.3,0.2,3.4,0.5c1.1,0.3,2,0.8,2.7,1.4l-0.4,0.6
			c-0.7-0.6-1.6-1-2.6-1.3c-1-0.3-2.1-0.5-3.1-0.5c-1.9,0-3.4,0.4-4.4,1.2c-1,0.7-1.4,1.7-1.4,3c0,1,0.3,1.8,0.8,2.3
			c0.6,0.6,1.2,1,2.1,1.2c0.8,0.3,1.9,0.5,3.2,0.8c1.5,0.3,2.6,0.6,3.5,0.9c0.9,0.3,1.6,0.8,2.2,1.4c0.6,0.6,0.9,1.5,0.9,2.6
			c0,1.5-0.6,2.6-1.8,3.5C369.1,439.4,367.4,439.9,365.2,439.9z M393.2,421.1v18.6h-0.7v-4.9c-0.6,1.6-1.5,2.8-2.8,3.7
			c-1.3,0.9-2.9,1.3-4.7,1.3c-2.4,0-4.3-0.7-5.6-2c-1.3-1.3-2-3.3-2-5.8v-11h0.7v11c0,2.3,0.6,4,1.8,5.3c1.2,1.2,2.9,1.8,5.1,1.8
			c2.3,0,4.2-0.7,5.5-2.2c1.3-1.5,2-3.4,2-5.8v-10.1H393.2z M402.2,426c0.5-1.6,1.4-2.8,2.7-3.6c1.2-0.9,2.8-1.3,4.6-1.3v0.7h-0.2
			c-2.2,0-4,0.7-5.2,2.2c-1.2,1.4-1.9,3.4-1.9,5.8v10h-0.7v-18.6h0.7V426z M429.8,430.4h-16.6c0,1.7,0.4,3.2,1.1,4.5
			c0.7,1.3,1.8,2.4,3.1,3.1c1.3,0.7,2.8,1.1,4.4,1.1c1.3,0,2.5-0.2,3.6-0.7c1.1-0.5,2.1-1.2,2.8-2.2l0.5,0.5c-0.8,1-1.8,1.7-3,2.3
			c-1.2,0.5-2.5,0.8-3.8,0.8c-1.8,0-3.4-0.4-4.8-1.2c-1.4-0.8-2.5-1.9-3.3-3.4c-0.8-1.4-1.2-3.1-1.2-4.9c0-1.8,0.4-3.4,1.1-4.8
			c0.7-1.4,1.8-2.6,3.1-3.3c1.3-0.8,2.8-1.2,4.4-1.2c1.6,0,3.1,0.4,4.4,1.2c1.3,0.8,2.4,1.9,3.1,3.3c0.8,1.4,1.2,3,1.2,4.8V430.4z
			 M421.1,421.7c-1.4,0-2.7,0.3-3.9,1c-1.2,0.7-2.1,1.7-2.8,2.9c-0.7,1.2-1.1,2.6-1.2,4.1h15.9c-0.1-1.5-0.5-2.9-1.2-4.1
			s-1.7-2.2-2.8-2.9C423.9,422.1,422.6,421.7,421.1,421.7z M459,421c2.3,0,4,0.7,5.3,2c1.3,1.3,1.9,3.2,1.9,5.7v11h-0.7v-11
			c0-2.3-0.6-4-1.7-5.2c-1.1-1.2-2.7-1.8-4.8-1.8c-2.4,0-4.2,0.7-5.6,2.2c-1.4,1.4-2.1,3.3-2.1,5.7v10.1h-0.7v-11
			c0-2.3-0.6-4-1.7-5.2c-1.1-1.2-2.7-1.8-4.8-1.8c-2.4,0-4.2,0.7-5.6,2.2c-1.4,1.4-2.1,3.3-2.1,5.7v10.1h-0.7v-18.6h0.7v4.9
			c0.6-1.6,1.5-2.8,2.8-3.7s2.9-1.3,4.8-1.3c1.9,0,3.5,0.5,4.7,1.4c1.2,0.9,2,2.3,2.4,4.1c0.5-1.7,1.4-3,2.7-4
			C455.3,421.5,457,421,459,421z M489.4,430.4h-16.6c0,1.7,0.4,3.2,1.1,4.5c0.7,1.3,1.8,2.4,3.1,3.1c1.3,0.7,2.8,1.1,4.4,1.1
			c1.3,0,2.5-0.2,3.6-0.7c1.1-0.5,2.1-1.2,2.8-2.2l0.5,0.5c-0.8,1-1.8,1.7-3,2.3c-1.2,0.5-2.5,0.8-3.8,0.8c-1.8,0-3.4-0.4-4.8-1.2
			c-1.4-0.8-2.5-1.9-3.3-3.4c-0.8-1.4-1.2-3.1-1.2-4.9c0-1.8,0.4-3.4,1.1-4.8c0.7-1.4,1.8-2.6,3.1-3.3c1.3-0.8,2.8-1.2,4.4-1.2
			c1.6,0,3.1,0.4,4.4,1.2c1.3,0.8,2.4,1.9,3.1,3.3c0.8,1.4,1.2,3,1.2,4.8V430.4z M480.7,421.7c-1.4,0-2.7,0.3-3.9,1
			c-1.2,0.7-2.1,1.7-2.8,2.9c-0.7,1.2-1.1,2.6-1.2,4.1h15.9c-0.1-1.5-0.5-2.9-1.2-4.1c-0.7-1.2-1.7-2.2-2.8-2.9
			C483.5,422.1,482.2,421.7,480.7,421.7z M504,421c2.3,0,4.2,0.7,5.5,2c1.3,1.3,2,3.2,2,5.7v11h-0.7v-11c0-2.3-0.6-4-1.8-5.2
			c-1.2-1.2-2.8-1.8-4.9-1.8c-2.4,0-4.3,0.7-5.8,2.2c-1.4,1.4-2.1,3.3-2.1,5.7v10.1h-0.7v-18.6h0.7v5c0.6-1.6,1.5-2.8,2.9-3.7
			C500.4,421.5,502,421,504,421z M527.9,438.5c-0.4,0.4-0.9,0.8-1.6,1c-0.6,0.2-1.3,0.3-2,0.3c-1.4,0-2.6-0.4-3.3-1.2
			c-0.8-0.8-1.2-2-1.2-3.3v-13.5h-3.6v-0.7h3.6v-4.1h0.7v4.1h6.3v0.7h-6.3v13.3c0,1.3,0.3,2.3,1,3c0.6,0.7,1.6,1,2.8,1
			c1.2,0,2.3-0.4,3.1-1.2L527.9,438.5z M537.7,439.9c-1.5,0-2.9-0.2-4.2-0.7s-2.3-1.1-3.1-1.8l0.4-0.6c0.7,0.7,1.7,1.3,2.9,1.8
			c1.2,0.5,2.5,0.7,4,0.7c2.1,0,3.7-0.4,4.7-1.1c1-0.7,1.5-1.8,1.5-3.1c0-0.9-0.3-1.7-0.8-2.2c-0.5-0.6-1.2-0.9-2-1.2
			c-0.8-0.3-1.8-0.5-3.2-0.8c-1.5-0.3-2.7-0.5-3.6-0.8c-0.9-0.3-1.6-0.8-2.3-1.4c-0.6-0.7-0.9-1.6-0.9-2.8c0-1.3,0.6-2.5,1.7-3.4
			c1.1-0.9,2.8-1.4,4.9-1.4c1.2,0,2.3,0.2,3.4,0.5c1.1,0.3,2,0.8,2.7,1.4l-0.4,0.6c-0.7-0.6-1.6-1-2.6-1.3c-1-0.3-2.1-0.5-3.1-0.5
			c-1.9,0-3.4,0.4-4.4,1.2c-1,0.7-1.4,1.7-1.4,3c0,1,0.3,1.8,0.8,2.3c0.6,0.6,1.2,1,2.1,1.2c0.8,0.3,1.9,0.5,3.2,0.8
			c1.5,0.3,2.6,0.6,3.5,0.9c0.9,0.3,1.6,0.8,2.2,1.4c0.6,0.6,0.9,1.5,0.9,2.6c0,1.5-0.6,2.6-1.8,3.5
			C541.7,439.4,540,439.9,537.7,439.9z M565.9,439.9c-1.7,0-3.3-0.4-4.6-1.2c-1.4-0.8-2.4-1.9-3.2-3.4c-0.8-1.4-1.2-3.1-1.2-4.9
			c0-1.8,0.4-3.4,1.2-4.8c0.8-1.4,1.9-2.6,3.2-3.3c1.4-0.8,2.9-1.2,4.6-1.2s3.2,0.4,4.6,1.2c1.4,0.8,2.5,1.9,3.2,3.3
			c0.8,1.4,1.2,3,1.2,4.8c0,1.8-0.4,3.4-1.2,4.9c-0.8,1.4-1.8,2.6-3.2,3.4C569.2,439.5,567.6,439.9,565.9,439.9z M565.9,439.2
			c1.6,0,3-0.4,4.2-1.1c1.3-0.7,2.3-1.8,3-3.1c0.7-1.3,1.1-2.9,1.1-4.5s-0.4-3.2-1.1-4.5c-0.7-1.3-1.7-2.4-3-3.1
			c-1.3-0.7-2.7-1.1-4.2-1.1s-3,0.4-4.2,1.1c-1.3,0.7-2.3,1.8-3,3.1c-0.7,1.3-1.1,2.8-1.1,4.5s0.4,3.2,1.1,4.5
			c0.7,1.3,1.7,2.4,3,3.1C563,438.8,564.4,439.2,565.9,439.2z M585.9,413.6c-1.2,0-2.2,0.3-2.8,1c-0.6,0.7-1,1.7-1,3v3.5h6.3v0.7
			h-6.3v17.9h-0.7v-17.9h-3.6v-0.7h3.6v-3.6c0-1.4,0.4-2.5,1.2-3.3c0.8-0.8,1.9-1.3,3.3-1.3c0.7,0,1.4,0.1,2,0.4
			c0.7,0.2,1.2,0.5,1.6,1l-0.5,0.5C588.2,414,587.1,413.6,585.9,413.6z M180.5,482.5c-0.4,0.4-0.9,0.8-1.6,1c-0.6,0.2-1.3,0.3-2,0.3
			c-1.4,0-2.6-0.4-3.3-1.2c-0.8-0.8-1.2-2-1.2-3.3v-13.5h-3.6v-0.7h3.6v-4.1h0.7v4.1h6.3v0.7h-6.3v13.3c0,1.3,0.3,2.3,1,3
			c0.6,0.7,1.6,1,2.8,1s2.3-0.4,3.1-1.2L180.5,482.5z M200.4,474.4h-16.6c0,1.7,0.4,3.2,1.1,4.5c0.7,1.3,1.8,2.4,3.1,3.1
			c1.3,0.7,2.8,1.1,4.4,1.1c1.3,0,2.5-0.2,3.6-0.7c1.1-0.5,2.1-1.2,2.8-2.2l0.5,0.5c-0.8,1-1.8,1.7-3,2.3c-1.2,0.5-2.5,0.8-3.8,0.8
			c-1.8,0-3.4-0.4-4.8-1.2c-1.4-0.8-2.5-1.9-3.3-3.4c-0.8-1.4-1.2-3.1-1.2-4.9c0-1.8,0.4-3.4,1.1-4.8c0.7-1.4,1.8-2.6,3.1-3.3
			c1.3-0.8,2.8-1.2,4.4-1.2c1.6,0,3.1,0.4,4.4,1.2c1.3,0.8,2.4,1.9,3.1,3.3c0.8,1.4,1.2,3,1.2,4.8V474.4z M191.7,465.7
			c-1.4,0-2.7,0.3-3.9,1c-1.2,0.7-2.1,1.7-2.8,2.9c-0.7,1.2-1.1,2.6-1.2,4.1h15.9c-0.1-1.5-0.5-2.9-1.2-4.1s-1.7-2.2-2.8-2.9
			C194.5,466.1,193.2,465.7,191.7,465.7z M229.6,465c2.3,0,4,0.7,5.3,2c1.3,1.3,1.9,3.2,1.9,5.7v11h-0.7v-11c0-2.3-0.6-4-1.7-5.2
			c-1.1-1.2-2.7-1.8-4.8-1.8c-2.4,0-4.2,0.7-5.6,2.2c-1.4,1.4-2.1,3.3-2.1,5.7v10.1h-0.7v-11c0-2.3-0.6-4-1.7-5.2
			c-1.1-1.2-2.7-1.8-4.8-1.8c-2.4,0-4.2,0.7-5.6,2.2c-1.4,1.4-2.1,3.3-2.1,5.7v10.1h-0.7v-18.6h0.7v4.9c0.6-1.6,1.5-2.8,2.8-3.7
			c1.3-0.9,2.9-1.3,4.8-1.3c1.9,0,3.5,0.5,4.7,1.4c1.2,0.9,2,2.3,2.4,4.1c0.5-1.7,1.4-3,2.7-4C225.9,465.5,227.6,465,229.6,465z
			 M253.9,465c1.7,0,3.2,0.4,4.6,1.2c1.4,0.8,2.5,1.9,3.3,3.3c0.8,1.4,1.2,3.1,1.2,4.9c0,1.8-0.4,3.4-1.2,4.9
			c-0.8,1.4-1.9,2.5-3.3,3.3c-1.4,0.8-2.9,1.2-4.6,1.2c-1.9,0-3.6-0.5-5.1-1.5c-1.5-1.1-2.5-2.5-3.2-4.2v12.6h-0.7v-25.6h0.7v5.7
			c0.6-1.8,1.7-3.2,3.2-4.2C250.3,465.6,252,465,253.9,465z M253.9,483.2c1.6,0,3-0.4,4.2-1.1c1.3-0.7,2.3-1.8,3-3.1
			c0.7-1.3,1.1-2.9,1.1-4.5s-0.4-3.2-1.1-4.5c-0.7-1.3-1.7-2.4-3-3.1c-1.3-0.7-2.7-1.1-4.2-1.1s-3,0.4-4.2,1.1
			c-1.3,0.7-2.3,1.8-3,3.1c-0.7,1.3-1.1,2.8-1.1,4.5s0.4,3.2,1.1,4.5c0.7,1.3,1.7,2.4,3,3.1C251,482.8,252.4,483.2,253.9,483.2z
			 M284.1,474.4h-16.6c0,1.7,0.4,3.2,1.1,4.5c0.7,1.3,1.8,2.4,3.1,3.1c1.3,0.7,2.8,1.1,4.4,1.1c1.3,0,2.5-0.2,3.6-0.7
			c1.1-0.5,2.1-1.2,2.8-2.2l0.5,0.5c-0.8,1-1.8,1.7-3,2.3c-1.2,0.5-2.5,0.8-3.8,0.8c-1.8,0-3.4-0.4-4.8-1.2
			c-1.4-0.8-2.5-1.9-3.3-3.4c-0.8-1.4-1.2-3.1-1.2-4.9c0-1.8,0.4-3.4,1.1-4.8c0.7-1.4,1.8-2.6,3.1-3.3c1.3-0.8,2.8-1.2,4.4-1.2
			c1.6,0,3.1,0.4,4.4,1.2c1.3,0.8,2.4,1.9,3.1,3.3c0.8,1.4,1.2,3,1.2,4.8V474.4z M275.5,465.7c-1.4,0-2.7,0.3-3.9,1
			c-1.2,0.7-2.1,1.7-2.8,2.9c-0.7,1.2-1.1,2.6-1.2,4.1h15.9c-0.1-1.5-0.5-2.9-1.2-4.1s-1.7-2.2-2.8-2.9
			C278.2,466.1,276.9,465.7,275.5,465.7z M290.9,470c0.5-1.6,1.4-2.8,2.7-3.6c1.2-0.9,2.8-1.3,4.6-1.3v0.7H298c-2.2,0-4,0.7-5.2,2.2
			c-1.2,1.4-1.9,3.4-1.9,5.8v10h-0.7v-18.6h0.7V470z M309.6,465c2.2,0,3.8,0.6,4.9,1.7c1.2,1.1,1.7,2.7,1.7,4.8v12.2h-0.7v-4
			c-0.6,1.3-1.5,2.3-2.7,3c-1.2,0.7-2.7,1.1-4.4,1.1c-2.1,0-3.7-0.5-4.9-1.4c-1.2-1-1.7-2.2-1.7-3.8c0-1.5,0.5-2.7,1.5-3.6
			c1.1-0.9,2.7-1.4,5.1-1.4h7.1v-2.1c0-1.9-0.5-3.4-1.5-4.4c-1-1-2.4-1.5-4.4-1.5c-1.3,0-2.6,0.2-3.8,0.7c-1.2,0.5-2.1,1.1-3,1.9
			l-0.5-0.5c0.9-0.9,2-1.5,3.2-2C306.8,465.3,308.2,465,309.6,465z M308.4,483.2c3.5,0,5.8-1.6,7.1-4.8v-4.1h-7.1
			c-2,0-3.5,0.4-4.5,1.2c-0.9,0.8-1.4,1.8-1.4,3.1c0,1.4,0.5,2.5,1.5,3.3C305.1,482.8,306.6,483.2,308.4,483.2z M332.7,482.5
			c-0.4,0.4-0.9,0.8-1.6,1c-0.6,0.2-1.3,0.3-2,0.3c-1.4,0-2.6-0.4-3.3-1.2c-0.8-0.8-1.2-2-1.2-3.3v-13.5H321v-0.7h3.6v-4.1h0.7v4.1
			h6.3v0.7h-6.3v13.3c0,1.3,0.3,2.3,1,3c0.6,0.7,1.6,1,2.8,1c1.2,0,2.3-0.4,3.1-1.2L332.7,482.5z M353.9,465.1v18.6h-0.7v-4.9
			c-0.6,1.6-1.5,2.8-2.8,3.7s-2.9,1.3-4.7,1.3c-2.4,0-4.3-0.7-5.6-2c-1.3-1.3-2-3.3-2-5.8v-11h0.7v11c0,2.3,0.6,4,1.8,5.3
			c1.2,1.2,2.9,1.8,5.1,1.8c2.3,0,4.2-0.7,5.5-2.2c1.3-1.5,2-3.4,2-5.8v-10.1H353.9z M362.9,470c0.5-1.6,1.4-2.8,2.7-3.6
			c1.2-0.9,2.8-1.3,4.6-1.3v0.7H370c-2.2,0-4,0.7-5.2,2.2c-1.2,1.4-1.9,3.4-1.9,5.8v10h-0.7v-18.6h0.7V470z M390.5,474.4h-16.6
			c0,1.7,0.4,3.2,1.1,4.5c0.7,1.3,1.8,2.4,3.1,3.1c1.3,0.7,2.8,1.1,4.4,1.1c1.3,0,2.5-0.2,3.6-0.7c1.1-0.5,2.1-1.2,2.8-2.2l0.5,0.5
			c-0.8,1-1.8,1.7-3,2.3c-1.2,0.5-2.5,0.8-3.8,0.8c-1.8,0-3.4-0.4-4.8-1.2c-1.4-0.8-2.5-1.9-3.3-3.4c-0.8-1.4-1.2-3.1-1.2-4.9
			c0-1.8,0.4-3.4,1.1-4.8c0.7-1.4,1.8-2.6,3.1-3.3c1.3-0.8,2.8-1.2,4.4-1.2c1.6,0,3.1,0.4,4.4,1.2c1.3,0.8,2.4,1.9,3.1,3.3
			c0.8,1.4,1.2,3,1.2,4.8V474.4z M381.8,465.7c-1.4,0-2.7,0.3-3.9,1c-1.2,0.7-2.1,1.7-2.8,2.9c-0.7,1.2-1.1,2.6-1.2,4.1h15.9
			c-0.1-1.5-0.5-2.9-1.2-4.1s-1.7-2.2-2.8-2.9C384.6,466.1,383.3,465.7,381.8,465.7z M395.7,482c0.3,0,0.5,0.1,0.6,0.3
			c0.2,0.2,0.3,0.4,0.3,0.6c0,0.2,0,0.5-0.1,1l-1.2,4.8h-0.6l1-4.9c-0.3,0-0.5-0.1-0.7-0.3c-0.2-0.2-0.3-0.4-0.3-0.6
			c0-0.3,0.1-0.5,0.3-0.6C395.2,482.1,395.4,482,395.7,482z M420.6,465c2.3,0,4.2,0.7,5.5,2c1.3,1.3,2,3.2,2,5.7v11h-0.7v-11
			c0-2.3-0.6-4-1.8-5.2c-1.2-1.2-2.8-1.8-4.9-1.8c-2.4,0-4.3,0.7-5.8,2.2c-1.4,1.4-2.1,3.3-2.1,5.7v10.1h-0.7V457h0.7v13.1
			c0.6-1.6,1.5-2.8,2.9-3.7C417,465.5,418.7,465,420.6,465z M451.8,465.1v18.6H451v-4.9c-0.6,1.6-1.5,2.8-2.8,3.7
			c-1.3,0.9-2.9,1.3-4.7,1.3c-2.4,0-4.3-0.7-5.6-2c-1.3-1.3-2-3.3-2-5.8v-11h0.7v11c0,2.3,0.6,4,1.8,5.3c1.2,1.2,2.9,1.8,5.1,1.8
			c2.3,0,4.2-0.7,5.5-2.2c1.3-1.5,2-3.4,2-5.8v-10.1H451.8z M483.2,465c2.3,0,4,0.7,5.3,2c1.3,1.3,1.9,3.2,1.9,5.7v11h-0.7v-11
			c0-2.3-0.6-4-1.7-5.2c-1.1-1.2-2.7-1.8-4.8-1.8c-2.4,0-4.2,0.7-5.6,2.2c-1.4,1.4-2.1,3.3-2.1,5.7v10.1h-0.7v-11
			c0-2.3-0.6-4-1.7-5.2c-1.1-1.2-2.7-1.8-4.8-1.8c-2.4,0-4.2,0.7-5.6,2.2c-1.4,1.4-2.1,3.3-2.1,5.7v10.1H460v-18.6h0.7v4.9
			c0.6-1.6,1.5-2.8,2.8-3.7s2.9-1.3,4.8-1.3c1.9,0,3.5,0.5,4.7,1.4c1.2,0.9,2,2.3,2.4,4.1c0.5-1.7,1.4-3,2.7-4
			C479.5,465.5,481.2,465,483.2,465z M498.5,465.1h0.7v18.6h-0.7V465.1z M498.9,460c-0.3,0-0.5-0.1-0.7-0.3
			c-0.2-0.2-0.3-0.4-0.3-0.6c0-0.3,0.1-0.5,0.3-0.6c0.2-0.2,0.4-0.3,0.7-0.3c0.2,0,0.5,0.1,0.6,0.3c0.2,0.2,0.3,0.4,0.3,0.6
			c0,0.2-0.1,0.5-0.3,0.6C499.3,459.9,499.1,460,498.9,460z M523.4,457v26.7h-0.7v-5.7c-0.6,1.8-1.7,3.2-3.2,4.2
			c-1.5,1-3.2,1.5-5.1,1.5c-1.7,0-3.2-0.4-4.6-1.2c-1.4-0.8-2.4-1.9-3.2-3.4c-0.8-1.4-1.2-3.1-1.2-4.9c0-1.8,0.4-3.4,1.2-4.8
			c0.8-1.4,1.9-2.6,3.2-3.3c1.4-0.8,2.9-1.2,4.6-1.2c1.9,0,3.6,0.5,5.1,1.6c1.5,1,2.6,2.4,3.2,4.2V457H523.4z M514.3,483.2
			c1.6,0,3-0.4,4.2-1.1c1.3-0.7,2.3-1.8,3-3.1c0.7-1.3,1.1-2.9,1.1-4.5s-0.4-3.2-1.1-4.5c-0.7-1.3-1.7-2.4-3-3.1
			c-1.3-0.7-2.7-1.1-4.2-1.1s-3,0.4-4.2,1.1c-1.3,0.7-2.3,1.8-3,3.1c-0.7,1.3-1.1,2.8-1.1,4.5s0.4,3.2,1.1,4.5
			c0.7,1.3,1.7,2.4,3,3.1C511.4,482.8,512.8,483.2,514.3,483.2z M531.6,465.1h0.7v18.6h-0.7V465.1z M532,460c-0.3,0-0.5-0.1-0.7-0.3
			c-0.2-0.2-0.3-0.4-0.3-0.6c0-0.3,0.1-0.5,0.3-0.6c0.2-0.2,0.4-0.3,0.7-0.3c0.2,0,0.5,0.1,0.6,0.3c0.2,0.2,0.3,0.4,0.3,0.6
			c0,0.2-0.1,0.5-0.3,0.6C532.5,459.9,532.2,460,532,460z M549.1,482.5c-0.4,0.4-0.9,0.8-1.6,1c-0.6,0.2-1.3,0.3-2,0.3
			c-1.4,0-2.6-0.4-3.3-1.2c-0.8-0.8-1.2-2-1.2-3.3v-13.5h-3.6v-0.7h3.6v-4.1h0.7v4.1h6.3v0.7h-6.3v13.3c0,1.3,0.3,2.3,1,3
			c0.6,0.7,1.6,1,2.8,1c1.2,0,2.3-0.4,3.1-1.2L549.1,482.5z M568.2,465.1l-9.9,21.6c-0.7,1.5-1.4,2.5-2.3,3.2s-1.8,0.9-3,0.9
			c-1.7,0-3-0.6-4-1.7l0.5-0.6c0.5,0.6,1,0.9,1.6,1.2s1.2,0.4,1.9,0.4c1,0,1.8-0.3,2.5-0.8c0.7-0.5,1.4-1.5,2-2.8l1.3-2.8l-8.5-18.5
			h0.8l8.1,17.8l8.1-17.8H568.2z M570.4,482c0.3,0,0.5,0.1,0.6,0.3c0.2,0.2,0.3,0.4,0.3,0.6c0,0.2,0,0.5-0.1,1l-1.2,4.8h-0.6l1-4.9
			c-0.3,0-0.5-0.1-0.7-0.3c-0.2-0.2-0.3-0.4-0.3-0.6c0-0.3,0.1-0.5,0.3-0.6C569.9,482.1,570.1,482,570.4,482z M181.1,509
			c1.7,0,3.2,0.4,4.6,1.2c1.4,0.8,2.5,1.9,3.3,3.3c0.8,1.4,1.2,3.1,1.2,4.9c0,1.8-0.4,3.4-1.2,4.9c-0.8,1.4-1.9,2.5-3.3,3.3
			c-1.4,0.8-2.9,1.2-4.6,1.2c-1.9,0-3.6-0.5-5.1-1.5c-1.5-1.1-2.5-2.5-3.2-4.2v12.6h-0.7v-25.6h0.7v5.7c0.6-1.8,1.7-3.2,3.2-4.2
			C177.4,509.6,179.2,509,181.1,509z M181.1,527.2c1.6,0,3-0.4,4.2-1.1c1.3-0.7,2.3-1.8,3-3.1c0.7-1.3,1.1-2.9,1.1-4.5
			s-0.4-3.2-1.1-4.5c-0.7-1.3-1.7-2.4-3-3.1c-1.3-0.7-2.7-1.1-4.2-1.1c-1.6,0-3,0.4-4.2,1.1c-1.3,0.7-2.3,1.8-3,3.1
			c-0.7,1.3-1.1,2.8-1.1,4.5s0.4,3.2,1.1,4.5c0.7,1.3,1.7,2.4,3,3.1C178.1,526.8,179.5,527.2,181.1,527.2z M196.9,514
			c0.5-1.6,1.4-2.8,2.7-3.6c1.2-0.9,2.8-1.3,4.6-1.3v0.7H204c-2.2,0-4,0.7-5.2,2.2c-1.2,1.4-1.9,3.4-1.9,5.8v10h-0.7v-18.6h0.7V514z
			 M224.5,518.4H208c0,1.7,0.4,3.2,1.1,4.5c0.7,1.3,1.8,2.4,3.1,3.1c1.3,0.7,2.8,1.1,4.4,1.1c1.3,0,2.5-0.2,3.6-0.7
			c1.1-0.5,2.1-1.2,2.8-2.2l0.5,0.5c-0.8,1-1.8,1.7-3,2.3c-1.2,0.5-2.5,0.8-3.8,0.8c-1.8,0-3.4-0.4-4.8-1.2
			c-1.4-0.8-2.5-1.9-3.3-3.4c-0.8-1.4-1.2-3.1-1.2-4.9s0.4-3.4,1.1-4.8c0.7-1.4,1.8-2.6,3.1-3.3c1.3-0.8,2.8-1.2,4.4-1.2
			c1.6,0,3.1,0.4,4.4,1.2c1.3,0.8,2.4,1.9,3.1,3.3c0.8,1.4,1.2,3,1.2,4.8V518.4z M215.9,509.7c-1.4,0-2.7,0.3-3.9,1
			c-1.2,0.7-2.1,1.7-2.8,2.9c-0.7,1.2-1.1,2.6-1.2,4.1h15.9c-0.1-1.5-0.5-2.9-1.2-4.1s-1.7-2.2-2.8-2.9
			C218.6,510.1,217.3,509.7,215.9,509.7z M234.9,527.9c-1.5,0-2.9-0.2-4.2-0.7c-1.3-0.5-2.3-1.1-3.1-1.8l0.4-0.6
			c0.7,0.7,1.7,1.3,2.9,1.8c1.2,0.5,2.5,0.7,4,0.7c2.1,0,3.7-0.4,4.7-1.1c1-0.7,1.5-1.8,1.5-3.1c0-0.9-0.3-1.7-0.8-2.2
			c-0.5-0.6-1.2-0.9-2-1.2c-0.8-0.3-1.8-0.5-3.2-0.8c-1.5-0.3-2.7-0.5-3.6-0.8c-0.9-0.3-1.6-0.8-2.3-1.4c-0.6-0.7-0.9-1.6-0.9-2.8
			c0-1.3,0.6-2.5,1.7-3.4c1.1-0.9,2.8-1.4,4.9-1.4c1.2,0,2.3,0.2,3.4,0.5c1.1,0.3,2,0.8,2.7,1.4l-0.4,0.6c-0.7-0.6-1.6-1-2.6-1.3
			c-1-0.3-2.1-0.5-3.1-0.5c-1.9,0-3.4,0.4-4.4,1.2c-1,0.7-1.4,1.7-1.4,3c0,1,0.3,1.8,0.8,2.3c0.6,0.6,1.2,1,2.1,1.2
			c0.8,0.3,1.9,0.5,3.2,0.8c1.5,0.3,2.6,0.6,3.5,0.9s1.6,0.8,2.2,1.4c0.6,0.6,0.9,1.5,0.9,2.6c0,1.5-0.6,2.6-1.8,3.5
			C238.9,527.4,237.1,527.9,234.9,527.9z M251.6,527.9c-1.5,0-2.9-0.2-4.2-0.7c-1.3-0.5-2.3-1.1-3.1-1.8l0.4-0.6
			c0.7,0.7,1.7,1.3,2.9,1.8c1.2,0.5,2.5,0.7,4,0.7c2.1,0,3.7-0.4,4.7-1.1c1-0.7,1.5-1.8,1.5-3.1c0-0.9-0.3-1.7-0.8-2.2
			c-0.5-0.6-1.2-0.9-2-1.2c-0.8-0.3-1.8-0.5-3.2-0.8c-1.5-0.3-2.7-0.5-3.6-0.8c-0.9-0.3-1.6-0.8-2.3-1.4c-0.6-0.7-0.9-1.6-0.9-2.8
			c0-1.3,0.6-2.5,1.7-3.4c1.1-0.9,2.8-1.4,4.9-1.4c1.2,0,2.3,0.2,3.4,0.5c1.1,0.3,2,0.8,2.7,1.4l-0.4,0.6c-0.7-0.6-1.6-1-2.6-1.3
			c-1-0.3-2.1-0.5-3.1-0.5c-1.9,0-3.4,0.4-4.4,1.2c-1,0.7-1.4,1.7-1.4,3c0,1,0.3,1.8,0.8,2.3c0.6,0.6,1.2,1,2.1,1.2
			c0.8,0.3,1.9,0.5,3.2,0.8c1.5,0.3,2.6,0.6,3.5,0.9s1.6,0.8,2.2,1.4c0.6,0.6,0.9,1.5,0.9,2.6c0,1.5-0.6,2.6-1.8,3.5
			C255.5,527.4,253.8,527.9,251.6,527.9z M279.6,509.1v18.6h-0.7v-4.9c-0.6,1.6-1.5,2.8-2.8,3.7c-1.3,0.9-2.9,1.3-4.7,1.3
			c-2.4,0-4.3-0.7-5.6-2c-1.3-1.3-2-3.3-2-5.8v-11h0.7v11c0,2.3,0.6,4,1.8,5.3c1.2,1.2,2.9,1.8,5.1,1.8c2.3,0,4.2-0.7,5.5-2.2
			c1.3-1.5,2-3.4,2-5.8v-10.1H279.6z M288.6,514c0.5-1.6,1.4-2.8,2.7-3.6c1.2-0.9,2.8-1.3,4.6-1.3v0.7h-0.2c-2.2,0-4,0.7-5.2,2.2
			c-1.2,1.4-1.9,3.4-1.9,5.8v10h-0.7v-18.6h0.7V514z M316.1,518.4h-16.6c0,1.7,0.4,3.2,1.1,4.5c0.7,1.3,1.8,2.4,3.1,3.1
			c1.3,0.7,2.8,1.1,4.4,1.1c1.3,0,2.5-0.2,3.6-0.7c1.1-0.5,2.1-1.2,2.8-2.2l0.5,0.5c-0.8,1-1.8,1.7-3,2.3c-1.2,0.5-2.5,0.8-3.8,0.8
			c-1.8,0-3.4-0.4-4.8-1.2c-1.4-0.8-2.5-1.9-3.3-3.4c-0.8-1.4-1.2-3.1-1.2-4.9s0.4-3.4,1.1-4.8c0.7-1.4,1.8-2.6,3.1-3.3
			c1.3-0.8,2.8-1.2,4.4-1.2c1.6,0,3.1,0.4,4.4,1.2c1.3,0.8,2.4,1.9,3.1,3.3c0.8,1.4,1.2,3,1.2,4.8V518.4z M307.5,509.7
			c-1.4,0-2.7,0.3-3.9,1c-1.2,0.7-2.1,1.7-2.8,2.9c-0.7,1.2-1.1,2.6-1.2,4.1h15.9c-0.1-1.5-0.5-2.9-1.2-4.1s-1.7-2.2-2.8-2.9
			C310.2,510.1,308.9,509.7,307.5,509.7z M321.4,526c0.3,0,0.5,0.1,0.6,0.3c0.2,0.2,0.3,0.4,0.3,0.6c0,0.2,0,0.5-0.1,1l-1.2,4.8
			h-0.6l1-4.9c-0.3,0-0.5-0.1-0.7-0.3c-0.2-0.2-0.3-0.4-0.3-0.6c0-0.3,0.1-0.5,0.3-0.6C320.9,526.1,321.1,526,321.4,526z M343.7,509
			c2.2,0,3.8,0.6,4.9,1.7c1.2,1.1,1.7,2.7,1.7,4.8v12.2h-0.7v-4c-0.6,1.3-1.5,2.3-2.7,3c-1.2,0.7-2.7,1.1-4.4,1.1
			c-2.1,0-3.7-0.5-4.9-1.4c-1.2-1-1.7-2.2-1.7-3.8c0-1.5,0.5-2.7,1.5-3.6c1.1-0.9,2.7-1.4,5.1-1.4h7.1v-2.1c0-1.9-0.5-3.4-1.5-4.4
			c-1-1-2.4-1.5-4.4-1.5c-1.3,0-2.6,0.2-3.8,0.7c-1.2,0.5-2.1,1.1-3,1.9l-0.5-0.5c0.9-0.9,2-1.5,3.2-2
			C341,509.3,342.3,509,343.7,509z M342.5,527.2c3.5,0,5.8-1.6,7.1-4.8v-4.1h-7.1c-2,0-3.5,0.4-4.5,1.2c-0.9,0.8-1.4,1.8-1.4,3.1
			c0,1.4,0.5,2.5,1.5,3.3C339.3,526.8,340.7,527.2,342.5,527.2z M367,509c2.3,0,4.2,0.7,5.5,2c1.3,1.3,2,3.2,2,5.7v11h-0.7v-11
			c0-2.3-0.6-4-1.8-5.2c-1.2-1.2-2.8-1.8-4.9-1.8c-2.4,0-4.3,0.7-5.8,2.2c-1.4,1.4-2.1,3.3-2.1,5.7v10.1h-0.7v-18.6h0.7v5
			c0.6-1.6,1.5-2.8,2.9-3.7C363.4,509.5,365,509,367,509z M398.4,501v26.7h-0.7v-5.7c-0.6,1.8-1.7,3.2-3.2,4.2
			c-1.5,1-3.2,1.5-5.1,1.5c-1.7,0-3.2-0.4-4.6-1.2c-1.4-0.8-2.4-1.9-3.2-3.4s-1.2-3.1-1.2-4.9s0.4-3.4,1.2-4.8
			c0.8-1.4,1.9-2.6,3.2-3.3c1.4-0.8,2.9-1.2,4.6-1.2c1.9,0,3.6,0.5,5.1,1.6c1.5,1,2.6,2.4,3.2,4.2V501H398.4z M389.3,527.2
			c1.6,0,3-0.4,4.2-1.1c1.3-0.7,2.3-1.8,3-3.1c0.7-1.3,1.1-2.9,1.1-4.5s-0.4-3.2-1.1-4.5c-0.7-1.3-1.7-2.4-3-3.1
			c-1.3-0.7-2.7-1.1-4.2-1.1s-3,0.4-4.2,1.1c-1.3,0.7-2.3,1.8-3,3.1c-0.7,1.3-1.1,2.8-1.1,4.5s0.4,3.2,1.1,4.5
			c0.7,1.3,1.7,2.4,3,3.1C386.3,526.8,387.8,527.2,389.3,527.2z M422.5,527.9c-1.7,0-3.3-0.4-4.6-1.2c-1.4-0.8-2.4-1.9-3.2-3.4
			c-0.8-1.4-1.2-3.1-1.2-4.9s0.4-3.4,1.2-4.8c0.8-1.4,1.9-2.6,3.2-3.3c1.4-0.8,2.9-1.2,4.6-1.2s3.2,0.4,4.6,1.2
			c1.4,0.8,2.5,1.9,3.2,3.3c0.8,1.4,1.2,3,1.2,4.8s-0.4,3.4-1.2,4.9c-0.8,1.4-1.8,2.6-3.2,3.4C425.7,527.5,424.2,527.9,422.5,527.9z
			 M422.5,527.2c1.6,0,3-0.4,4.2-1.1c1.3-0.7,2.3-1.8,3-3.1c0.7-1.3,1.1-2.9,1.1-4.5s-0.4-3.2-1.1-4.5c-0.7-1.3-1.7-2.4-3-3.1
			c-1.3-0.7-2.7-1.1-4.2-1.1s-3,0.4-4.2,1.1c-1.3,0.7-2.3,1.8-3,3.1c-0.7,1.3-1.1,2.8-1.1,4.5s0.4,3.2,1.1,4.5
			c0.7,1.3,1.7,2.4,3,3.1C419.5,526.8,420.9,527.2,422.5,527.2z M438.3,514c0.5-1.6,1.4-2.8,2.7-3.6c1.2-0.9,2.8-1.3,4.6-1.3v0.7
			h-0.2c-2.2,0-4,0.7-5.2,2.2c-1.2,1.4-1.9,3.4-1.9,5.8v10h-0.7v-18.6h0.7V514z M451,509.1h0.7v18.6H451V509.1z M451.4,504
			c-0.3,0-0.5-0.1-0.7-0.3c-0.2-0.2-0.3-0.4-0.3-0.6c0-0.3,0.1-0.5,0.3-0.6c0.2-0.2,0.4-0.3,0.7-0.3c0.2,0,0.5,0.1,0.6,0.3
			c0.2,0.2,0.3,0.4,0.3,0.6c0,0.2-0.1,0.5-0.3,0.6C451.8,503.9,451.6,504,451.4,504z M475.1,518.4h-16.6c0,1.7,0.4,3.2,1.1,4.5
			c0.7,1.3,1.8,2.4,3.1,3.1c1.3,0.7,2.8,1.1,4.4,1.1c1.3,0,2.5-0.2,3.6-0.7c1.1-0.5,2.1-1.2,2.8-2.2l0.5,0.5c-0.8,1-1.8,1.7-3,2.3
			c-1.2,0.5-2.5,0.8-3.8,0.8c-1.8,0-3.4-0.4-4.8-1.2c-1.4-0.8-2.5-1.9-3.3-3.4c-0.8-1.4-1.2-3.1-1.2-4.9s0.4-3.4,1.1-4.8
			c0.7-1.4,1.8-2.6,3.1-3.3c1.3-0.8,2.8-1.2,4.4-1.2c1.6,0,3.1,0.4,4.4,1.2c1.3,0.8,2.4,1.9,3.1,3.3c0.8,1.4,1.2,3,1.2,4.8V518.4z
			 M466.4,509.7c-1.4,0-2.7,0.3-3.9,1c-1.2,0.7-2.1,1.7-2.8,2.9c-0.7,1.2-1.1,2.6-1.2,4.1h15.9c-0.1-1.5-0.5-2.9-1.2-4.1
			s-1.7-2.2-2.8-2.9C469.2,510.1,467.9,509.7,466.4,509.7z M489.7,509c2.3,0,4.2,0.7,5.5,2c1.3,1.3,2,3.2,2,5.7v11h-0.7v-11
			c0-2.3-0.6-4-1.8-5.2c-1.2-1.2-2.8-1.8-4.9-1.8c-2.4,0-4.3,0.7-5.8,2.2c-1.4,1.4-2.1,3.3-2.1,5.7v10.1h-0.7v-18.6h0.7v5
			c0.6-1.6,1.5-2.8,2.9-3.7C486.1,509.5,487.8,509,489.7,509z M513.6,526.5c-0.4,0.4-0.9,0.8-1.6,1c-0.6,0.2-1.3,0.3-2,0.3
			c-1.4,0-2.6-0.4-3.3-1.2c-0.8-0.8-1.2-2-1.2-3.3v-13.5h-3.6v-0.7h3.6v-4.1h0.7v4.1h6.3v0.7h-6.3v13.3c0,1.3,0.3,2.3,1,3
			c0.6,0.7,1.6,1,2.8,1c1.2,0,2.3-0.4,3.1-1.2L513.6,526.5z M525.1,509c2.2,0,3.8,0.6,4.9,1.7c1.2,1.1,1.7,2.7,1.7,4.8v12.2H531v-4
			c-0.6,1.3-1.5,2.3-2.7,3c-1.2,0.7-2.7,1.1-4.4,1.1c-2.1,0-3.7-0.5-4.9-1.4c-1.2-1-1.7-2.2-1.7-3.8c0-1.5,0.5-2.7,1.5-3.6
			c1.1-0.9,2.7-1.4,5.1-1.4h7.1v-2.1c0-1.9-0.5-3.4-1.5-4.4c-1-1-2.4-1.5-4.4-1.5c-1.3,0-2.6,0.2-3.8,0.7c-1.2,0.5-2.1,1.1-3,1.9
			l-0.5-0.5c0.9-0.9,2-1.5,3.2-2C522.4,509.3,523.7,509,525.1,509z M524,527.2c3.5,0,5.8-1.6,7.1-4.8v-4.1H524c-2,0-3.5,0.4-4.5,1.2
			c-0.9,0.8-1.4,1.8-1.4,3.1c0,1.4,0.5,2.5,1.5,3.3C520.7,526.8,522.1,527.2,524,527.2z M548.3,526.5c-0.4,0.4-0.9,0.8-1.6,1
			c-0.6,0.2-1.3,0.3-2,0.3c-1.4,0-2.6-0.4-3.3-1.2c-0.8-0.8-1.2-2-1.2-3.3v-13.5h-3.6v-0.7h3.6v-4.1h0.7v4.1h6.3v0.7h-6.3v13.3
			c0,1.3,0.3,2.3,1,3s1.6,1,2.8,1s2.3-0.4,3.1-1.2L548.3,526.5z M553.8,509.1h0.7v18.6h-0.7V509.1z M554.2,504
			c-0.3,0-0.5-0.1-0.7-0.3c-0.2-0.2-0.3-0.4-0.3-0.6c0-0.3,0.1-0.5,0.3-0.6c0.2-0.2,0.4-0.3,0.7-0.3c0.2,0,0.5,0.1,0.6,0.3
			c0.2,0.2,0.3,0.4,0.3,0.6c0,0.2-0.1,0.5-0.3,0.6C554.6,503.9,554.4,504,554.2,504z M569.6,527.9c-1.7,0-3.3-0.4-4.6-1.2
			c-1.4-0.8-2.4-1.9-3.2-3.4c-0.8-1.4-1.2-3.1-1.2-4.9s0.4-3.4,1.2-4.8c0.8-1.4,1.9-2.6,3.2-3.3c1.4-0.8,2.9-1.2,4.6-1.2
			c1.7,0,3.2,0.4,4.6,1.2c1.4,0.8,2.5,1.9,3.2,3.3c0.8,1.4,1.2,3,1.2,4.8s-0.4,3.4-1.2,4.9c-0.8,1.4-1.8,2.6-3.2,3.4
			C572.9,527.5,571.3,527.9,569.6,527.9z M569.6,527.2c1.6,0,3-0.4,4.2-1.1c1.3-0.7,2.3-1.8,3-3.1c0.7-1.3,1.1-2.9,1.1-4.5
			s-0.4-3.2-1.1-4.5c-0.7-1.3-1.7-2.4-3-3.1c-1.3-0.7-2.7-1.1-4.2-1.1s-3,0.4-4.2,1.1c-1.3,0.7-2.3,1.8-3,3.1
			c-0.7,1.3-1.1,2.8-1.1,4.5s0.4,3.2,1.1,4.5c0.7,1.3,1.7,2.4,3,3.1C566.7,526.8,568.1,527.2,569.6,527.2z M593.3,509
			c2.3,0,4.2,0.7,5.5,2c1.3,1.3,2,3.2,2,5.7v11H600v-11c0-2.3-0.6-4-1.8-5.2c-1.2-1.2-2.8-1.8-4.9-1.8c-2.4,0-4.3,0.7-5.8,2.2
			c-1.4,1.4-2.1,3.3-2.1,5.7v10.1h-0.7v-18.6h0.7v5c0.6-1.6,1.5-2.8,2.9-3.7C589.7,509.5,591.4,509,593.3,509z M608,526
			c0.3,0,0.5,0.1,0.6,0.3c0.2,0.2,0.3,0.4,0.3,0.6c0,0.2,0,0.5-0.1,1l-1.2,4.8h-0.6l1-4.9c-0.3,0-0.5-0.1-0.7-0.3
			c-0.2-0.2-0.3-0.4-0.3-0.6c0-0.3,0.1-0.5,0.3-0.6C607.5,526.1,607.7,526,608,526z M178,553c2.2,0,3.8,0.6,4.9,1.7
			c1.2,1.1,1.7,2.7,1.7,4.8v12.2h-0.7v-4c-0.6,1.3-1.5,2.3-2.7,3c-1.2,0.7-2.7,1.1-4.4,1.1c-2.1,0-3.7-0.5-4.9-1.4
			c-1.2-1-1.7-2.2-1.7-3.8c0-1.5,0.5-2.7,1.5-3.6c1.1-0.9,2.7-1.4,5.1-1.4h7.1v-2.1c0-1.9-0.5-3.4-1.5-4.4c-1-1-2.4-1.5-4.4-1.5
			c-1.3,0-2.6,0.2-3.8,0.7c-1.2,0.5-2.1,1.1-3,1.9l-0.5-0.5c0.9-0.9,2-1.5,3.2-2C175.3,553.3,176.6,553,178,553z M176.9,571.2
			c3.5,0,5.8-1.6,7.1-4.8v-4.1h-7.1c-2,0-3.5,0.4-4.5,1.2c-0.9,0.8-1.4,1.8-1.4,3.1c0,1.4,0.5,2.5,1.5,3.3S175,571.2,176.9,571.2z
			 M201.3,553c2.3,0,4.2,0.7,5.5,2c1.3,1.3,2,3.2,2,5.7v11H208v-11c0-2.3-0.6-4-1.8-5.2c-1.2-1.2-2.8-1.8-4.9-1.8
			c-2.4,0-4.3,0.7-5.8,2.2c-1.4,1.4-2.1,3.3-2.1,5.7v10.1h-0.7v-18.6h0.7v5c0.6-1.6,1.5-2.8,2.9-3.7
			C197.7,553.5,199.3,553,201.3,553z M232.7,545v26.7h-0.7v-5.7c-0.6,1.8-1.7,3.2-3.2,4.2c-1.5,1-3.2,1.5-5.1,1.5
			c-1.7,0-3.2-0.4-4.6-1.2c-1.4-0.8-2.4-1.9-3.2-3.4c-0.8-1.4-1.2-3.1-1.2-4.9s0.4-3.4,1.2-4.8c0.8-1.4,1.9-2.6,3.2-3.3
			c1.4-0.8,2.9-1.2,4.6-1.2c1.9,0,3.6,0.5,5.1,1.6c1.5,1,2.6,2.4,3.2,4.2V545H232.7z M223.6,571.2c1.6,0,3-0.4,4.2-1.1
			c1.3-0.7,2.3-1.8,3-3.1c0.7-1.3,1.1-2.9,1.1-4.5s-0.4-3.2-1.1-4.5c-0.7-1.3-1.7-2.4-3-3.1c-1.3-0.7-2.7-1.1-4.2-1.1
			s-3,0.4-4.2,1.1c-1.3,0.7-2.3,1.8-3,3.1c-0.7,1.3-1.1,2.8-1.1,4.5s0.4,3.2,1.1,4.5c0.7,1.3,1.7,2.4,3,3.1
			C220.7,570.8,222.1,571.2,223.6,571.2z M258.4,570.5c-0.4,0.4-0.9,0.8-1.6,1c-0.6,0.2-1.3,0.3-2,0.3c-1.4,0-2.6-0.4-3.3-1.2
			c-0.8-0.8-1.2-2-1.2-3.3v-13.5h-3.6v-0.7h3.6v-4.1h0.7v4.1h6.3v0.7h-6.3v13.3c0,1.3,0.3,2.3,1,3s1.6,1,2.8,1
			c1.2,0,2.3-0.4,3.1-1.2L258.4,570.5z M270,571.9c-1.7,0-3.3-0.4-4.6-1.2c-1.4-0.8-2.4-1.9-3.2-3.4c-0.8-1.4-1.2-3.1-1.2-4.9
			s0.4-3.4,1.2-4.8c0.8-1.4,1.9-2.6,3.2-3.3c1.4-0.8,2.9-1.2,4.6-1.2c1.7,0,3.2,0.4,4.6,1.2c1.4,0.8,2.5,1.9,3.2,3.3
			c0.8,1.4,1.2,3,1.2,4.8s-0.4,3.4-1.2,4.9c-0.8,1.4-1.8,2.6-3.2,3.4C273.3,571.5,271.7,571.9,270,571.9z M270,571.2
			c1.6,0,3-0.4,4.2-1.1c1.3-0.7,2.3-1.8,3-3.1c0.7-1.3,1.1-2.9,1.1-4.5s-0.4-3.2-1.1-4.5c-0.7-1.3-1.7-2.4-3-3.1
			c-1.3-0.7-2.7-1.1-4.2-1.1s-3,0.4-4.2,1.1c-1.3,0.7-2.3,1.8-3,3.1c-0.7,1.3-1.1,2.8-1.1,4.5s0.4,3.2,1.1,4.5
			c0.7,1.3,1.7,2.4,3,3.1C267.1,570.8,268.5,571.2,270,571.2z M301,571.9c-1.7,0-3.3-0.4-4.6-1.2c-1.4-0.8-2.4-1.9-3.2-3.4
			c-0.8-1.4-1.2-3.1-1.2-4.9s0.4-3.4,1.2-4.8c0.8-1.4,1.9-2.6,3.2-3.3c1.4-0.8,2.9-1.2,4.6-1.2c1.7,0,3.2,0.4,4.6,1.2
			c1.4,0.8,2.5,1.9,3.2,3.3c0.8,1.4,1.2,3,1.2,4.8s-0.4,3.4-1.2,4.9c-0.8,1.4-1.8,2.6-3.2,3.4C304.2,571.5,302.7,571.9,301,571.9z
			 M301,571.2c1.6,0,3-0.4,4.2-1.1c1.3-0.7,2.3-1.8,3-3.1c0.7-1.3,1.1-2.9,1.1-4.5s-0.4-3.2-1.1-4.5c-0.7-1.3-1.7-2.4-3-3.1
			c-1.3-0.7-2.7-1.1-4.2-1.1s-3,0.4-4.2,1.1c-1.3,0.7-2.3,1.8-3,3.1c-0.7,1.3-1.1,2.8-1.1,4.5s0.4,3.2,1.1,4.5
			c0.7,1.3,1.7,2.4,3,3.1C298,570.8,299.4,571.2,301,571.2z M331.8,553.1v18.6H331v-4.9c-0.6,1.6-1.5,2.8-2.8,3.7
			c-1.3,0.9-2.9,1.3-4.7,1.3c-2.4,0-4.3-0.7-5.6-2c-1.3-1.3-2-3.3-2-5.8v-11h0.7v11c0,2.3,0.6,4,1.8,5.3c1.2,1.2,2.9,1.8,5.1,1.8
			c2.3,0,4.2-0.7,5.5-2.2c1.3-1.5,2-3.4,2-5.8v-10.1H331.8z M348.5,570.5c-0.4,0.4-0.9,0.8-1.6,1c-0.6,0.2-1.3,0.3-2,0.3
			c-1.4,0-2.6-0.4-3.3-1.2c-0.8-0.8-1.2-2-1.2-3.3v-13.5h-3.6v-0.7h3.6v-4.1h0.7v4.1h6.3v0.7h-6.3v13.3c0,1.3,0.3,2.3,1,3
			c0.6,0.7,1.6,1,2.8,1c1.2,0,2.3-0.4,3.1-1.2L348.5,570.5z M363,553c1.7,0,3.2,0.4,4.6,1.2c1.4,0.8,2.5,1.9,3.3,3.3
			c0.8,1.4,1.2,3.1,1.2,4.9c0,1.8-0.4,3.4-1.2,4.9c-0.8,1.4-1.9,2.5-3.3,3.3c-1.4,0.8-2.9,1.2-4.6,1.2c-1.9,0-3.6-0.5-5.1-1.5
			c-1.5-1.1-2.5-2.5-3.2-4.2v12.6H354v-25.6h0.7v5.7c0.6-1.8,1.7-3.2,3.2-4.2C359.4,553.6,361.1,553,363,553z M363,571.2
			c1.6,0,3-0.4,4.2-1.1c1.3-0.7,2.3-1.8,3-3.1c0.7-1.3,1.1-2.9,1.1-4.5s-0.4-3.2-1.1-4.5c-0.7-1.3-1.7-2.4-3-3.1s-2.7-1.1-4.2-1.1
			s-3,0.4-4.2,1.1s-2.3,1.8-3,3.1c-0.7,1.3-1.1,2.8-1.1,4.5s0.4,3.2,1.1,4.5c0.7,1.3,1.7,2.4,3,3.1
			C360.1,570.8,361.5,571.2,363,571.2z M393.8,553.1v18.6h-0.7v-4.9c-0.6,1.6-1.5,2.8-2.8,3.7c-1.3,0.9-2.9,1.3-4.7,1.3
			c-2.4,0-4.3-0.7-5.6-2c-1.3-1.3-2-3.3-2-5.8v-11h0.7v11c0,2.3,0.6,4,1.8,5.3c1.2,1.2,2.9,1.8,5.1,1.8c2.3,0,4.2-0.7,5.5-2.2
			c1.3-1.5,2-3.4,2-5.8v-10.1H393.8z M410.5,570.5c-0.4,0.4-0.9,0.8-1.6,1c-0.6,0.2-1.3,0.3-2,0.3c-1.4,0-2.6-0.4-3.3-1.2
			c-0.8-0.8-1.2-2-1.2-3.3v-13.5h-3.6v-0.7h3.6v-4.1h0.7v4.1h6.3v0.7h-6.3v13.3c0,1.3,0.3,2.3,1,3c0.6,0.7,1.6,1,2.8,1
			c1.2,0,2.3-0.4,3.1-1.2L410.5,570.5z M425,553.1h0.7v18.6H425V553.1z M425.4,548c-0.3,0-0.5-0.1-0.7-0.3c-0.2-0.2-0.3-0.4-0.3-0.6
			c0-0.3,0.1-0.5,0.3-0.6c0.2-0.2,0.4-0.3,0.7-0.3c0.2,0,0.5,0.1,0.6,0.3c0.2,0.2,0.3,0.4,0.3,0.6c0,0.2-0.1,0.5-0.3,0.6
			C425.8,547.9,425.6,548,425.4,548z M442.5,553c2.3,0,4.2,0.7,5.5,2c1.3,1.3,2,3.2,2,5.7v11h-0.7v-11c0-2.3-0.6-4-1.8-5.2
			c-1.2-1.2-2.8-1.8-4.9-1.8c-2.4,0-4.3,0.7-5.8,2.2c-1.4,1.4-2.1,3.3-2.1,5.7v10.1H434v-18.6h0.7v5c0.6-1.6,1.5-2.8,2.9-3.7
			C439,553.5,440.6,553,442.5,553z M462.9,545.6c-1.2,0-2.2,0.3-2.8,1s-1,1.7-1,3v3.5h6.3v0.7h-6.3v17.9h-0.7v-17.9h-3.6v-0.7h3.6
			v-3.6c0-1.4,0.4-2.5,1.2-3.3c0.8-0.8,1.9-1.3,3.3-1.3c0.7,0,1.4,0.1,2,0.4c0.7,0.2,1.2,0.5,1.6,1l-0.5,0.5
			C465.2,546,464.1,545.6,462.9,545.6z M475.7,571.9c-1.7,0-3.3-0.4-4.6-1.2c-1.4-0.8-2.4-1.9-3.2-3.4c-0.8-1.4-1.2-3.1-1.2-4.9
			s0.4-3.4,1.2-4.8c0.8-1.4,1.9-2.6,3.2-3.3c1.4-0.8,2.9-1.2,4.6-1.2c1.7,0,3.2,0.4,4.6,1.2c1.4,0.8,2.5,1.9,3.2,3.3
			c0.8,1.4,1.2,3,1.2,4.8s-0.4,3.4-1.2,4.9c-0.8,1.4-1.8,2.6-3.2,3.4C479,571.5,477.4,571.9,475.7,571.9z M475.7,571.2
			c1.6,0,3-0.4,4.2-1.1c1.3-0.7,2.3-1.8,3-3.1c0.7-1.3,1.1-2.9,1.1-4.5s-0.4-3.2-1.1-4.5c-0.7-1.3-1.7-2.4-3-3.1
			c-1.3-0.7-2.7-1.1-4.2-1.1c-1.6,0-3,0.4-4.2,1.1c-1.3,0.7-2.3,1.8-3,3.1c-0.7,1.3-1.1,2.8-1.1,4.5s0.4,3.2,1.1,4.5
			c0.7,1.3,1.7,2.4,3,3.1C472.8,570.8,474.2,571.2,475.7,571.2z M491.6,558c0.5-1.6,1.4-2.8,2.7-3.6c1.2-0.9,2.8-1.3,4.6-1.3v0.7
			h-0.2c-2.2,0-4,0.7-5.2,2.2c-1.2,1.4-1.9,3.4-1.9,5.8v10h-0.7v-18.6h0.7V558z M527.4,553c2.3,0,4,0.7,5.3,2
			c1.3,1.3,1.9,3.2,1.9,5.7v11H534v-11c0-2.3-0.6-4-1.7-5.2c-1.1-1.2-2.7-1.8-4.8-1.8c-2.4,0-4.2,0.7-5.6,2.2
			c-1.4,1.4-2.1,3.3-2.1,5.7v10.1h-0.7v-11c0-2.3-0.6-4-1.7-5.2c-1.1-1.2-2.7-1.8-4.8-1.8c-2.4,0-4.2,0.7-5.6,2.2
			c-1.4,1.4-2.1,3.3-2.1,5.7v10.1h-0.7v-18.6h0.7v4.9c0.6-1.6,1.5-2.8,2.8-3.7c1.3-0.9,2.9-1.3,4.8-1.3c1.9,0,3.5,0.5,4.7,1.4
			c1.2,0.9,2,2.3,2.4,4.1c0.5-1.7,1.4-3,2.7-4C523.8,553.5,525.5,553,527.4,553z M548.7,553c2.2,0,3.8,0.6,4.9,1.7
			c1.2,1.1,1.7,2.7,1.7,4.8v12.2h-0.7v-4c-0.6,1.3-1.5,2.3-2.7,3c-1.2,0.7-2.7,1.1-4.4,1.1c-2.1,0-3.7-0.5-4.9-1.4
			c-1.2-1-1.7-2.2-1.7-3.8c0-1.5,0.5-2.7,1.5-3.6c1.1-0.9,2.7-1.4,5.1-1.4h7.1v-2.1c0-1.9-0.5-3.4-1.5-4.4c-1-1-2.4-1.5-4.4-1.5
			c-1.3,0-2.6,0.2-3.8,0.7c-1.2,0.5-2.1,1.1-3,1.9l-0.5-0.5c0.9-0.9,2-1.5,3.2-2C546,553.3,547.3,553,548.7,553z M547.5,571.2
			c3.5,0,5.8-1.6,7.1-4.8v-4.1h-7.1c-2,0-3.5,0.4-4.5,1.2c-0.9,0.8-1.4,1.8-1.4,3.1c0,1.4,0.5,2.5,1.5,3.3S545.7,571.2,547.5,571.2z
			 M571.9,570.5c-0.4,0.4-0.9,0.8-1.6,1c-0.6,0.2-1.3,0.3-2,0.3c-1.4,0-2.6-0.4-3.3-1.2c-0.8-0.8-1.2-2-1.2-3.3v-13.5h-3.6v-0.7h3.6
			v-4.1h0.7v4.1h6.3v0.7h-6.3v13.3c0,1.3,0.3,2.3,1,3s1.6,1,2.8,1c1.2,0,2.3-0.4,3.1-1.2L571.9,570.5z M577.4,553.1h0.7v18.6h-0.7
			V553.1z M577.7,548c-0.3,0-0.5-0.1-0.7-0.3c-0.2-0.2-0.3-0.4-0.3-0.6c0-0.3,0.1-0.5,0.3-0.6c0.2-0.2,0.4-0.3,0.7-0.3
			c0.2,0,0.5,0.1,0.6,0.3c0.2,0.2,0.3,0.4,0.3,0.6c0,0.2-0.1,0.5-0.3,0.6C578.2,547.9,578,548,577.7,548z M593.2,571.9
			c-1.7,0-3.3-0.4-4.6-1.2c-1.4-0.8-2.4-1.9-3.2-3.4c-0.8-1.4-1.2-3.1-1.2-4.9s0.4-3.4,1.2-4.8c0.8-1.4,1.9-2.6,3.2-3.3
			c1.4-0.8,2.9-1.2,4.6-1.2s3.2,0.4,4.6,1.2c1.4,0.8,2.5,1.9,3.2,3.3c0.8,1.4,1.2,3,1.2,4.8s-0.4,3.4-1.2,4.9
			c-0.8,1.4-1.8,2.6-3.2,3.4C596.5,571.5,594.9,571.9,593.2,571.9z M593.2,571.2c1.6,0,3-0.4,4.2-1.1c1.3-0.7,2.3-1.8,3-3.1
			c0.7-1.3,1.1-2.9,1.1-4.5s-0.4-3.2-1.1-4.5c-0.7-1.3-1.7-2.4-3-3.1c-1.3-0.7-2.7-1.1-4.2-1.1s-3,0.4-4.2,1.1
			c-1.3,0.7-2.3,1.8-3,3.1c-0.7,1.3-1.1,2.8-1.1,4.5s0.4,3.2,1.1,4.5c0.7,1.3,1.7,2.4,3,3.1C590.2,570.8,591.7,571.2,593.2,571.2z
			 M616.9,553c2.3,0,4.2,0.7,5.5,2c1.3,1.3,2,3.2,2,5.7v11h-0.7v-11c0-2.3-0.6-4-1.8-5.2c-1.2-1.2-2.8-1.8-4.9-1.8
			c-2.4,0-4.3,0.7-5.8,2.2c-1.4,1.4-2.1,3.3-2.1,5.7v10.1h-0.7v-18.6h0.7v5c0.6-1.6,1.5-2.8,2.9-3.7
			C613.3,553.5,614.9,553,616.9,553z M187.7,597.1v18.6H187v-4.9c-0.6,1.6-1.5,2.8-2.8,3.7s-2.9,1.3-4.7,1.3c-2.4,0-4.3-0.7-5.6-2
			c-1.3-1.3-2-3.3-2-5.8v-11h0.7v11c0,2.3,0.6,4,1.8,5.3c1.2,1.2,2.9,1.8,5.1,1.8c2.3,0,4.2-0.7,5.5-2.2c1.3-1.5,2-3.4,2-5.8v-10.1
			H187.7z M200.3,615.9c-1.5,0-2.9-0.2-4.2-0.7c-1.3-0.5-2.3-1.1-3.1-1.8l0.4-0.6c0.7,0.7,1.7,1.3,2.9,1.8c1.2,0.5,2.5,0.7,4,0.7
			c2.1,0,3.7-0.4,4.7-1.1c1-0.7,1.5-1.8,1.5-3.1c0-0.9-0.3-1.7-0.8-2.2c-0.5-0.6-1.2-0.9-2-1.2c-0.8-0.3-1.8-0.5-3.2-0.8
			c-1.5-0.3-2.7-0.5-3.6-0.8c-0.9-0.3-1.6-0.8-2.3-1.4c-0.6-0.7-0.9-1.6-0.9-2.8c0-1.3,0.6-2.5,1.7-3.4c1.1-0.9,2.8-1.4,4.9-1.4
			c1.2,0,2.3,0.2,3.4,0.5c1.1,0.3,2,0.8,2.7,1.4l-0.4,0.6c-0.7-0.6-1.6-1-2.6-1.3c-1-0.3-2.1-0.5-3.1-0.5c-1.9,0-3.4,0.4-4.4,1.2
			c-1,0.7-1.4,1.7-1.4,3c0,1,0.3,1.8,0.8,2.3c0.6,0.6,1.2,1,2.1,1.2c0.8,0.3,1.9,0.5,3.2,0.8c1.5,0.3,2.6,0.6,3.5,0.9
			c0.9,0.3,1.6,0.8,2.2,1.4c0.6,0.6,0.9,1.5,0.9,2.6c0,1.5-0.6,2.6-1.8,3.5C204.2,615.4,202.5,615.9,200.3,615.9z M212.6,597.1h0.7
			v18.6h-0.7V597.1z M213,592c-0.3,0-0.5-0.1-0.7-0.3c-0.2-0.2-0.3-0.4-0.3-0.6c0-0.3,0.1-0.5,0.3-0.6c0.2-0.2,0.4-0.3,0.7-0.3
			c0.2,0,0.5,0.1,0.6,0.3c0.2,0.2,0.3,0.4,0.3,0.6c0,0.2-0.1,0.5-0.3,0.6C213.5,591.9,213.2,592,213,592z M230.2,597
			c2.3,0,4.2,0.7,5.5,2c1.3,1.3,2,3.2,2,5.7v11h-0.7v-11c0-2.3-0.6-4-1.8-5.2c-1.2-1.2-2.8-1.8-4.9-1.8c-2.4,0-4.3,0.7-5.8,2.2
			c-1.4,1.4-2.1,3.3-2.1,5.7v10.1h-0.7v-18.6h0.7v5c0.6-1.6,1.5-2.8,2.9-3.7C226.6,597.5,228.2,597,230.2,597z M261.8,597.1v17
			c0,3-0.7,5.2-2.1,6.6c-1.4,1.4-3.6,2.2-6.5,2.2c-1.7,0-3.3-0.3-4.8-0.8c-1.4-0.6-2.6-1.3-3.5-2.3l0.5-0.5c1,0.9,2.1,1.7,3.4,2.2
			c1.3,0.5,2.8,0.8,4.3,0.8c2.7,0,4.7-0.6,5.9-1.9c1.3-1.3,1.9-3.3,1.9-6v-4.7c-0.6,1.7-1.7,3.1-3.2,4.1c-1.5,1-3.2,1.5-5.2,1.5
			c-1.7,0-3.3-0.4-4.7-1.2c-1.4-0.8-2.5-1.9-3.3-3.2c-0.8-1.4-1.2-3-1.2-4.7c0-1.7,0.4-3.3,1.2-4.6c0.8-1.4,1.9-2.5,3.3-3.2
			s3-1.2,4.7-1.2c2,0,3.7,0.5,5.2,1.5c1.5,1,2.6,2.4,3.2,4v-5.4H261.8z M252.6,614.5c1.6,0,3-0.3,4.3-1c1.3-0.7,2.3-1.7,3-3
			c0.7-1.3,1.1-2.7,1.1-4.4c0-1.6-0.4-3-1.1-4.3c-0.7-1.3-1.7-2.3-3-3c-1.3-0.7-2.7-1.1-4.3-1.1s-3.1,0.4-4.4,1.1
			c-1.3,0.7-2.3,1.7-3,3c-0.7,1.3-1.1,2.7-1.1,4.3c0,1.6,0.4,3.1,1.1,4.4c0.7,1.3,1.7,2.3,3,3C249.6,614.1,251,614.5,252.6,614.5z
			 M279,597.1h0.7v18.6H279V597.1z M279.4,592c-0.3,0-0.5-0.1-0.7-0.3c-0.2-0.2-0.3-0.4-0.3-0.6c0-0.3,0.1-0.5,0.3-0.6
			c0.2-0.2,0.4-0.3,0.7-0.3c0.2,0,0.5,0.1,0.6,0.3c0.2,0.2,0.3,0.4,0.3,0.6c0,0.2-0.1,0.5-0.3,0.6C279.9,591.9,279.6,592,279.4,592z
			 M296.5,614.5c-0.4,0.4-0.9,0.8-1.6,1c-0.6,0.2-1.3,0.3-2,0.3c-1.4,0-2.6-0.4-3.3-1.2c-0.8-0.8-1.2-2-1.2-3.3v-13.5h-3.6v-0.7h3.6
			v-4.1h0.7v4.1h6.3v0.7h-6.3v13.3c0,1.3,0.3,2.3,1,3c0.6,0.7,1.6,1,2.8,1c1.2,0,2.3-0.4,3.1-1.2L296.5,614.5z M306.3,615.9
			c-1.5,0-2.9-0.2-4.2-0.7s-2.3-1.1-3.1-1.8l0.4-0.6c0.7,0.7,1.7,1.3,2.9,1.8c1.2,0.5,2.5,0.7,4,0.7c2.1,0,3.7-0.4,4.7-1.1
			c1-0.7,1.5-1.8,1.5-3.1c0-0.9-0.3-1.7-0.8-2.2c-0.5-0.6-1.2-0.9-2-1.2c-0.8-0.3-1.8-0.5-3.2-0.8c-1.5-0.3-2.7-0.5-3.6-0.8
			c-0.9-0.3-1.6-0.8-2.3-1.4c-0.6-0.7-0.9-1.6-0.9-2.8c0-1.3,0.6-2.5,1.7-3.4c1.1-0.9,2.8-1.4,4.9-1.4c1.2,0,2.3,0.2,3.4,0.5
			c1.1,0.3,2,0.8,2.7,1.4l-0.4,0.6c-0.7-0.6-1.6-1-2.6-1.3s-2.1-0.5-3.1-0.5c-1.9,0-3.4,0.4-4.4,1.2c-1,0.7-1.4,1.7-1.4,3
			c0,1,0.3,1.8,0.8,2.3c0.6,0.6,1.2,1,2.1,1.2c0.8,0.3,1.9,0.5,3.2,0.8c1.5,0.3,2.6,0.6,3.5,0.9c0.9,0.3,1.6,0.8,2.2,1.4
			c0.6,0.6,0.9,1.5,0.9,2.6c0,1.5-0.6,2.6-1.8,3.5C310.3,615.4,308.5,615.9,306.3,615.9z M336.7,597c1.7,0,3.2,0.4,4.6,1.2
			c1.4,0.8,2.5,1.9,3.3,3.3c0.8,1.4,1.2,3,1.2,4.8c0,1.8-0.4,3.4-1.2,4.9c-0.8,1.4-1.9,2.6-3.3,3.4c-1.4,0.8-2.9,1.2-4.6,1.2
			c-1.9,0-3.7-0.5-5.1-1.5c-1.5-1.1-2.5-2.5-3.2-4.2v5.7h-0.7V589h0.7v13.8c0.6-1.8,1.7-3.1,3.2-4.2
			C333.1,597.6,334.8,597,336.7,597z M336.7,615.2c1.6,0,3-0.4,4.2-1.1c1.3-0.7,2.3-1.8,3-3.1c0.7-1.3,1.1-2.9,1.1-4.5
			c0-1.7-0.4-3.2-1.1-4.5c-0.7-1.3-1.7-2.4-3-3.1c-1.3-0.7-2.7-1.1-4.2-1.1s-3,0.4-4.2,1.1c-1.3,0.7-2.3,1.8-3,3.1
			c-0.7,1.3-1.1,2.8-1.1,4.5c0,1.7,0.4,3.2,1.1,4.5c0.7,1.3,1.7,2.4,3,3.1C333.7,614.8,335.1,615.2,336.7,615.2z M367.4,597.1v18.6
			h-0.7v-4.9c-0.6,1.6-1.5,2.8-2.8,3.7c-1.3,0.9-2.9,1.3-4.7,1.3c-2.4,0-4.3-0.7-5.6-2c-1.3-1.3-2-3.3-2-5.8v-11h0.7v11
			c0,2.3,0.6,4,1.8,5.3c1.2,1.2,2.9,1.8,5.1,1.8c2.3,0,4.2-0.7,5.5-2.2c1.3-1.5,2-3.4,2-5.8v-10.1H367.4z M375.7,597.1h0.7v18.6
			h-0.7V597.1z M376.1,592c-0.3,0-0.5-0.1-0.7-0.3c-0.2-0.2-0.3-0.4-0.3-0.6c0-0.3,0.1-0.5,0.3-0.6c0.2-0.2,0.4-0.3,0.7-0.3
			c0.2,0,0.5,0.1,0.6,0.3c0.2,0.2,0.3,0.4,0.3,0.6c0,0.2-0.1,0.5-0.3,0.6C376.5,591.9,376.3,592,376.1,592z M384.7,589h0.7v26.7
			h-0.7V589z M401.4,614.5c-0.4,0.4-0.9,0.8-1.6,1c-0.6,0.2-1.3,0.3-2,0.3c-1.4,0-2.6-0.4-3.3-1.2c-0.8-0.8-1.2-2-1.2-3.3v-13.5
			h-3.6v-0.7h3.6v-4.1h0.7v4.1h6.3v0.7H394v13.3c0,1.3,0.3,2.3,1,3s1.6,1,2.8,1c1.2,0,2.3-0.4,3.1-1.2L401.4,614.5z M404.8,605.9h9
			v0.7h-9V605.9z M420.3,597.1h0.7v18.6h-0.7V597.1z M420.7,592c-0.3,0-0.5-0.1-0.7-0.3c-0.2-0.2-0.3-0.4-0.3-0.6
			c0-0.3,0.1-0.5,0.3-0.6c0.2-0.2,0.4-0.3,0.7-0.3c0.2,0,0.5,0.1,0.6,0.3c0.2,0.2,0.3,0.4,0.3,0.6c0,0.2-0.1,0.5-0.3,0.6
			C421.1,591.9,420.9,592,420.7,592z M437.8,597c2.3,0,4.2,0.7,5.5,2c1.3,1.3,2,3.2,2,5.7v11h-0.7v-11c0-2.3-0.6-4-1.8-5.2
			c-1.2-1.2-2.8-1.8-4.9-1.8c-2.4,0-4.3,0.7-5.8,2.2c-1.4,1.4-2.1,3.3-2.1,5.7v10.1h-0.7v-18.6h0.7v5c0.6-1.6,1.5-2.8,2.9-3.7
			C434.3,597.5,435.9,597,437.8,597z M463,590.5h0.7v24.5h15v0.7H463V590.5z M500.7,615.1v0.7h-16.8v-25.2h16.2v0.7h-15.5v11.4h13.9
			v0.7h-13.9v11.8H500.7z M507.9,590.5h9.5c2.6,0,4.9,0.5,6.9,1.6c2,1.1,3.6,2.6,4.7,4.5c1.1,1.9,1.7,4.1,1.7,6.5
			c0,2.4-0.6,4.6-1.7,6.5c-1.1,1.9-2.7,3.4-4.7,4.5c-2,1.1-4.3,1.6-6.9,1.6h-9.5V590.5z M517.4,615.1c2.5,0,4.7-0.5,6.6-1.5
			c1.9-1,3.4-2.4,4.4-4.2c1.1-1.8,1.6-3.9,1.6-6.2c0-2.3-0.5-4.3-1.6-6.1c-1-1.8-2.5-3.2-4.4-4.2c-1.9-1-4.1-1.5-6.6-1.5h-8.7v23.8
			H517.4z M569.2,597c2.3,0,4,0.7,5.3,2c1.3,1.3,1.9,3.2,1.9,5.7v11h-0.7v-11c0-2.3-0.6-4-1.7-5.2c-1.1-1.2-2.7-1.8-4.8-1.8
			c-2.4,0-4.2,0.7-5.6,2.2c-1.4,1.4-2.1,3.3-2.1,5.7v10.1h-0.7v-11c0-2.3-0.6-4-1.7-5.2c-1.1-1.2-2.7-1.8-4.8-1.8
			c-2.4,0-4.2,0.7-5.6,2.2c-1.4,1.4-2.1,3.3-2.1,5.7v10.1H546v-18.6h0.7v4.9c0.6-1.6,1.5-2.8,2.8-3.7s2.9-1.3,4.8-1.3
			c1.9,0,3.5,0.5,4.7,1.4c1.2,0.9,2,2.3,2.4,4.1c0.5-1.7,1.4-3,2.7-4C565.5,597.5,567.2,597,569.2,597z M590.4,597
			c2.2,0,3.8,0.6,4.9,1.7c1.2,1.1,1.7,2.7,1.7,4.8v12.2h-0.7v-4c-0.6,1.3-1.5,2.3-2.7,3c-1.2,0.7-2.7,1.1-4.4,1.1
			c-2.1,0-3.7-0.5-4.9-1.4c-1.2-1-1.7-2.2-1.7-3.8c0-1.5,0.5-2.7,1.5-3.6c1.1-0.9,2.7-1.4,5.1-1.4h7.1v-2.1c0-1.9-0.5-3.4-1.5-4.4
			c-1-1-2.4-1.5-4.4-1.5c-1.3,0-2.6,0.2-3.8,0.7c-1.2,0.5-2.1,1.1-3,1.9l-0.5-0.5c0.9-0.9,2-1.5,3.2-2
			C587.7,597.3,589,597,590.4,597z M589.3,615.2c3.5,0,5.8-1.6,7.1-4.8v-4.1h-7.1c-2,0-3.5,0.4-4.5,1.2c-0.9,0.8-1.4,1.8-1.4,3.1
			c0,1.4,0.5,2.5,1.5,3.3C586,614.8,587.4,615.2,589.3,615.2z M613.6,614.5c-0.4,0.4-0.9,0.8-1.6,1c-0.6,0.2-1.3,0.3-2,0.3
			c-1.4,0-2.6-0.4-3.3-1.2c-0.8-0.8-1.2-2-1.2-3.3v-13.5h-3.6v-0.7h3.6v-4.1h0.7v4.1h6.3v0.7h-6.3v13.3c0,1.3,0.3,2.3,1,3
			s1.6,1,2.8,1s2.3-0.4,3.1-1.2L613.6,614.5z M619.8,602c0.5-1.6,1.4-2.8,2.7-3.6c1.2-0.9,2.8-1.3,4.6-1.3v0.7h-0.2
			c-2.2,0-4,0.7-5.2,2.2c-1.2,1.4-1.9,3.4-1.9,5.8v10h-0.7v-18.6h0.7V602z M632.5,597.1h0.7v18.6h-0.7V597.1z M632.9,592
			c-0.3,0-0.5-0.1-0.7-0.3c-0.2-0.2-0.3-0.4-0.3-0.6c0-0.3,0.1-0.5,0.3-0.6c0.2-0.2,0.4-0.3,0.7-0.3c0.2,0,0.5,0.1,0.6,0.3
			c0.2,0.2,0.3,0.4,0.3,0.6c0,0.2-0.1,0.5-0.3,0.6C633.4,591.9,633.1,592,632.9,592z M653.4,615.7l-7-9.1l-7.1,9.1h-0.9l7.5-9.6
			l-7.1-9h0.9l6.6,8.5l6.6-8.5h0.9l-7,9l7.6,9.6H653.4z M658.6,615.9c-0.2,0-0.5-0.1-0.6-0.3c-0.2-0.2-0.3-0.4-0.3-0.6
			c0-0.3,0.1-0.5,0.3-0.6c0.2-0.2,0.4-0.3,0.6-0.3c0.3,0,0.5,0.1,0.6,0.3c0.2,0.2,0.3,0.4,0.3,0.6c0,0.2-0.1,0.5-0.3,0.6
			C659.1,615.8,658.9,615.9,658.6,615.9z"/>
	</g>
	
		<image style="overflow:visible;" width="1200" height="1125" xlink:href="SenseHat_Transparent.gif"  transform="matrix(0.3883 0 0 0.3883 749.1693 121.0426)">
	</image>
</g>
</svg>
