<?xml version="1.0" encoding="utf-8"?>
<!-- Generator: Adobe Illustrator 25.2.1, SVG Export Plug-In . SVG Version: 6.00 Build 0)  -->
<svg version="1.1" id="Layer_1" xmlns="http://www.w3.org/2000/svg" xmlns:xlink="http://www.w3.org/1999/xlink" x="0px" y="0px"
	 viewBox="0 0 1436.1 683.1" style="enable-background:new 0 0 1436.1 683.1;" xml:space="preserve">
<style type="text/css">
	.st0{fill:#FFFFFF;}
</style>
<path class="st0" d="M485.9,112.6l-12.8-17.7c-1.7,0.3-3.6,0.5-5.9,0.5h-15.6v17.2h-1.4V62.4h17c6.2,0,11,1.5,14.5,4.4
	c3.5,2.9,5.2,6.9,5.2,12.1c0,4-1.1,7.4-3.2,10.1c-2.2,2.7-5.2,4.5-9.1,5.5l13.1,18.1H485.9z M467.4,94c5.8,0,10.3-1.3,13.4-3.9
	c3.2-2.6,4.7-6.4,4.7-11.2s-1.6-8.6-4.7-11.2c-3.1-2.6-7.6-3.9-13.4-3.9h-15.7V94H467.4z M511.8,75.3c4.3,0,7.6,1.1,9.8,3.4
	c2.3,2.2,3.4,5.4,3.4,9.6v24.3h-1.4v-7.9c-1.2,2.5-3,4.5-5.5,6c-2.4,1.4-5.3,2.2-8.7,2.2c-4.1,0-7.3-0.9-9.7-2.8
	c-2.3-1.9-3.4-4.4-3.4-7.6c0-3,1-5.4,3.1-7.2c2.1-1.9,5.5-2.8,10.1-2.8h14.1v-4.1c0-3.9-1-6.8-3-8.8c-2-2-4.9-2.9-8.8-2.9
	c-2.7,0-5.2,0.5-7.5,1.4c-2.3,0.9-4.3,2.2-6,3.7l-1-1c1.8-1.7,3.9-3.1,6.5-4C506.4,75.8,509,75.3,511.8,75.3z M509.5,111.5
	c6.9,0,11.6-3.2,14.1-9.5v-8.2h-14.1c-4,0-7,0.8-8.9,2.3c-1.9,1.5-2.8,3.6-2.8,6.2c0,2.8,1,5,3.1,6.7
	C503,110.6,505.8,111.5,509.5,111.5z M549.7,112.8c-3,0-5.8-0.5-8.4-1.4c-2.6-1-4.7-2.2-6.1-3.7l0.9-1.1c1.4,1.4,3.3,2.6,5.7,3.5
	c2.4,0.9,5.1,1.4,7.9,1.4c4.2,0,7.3-0.7,9.3-2.2c2-1.5,3-3.5,3-6.1c0-1.9-0.6-3.3-1.7-4.4c-1.1-1.1-2.4-1.9-3.9-2.4
	c-1.5-0.5-3.7-1.1-6.4-1.6c-2.9-0.5-5.3-1.1-7.1-1.7c-1.8-0.6-3.3-1.6-4.5-2.9c-1.2-1.3-1.8-3.2-1.8-5.5c0-2.7,1.1-4.9,3.3-6.7
	c2.2-1.9,5.5-2.8,9.8-2.8c2.3,0,4.6,0.4,6.8,1.1c2.2,0.7,4.1,1.6,5.5,2.7l-0.9,1.1c-1.4-1.1-3.2-2-5.2-2.7c-2-0.6-4.1-0.9-6.2-0.9
	c-3.9,0-6.8,0.8-8.8,2.3c-1.9,1.5-2.9,3.4-2.9,5.9c0,2,0.6,3.5,1.7,4.7c1.1,1.1,2.5,1.9,4.1,2.4c1.6,0.5,3.8,1,6.5,1.5
	c2.9,0.6,5.2,1.1,7,1.7c1.7,0.6,3.2,1.5,4.4,2.8c1.2,1.2,1.8,3,1.8,5.2c0,2.9-1.2,5.3-3.5,7C557.6,112,554.2,112.8,549.7,112.8z
	 M592.4,75.3c3.3,0,6.4,0.8,9.1,2.4c2.8,1.6,5,3.8,6.5,6.7s2.4,6.1,2.4,9.7c0,3.6-0.8,6.8-2.4,9.7c-1.6,2.8-3.8,5-6.5,6.7
	c-2.7,1.6-5.8,2.4-9.1,2.4c-3.8,0-7.2-1-10.3-3.1c-3-2.1-5.1-4.9-6.3-8.4v25.2h-1.4v-51h1.4v11.3c1.2-3.5,3.3-6.3,6.3-8.4
	C585.1,76.3,588.5,75.3,592.4,75.3z M592.4,111.5c3.1,0,5.9-0.7,8.5-2.2c2.5-1.5,4.5-3.5,6-6.2c1.4-2.7,2.2-5.7,2.2-9
	s-0.7-6.3-2.2-9c-1.4-2.7-3.4-4.8-6-6.2c-2.5-1.5-5.4-2.2-8.5-2.2c-3.1,0-5.9,0.7-8.5,2.2c-2.5,1.5-4.5,3.6-6,6.2
	c-1.4,2.6-2.2,5.6-2.2,9s0.7,6.4,2.2,9c1.4,2.6,3.4,4.7,6,6.2C586.5,110.7,589.3,111.5,592.4,111.5z M640.6,75.3
	c3.3,0,6.4,0.8,9.1,2.4c2.8,1.6,5,3.8,6.5,6.7c1.6,2.8,2.4,6,2.4,9.6s-0.8,6.8-2.4,9.7c-1.6,2.9-3.8,5.1-6.5,6.7
	c-2.7,1.6-5.8,2.4-9.1,2.4c-3.9,0-7.3-1-10.3-3.1c-3-2.1-5.1-4.9-6.3-8.5v11.3h-1.4V59.4h1.4v27.4c1.2-3.5,3.3-6.3,6.3-8.3
	C633.3,76.3,636.7,75.3,640.6,75.3z M640.6,111.5c3.1,0,5.9-0.7,8.5-2.2c2.5-1.5,4.5-3.5,6-6.2c1.4-2.7,2.2-5.7,2.2-9
	s-0.7-6.3-2.2-9c-1.4-2.7-3.4-4.7-6-6.2c-2.5-1.5-5.4-2.2-8.5-2.2c-3.1,0-5.9,0.7-8.5,2.2c-2.5,1.4-4.5,3.5-6,6.2
	c-1.4,2.6-2.2,5.6-2.2,9s0.7,6.4,2.2,9c1.4,2.6,3.4,4.7,6,6.2S637.5,111.5,640.6,111.5z M670.7,75.5h1.4v37.1h-1.4V75.5z
	 M671.4,65.2c-0.5,0-1-0.2-1.4-0.6c-0.3-0.4-0.5-0.8-0.5-1.3c0-0.5,0.2-1,0.5-1.3c0.4-0.4,0.8-0.6,1.4-0.6c0.5,0,0.9,0.2,1.3,0.6
	c0.4,0.3,0.6,0.8,0.6,1.3c0,0.5-0.2,0.9-0.6,1.3C672.3,65,671.9,65.2,671.4,65.2z M700.5,75.3c4.3,0,7.6,1.1,9.8,3.4
	c2.3,2.2,3.4,5.4,3.4,9.6v24.3h-1.4v-7.9c-1.2,2.5-3,4.5-5.5,6c-2.4,1.4-5.3,2.2-8.7,2.2c-4.1,0-7.3-0.9-9.7-2.8
	c-2.3-1.9-3.4-4.4-3.4-7.6c0-3,1-5.4,3.1-7.2c2.1-1.9,5.5-2.8,10.1-2.8h14.1v-4.1c0-3.9-1-6.8-3-8.8c-2-2-4.9-2.9-8.8-2.9
	c-2.7,0-5.2,0.5-7.5,1.4c-2.3,0.9-4.3,2.2-6,3.7l-1-1c1.8-1.7,3.9-3.1,6.5-4C695.1,75.8,697.7,75.3,700.5,75.3z M698.2,111.5
	c6.9,0,11.6-3.2,14.1-9.5v-8.2h-14.1c-4,0-7,0.8-8.9,2.3c-1.9,1.5-2.8,3.6-2.8,6.2c0,2.8,1,5,3.1,6.7S694.5,111.5,698.2,111.5z
	 M746.9,75.3c4.6,0,8.3,1.3,10.9,4c2.6,2.6,3.9,6.4,3.9,11.4v21.9h-1.4V90.7c0-4.5-1.2-8-3.5-10.4c-2.3-2.4-5.6-3.7-9.8-3.7
	c-4.8,0-8.7,1.5-11.5,4.4c-2.8,2.9-4.2,6.7-4.2,11.4v20.2h-1.4V75.5h1.4v9.9c1.1-3.2,3.1-5.6,5.7-7.4
	C739.7,76.2,743,75.3,746.9,75.3z M797,62.4h1.4v50.2H797V62.4z M833.3,75.3c4.6,0,8.3,1.3,10.9,4c2.6,2.6,3.9,6.4,3.9,11.4v21.9
	h-1.4V90.7c0-4.5-1.2-8-3.5-10.4c-2.3-2.4-5.6-3.7-9.8-3.7c-4.8,0-8.7,1.5-11.5,4.4c-2.8,2.9-4.2,6.7-4.2,11.4v20.2h-1.4V75.5h1.4
	v9.9c1.1-3.2,3.1-5.6,5.7-7.4C826.1,76.2,829.4,75.3,833.3,75.3z M872.8,112.8c-3,0-5.8-0.5-8.4-1.4c-2.6-1-4.7-2.2-6.1-3.7l0.9-1.1
	c1.4,1.4,3.3,2.6,5.7,3.5c2.4,0.9,5.1,1.4,7.9,1.4c4.2,0,7.3-0.7,9.3-2.2c2-1.5,3-3.5,3-6.1c0-1.9-0.6-3.3-1.7-4.4
	c-1.1-1.1-2.4-1.9-3.9-2.4c-1.5-0.5-3.7-1.1-6.4-1.6c-2.9-0.5-5.3-1.1-7.1-1.7c-1.8-0.6-3.3-1.6-4.5-2.9c-1.2-1.3-1.8-3.2-1.8-5.5
	c0-2.7,1.1-4.9,3.3-6.7c2.2-1.9,5.5-2.8,9.8-2.8c2.3,0,4.6,0.4,6.8,1.1c2.2,0.7,4.1,1.6,5.5,2.7l-0.9,1.1c-1.4-1.1-3.2-2-5.2-2.7
	c-2-0.6-4.1-0.9-6.2-0.9c-3.9,0-6.8,0.8-8.8,2.3c-1.9,1.5-2.9,3.4-2.9,5.9c0,2,0.6,3.5,1.7,4.7c1.1,1.1,2.5,1.9,4.1,2.4
	s3.8,1,6.5,1.5c2.9,0.6,5.2,1.1,7,1.7s3.2,1.5,4.4,2.8c1.2,1.2,1.8,3,1.8,5.2c0,2.9-1.2,5.3-3.5,7
	C880.7,112,877.3,112.8,872.8,112.8z M914.2,110.2c-0.8,0.9-1.9,1.5-3.2,2c-1.3,0.4-2.6,0.6-4,0.6c-2.9,0-5.1-0.8-6.7-2.4
	c-1.5-1.7-2.3-3.9-2.3-6.7V76.9h-7.2v-1.4h7.2v-8.1h1.4v8.1H912v1.4h-12.6v26.5c0,2.6,0.6,4.6,1.9,6c1.3,1.4,3.2,2.1,5.7,2.1
	s4.5-0.8,6.2-2.3L914.2,110.2z M937.1,75.3c4.3,0,7.6,1.1,9.8,3.4c2.3,2.2,3.4,5.4,3.4,9.6v24.3h-1.4v-7.9c-1.2,2.5-3,4.5-5.5,6
	c-2.4,1.4-5.3,2.2-8.7,2.2c-4.1,0-7.3-0.9-9.7-2.8c-2.3-1.9-3.4-4.4-3.4-7.6c0-3,1-5.4,3.1-7.2c2.1-1.9,5.5-2.8,10.1-2.8h14.1v-4.1
	c0-3.9-1-6.8-3-8.8c-2-2-4.9-2.9-8.8-2.9c-2.7,0-5.2,0.5-7.5,1.4c-2.3,0.9-4.3,2.2-6,3.7l-1-1c1.8-1.7,3.9-3.1,6.5-4
	C931.7,75.8,934.3,75.3,937.1,75.3z M934.8,111.5c6.9,0,11.6-3.2,14.1-9.5v-8.2h-14.1c-4,0-7,0.8-8.9,2.3c-1.9,1.5-2.8,3.6-2.8,6.2
	c0,2.8,1,5,3.1,6.7C928.3,110.6,931.1,111.5,934.8,111.5z M966.5,59.4h1.4v53.3h-1.4V59.4z M984.4,59.4h1.4v53.3h-1.4V59.4z"/>
<g>
	<defs>
		<path id="SVGID_1_" d="M772.3,163.3h493.1c10.5,0,19,8.5,19,19v369.2c0,10.5-8.5,19-19,19H772.3c-10.5,0-19-8.5-19-19V182.3
			C753.3,171.8,761.8,163.3,772.3,163.3z"/>
	</defs>
	<clipPath id="SVGID_2_">
		<use xlink:href="#SVGID_1_"  style="overflow:visible;"/>
	</clipPath>
	<g style="clip-path:url(#SVGID_2_);">
		
			<image style="overflow:visible;" width="700" height="581" xlink:href="1BCFA157.jpg"  transform="matrix(0.7585 0 0 0.7585 753.3303 156.0885)">
		</image>
	</g>
	<use xlink:href="#SVGID_1_"  style="overflow:visible;fill:none;stroke:#FFFFFF;stroke-miterlimit:10;"/>
</g>
<path class="st0" d="M211.7,222.1c-2.1,0-4.1-0.5-5.8-1.5c-1.7-1-3.1-2.3-4.1-4c-1-1.7-1.5-3.6-1.5-5.8c0-2.1,0.5-4,1.5-5.7
	c1-1.7,2.4-3.1,4.1-4c1.7-1,3.7-1.5,5.8-1.5c2.1,0,4.1,0.5,5.8,1.5c1.7,1,3.1,2.3,4.1,4c1,1.7,1.5,3.6,1.5,5.7c0,2.1-0.5,4-1.5,5.8
	c-1,1.7-2.4,3-4.1,4C215.7,221.6,213.8,222.1,211.7,222.1z M211.7,221.5c2,0,3.8-0.5,5.5-1.4c1.7-0.9,2.9-2.2,3.9-3.8
	c1-1.6,1.4-3.4,1.4-5.4s-0.5-3.8-1.4-5.4c-0.9-1.6-2.2-2.9-3.9-3.8c-1.6-0.9-3.5-1.4-5.5-1.4s-3.8,0.5-5.5,1.4
	c-1.6,0.9-2.9,2.2-3.9,3.8c-0.9,1.6-1.4,3.4-1.4,5.4s0.5,3.8,1.4,5.4c1,1.6,2.2,2.9,3.9,3.8C207.8,221,209.7,221.5,211.7,221.5z
	 M236.1,205.4c2.1,0,3.7,0.6,4.8,1.8c1.2,1.2,1.7,2.9,1.7,5.1v9.7h-0.6v-9.7c0-2-0.5-3.6-1.6-4.6c-1-1.1-2.5-1.6-4.4-1.6
	c-2.1,0-3.8,0.6-5.1,1.9c-1.2,1.3-1.8,3-1.8,5.1v8.9h-0.6v-16.4h0.6v4.4c0.5-1.4,1.4-2.5,2.5-3.3C233,205.8,234.4,205.4,236.1,205.4
	z M256,222.1c-1.5,0-2.9-0.3-4.2-1c-1.2-0.7-2.2-1.7-2.9-3c-0.7-1.3-1-2.7-1-4.3c0-1.6,0.3-3,1-4.3c0.7-1.3,1.7-2.3,2.9-3
	s2.6-1,4.2-1c1.2,0,2.3,0.2,3.3,0.7c1,0.4,1.9,1.1,2.6,2l-0.4,0.5c-0.6-0.8-1.4-1.5-2.4-1.9s-2-0.6-3.1-0.6c-1.4,0-2.7,0.3-3.8,1
	c-1.1,0.6-2,1.5-2.6,2.7c-0.6,1.2-1,2.5-1,4c0,1.5,0.3,2.8,1,4s1.5,2.1,2.6,2.7c1.1,0.7,2.4,1,3.8,1c1.1,0,2.2-0.2,3.1-0.6
	s1.7-1.1,2.4-1.9l0.4,0.5c-0.7,0.9-1.5,1.5-2.6,2C258.3,221.8,257.2,222.1,256,222.1z M280.2,213.7h-14.6c0,1.5,0.3,2.8,1,4
	c0.7,1.2,1.6,2.1,2.7,2.7c1.2,0.7,2.5,1,3.9,1c1.1,0,2.2-0.2,3.1-0.6c1-0.4,1.8-1.1,2.4-1.9l0.4,0.4c-0.7,0.9-1.6,1.5-2.7,2
	c-1.1,0.5-2.2,0.7-3.4,0.7c-1.6,0-3-0.3-4.2-1c-1.2-0.7-2.2-1.7-2.9-3c-0.7-1.3-1-2.7-1-4.3c0-1.6,0.3-3,1-4.3
	c0.7-1.3,1.6-2.3,2.7-3c1.2-0.7,2.5-1.1,3.9-1.1c1.4,0,2.7,0.3,3.9,1s2.1,1.7,2.7,2.9c0.7,1.2,1,2.6,1,4.2V213.7z M272.5,206
	c-1.3,0-2.4,0.3-3.5,0.9c-1,0.6-1.9,1.5-2.5,2.5c-0.6,1.1-1,2.3-1,3.6h14c-0.1-1.3-0.4-2.5-1-3.6c-0.6-1.1-1.5-1.9-2.5-2.5
	C275,206.4,273.8,206,272.5,206z M301.5,205.4c1.5,0,2.8,0.4,4,1.1c1.2,0.7,2.2,1.7,2.9,3c0.7,1.3,1,2.7,1,4.3c0,1.6-0.3,3-1,4.3
	c-0.7,1.3-1.7,2.2-2.9,3c-1.2,0.7-2.6,1-4,1c-1.7,0-3.2-0.5-4.5-1.4c-1.3-0.9-2.2-2.2-2.8-3.7v11.2h-0.6v-22.6h0.6v5
	c0.6-1.6,1.5-2.8,2.8-3.7C298.2,205.9,299.7,205.4,301.5,205.4z M301.5,221.5c1.4,0,2.6-0.3,3.8-1c1.1-0.7,2-1.6,2.6-2.7
	c0.6-1.2,1-2.5,1-4c0-1.5-0.3-2.8-1-4c-0.6-1.2-1.5-2.1-2.6-2.8c-1.1-0.7-2.4-1-3.8-1s-2.6,0.3-3.8,1c-1.1,0.7-2,1.6-2.6,2.8
	c-0.6,1.2-1,2.5-1,4c0,1.5,0.3,2.8,1,4c0.6,1.2,1.5,2.1,2.6,2.7C298.8,221.1,300.1,221.5,301.5,221.5z M320.9,222.1
	c-1.5,0-2.9-0.3-4.1-1c-1.2-0.7-2.2-1.7-2.9-3c-0.7-1.3-1-2.7-1-4.3c0-1.6,0.3-3,1-4.3c0.7-1.3,1.7-2.3,2.9-3
	c1.2-0.7,2.6-1.1,4.1-1.1c1.5,0,2.9,0.4,4.1,1.1c1.2,0.7,2.2,1.7,2.9,3c0.7,1.3,1,2.7,1,4.3c0,1.6-0.3,3-1,4.3
	c-0.7,1.3-1.6,2.3-2.9,3C323.7,221.7,322.4,222.1,320.9,222.1z M320.9,221.5c1.4,0,2.6-0.3,3.8-1c1.1-0.7,2-1.6,2.6-2.7
	c0.6-1.2,1-2.5,1-4c0-1.5-0.3-2.8-1-4c-0.6-1.2-1.5-2.1-2.6-2.7c-1.1-0.7-2.4-1-3.8-1s-2.6,0.3-3.8,1c-1.1,0.6-2,1.5-2.6,2.7
	c-0.6,1.2-1,2.5-1,4c0,1.5,0.3,2.8,1,4c0.6,1.2,1.5,2.1,2.6,2.7C318.2,221.1,319.5,221.5,320.9,221.5z M356.4,205.5L350,222h-0.6
	l-6-15.5l-6.1,15.5h-0.5l-6.3-16.4h0.6l5.9,15.7l6-15.7h0.6l6,15.7l5.9-15.7H356.4z M373.2,213.7h-14.6c0,1.5,0.3,2.8,1,4
	c0.7,1.2,1.6,2.1,2.7,2.7c1.2,0.7,2.5,1,3.9,1c1.1,0,2.2-0.2,3.1-0.6c1-0.4,1.8-1.1,2.4-1.9l0.4,0.4c-0.7,0.9-1.6,1.5-2.7,2
	c-1.1,0.5-2.2,0.7-3.4,0.7c-1.6,0-3-0.3-4.2-1c-1.2-0.7-2.2-1.7-2.9-3c-0.7-1.3-1-2.7-1-4.3c0-1.6,0.3-3,1-4.3
	c0.7-1.3,1.6-2.3,2.7-3c1.2-0.7,2.5-1.1,3.9-1.1c1.4,0,2.7,0.3,3.9,1s2.1,1.7,2.7,2.9c0.7,1.2,1,2.6,1,4.2V213.7z M365.6,206
	c-1.3,0-2.4,0.3-3.5,0.9c-1,0.6-1.9,1.5-2.5,2.5c-0.6,1.1-1,2.3-1,3.6h14c-0.1-1.3-0.4-2.5-1-3.6c-0.6-1.1-1.5-1.9-2.5-2.5
	C368,206.4,366.9,206,365.6,206z M379.2,209.8c0.5-1.4,1.3-2.5,2.4-3.2c1.1-0.8,2.5-1.1,4.1-1.1v0.6h-0.2c-2,0-3.5,0.6-4.6,1.9
	c-1.1,1.3-1.7,3-1.7,5.2v8.8h-0.6v-16.4h0.6V209.8z M403.6,213.7H389c0,1.5,0.3,2.8,1,4c0.7,1.2,1.6,2.1,2.7,2.7
	c1.2,0.7,2.5,1,3.9,1c1.1,0,2.2-0.2,3.1-0.6c1-0.4,1.8-1.1,2.4-1.9l0.4,0.4c-0.7,0.9-1.6,1.5-2.7,2c-1.1,0.5-2.2,0.7-3.4,0.7
	c-1.6,0-3-0.3-4.2-1c-1.2-0.7-2.2-1.7-2.9-3c-0.7-1.3-1-2.7-1-4.3c0-1.6,0.3-3,1-4.3c0.7-1.3,1.6-2.3,2.7-3c1.2-0.7,2.5-1.1,3.9-1.1
	c1.4,0,2.7,0.3,3.9,1s2.1,1.7,2.7,2.9c0.7,1.2,1,2.6,1,4.2V213.7z M396,206c-1.3,0-2.4,0.3-3.5,0.9c-1,0.6-1.9,1.5-2.5,2.5
	c-0.6,1.1-1,2.3-1,3.6h14c-0.1-1.3-0.4-2.5-1-3.6c-0.6-1.1-1.5-1.9-2.5-2.5C398.4,206.4,397.2,206,396,206z M423,198.4V222h-0.6v-5
	c-0.6,1.6-1.5,2.8-2.8,3.8c-1.3,0.9-2.8,1.4-4.5,1.4c-1.5,0-2.8-0.3-4.1-1c-1.2-0.7-2.2-1.7-2.9-3s-1-2.7-1-4.3c0-1.6,0.3-3,1-4.3
	c0.7-1.3,1.7-2.3,2.9-3c1.2-0.7,2.6-1.1,4.1-1.1c1.7,0,3.2,0.5,4.5,1.4c1.3,0.9,2.3,2.1,2.8,3.7v-12.1H423z M415,221.5
	c1.4,0,2.6-0.3,3.8-1c1.1-0.7,2-1.6,2.6-2.7c0.6-1.2,1-2.5,1-4c0-1.5-0.3-2.8-1-4c-0.6-1.2-1.5-2.1-2.6-2.7c-1.1-0.7-2.4-1-3.8-1
	s-2.6,0.3-3.8,1c-1.1,0.6-2,1.5-2.6,2.7c-0.6,1.2-1,2.5-1,4c0,1.5,0.3,2.8,1,4c0.6,1.2,1.5,2.1,2.6,2.7
	C412.4,221.1,413.6,221.5,415,221.5z M444.3,222.1c-1.5,0-2.9-0.3-4.1-1c-1.2-0.7-2.2-1.7-2.9-3c-0.7-1.3-1-2.7-1-4.3
	c0-1.6,0.3-3,1-4.3c0.7-1.3,1.7-2.3,2.9-3c1.2-0.7,2.6-1.1,4.1-1.1s2.9,0.4,4.1,1.1c1.2,0.7,2.2,1.7,2.9,3c0.7,1.3,1,2.7,1,4.3
	c0,1.6-0.3,3-1,4.3c-0.7,1.3-1.6,2.3-2.9,3C447.1,221.7,445.8,222.1,444.3,222.1z M444.3,221.5c1.4,0,2.6-0.3,3.8-1
	c1.1-0.7,2-1.6,2.6-2.7c0.6-1.2,1-2.5,1-4c0-1.5-0.3-2.8-1-4c-0.6-1.2-1.5-2.1-2.6-2.7c-1.1-0.7-2.4-1-3.8-1s-2.6,0.3-3.8,1
	c-1.1,0.6-2,1.5-2.6,2.7c-0.6,1.2-1,2.5-1,4c0,1.5,0.3,2.8,1,4c0.6,1.2,1.5,2.1,2.6,2.7C441.7,221.1,442.9,221.5,444.3,221.5z
	 M465.2,205.4c2.1,0,3.7,0.6,4.8,1.8c1.2,1.2,1.7,2.9,1.7,5.1v9.7h-0.6v-9.7c0-2-0.5-3.6-1.6-4.6c-1-1.1-2.5-1.6-4.4-1.6
	c-2.1,0-3.8,0.6-5.1,1.9c-1.2,1.3-1.8,3-1.8,5.1v8.9h-0.6v-16.4h0.6v4.4c0.5-1.4,1.4-2.5,2.5-3.3C462,205.8,463.5,205.4,465.2,205.4
	z M478.1,220.4c0.2,0,0.4,0.1,0.6,0.3c0.2,0.2,0.3,0.4,0.3,0.6c0,0.1,0,0.5-0.1,0.9l-1,4.3h-0.6l0.9-4.4c-0.2,0-0.4-0.1-0.6-0.3
	c-0.1-0.2-0.2-0.4-0.2-0.6c0-0.2,0.1-0.4,0.2-0.6C477.7,220.5,477.9,220.4,478.1,220.4z M498.6,222.1c-1.6,0-3.1-0.3-4.5-0.9
	c-1.4-0.6-2.5-1.4-3.3-2.3l0.4-0.4c0.7,0.8,1.7,1.6,3.1,2.1c1.3,0.6,2.8,0.8,4.3,0.8c2.3,0,4-0.5,5.2-1.4c1.2-0.9,1.8-2.1,1.8-3.6
	c0-1.1-0.3-2.1-0.9-2.7c-0.6-0.7-1.4-1.2-2.3-1.5c-0.9-0.3-2.1-0.7-3.6-1c-1.6-0.4-2.9-0.8-3.9-1.1c-1-0.4-1.8-1-2.4-1.7
	c-0.7-0.8-1-1.8-1-3.1c0-1,0.3-2,0.8-2.8c0.5-0.8,1.4-1.5,2.5-2s2.5-0.8,4.2-0.8c1.2,0,2.4,0.2,3.5,0.6c1.1,0.4,2.1,0.8,3,1.5
	l-0.3,0.5c-0.9-0.6-1.8-1.1-2.9-1.4c-1.1-0.3-2.1-0.5-3.1-0.5c-2.2,0-3.9,0.5-5.1,1.4c-1.2,0.9-1.7,2.1-1.7,3.6
	c0,1.1,0.3,2.1,0.9,2.8c0.6,0.7,1.4,1.2,2.3,1.5s2.1,0.7,3.7,1.1c1.6,0.4,2.9,0.8,3.8,1.2c1,0.4,1.8,0.9,2.4,1.7c0.7,0.7,1,1.7,1,3
	c0,1-0.3,2-0.8,2.8c-0.6,0.8-1.4,1.5-2.5,2C501.7,221.8,500.3,222.1,498.6,222.1z M525,213.7h-14.6c0,1.5,0.3,2.8,1,4
	c0.7,1.2,1.6,2.1,2.7,2.7c1.2,0.7,2.5,1,3.9,1c1.1,0,2.2-0.2,3.1-0.6c1-0.4,1.8-1.1,2.4-1.9l0.4,0.4c-0.7,0.9-1.6,1.5-2.7,2
	c-1.1,0.5-2.2,0.7-3.4,0.7c-1.6,0-3-0.3-4.2-1c-1.2-0.7-2.2-1.7-2.9-3c-0.7-1.3-1-2.7-1-4.3c0-1.6,0.3-3,1-4.3
	c0.7-1.3,1.6-2.3,2.7-3c1.2-0.7,2.5-1.1,3.9-1.1c1.4,0,2.7,0.3,3.9,1c1.2,0.7,2.1,1.7,2.7,2.9c0.7,1.2,1,2.6,1,4.2V213.7z
	 M517.4,206c-1.3,0-2.4,0.3-3.5,0.9c-1,0.6-1.9,1.5-2.5,2.5c-0.6,1.1-1,2.3-1,3.6h14c-0.1-1.3-0.4-2.5-1-3.6
	c-0.6-1.1-1.5-1.9-2.5-2.5C519.8,206.4,518.6,206,517.4,206z M530.4,198.4h0.6V222h-0.6V198.4z M551.6,213.7H537c0,1.5,0.3,2.8,1,4
	c0.7,1.2,1.6,2.1,2.7,2.7c1.2,0.7,2.5,1,3.9,1c1.1,0,2.2-0.2,3.1-0.6c1-0.4,1.8-1.1,2.4-1.9l0.4,0.4c-0.7,0.9-1.6,1.5-2.7,2
	c-1.1,0.5-2.2,0.7-3.4,0.7c-1.6,0-3-0.3-4.2-1c-1.2-0.7-2.2-1.7-2.9-3c-0.7-1.3-1-2.7-1-4.3c0-1.6,0.3-3,1-4.3
	c0.7-1.3,1.6-2.3,2.7-3c1.2-0.7,2.5-1.1,3.9-1.1c1.4,0,2.7,0.3,3.9,1s2.1,1.7,2.7,2.9c0.7,1.2,1,2.6,1,4.2V213.7z M544,206
	c-1.3,0-2.4,0.3-3.5,0.9c-1,0.6-1.9,1.5-2.5,2.5c-0.6,1.1-1,2.3-1,3.6h14c-0.1-1.3-0.4-2.5-1-3.6c-0.6-1.1-1.5-1.9-2.5-2.5
	S545.2,206,544,206z M563.1,222.1c-1.5,0-2.9-0.3-4.2-1c-1.2-0.7-2.2-1.7-2.9-3c-0.7-1.3-1-2.7-1-4.3c0-1.6,0.3-3,1-4.3
	c0.7-1.3,1.7-2.3,2.9-3c1.2-0.7,2.6-1,4.2-1c1.2,0,2.3,0.2,3.3,0.7c1,0.4,1.9,1.1,2.6,2l-0.4,0.5c-0.6-0.8-1.4-1.5-2.4-1.9
	c-1-0.4-2-0.6-3.1-0.6c-1.4,0-2.7,0.3-3.8,1c-1.1,0.6-2,1.5-2.6,2.7c-0.6,1.2-1,2.5-1,4c0,1.5,0.3,2.8,1,4s1.5,2.1,2.6,2.7
	c1.1,0.7,2.4,1,3.8,1c1.1,0,2.2-0.2,3.1-0.6c1-0.4,1.7-1.1,2.4-1.9l0.4,0.5c-0.7,0.9-1.5,1.5-2.6,2
	C565.4,221.8,564.3,222.1,563.1,222.1z M581.9,220.9c-0.4,0.4-0.8,0.7-1.4,0.9c-0.6,0.2-1.2,0.3-1.8,0.3c-1.3,0-2.3-0.4-3-1.1
	c-0.7-0.7-1-1.7-1-3v-11.9h-3.2v-0.6h3.2v-3.6h0.6v3.6h5.6v0.6h-5.6v11.7c0,1.2,0.3,2.1,0.9,2.7s1.4,0.9,2.5,0.9s2-0.3,2.7-1
	L581.9,220.9z M218.4,260.8l-5.7-7.9c-0.7,0.1-1.6,0.2-2.6,0.2h-6.9v7.6h-0.6v-22.3h7.5c2.7,0,4.9,0.6,6.4,1.9
	c1.5,1.3,2.3,3.1,2.3,5.4c0,1.8-0.5,3.3-1.4,4.5c-1,1.2-2.3,2-4,2.4l5.8,8H218.4z M210.2,252.6c2.6,0,4.6-0.6,5.9-1.7
	c1.4-1.2,2.1-2.8,2.1-5c0-2.1-0.7-3.8-2.1-5c-1.4-1.2-3.4-1.7-5.9-1.7h-7v13.4H210.2z M229.9,244.3c1.9,0,3.4,0.5,4.4,1.5
	c1,1,1.5,2.4,1.5,4.3v10.8h-0.6v-3.5c-0.5,1.1-1.3,2-2.4,2.6c-1.1,0.6-2.3,1-3.8,1c-1.8,0-3.3-0.4-4.3-1.2c-1-0.8-1.5-2-1.5-3.4
	c0-1.3,0.5-2.4,1.4-3.2c0.9-0.8,2.4-1.2,4.5-1.2h6.2v-1.8c0-1.7-0.4-3-1.3-3.9c-0.9-0.9-2.2-1.3-3.9-1.3c-1.2,0-2.3,0.2-3.3,0.6
	c-1,0.4-1.9,1-2.6,1.7l-0.4-0.4c0.8-0.8,1.7-1.4,2.9-1.8C227.5,244.5,228.7,244.3,229.9,244.3z M228.9,260.3c3.1,0,5.1-1.4,6.3-4.2
	v-3.6h-6.3c-1.8,0-3.1,0.3-3.9,1c-0.8,0.7-1.2,1.6-1.2,2.8c0,1.3,0.5,2.2,1.4,3C226,260,227.2,260.3,228.9,260.3z M246.7,260.9
	c-1.3,0-2.6-0.2-3.7-0.6c-1.2-0.4-2.1-1-2.7-1.6l0.4-0.5c0.6,0.6,1.5,1.1,2.5,1.6c1.1,0.4,2.2,0.6,3.5,0.6c1.9,0,3.2-0.3,4.1-1
	c0.9-0.7,1.3-1.6,1.3-2.7c0-0.8-0.2-1.5-0.7-1.9c-0.5-0.5-1-0.8-1.7-1c-0.7-0.2-1.6-0.5-2.8-0.7c-1.3-0.2-2.3-0.5-3.1-0.7
	c-0.8-0.3-1.5-0.7-2-1.3c-0.5-0.6-0.8-1.4-0.8-2.4c0-1.2,0.5-2.2,1.5-3c1-0.8,2.4-1.2,4.4-1.2c1,0,2,0.2,3,0.5
	c1,0.3,1.8,0.7,2.4,1.2l-0.4,0.5c-0.6-0.5-1.4-0.9-2.3-1.2c-0.9-0.3-1.8-0.4-2.8-0.4c-1.7,0-3,0.3-3.9,1c-0.8,0.7-1.3,1.5-1.3,2.6
	c0,0.9,0.2,1.6,0.7,2.1c0.5,0.5,1.1,0.8,1.8,1.1c0.7,0.2,1.7,0.5,2.9,0.7c1.3,0.3,2.3,0.5,3.1,0.8c0.8,0.3,1.4,0.7,1.9,1.2
	c0.5,0.6,0.8,1.3,0.8,2.3c0,1.3-0.5,2.3-1.6,3.1C250.2,260.5,248.7,260.9,246.7,260.9z M265.6,244.3c1.5,0,2.8,0.4,4,1.1
	c1.2,0.7,2.2,1.7,2.9,3c0.7,1.3,1,2.7,1,4.3c0,1.6-0.3,3-1,4.3c-0.7,1.3-1.7,2.2-2.9,3c-1.2,0.7-2.6,1-4,1c-1.7,0-3.2-0.5-4.5-1.4
	c-1.3-0.9-2.2-2.2-2.8-3.7V267h-0.6v-22.6h0.6v5c0.6-1.6,1.5-2.8,2.8-3.7C262.4,244.8,263.9,244.3,265.6,244.3z M265.6,260.3
	c1.4,0,2.6-0.3,3.8-1c1.1-0.7,2-1.6,2.6-2.7c0.6-1.2,1-2.5,1-4c0-1.5-0.3-2.8-1-4c-0.6-1.2-1.5-2.1-2.6-2.8c-1.1-0.7-2.4-1-3.8-1
	s-2.6,0.3-3.8,1c-1.1,0.7-2,1.6-2.6,2.8c-0.6,1.2-1,2.5-1,4c0,1.5,0.3,2.8,1,4c0.6,1.2,1.5,2.1,2.6,2.7
	C263,260,264.2,260.3,265.6,260.3z M286.9,244.3c1.5,0,2.8,0.4,4,1.1c1.2,0.7,2.2,1.7,2.9,3c0.7,1.3,1,2.7,1,4.3c0,1.6-0.3,3-1,4.3
	c-0.7,1.3-1.7,2.3-2.9,3c-1.2,0.7-2.6,1-4,1c-1.7,0-3.2-0.5-4.5-1.4c-1.3-0.9-2.2-2.2-2.8-3.8v5h-0.6v-23.6h0.6v12.1
	c0.6-1.5,1.5-2.8,2.8-3.7C283.7,244.8,285.2,244.3,286.9,244.3z M286.9,260.3c1.4,0,2.6-0.3,3.8-1c1.1-0.7,2-1.6,2.6-2.7
	c0.6-1.2,1-2.5,1-4c0-1.5-0.3-2.8-1-4c-0.6-1.2-1.5-2.1-2.6-2.7c-1.1-0.7-2.4-1-3.8-1c-1.4,0-2.6,0.3-3.8,1c-1.1,0.6-2,1.5-2.6,2.7
	c-0.6,1.2-1,2.5-1,4c0,1.5,0.3,2.8,1,4c0.6,1.2,1.5,2.1,2.6,2.7C284.3,260,285.5,260.3,286.9,260.3z M300.3,244.4h0.6v16.4h-0.6
	V244.4z M300.6,239.9c-0.2,0-0.4-0.1-0.6-0.3c-0.1-0.2-0.2-0.4-0.2-0.6c0-0.2,0.1-0.4,0.2-0.6c0.2-0.2,0.4-0.3,0.6-0.3
	c0.2,0,0.4,0.1,0.6,0.3c0.2,0.1,0.3,0.3,0.3,0.6c0,0.2-0.1,0.4-0.3,0.6S300.8,239.9,300.6,239.9z M313.5,244.3
	c1.9,0,3.4,0.5,4.4,1.5c1,1,1.5,2.4,1.5,4.3v10.8h-0.6v-3.5c-0.5,1.1-1.3,2-2.4,2.6c-1.1,0.6-2.3,1-3.8,1c-1.8,0-3.3-0.4-4.3-1.2
	c-1-0.8-1.5-2-1.5-3.4c0-1.3,0.5-2.4,1.4-3.2c0.9-0.8,2.4-1.2,4.5-1.2h6.2v-1.8c0-1.7-0.4-3-1.3-3.9c-0.9-0.9-2.2-1.3-3.9-1.3
	c-1.2,0-2.3,0.2-3.3,0.6c-1,0.4-1.9,1-2.6,1.7l-0.4-0.4c0.8-0.8,1.7-1.4,2.9-1.8C311.1,244.5,312.2,244.3,313.5,244.3z M312.5,260.3
	c3.1,0,5.1-1.4,6.3-4.2v-3.6h-6.3c-1.8,0-3.1,0.3-3.9,1c-0.8,0.7-1.2,1.6-1.2,2.8c0,1.3,0.5,2.2,1.4,3S310.8,260.3,312.5,260.3z
	 M334,244.3c2.1,0,3.7,0.6,4.8,1.8c1.2,1.2,1.7,2.9,1.7,5.1v9.7H340v-9.7c0-2-0.5-3.6-1.6-4.6c-1-1.1-2.5-1.6-4.4-1.6
	c-2.1,0-3.8,0.6-5.1,1.9c-1.2,1.3-1.8,3-1.8,5.1v8.9h-0.6v-16.4h0.6v4.4c0.5-1.4,1.4-2.5,2.5-3.3C330.9,244.7,332.3,244.3,334,244.3
	z M359.9,237.8c-1.1,0-1.9,0.3-2.5,0.9c-0.6,0.6-0.9,1.5-0.9,2.7v3.1h5.6v0.6h-5.6v15.8h-0.6V245h-3.2v-0.6h3.2v-3.2
	c0-1.2,0.3-2.2,1-2.9c0.7-0.7,1.7-1.1,2.9-1.1c0.6,0,1.2,0.1,1.8,0.3c0.6,0.2,1.1,0.5,1.4,0.9l-0.4,0.4
	C361.9,238.1,361,237.8,359.9,237.8z M368.7,248.7c0.5-1.4,1.3-2.5,2.4-3.2c1.1-0.8,2.5-1.1,4.1-1.1v0.6H375c-2,0-3.5,0.6-4.6,1.9
	c-1.1,1.3-1.7,3-1.7,5.2v8.8h-0.6v-16.4h0.6V248.7z M385.8,260.9c-1.5,0-2.9-0.3-4.1-1c-1.2-0.7-2.2-1.7-2.9-3c-0.7-1.3-1-2.7-1-4.3
	c0-1.6,0.3-3,1-4.3c0.7-1.3,1.7-2.3,2.9-3c1.2-0.7,2.6-1.1,4.1-1.1c1.5,0,2.9,0.4,4.1,1.1c1.2,0.7,2.2,1.7,2.9,3
	c0.7,1.3,1,2.7,1,4.3c0,1.6-0.3,3-1,4.3c-0.7,1.3-1.6,2.3-2.9,3C388.7,260.6,387.3,260.9,385.8,260.9z M385.8,260.3
	c1.4,0,2.6-0.3,3.8-1c1.1-0.7,2-1.6,2.6-2.7c0.6-1.2,1-2.5,1-4c0-1.5-0.3-2.8-1-4c-0.6-1.2-1.5-2.1-2.6-2.7c-1.1-0.7-2.4-1-3.8-1
	s-2.6,0.3-3.8,1c-1.1,0.6-2,1.5-2.6,2.7c-0.6,1.2-1,2.5-1,4c0,1.5,0.3,2.8,1,4c0.6,1.2,1.5,2.1,2.6,2.7
	C383.2,260,384.5,260.3,385.8,260.3z M419.7,244.3c2,0,3.6,0.6,4.7,1.8c1.1,1.2,1.7,2.9,1.7,5.1v9.7h-0.6v-9.7c0-2-0.5-3.6-1.5-4.6
	c-1-1.1-2.4-1.6-4.2-1.6c-2.1,0-3.7,0.6-4.9,1.9c-1.2,1.3-1.8,3-1.8,5.1v8.9h-0.6v-9.7c0-2-0.5-3.6-1.5-4.6c-1-1.1-2.4-1.6-4.2-1.6
	c-2.1,0-3.7,0.6-4.9,1.9c-1.2,1.3-1.8,3-1.8,5.1v8.9h-0.6v-16.4h0.6v4.4c0.5-1.4,1.3-2.5,2.5-3.3c1.2-0.8,2.6-1.2,4.2-1.2
	c1.7,0,3.1,0.4,4.1,1.3c1.1,0.8,1.8,2,2.1,3.6c0.4-1.5,1.2-2.7,2.4-3.6C416.4,244.7,417.9,244.3,419.7,244.3z M448.6,259.8
	c-0.4,0.4-0.8,0.7-1.4,0.9c-0.6,0.2-1.2,0.3-1.8,0.3c-1.3,0-2.3-0.4-3-1.1c-0.7-0.7-1-1.7-1-3V245h-3.2v-0.6h3.2v-3.6h0.6v3.6h5.6
	v0.6H442v11.7c0,1.2,0.3,2.1,0.9,2.7c0.6,0.6,1.4,0.9,2.5,0.9c1.1,0,2-0.3,2.7-1L448.6,259.8z M461,244.3c2.1,0,3.7,0.6,4.8,1.8
	c1.2,1.2,1.7,2.9,1.7,5.1v9.7h-0.6v-9.7c0-2-0.5-3.6-1.6-4.6c-1-1.1-2.5-1.6-4.4-1.6c-2.1,0-3.8,0.6-5.1,1.9c-1.2,1.3-1.8,3-1.8,5.1
	v8.9h-0.6v-23.6h0.6v11.5c0.5-1.4,1.4-2.5,2.5-3.3C457.8,244.7,459.3,244.3,461,244.3z M488,252.6h-14.6c0,1.5,0.3,2.8,1,4
	c0.7,1.2,1.6,2.1,2.7,2.7c1.2,0.7,2.5,1,3.9,1c1.1,0,2.2-0.2,3.1-0.6c1-0.4,1.8-1.1,2.4-1.9l0.4,0.4c-0.7,0.9-1.6,1.5-2.7,2
	c-1.1,0.5-2.2,0.7-3.4,0.7c-1.6,0-3-0.3-4.2-1c-1.2-0.7-2.2-1.7-2.9-3c-0.7-1.3-1-2.7-1-4.3c0-1.6,0.3-3,1-4.3
	c0.7-1.3,1.6-2.3,2.7-3c1.2-0.7,2.5-1.1,3.9-1.1c1.4,0,2.7,0.3,3.9,1s2.1,1.7,2.7,2.9c0.7,1.2,1,2.6,1,4.2V252.6z M480.4,244.9
	c-1.3,0-2.4,0.3-3.5,0.9c-1,0.6-1.9,1.5-2.5,2.5c-0.6,1.1-1,2.3-1,3.6h14c-0.1-1.3-0.4-2.5-1-3.6c-0.6-1.1-1.5-1.9-2.5-2.5
	S481.6,244.9,480.4,244.9z M505.1,260.9c-1.3,0-2.6-0.2-3.7-0.6c-1.2-0.4-2.1-1-2.7-1.6l0.4-0.5c0.6,0.6,1.5,1.1,2.5,1.6
	c1.1,0.4,2.2,0.6,3.5,0.6c1.9,0,3.2-0.3,4.1-1c0.9-0.7,1.3-1.6,1.3-2.7c0-0.8-0.2-1.5-0.7-1.9c-0.5-0.5-1-0.8-1.7-1
	c-0.7-0.2-1.6-0.5-2.8-0.7c-1.3-0.2-2.3-0.5-3.1-0.7c-0.8-0.3-1.5-0.7-2-1.3c-0.5-0.6-0.8-1.4-0.8-2.4c0-1.2,0.5-2.2,1.5-3
	c1-0.8,2.4-1.2,4.4-1.2c1,0,2,0.2,3,0.5c1,0.3,1.8,0.7,2.4,1.2l-0.4,0.5c-0.6-0.5-1.4-0.9-2.3-1.2s-1.8-0.4-2.8-0.4
	c-1.7,0-3,0.3-3.9,1c-0.8,0.7-1.3,1.5-1.3,2.6c0,0.9,0.2,1.6,0.7,2.1c0.5,0.5,1.1,0.8,1.8,1.1c0.7,0.2,1.7,0.5,2.9,0.7
	c1.3,0.3,2.3,0.5,3.1,0.8c0.8,0.3,1.4,0.7,1.9,1.2c0.5,0.6,0.8,1.3,0.8,2.3c0,1.3-0.5,2.3-1.6,3.1
	C508.6,260.5,507.1,260.9,505.1,260.9z M522.2,260.9c-1.5,0-2.9-0.3-4.2-1c-1.2-0.7-2.2-1.7-2.9-3c-0.7-1.3-1-2.7-1-4.3
	c0-1.6,0.3-3,1-4.3c0.7-1.3,1.7-2.3,2.9-3s2.6-1,4.2-1c1.2,0,2.3,0.2,3.3,0.7c1,0.4,1.9,1.1,2.6,2l-0.4,0.5
	c-0.6-0.8-1.4-1.5-2.4-1.9s-2-0.6-3.1-0.6c-1.4,0-2.7,0.3-3.8,1c-1.1,0.6-2,1.5-2.6,2.7c-0.6,1.2-1,2.5-1,4c0,1.5,0.3,2.8,1,4
	s1.5,2.1,2.6,2.7c1.1,0.7,2.4,1,3.8,1c1.1,0,2.2-0.2,3.1-0.6s1.7-1.1,2.4-1.9l0.4,0.5c-0.7,0.9-1.5,1.5-2.6,2
	C524.5,260.7,523.4,260.9,522.2,260.9z M534,248.7c0.5-1.4,1.3-2.5,2.4-3.2c1.1-0.8,2.5-1.1,4.1-1.1v0.6h-0.2c-2,0-3.5,0.6-4.6,1.9
	c-1.1,1.3-1.7,3-1.7,5.2v8.8h-0.6v-16.4h0.6V248.7z M558.3,252.6h-14.6c0,1.5,0.3,2.8,1,4c0.7,1.2,1.6,2.1,2.7,2.7
	c1.2,0.7,2.5,1,3.9,1c1.1,0,2.2-0.2,3.1-0.6c1-0.4,1.8-1.1,2.4-1.9l0.4,0.4c-0.7,0.9-1.6,1.5-2.7,2s-2.2,0.7-3.4,0.7
	c-1.6,0-3-0.3-4.2-1c-1.2-0.7-2.2-1.7-2.9-3c-0.7-1.3-1-2.7-1-4.3c0-1.6,0.3-3,1-4.3c0.7-1.3,1.6-2.3,2.7-3c1.2-0.7,2.5-1.1,3.9-1.1
	c1.4,0,2.7,0.3,3.9,1c1.2,0.7,2.1,1.7,2.7,2.9c0.7,1.2,1,2.6,1,4.2V252.6z M550.7,244.9c-1.3,0-2.4,0.3-3.5,0.9
	c-1,0.6-1.9,1.5-2.5,2.5c-0.6,1.1-1,2.3-1,3.6h14c-0.1-1.3-0.4-2.5-1-3.6c-0.6-1.1-1.5-1.9-2.5-2.5S552,244.9,550.7,244.9z
	 M577,252.6h-14.6c0,1.5,0.3,2.8,1,4c0.7,1.2,1.6,2.1,2.7,2.7c1.2,0.7,2.5,1,3.9,1c1.1,0,2.2-0.2,3.1-0.6c1-0.4,1.8-1.1,2.4-1.9
	l0.4,0.4c-0.7,0.9-1.6,1.5-2.7,2s-2.2,0.7-3.4,0.7c-1.6,0-3-0.3-4.2-1c-1.2-0.7-2.2-1.7-2.9-3c-0.7-1.3-1-2.7-1-4.3
	c0-1.6,0.3-3,1-4.3c0.7-1.3,1.6-2.3,2.7-3c1.2-0.7,2.5-1.1,3.9-1.1c1.4,0,2.7,0.3,3.9,1c1.2,0.7,2.1,1.7,2.7,2.9
	c0.7,1.2,1,2.6,1,4.2V252.6z M569.4,244.9c-1.3,0-2.4,0.3-3.5,0.9c-1,0.6-1.9,1.5-2.5,2.5c-0.6,1.1-1,2.3-1,3.6h14
	c-0.1-1.3-0.4-2.5-1-3.6c-0.6-1.1-1.5-1.9-2.5-2.5S570.6,244.9,569.4,244.9z M589.9,244.3c2.1,0,3.7,0.6,4.8,1.8
	c1.2,1.2,1.7,2.9,1.7,5.1v9.7h-0.6v-9.7c0-2-0.5-3.6-1.6-4.6c-1-1.1-2.5-1.6-4.4-1.6c-2.1,0-3.8,0.6-5.1,1.9c-1.2,1.3-1.8,3-1.8,5.1
	v8.9h-0.6v-16.4h0.6v4.4c0.5-1.4,1.4-2.5,2.5-3.3C586.7,244.7,588.2,244.3,589.9,244.3z M210.1,277.4c2.7,0,4.9,0.6,6.4,1.9
	c1.5,1.3,2.3,3.1,2.3,5.4c0,2.3-0.8,4.1-2.3,5.4c-1.5,1.3-3.7,1.9-6.4,1.9h-6.9v7.6h-0.6v-22.3H210.1z M210.2,291.5
	c2.6,0,4.6-0.6,5.9-1.7c1.4-1.2,2.1-2.8,2.1-5c0-2.1-0.7-3.8-2.1-5c-1.4-1.2-3.4-1.7-5.9-1.7h-7v13.4H210.2z M230.2,299.8
	c-1.5,0-2.9-0.3-4.1-1c-1.2-0.7-2.2-1.7-2.9-3c-0.7-1.3-1-2.7-1-4.3s0.3-3,1-4.3c0.7-1.3,1.7-2.3,2.9-3c1.2-0.7,2.6-1.1,4.1-1.1
	c1.5,0,2.9,0.4,4.1,1.1c1.2,0.7,2.2,1.7,2.9,3c0.7,1.3,1,2.7,1,4.3s-0.3,3-1,4.3c-0.7,1.3-1.6,2.3-2.9,3
	C233.1,299.4,231.7,299.8,230.2,299.8z M230.2,299.2c1.4,0,2.6-0.3,3.8-1c1.1-0.7,2-1.6,2.6-2.7c0.6-1.2,1-2.5,1-4s-0.3-2.8-1-4
	c-0.6-1.2-1.5-2.1-2.6-2.7c-1.1-0.7-2.4-1-3.8-1c-1.4,0-2.6,0.3-3.8,1c-1.1,0.6-2,1.5-2.6,2.7c-0.6,1.2-1,2.5-1,4s0.3,2.8,1,4
	c0.6,1.2,1.5,2.1,2.6,2.7C227.6,298.9,228.8,299.2,230.2,299.2z M251.6,283.2c1.5,0,2.8,0.4,4,1.1c1.2,0.7,2.2,1.7,2.9,3
	s1,2.7,1,4.3s-0.3,3-1,4.3c-0.7,1.3-1.7,2.2-2.9,3c-1.2,0.7-2.6,1-4,1c-1.7,0-3.2-0.5-4.5-1.4c-1.3-0.9-2.2-2.2-2.8-3.7v11.2h-0.6
	v-22.6h0.6v5c0.6-1.6,1.5-2.8,2.8-3.7C248.3,283.6,249.8,283.2,251.6,283.2z M251.6,299.2c1.4,0,2.6-0.3,3.8-1
	c1.1-0.7,2-1.6,2.6-2.7c0.6-1.2,1-2.5,1-4s-0.3-2.8-1-4c-0.6-1.2-1.5-2.1-2.6-2.8c-1.1-0.7-2.4-1-3.8-1s-2.6,0.3-3.8,1
	c-1.1,0.7-2,1.6-2.6,2.8c-0.6,1.2-1,2.5-1,4s0.3,2.8,1,4c0.6,1.2,1.5,2.1,2.6,2.7C248.9,298.9,250.2,299.2,251.6,299.2z
	 M278.7,283.3v16.4h-0.6v-4.4c-0.5,1.4-1.3,2.5-2.4,3.3c-1.1,0.8-2.5,1.2-4.2,1.2c-2.1,0-3.8-0.6-5-1.7c-1.2-1.2-1.8-2.9-1.8-5.1
	v-9.7h0.6v9.7c0,2,0.5,3.6,1.6,4.6c1.1,1.1,2.6,1.6,4.5,1.6c2.1,0,3.7-0.6,4.9-1.9c1.2-1.3,1.8-3,1.8-5.1v-8.9H278.7z M294,283.2
	c1.5,0,2.8,0.4,4,1.1c1.2,0.7,2.2,1.7,2.9,3c0.7,1.3,1,2.7,1,4.3s-0.3,3-1,4.3c-0.7,1.3-1.7,2.2-2.9,3c-1.2,0.7-2.6,1-4,1
	c-1.7,0-3.2-0.5-4.5-1.4c-1.3-0.9-2.2-2.2-2.8-3.7v11.2H286v-22.6h0.6v5c0.6-1.6,1.5-2.8,2.8-3.7C290.8,283.6,292.3,283.2,294,283.2
	z M294,299.2c1.4,0,2.6-0.3,3.8-1c1.1-0.7,2-1.6,2.6-2.7c0.6-1.2,1-2.5,1-4s-0.3-2.8-1-4c-0.6-1.2-1.5-2.1-2.6-2.8
	c-1.1-0.7-2.4-1-3.8-1c-1.4,0-2.6,0.3-3.8,1c-1.1,0.7-2,1.6-2.6,2.8c-0.6,1.2-1,2.5-1,4s0.3,2.8,1,4c0.6,1.2,1.5,2.1,2.6,2.7
	C291.4,298.9,292.6,299.2,294,299.2z M319.1,305.9c-1.1-2-2-4.2-2.6-6.7c-0.6-2.5-0.9-5.2-0.9-8.2s0.3-5.7,0.9-8.2
	c0.6-2.6,1.5-4.8,2.6-6.7h0.6c-2.3,3.9-3.5,8.9-3.5,14.9c0,6,1.2,11,3.5,14.9H319.1z M343.2,277.4v22.3h-0.5l-16.3-21.1v21.1h-0.6
	v-22.3h0.5l16.3,21.1v-21.1H343.2z M357.2,299.8c-1.5,0-2.9-0.3-4.1-1c-1.2-0.7-2.2-1.7-2.9-3c-0.7-1.3-1-2.7-1-4.3s0.3-3,1-4.3
	c0.7-1.3,1.7-2.3,2.9-3c1.2-0.7,2.6-1.1,4.1-1.1c1.5,0,2.9,0.4,4.1,1.1c1.2,0.7,2.2,1.7,2.9,3c0.7,1.3,1,2.7,1,4.3s-0.3,3-1,4.3
	c-0.7,1.3-1.6,2.3-2.9,3C360,299.4,358.7,299.8,357.2,299.8z M357.2,299.2c1.4,0,2.6-0.3,3.8-1c1.1-0.7,2-1.6,2.6-2.7
	c0.6-1.2,1-2.5,1-4s-0.3-2.8-1-4c-0.6-1.2-1.5-2.1-2.6-2.7c-1.1-0.7-2.4-1-3.8-1c-1.4,0-2.6,0.3-3.8,1c-1.1,0.6-2,1.5-2.6,2.7
	c-0.6,1.2-1,2.5-1,4s0.3,2.8,1,4c0.6,1.2,1.5,2.1,2.6,2.7C354.6,298.9,355.8,299.2,357.2,299.2z M376.6,299.8c-1.5,0-2.9-0.3-4.1-1
	c-1.2-0.7-2.2-1.7-2.9-3c-0.7-1.3-1-2.7-1-4.3s0.3-3,1-4.3c0.7-1.3,1.7-2.3,2.9-3c1.2-0.7,2.6-1.1,4.1-1.1c1.5,0,2.9,0.4,4.1,1.1
	c1.2,0.7,2.2,1.7,2.9,3c0.7,1.3,1,2.7,1,4.3s-0.3,3-1,4.3c-0.7,1.3-1.6,2.3-2.9,3C379.5,299.4,378.1,299.8,376.6,299.8z
	 M376.6,299.2c1.4,0,2.6-0.3,3.8-1c1.1-0.7,2-1.6,2.6-2.7c0.6-1.2,1-2.5,1-4s-0.3-2.8-1-4c-0.6-1.2-1.5-2.1-2.6-2.7
	c-1.1-0.7-2.4-1-3.8-1s-2.6,0.3-3.8,1c-1.1,0.6-2,1.5-2.6,2.7c-0.6,1.2-1,2.5-1,4s0.3,2.8,1,4c0.6,1.2,1.5,2.1,2.6,2.7
	C374,298.9,375.2,299.2,376.6,299.2z M397.9,283.2c1.5,0,2.8,0.4,4,1.1c1.2,0.7,2.2,1.7,2.9,3c0.7,1.3,1,2.7,1,4.3s-0.3,3-1,4.3
	s-1.7,2.3-2.9,3c-1.2,0.7-2.6,1-4,1c-1.7,0-3.2-0.5-4.5-1.4c-1.3-0.9-2.2-2.2-2.8-3.8v5H390v-23.6h0.6v12.1c0.6-1.5,1.5-2.8,2.8-3.7
	C394.7,283.6,396.2,283.2,397.9,283.2z M397.9,299.2c1.4,0,2.6-0.3,3.8-1c1.1-0.7,2-1.6,2.6-2.7c0.6-1.2,1-2.5,1-4s-0.3-2.8-1-4
	c-0.6-1.2-1.5-2.1-2.6-2.7c-1.1-0.7-2.4-1-3.8-1s-2.6,0.3-3.8,1c-1.1,0.6-2,1.5-2.6,2.7c-0.6,1.2-1,2.5-1,4s0.3,2.8,1,4
	c0.6,1.2,1.5,2.1,2.6,2.7C395.3,298.9,396.6,299.2,397.9,299.2z M415.1,299.8c-1.3,0-2.6-0.2-3.7-0.6s-2.1-1-2.7-1.6l0.4-0.5
	c0.6,0.6,1.5,1.1,2.5,1.6c1.1,0.4,2.2,0.6,3.5,0.6c1.9,0,3.2-0.3,4.1-1c0.9-0.7,1.3-1.6,1.3-2.7c0-0.8-0.2-1.5-0.7-1.9
	c-0.5-0.5-1-0.8-1.7-1c-0.7-0.2-1.6-0.5-2.8-0.7c-1.3-0.2-2.3-0.5-3.1-0.7c-0.8-0.3-1.5-0.7-2-1.3c-0.5-0.6-0.8-1.4-0.8-2.4
	c0-1.2,0.5-2.2,1.5-3c1-0.8,2.4-1.2,4.4-1.2c1,0,2,0.2,3,0.5c1,0.3,1.8,0.7,2.4,1.2l-0.4,0.5c-0.6-0.5-1.4-0.9-2.3-1.2
	c-0.9-0.3-1.8-0.4-2.8-0.4c-1.7,0-3,0.3-3.9,1c-0.8,0.7-1.3,1.5-1.3,2.6c0,0.9,0.2,1.6,0.7,2.1c0.5,0.5,1.1,0.8,1.8,1.1
	c0.7,0.2,1.7,0.5,2.9,0.7c1.3,0.3,2.3,0.5,3.1,0.8c0.8,0.3,1.4,0.7,1.9,1.2c0.5,0.6,0.8,1.3,0.8,2.3c0,1.3-0.5,2.3-1.6,3.1
	C418.6,299.4,417.1,299.8,415.1,299.8z M424.2,305.9c2.3-3.9,3.5-8.9,3.5-14.9c0-6-1.2-11-3.5-14.9h0.6c1.1,1.9,2,4.1,2.6,6.7
	c0.6,2.5,0.9,5.3,0.9,8.2s-0.3,5.6-0.9,8.2c-0.6,2.5-1.5,4.8-2.6,6.7H424.2z M449.1,283.2c1.9,0,3.4,0.5,4.4,1.5
	c1,1,1.5,2.4,1.5,4.3v10.8h-0.6v-3.5c-0.5,1.1-1.3,2-2.4,2.6c-1.1,0.6-2.3,1-3.8,1c-1.8,0-3.3-0.4-4.3-1.2c-1-0.8-1.5-2-1.5-3.4
	c0-1.3,0.5-2.4,1.4-3.2c0.9-0.8,2.4-1.2,4.5-1.2h6.2V289c0-1.7-0.4-3-1.3-3.9c-0.9-0.9-2.2-1.3-3.9-1.3c-1.2,0-2.3,0.2-3.3,0.6
	c-1,0.4-1.9,1-2.6,1.7l-0.4-0.4c0.8-0.8,1.7-1.4,2.9-1.8C446.7,283.4,447.8,283.2,449.1,283.2z M448.1,299.2c3.1,0,5.1-1.4,6.3-4.2
	v-3.6h-6.3c-1.8,0-3.1,0.3-3.9,1c-0.8,0.7-1.2,1.6-1.2,2.8c0,1.3,0.5,2.2,1.4,3C445.2,298.8,446.4,299.2,448.1,299.2z M469.6,283.2
	c2.1,0,3.7,0.6,4.8,1.8c1.2,1.2,1.7,2.9,1.7,5.1v9.7h-0.6V290c0-2-0.5-3.6-1.6-4.6c-1-1.1-2.5-1.6-4.4-1.6c-2.1,0-3.8,0.6-5.1,1.9
	c-1.2,1.3-1.8,3-1.8,5.1v8.9h-0.6v-16.4h0.6v4.4c0.5-1.4,1.4-2.5,2.5-3.3C466.5,283.6,467.9,283.2,469.6,283.2z M497.3,276.1v23.6
	h-0.6v-5c-0.6,1.6-1.5,2.8-2.8,3.8c-1.3,0.9-2.8,1.4-4.5,1.4c-1.5,0-2.8-0.3-4.1-1c-1.2-0.7-2.2-1.7-2.9-3c-0.7-1.3-1-2.7-1-4.3
	s0.3-3,1-4.3c0.7-1.3,1.7-2.3,2.9-3c1.2-0.7,2.6-1.1,4.1-1.1c1.7,0,3.2,0.5,4.5,1.4c1.3,0.9,2.3,2.1,2.8,3.7v-12.1H497.3z
	 M489.4,299.2c1.4,0,2.6-0.3,3.8-1c1.1-0.7,2-1.6,2.6-2.7c0.6-1.2,1-2.5,1-4s-0.3-2.8-1-4c-0.6-1.2-1.5-2.1-2.6-2.7
	c-1.1-0.7-2.4-1-3.8-1s-2.6,0.3-3.8,1c-1.1,0.6-2,1.5-2.6,2.7c-0.6,1.2-1,2.5-1,4s0.3,2.8,1,4c0.6,1.2,1.5,2.1,2.6,2.7
	C486.7,298.9,488,299.2,489.4,299.2z M518.7,299.8c-1.5,0-2.9-0.3-4.2-1c-1.2-0.7-2.2-1.7-2.9-3c-0.7-1.3-1-2.7-1-4.3s0.3-3,1-4.3
	c0.7-1.3,1.7-2.3,2.9-3c1.2-0.7,2.6-1,4.2-1c1.2,0,2.3,0.2,3.3,0.7c1,0.4,1.9,1.1,2.6,2l-0.4,0.5c-0.6-0.8-1.4-1.5-2.4-1.9
	c-1-0.4-2-0.6-3.1-0.6c-1.4,0-2.7,0.3-3.8,1c-1.1,0.6-2,1.5-2.6,2.7c-0.6,1.2-1,2.5-1,4c0,1.5,0.3,2.8,1,4c0.6,1.2,1.5,2.1,2.6,2.7
	c1.1,0.7,2.4,1,3.8,1c1.1,0,2.2-0.2,3.1-0.6s1.7-1.1,2.4-1.9l0.4,0.5c-0.7,0.9-1.5,1.5-2.6,2C521.1,299.6,520,299.8,518.7,299.8z
	 M529.6,276.1h0.6v23.6h-0.6V276.1z M537.6,283.3h0.6v16.4h-0.6V283.3z M537.9,278.7c-0.2,0-0.4-0.1-0.6-0.3
	c-0.1-0.2-0.2-0.4-0.2-0.6c0-0.2,0.1-0.4,0.2-0.6c0.2-0.2,0.4-0.3,0.6-0.3c0.2,0,0.4,0.1,0.6,0.3c0.2,0.1,0.3,0.3,0.3,0.6
	c0,0.2-0.1,0.4-0.3,0.6C538.3,278.6,538.1,278.7,537.9,278.7z M551.7,299.8c-1.5,0-2.9-0.3-4.2-1c-1.2-0.7-2.2-1.7-2.9-3
	c-0.7-1.3-1-2.7-1-4.3s0.3-3,1-4.3c0.7-1.3,1.7-2.3,2.9-3c1.2-0.7,2.6-1,4.2-1c1.2,0,2.3,0.2,3.3,0.7c1,0.4,1.9,1.1,2.6,2l-0.4,0.5
	c-0.6-0.8-1.4-1.5-2.4-1.9c-1-0.4-2-0.6-3.1-0.6c-1.4,0-2.7,0.3-3.8,1c-1.1,0.6-2,1.5-2.6,2.7c-0.6,1.2-1,2.5-1,4c0,1.5,0.3,2.8,1,4
	c0.6,1.2,1.5,2.1,2.6,2.7c1.1,0.7,2.4,1,3.8,1c1.1,0,2.2-0.2,3.1-0.6c1-0.4,1.7-1.1,2.4-1.9l0.4,0.5c-0.7,0.9-1.5,1.5-2.6,2
	C554,299.6,552.9,299.8,551.7,299.8z M568,290.2l-4.9,4.4v5.1h-0.6v-23.6h0.6v17.7l11.6-10.6h0.9l-7.2,6.6l7.9,9.9h-0.8L568,290.2z
	 M202,322.1h0.6v16.4H202V322.1z M202.4,317.6c-0.2,0-0.4-0.1-0.6-0.3c-0.1-0.2-0.2-0.4-0.2-0.6c0-0.2,0.1-0.4,0.2-0.6
	c0.2-0.2,0.4-0.3,0.6-0.3c0.2,0,0.4,0.1,0.6,0.3c0.2,0.1,0.3,0.3,0.3,0.6c0,0.2-0.1,0.4-0.3,0.6
	C202.8,317.5,202.6,317.6,202.4,317.6z M217.5,322c2.1,0,3.7,0.6,4.8,1.8c1.2,1.2,1.7,2.9,1.7,5.1v9.7h-0.6v-9.7
	c0-2-0.5-3.6-1.6-4.6c-1-1.1-2.5-1.6-4.4-1.6c-2.1,0-3.8,0.6-5.1,1.9c-1.2,1.3-1.8,3-1.8,5.1v8.9H210v-16.4h0.6v4.4
	c0.5-1.4,1.4-2.5,2.5-3.3C214.3,322.4,215.8,322,217.5,322z M235,338.7c-1.3,0-2.6-0.2-3.7-0.6s-2.1-1-2.7-1.6l0.4-0.5
	c0.6,0.6,1.5,1.1,2.5,1.6c1.1,0.4,2.2,0.6,3.5,0.6c1.9,0,3.2-0.3,4.1-1c0.9-0.7,1.3-1.6,1.3-2.7c0-0.8-0.2-1.5-0.7-1.9
	c-0.5-0.5-1-0.8-1.7-1c-0.7-0.2-1.6-0.5-2.8-0.7c-1.3-0.2-2.3-0.5-3.1-0.7c-0.8-0.3-1.5-0.7-2-1.3c-0.5-0.6-0.8-1.4-0.8-2.4
	c0-1.2,0.5-2.2,1.5-3c1-0.8,2.4-1.2,4.4-1.2c1,0,2,0.2,3,0.5c1,0.3,1.8,0.7,2.4,1.2l-0.4,0.5c-0.6-0.5-1.4-0.9-2.3-1.2
	c-0.9-0.3-1.8-0.4-2.8-0.4c-1.7,0-3,0.3-3.9,1c-0.8,0.7-1.3,1.5-1.3,2.6c0,0.9,0.2,1.6,0.7,2.1c0.5,0.5,1.1,0.8,1.8,1.1
	s1.7,0.5,2.9,0.7c1.3,0.3,2.3,0.5,3.1,0.8c0.8,0.3,1.4,0.7,1.9,1.2c0.5,0.6,0.8,1.3,0.8,2.3c0,1.3-0.5,2.3-1.6,3.1
	C238.5,338.3,237,338.7,235,338.7z M253.4,337.5c-0.4,0.4-0.8,0.7-1.4,0.9c-0.6,0.2-1.2,0.3-1.8,0.3c-1.3,0-2.3-0.4-3-1.1
	c-0.7-0.7-1-1.7-1-3v-11.9H243v-0.6h3.2v-3.6h0.6v3.6h5.6v0.6h-5.6v11.7c0,1.2,0.3,2.1,0.9,2.7c0.6,0.6,1.4,0.9,2.5,0.9
	c1.1,0,2-0.3,2.7-1L253.4,337.5z M263.5,322c1.9,0,3.4,0.5,4.4,1.5c1,1,1.5,2.4,1.5,4.3v10.8h-0.6v-3.5c-0.5,1.1-1.3,2-2.4,2.6
	c-1.1,0.6-2.3,1-3.8,1c-1.8,0-3.3-0.4-4.3-1.2c-1-0.8-1.5-2-1.5-3.4c0-1.3,0.5-2.4,1.4-3.2c0.9-0.8,2.4-1.2,4.5-1.2h6.2v-1.8
	c0-1.7-0.4-3-1.3-3.9c-0.9-0.9-2.2-1.3-3.9-1.3c-1.2,0-2.3,0.2-3.3,0.6c-1,0.4-1.9,1-2.6,1.7l-0.4-0.4c0.8-0.8,1.7-1.4,2.9-1.8
	C261.1,322.2,262.3,322,263.5,322z M262.5,338.1c3.1,0,5.1-1.4,6.3-4.2v-3.6h-6.3c-1.8,0-3.1,0.3-3.9,1c-0.8,0.7-1.2,1.6-1.2,2.8
	c0,1.3,0.5,2.2,1.4,3C259.6,337.7,260.9,338.1,262.5,338.1z M276.5,315h0.6v23.6h-0.6V315z M284.5,315h0.6v23.6h-0.6V315z"/>
</svg>
