<?xml version="1.0" encoding="utf-8"?>
<!-- Generator: Adobe Illustrator 25.2.1, SVG Export Plug-In . SVG Version: 6.00 Build 0)  -->
<svg version="1.1" id="Layer_1" xmlns="http://www.w3.org/2000/svg" xmlns:xlink="http://www.w3.org/1999/xlink" x="0px" y="0px"
	 viewBox="0 0 1436.1 683.1" style="enable-background:new 0 0 1436.1 683.1;" xml:space="preserve">
<style type="text/css">
	.st0{fill:#FFFFFF;}
</style>
<g>
	<path class="st0" d="M1111.2,360.8c-3.5,0-6.9-0.6-10-1.9c-3.1-1.3-5.5-3-7.2-5l1-0.9c1.6,1.9,3.8,3.4,6.8,4.7
		c2.9,1.2,6.1,1.8,9.4,1.8c5.1,0,8.9-1,11.5-3c2.6-2.1,3.9-4.7,3.9-7.9c0-2.5-0.7-4.5-2-6c-1.4-1.5-3-2.6-5-3.4
		c-2-0.7-4.6-1.5-8-2.3c-3.6-0.9-6.4-1.7-8.5-2.5c-2.1-0.8-3.9-2.1-5.4-3.8c-1.4-1.7-2.2-4-2.2-6.9c0-2.2,0.6-4.3,1.8-6.2
		s3-3.4,5.5-4.5s5.5-1.7,9.2-1.7c2.6,0,5.2,0.4,7.7,1.3c2.5,0.8,4.7,1.9,6.5,3.2l-0.8,1.1c-1.9-1.4-4.1-2.4-6.4-3.1
		c-2.3-0.7-4.6-1.1-6.9-1.1c-4.9,0-8.6,1-11.2,3.1c-2.6,2.1-3.9,4.7-3.9,7.9c0,2.5,0.7,4.5,2,6.1c1.4,1.5,3,2.6,5,3.4
		c2,0.7,4.7,1.5,8.1,2.4c3.5,0.9,6.4,1.8,8.5,2.6c2.1,0.8,3.9,2,5.3,3.7c1.4,1.6,2.2,3.9,2.2,6.6c0,2.2-0.6,4.3-1.8,6.2
		s-3.1,3.4-5.6,4.5C1118,360.2,1114.9,360.8,1111.2,360.8z M1169.2,342.4H1137c0,3.3,0.7,6.2,2.2,8.8c1.4,2.6,3.4,4.6,5.9,6
		c2.6,1.4,5.4,2.2,8.6,2.2c2.5,0,4.8-0.5,6.9-1.4c2.2-1,4-2.4,5.4-4.2l1,1c-1.6,1.9-3.6,3.4-5.9,4.4c-2.3,1-4.8,1.5-7.4,1.5
		c-3.4,0-6.6-0.8-9.3-2.3c-2.7-1.6-4.9-3.8-6.4-6.6c-1.5-2.8-2.3-6-2.3-9.5s0.7-6.6,2.2-9.4c1.4-2.8,3.4-5,5.9-6.5
		c2.6-1.6,5.4-2.4,8.6-2.4c3.1,0,6,0.8,8.5,2.3c2.6,1.5,4.6,3.7,6,6.4c1.5,2.7,2.2,5.8,2.2,9.2V342.4z M1152.4,325.5
		c-2.8,0-5.3,0.7-7.6,2c-2.3,1.4-4.1,3.2-5.5,5.6c-1.4,2.4-2.1,5-2.2,8h30.9c-0.1-2.9-0.9-5.6-2.3-8c-1.4-2.4-3.2-4.2-5.5-5.6
		C1157.8,326.2,1155.2,325.5,1152.4,325.5z M1197.4,358.2c-0.8,0.8-1.9,1.5-3.2,2c-1.3,0.4-2.6,0.6-3.9,0.6c-2.8,0-5-0.8-6.5-2.4
		c-1.5-1.6-2.2-3.8-2.2-6.5v-26.2h-7v-1.3h7v-7.9h1.4v7.9h12.3v1.3H1183v25.8c0,2.6,0.6,4.5,1.9,5.9c1.3,1.4,3.1,2,5.5,2
		c2.4,0,4.4-0.7,6-2.2L1197.4,358.2z M1238.6,324.4v36.2h-1.4V351c-1.1,3.1-2.9,5.5-5.4,7.2s-5.6,2.6-9.2,2.6
		c-4.7,0-8.3-1.3-10.9-3.9c-2.6-2.6-3.9-6.3-3.9-11.2v-21.4h1.4v21.4c0,4.4,1.2,7.8,3.5,10.2c2.3,2.3,5.6,3.5,9.9,3.5
		c4.5,0,8.1-1.4,10.7-4.2c2.6-2.8,3.9-6.6,3.9-11.2v-19.7H1238.6z M1272.3,324.1c3.3,0,6.2,0.8,8.9,2.4c2.7,1.5,4.8,3.7,6.4,6.5
		s2.3,6,2.3,9.5s-0.8,6.6-2.3,9.4c-1.5,2.8-3.7,4.9-6.4,6.5c-2.7,1.5-5.6,2.3-8.9,2.3c-3.7,0-7.1-1-10-3c-2.9-2.1-4.9-4.8-6.2-8.2
		v24.6h-1.4v-49.8h1.4v11.1c1.2-3.5,3.3-6.2,6.2-8.2C1265.1,325.2,1268.5,324.1,1272.3,324.1z M1272.3,359.4c3,0,5.8-0.7,8.3-2.1
		c2.5-1.4,4.4-3.5,5.8-6c1.4-2.6,2.1-5.6,2.1-8.8s-0.7-6.2-2.1-8.8c-1.4-2.6-3.3-4.6-5.8-6.1c-2.5-1.4-5.2-2.2-8.3-2.2
		c-3,0-5.8,0.7-8.3,2.2c-2.5,1.4-4.4,3.5-5.8,6.1c-1.4,2.6-2.1,5.5-2.1,8.8s0.7,6.2,2.1,8.8c1.4,2.6,3.3,4.6,5.8,6
		C1266.5,358.7,1269.2,359.4,1272.3,359.4z"/>
	<path d="M185.1,187.4c-3.4-1-7.2-1.5-11.8-1.5h-27v4.2c0,1,0.5,1.7,1.5,1.9c0.6,0.2,2.5,0.6,5.7,1.2v57.1l-5.7,1.1
		c-1,0.2-1.5,0.9-1.5,1.9v4.2h24v-4.2c0-1-0.4-1.7-1.4-1.9c-3.2-0.6-5.2-1-5.8-1.2v-19.5h10.2c8.4,0,15-2.2,19.8-6.4
		c4.6-4,6.8-9.4,6.8-16.2C199.9,197.5,195,190.5,185.1,187.4L185.1,187.4z M190.3,208c0,4.6-1.5,8.2-4.5,10.9s-7.1,4-12.5,4h-10.2
		v-29.4h10.2c5.7,0,9.9,1.2,12.7,3.8c2.8,2.6,4.2,6,4.2,10.6L190.3,208z M239.3,207.4c-1.3-0.3-2.6-0.5-4.1-0.5
		c-3.9,0-7.2,1.1-9.9,3.4c-2.7,2.3-4.8,5.5-6.4,9.5l-0.4-10.5c0-0.6-0.2-1-0.4-1.2c-0.2-0.2-0.6-0.3-1.2-0.3h-2.5h-7.2v1.9
		c0,1.3,0.7,1.7,1.9,1.8c0.6,0,1.2,0,5.3,0.2v41.8c-4.1,0.2-4.7,0.2-5.3,0.2c-1.2,0.1-1.9,0.5-1.9,1.8v2h7.2h4.7h7.2v-2
		c0-1.3-0.7-1.7-1.9-1.8c-0.6,0-1.2,0-5.3-0.2v-28.3c1.5-4.4,3.5-7.8,5.9-10.1c2.4-2.3,5.5-3.5,9.3-3.5c1,0,1.9,0.1,2.7,0.2
		c0.8,0.1,1.6,0.2,2.1,0.4c0.6,0.2,0.9,0.4,1.3,0.5c0.4,0.1,0.7,0.2,0.9,0.2c0.6,0,0.9-0.3,1-0.8l0.6-3.3
		C241.8,208.2,240.6,207.7,239.3,207.4z M271,206.9c-3.5,0-6.7,0.7-9.5,1.9c-2.8,1.2-5.1,2.9-7,5.1s-3.4,4.8-4.4,7.8
		s-1.6,6.3-1.6,9.9c0,4.2,0.6,8,1.7,11.3s2.6,6,4.6,8.3s4.4,4,7.2,5.2c2.8,1.2,5.9,1.7,9.3,1.7c1.9,0,3.8-0.1,5.6-0.5
		c1.8-0.4,3.6-0.9,5.2-1.5c1.6-0.6,3.1-1.3,4.4-2.2c1.3-0.9,2.4-1.8,3.2-2.8l-1.3-1.6c-0.2-0.3-0.6-0.5-1-0.5
		c-0.3,0-0.9,0.2-1.6,0.8c-0.7,0.6-1.7,1.2-3,1.9c-1.2,0.7-2.8,1.2-4.6,1.8c-1.8,0.6-4,0.9-6.5,0.9c-2.8,0-5.3-0.5-7.6-1.5
		c-2.3-1-4.2-2.4-5.8-4.3c-1.6-1.9-2.8-4.3-3.7-7.1c-0.9-2.8-1.3-6.2-1.3-9.9v-0.9h35.9c0.5,0,0.8-0.1,1-0.4
		c0.2-0.3,0.4-0.8,0.4-1.5c0-3.5-0.5-6.6-1.5-9.3s-2.3-5.1-4.1-6.9c-1.7-1.8-3.8-3.2-6.2-4.2C276.4,207.4,273.8,206.9,271,206.9z
		 M271.1,210.5c2.3,0,4.3,0.4,6.2,1.2c1.9,0.8,3.5,1.9,4.8,3.4s2.4,3.2,3.1,5.3c0.7,2.1,1.1,4.5,1.1,7.2h-32.8
		c0.3-2.6,0.9-5,1.8-7.1c0.9-2.1,2.1-3.9,3.6-5.4s3.3-2.6,5.3-3.4S268.5,210.5,271.1,210.5z M350.9,253.7h-0.6h-0.7
		c-0.3,0-0.8-0.1-1.5-0.1c-0.7,0-1.6-0.1-2.5-0.1v-27.8c0-2.9-0.3-5.5-1-7.8c-0.7-2.3-1.7-4.3-3.1-5.9c-1.4-1.6-3.1-2.8-5.2-3.7
		c-2.1-0.9-4.5-1.3-7.2-1.3c-3.7,0-7,0.8-10,2.5c-2.9,1.7-5.5,4-7.8,6.8v-31.5h-4.8h-7.2v1.9c0,1.1,0.7,1.7,2,1.8h0.5
		c0.2,0,0.5,0.1,0.8,0.1h1.5c0.7,0,1.5,0.1,2.4,0.1v64.8c-1.1,0-2.1,0.2-2.9,0.2h-1.7h-0.6c-1.3,0.1-2,0.7-2,1.8v2h7.2h4.8h7.2v-2
		c0-1.1-0.7-1.7-2-1.8H316h-0.8c-0.3,0-0.8-0.1-1.5-0.1s-1.5-0.1-2.4-0.1v-33.3c2.2-2.9,4.7-5.2,7.5-6.9c2.8-1.7,5.8-2.5,9.1-2.5
		c4.4,0,7.7,1.3,9.8,3.9c2.1,2.7,3.2,6.3,3.2,11v31.8h4.7h7.2v-2C352.8,254.4,352.2,253.8,350.9,253.7z M383.1,206.9
		c-3.5,0-6.7,0.7-9.5,1.9c-2.8,1.2-5.1,2.9-7,5.1s-3.4,4.8-4.4,7.8s-1.6,6.3-1.6,9.9c0,4.2,0.6,8,1.7,11.3c1.1,3.3,2.6,6,4.6,8.3
		s4.4,4,7.2,5.2c2.8,1.2,5.9,1.7,9.3,1.7c1.9,0,3.8-0.1,5.6-0.5c1.8-0.4,3.6-0.9,5.2-1.5c1.6-0.6,3.1-1.3,4.4-2.2
		c1.3-0.9,2.4-1.8,3.2-2.8l-1.3-1.6c-0.2-0.3-0.6-0.5-1-0.5c-0.3,0-0.9,0.2-1.6,0.8c-0.7,0.6-1.7,1.2-3,1.9
		c-1.2,0.7-2.8,1.2-4.6,1.8c-1.8,0.6-4,0.9-6.5,0.9c-2.8,0-5.3-0.5-7.6-1.5c-2.3-1-4.2-2.4-5.8-4.3c-1.6-1.9-2.8-4.3-3.7-7.1
		c-0.9-2.8-1.3-6.2-1.3-9.9v-0.9h35.9c0.5,0,0.8-0.1,1-0.4c0.2-0.3,0.4-0.8,0.4-1.5c0-3.5-0.5-6.6-1.5-9.3c-1-2.7-2.3-5.1-4.1-6.9
		c-1.7-1.8-3.8-3.2-6.2-4.2S385.9,206.9,383.1,206.9z M383.2,210.5c2.3,0,4.3,0.4,6.2,1.2s3.5,1.9,4.8,3.4c1.3,1.5,2.4,3.2,3.1,5.3
		c0.7,2.1,1.1,4.5,1.1,7.2h-32.8c0.3-2.6,0.9-5,1.8-7.1c0.9-2.1,2.1-3.9,3.6-5.4s3.3-2.6,5.3-3.4S380.6,210.5,383.2,210.5z
		 M451.6,253.7h-0.7h-1.6c-0.7,0-1.5-0.1-2.3-0.1v-28.5c0-2.8-0.3-5.2-1-7.5c-0.7-2.3-1.7-4.2-3-5.8c-1.3-1.6-3-2.8-5-3.6
		c-2-0.9-4.3-1.3-7-1.3c-3.6,0-6.8,0.7-9.7,2c-2.9,1.3-5.6,3.3-8.2,5.9l0.8,1.5c0.3,0.6,0.8,0.9,1.5,0.9c0.5,0,1.2-0.4,1.9-1.1
		c0.7-0.7,1.7-1.3,2.9-2.1c1.2-0.8,2.5-1.5,4.2-2.2c1.7-0.7,3.7-1,6.1-1c3.9,0,6.9,1.2,8.9,3.7s2.9,6,2.9,10.6v5.2
		c-5.6,0.1-10.4,0.6-14.4,1.4s-7.3,1.9-9.9,3.2s-4.4,2.9-5.6,4.7c-1.2,1.8-1.8,3.7-1.8,5.8c0,2.3,0.4,4.3,1.1,5.9
		c0.8,1.6,1.8,2.9,3,3.9c1.2,1,2.7,1.8,4.3,2.3s3.2,0.8,4.9,0.8c2,0,3.9-0.2,5.6-0.6c1.7-0.4,3.2-1,4.7-1.7c1.5-0.7,2.9-1.6,4.3-2.7
		c1.3-1.1,2.6-2.3,4-3.6l0.7,6.4c0.2,0.9,0.9,1.4,1.9,1.4h0.1h1.8h6.6v-2C453.6,254.4,452.9,253.8,451.6,253.7z M442.3,246.4
		c-1.2,1.2-2.3,2.4-3.5,3.4c-1.2,1-2.5,1.9-3.9,2.7c-1.4,0.8-2.9,1.3-4.5,1.7c-1.6,0.4-3.4,0.6-5.3,0.6c-1.3,0-2.6-0.1-3.8-0.5
		c-1.2-0.4-2.2-0.9-3.1-1.7c-0.9-0.8-1.7-1.8-2.2-3c-0.6-1.2-0.8-2.6-0.8-4.3c0-1.8,0.5-3.4,1.6-4.8c1.1-1.4,2.7-2.5,4.9-3.5
		c2.2-1,5-1.8,8.4-2.4c3.4-0.6,7.5-1,12.2-1.1V246.4z M477.5,258.3c2.1,0,4.1-0.5,6.1-1.3c1.9-0.8,3.5-1.9,4.8-3.3l-1.3-2.2
		c-0.3-0.3-0.5-0.4-0.8-0.4c-0.2,0-0.6,0.1-1,0.5c-0.4,0.4-0.9,0.7-1.5,1.1s-1.4,0.8-2.3,1.2c-0.9,0.4-1.8,0.5-3,0.5
		c-1,0-2-0.2-2.8-0.5c-0.8-0.3-1.5-0.8-2.1-1.4c-0.6-0.6-1.1-1.4-1.5-2.4c-0.4-1-0.5-2.1-0.5-3.5v-33.7h15.7v-3.6h-15.7v-19h-2.3
		c-0.4,0-0.6,0.2-0.8,0.4c-0.2,0.2-0.4,0.5-0.4,0.8l-1.2,17.8l-8.5,0.6v1.8c0,0.4,0.1,0.6,0.3,0.8c0.2,0.2,0.6,0.4,1,0.4h7.1v34
		c0,3.9,0.9,6.7,2.8,8.6C471.5,257.4,474.1,258.3,477.5,258.3z M214.1,342.1c0-5.4-0.9-10.4-2.5-14.8s-3.9-8.2-6.9-11.4
		s-6.5-5.7-10.6-7.4c-4.1-1.7-8.8-2.6-13.8-2.6s-9.5,0.9-13.6,2.6c-4.1,1.7-7.7,4.2-10.7,7.4s-5.3,7-6.9,11.4s-2.5,9.4-2.5,14.8
		c0,5.5,0.9,10.5,2.5,14.9s3.9,8.2,6.9,11.4s6.6,5.6,10.7,7.3c4.1,1.7,8.6,2.6,13.6,2.6s9.7-0.9,13.8-2.6c4.1-1.7,7.6-4.1,10.6-7.3
		s5.3-7,6.9-11.4S214.1,347.6,214.1,342.1z M208.7,342.1c0,5-0.6,9.4-2,13.3c-1.4,3.9-3.3,7.3-5.8,10s-5.5,4.9-9,6.3
		c-3.5,1.4-7.3,2.1-11.6,2.1c-4.2,0-8-0.7-11.5-2.1c-3.5-1.4-6.5-3.6-9-6.3s-4.5-6.1-5.9-10c-1.4-3.9-2-8.3-2-13.3
		c0-4.9,0.6-9.4,2-13.3c1.4-3.9,3.4-7.3,5.9-10c2.5-2.7,5.5-4.9,9-6.3s7.3-2.2,11.5-2.2c4.3,0,8.1,0.8,11.6,2.2s6.5,3.6,9,6.3
		c2.5,2.7,4.4,6.1,5.8,10C208.1,332.7,208.7,337.2,208.7,342.1z M269.8,327.8h-3.7h-10v1.9c0,1.1,0.7,1.7,2,1.8h0.6
		c0.2,0,0.4,0.1,0.7,0.1h1.5c0.7,0,1.5,0.1,2.4,0.1L248,368.2c-0.3,0.7-0.6,1.5-0.8,2.2s-0.3,1.4-0.5,2.1c-0.1-0.2-0.1-0.5-0.2-1
		c-0.1-0.5-0.2-0.9-0.3-1.1c-0.2-0.7-0.4-1.4-0.7-2.2l-15.3-36.5c1.1,0,2.2-0.1,3-0.1s1.4-0.1,1.6-0.1h0.6c1.3-0.1,2-0.7,2-1.8v-1.9
		h-10.1h-3.7H220v1.9c0,1.1,0.6,1.7,1.9,1.8c0,0,1.1,0,3.3,0.1l19.4,45.9h4.2l19.3-45.9h1.9c0.6,0,0.9-0.1,1.1-0.1h0.5
		c1.3-0.1,2-0.7,2-1.8v-1.9H269.8z M301.5,326.9c-3.5,0-6.7,0.7-9.5,1.9c-2.8,1.2-5.1,2.9-7,5.1c-1.9,2.2-3.4,4.8-4.4,7.8
		s-1.6,6.3-1.6,9.9c0,4.2,0.6,8,1.7,11.3s2.6,6,4.6,8.3c2,2.3,4.4,4,7.2,5.2c2.8,1.2,5.9,1.7,9.3,1.7c1.9,0,3.8-0.1,5.6-0.5
		c1.8-0.4,3.6-0.9,5.2-1.5c1.6-0.6,3.1-1.3,4.4-2.2c1.3-0.9,2.4-1.8,3.2-2.8l-1.3-1.6c-0.2-0.3-0.6-0.5-1-0.5
		c-0.3,0-0.9,0.2-1.6,0.8c-0.7,0.6-1.7,1.2-3,1.9c-1.2,0.7-2.8,1.2-4.6,1.8s-4,0.9-6.5,0.9c-2.8,0-5.3-0.5-7.6-1.5
		c-2.3-1-4.2-2.4-5.8-4.3c-1.6-1.9-2.8-4.3-3.7-7.1c-0.9-2.8-1.3-6.2-1.3-9.9v-0.9h35.9c0.5,0,0.8-0.1,1-0.4
		c0.2-0.3,0.4-0.8,0.4-1.5c0-3.5-0.5-6.6-1.5-9.3c-1-2.7-2.3-5.1-4.1-6.9c-1.7-1.8-3.8-3.2-6.2-4.2S304.3,326.9,301.5,326.9z
		 M301.6,330.5c2.3,0,4.3,0.4,6.2,1.2c1.9,0.8,3.5,1.9,4.8,3.4c1.3,1.5,2.4,3.2,3.1,5.3s1.1,4.5,1.1,7.2H284c0.3-2.6,0.9-5,1.8-7.1
		s2.1-3.9,3.6-5.4s3.3-2.6,5.3-3.4C296.7,330.9,299,330.5,301.6,330.5z M381.6,373.7h-0.5h-0.8c-0.3,0-0.8-0.1-1.5-0.1
		c-0.7,0-1.5-0.1-2.4-0.1v-27.8c0-2.9-0.4-5.5-1.1-7.8c-0.7-2.3-1.7-4.3-3.1-5.9c-1.4-1.6-3.1-2.8-5.2-3.7s-4.5-1.3-7.2-1.3
		c-3.7,0-7.1,0.9-10.1,2.6c-3,1.8-5.6,4-7.9,6.9l-0.4-7.5c-0.1-0.8-0.6-1.2-1.5-1.2h-2.6h-7.2v1.9c0,1.1,0.6,1.7,1.9,1.8h0.6
		c0.2,0,0.4,0.1,0.7,0.1h1.5c0.7,0,1.6,0.1,2.5,0.1v41.8c-1.2,0-2.2,0.2-3,0.2h-1.6H332c-1.3,0.1-1.9,0.7-1.9,1.8v2h7.2h4.7h7.2v-2
		c0-1.1-0.6-1.7-1.9-1.8h-0.6H346c-0.3,0-0.8-0.1-1.5-0.1c-0.7,0-1.6-0.1-2.5-0.1v-33.3c2.2-2.9,4.7-5.2,7.5-6.9
		c2.8-1.7,5.8-2.5,9.1-2.5c4.4,0,7.7,1.3,9.8,3.9c2.1,2.7,3.2,6.3,3.2,11v31.8h4.8h7.2v-2C383.6,374.4,382.9,373.8,381.6,373.7z
		 M430.3,316.8c0.6-1.7,1.3-3,2.3-4.1c1-1.1,2.2-1.9,3.6-2.4c1.4-0.5,2.9-0.7,4.5-0.7c1,0,1.9,0.1,2.6,0.2c0.7,0.1,1.2,0.1,1.6,0.1
		c0.6,0,1-0.2,1-0.7l0.1-2.3c-0.8-0.3-1.8-0.6-2.8-0.8c-1.1-0.2-2.1-0.2-3.1-0.2c-2.3,0-4.3,0.3-6.2,1s-3.5,1.9-4.8,3.3
		c-1.3,1.4-2.4,3.2-3.1,5.3c-0.7,2.1-1.1,4.7-1.1,7.5v6.3h-8.5v2c0,0.8,0.4,1.1,1.4,1.2l7.1,0.5v40.5c-1.2,0-2.2,0.1-3.2,0.1
		s-1.7,0.1-2.2,0.1h-0.9c-1.3,0.1-2,0.7-2,1.8v2h8.4h4.6h8.4v-2c0-1.1-0.7-1.7-2-1.8h-0.9c-0.5,0-1.2-0.1-2.2-0.1s-2.1-0.1-3.3-0.1
		v-40.6h16v-3.6h-16.1v-6.1C429.5,320.7,429.7,318.5,430.3,316.8z M475.3,326.9c-3.6,0-6.8,0.7-9.6,1.9c-2.8,1.2-5.2,2.9-7.2,5.1
		s-3.4,4.9-4.4,8.1c-1,3.2-1.6,6.7-1.6,10.6c0,3.9,0.6,7.4,1.6,10.5c1,3.1,2.4,5.9,4.4,8.1c2,2.2,4.4,3.9,7.2,5.1
		c2.8,1.2,6,1.8,9.6,1.8c3.6,0,6.7-0.6,9.5-1.8c2.8-1.2,5.2-2.9,7.1-5.1c1.9-2.2,3.5-5,4.5-8.1c1-3.1,1.5-6.6,1.5-10.5
		c0-3.9-0.5-7.4-1.5-10.6c-1-3.2-2.6-5.9-4.5-8.1c-1.9-2.2-4.3-3.9-7.1-5.1C482,327.6,478.9,326.9,475.3,326.9z M475.3,374.4
		c-3,0-5.6-0.5-7.8-1.5c-2.2-1-4.1-2.5-5.6-4.4s-2.5-4.2-3.3-6.9c-0.8-2.7-1.1-5.7-1.1-9c0-3.3,0.3-6.3,1.1-9c0.8-2.7,1.8-5,3.3-6.9
		c1.5-1.9,3.4-3.5,5.6-4.5c2.2-1,4.8-1.5,7.8-1.5s5.5,0.5,7.7,1.5c2.2,1,4.1,2.6,5.6,4.5c1.5,1.9,2.6,4.2,3.3,6.9
		c0.7,2.7,1.1,5.7,1.1,9c0,3.3-0.4,6.3-1.1,9c-0.7,2.7-1.8,5-3.3,6.9s-3.4,3.4-5.6,4.4C480.8,373.9,478.3,374.4,475.3,374.4z
		 M539.1,327.4c-1.3-0.3-2.6-0.5-4.1-0.5c-3.9,0-7.2,1.1-9.9,3.4c-2.7,2.3-4.8,5.5-6.4,9.5l-0.4-10.5c0-0.6-0.2-1-0.4-1.2
		c-0.2-0.2-0.6-0.3-1.2-0.3h-2.5H507v1.9c0,1.3,0.7,1.7,1.9,1.8c0.6,0,1.2,0,5.3,0.2v41.8c-4.1,0.2-4.7,0.2-5.3,0.2
		c-1.2,0.1-1.9,0.5-1.9,1.8v2h7.2h4.7h7.2v-2c0-1.3-0.7-1.7-1.9-1.8c-0.6,0-1.2,0-5.3-0.2v-28.3c1.5-4.4,3.5-7.8,5.9-10.1
		c2.4-2.3,5.5-3.5,9.3-3.5c1,0,1.9,0.1,2.7,0.2s1.6,0.2,2.1,0.4c0.6,0.2,0.9,0.4,1.3,0.5c0.4,0.1,0.7,0.2,0.9,0.2
		c0.6,0,0.9-0.3,1-0.8l0.6-3.3C541.6,328.2,540.4,327.7,539.1,327.4z M205,493.8h-0.7H203c-0.6,0-1.2-0.1-1.8-0.1L180,466.9
		c-0.6-0.8-1.4-1.5-2.2-2c3.1-0.3,5.9-1,8.4-2.1c2.5-1.1,4.5-2.5,6.3-4.2c1.7-1.7,3.1-3.7,4-5.9c0.9-2.2,1.4-4.7,1.4-7.4
		c0-6.1-2-10.6-6-13.8c-4-3.1-10.1-4.7-18.3-4.7h-17.2H148v1.9c0,1.1,0.6,1.7,1.9,1.8h1c0.5,0,1.2,0.1,2.2,0.1s2.1,0.1,3.3,0.1v62.8
		c-1.2,0-2.3,0.1-3.3,0.1s-1.7,0.1-2.2,0.1h-1c-1.3,0.1-2,0.7-2,1.8v2h8.5h5.1h8.4v-2c0-1.1-0.7-1.7-2-1.8h-1
		c-0.5,0-1.2-0.1-2.2-0.1s-2-0.1-3.2-0.1v-28h8.4c1.4,0,2.4,0.1,3,0.4c0.6,0.3,1.2,0.9,1.8,1.6l22.7,28.7c0.4,0.5,0.7,0.8,1.1,1
		c0.4,0.2,0.9,0.3,1.4,0.3h0.5h3.9h2.6v-2C206.9,494.4,206.3,493.8,205,493.8z M172.9,461.8h-11.4v-30.9h12.1
		c6.3,0,11.1,1.3,14.4,3.7c3.3,2.4,4.9,6.2,4.9,11.2c0,2.5-0.4,4.6-1.3,6.6s-2.3,3.6-4,5c-1.7,1.4-3.8,2.6-6.3,3.3
		C178.8,461.3,176,461.8,172.9,461.8z M260,432.2c-4.2-3.6-10.5-5.4-18.8-5.4H224h-8.5v1.9c0,1.1,0.7,1.7,2,1.8h1
		c0.5,0,1.2,0.1,2.2,0.1s2.1,0.1,3.3,0.1v62.8c-1.2,0-2.3,0.1-3.3,0.1s-1.7,0.1-2.2,0.1h-1c-1.3,0.1-2,0.7-2,1.8v2h8.5h5.1h8.4v-2
		c0-1.1-0.7-1.7-2-1.8h-0.9c-0.5,0-1.3-0.1-2.3-0.1s-2-0.1-3.2-0.1V469h12.1c3.9,0,7.4-0.6,10.5-1.6c3.1-1.1,5.7-2.5,7.9-4.4
		s3.9-4.1,5-6.7c1.2-2.6,1.7-5.4,1.7-8.5C266.3,441.1,264.2,435.8,260,432.2z M259.8,454.6c-0.9,2.1-2.2,3.9-3.9,5.4
		s-3.8,2.7-6.3,3.6s-5.3,1.3-8.4,1.3h-12.1v-34.1h12.1c6.6,0,11.6,1.5,15,4.4c3.3,2.9,5,7.1,5,12.5
		C261.2,450.3,260.7,452.5,259.8,454.6z M294.8,430.5c1.3-0.1,1.9-0.7,1.9-1.8v-2h-8.4h-5.1h-8.5v2c0,1.1,0.7,1.7,2,1.8h1
		c0.5,0,1.2,0.1,2.2,0.1s2.1,0.1,3.3,0.1v62.8c-1.2,0-2.3,0.1-3.3,0.1s-1.7,0.1-2.2,0.1h-1c-1.3,0.1-2,0.7-2,1.8v2h8.5h5.1h8.4v-2
		c0-1.1-0.6-1.7-1.9-1.8h-1c-0.5,0-1.2-0.1-2.2-0.1s-2.1-0.1-3.3-0.1v-62.8c1.2,0,2.3-0.1,3.3-0.1s1.7-0.1,2.2-0.1H294.8z
		 M314.4,426.7h-4.6v28.6v4.3c0,1.3,0,2.7,0.1,4.1c0,1.4,0.2,2.9,0.3,4.4c0.1,1.5,0.1,3.1,0.2,5h3.3c0.1-1.9,0.2-3.5,0.3-5
		s0.2-3,0.2-4.4c0-1.4,0.2-2.8,0.2-4.1v-4.3V426.7z M307.3,493.6c0,1.3,0.4,2.4,1.3,3.3s2,1.3,3.3,1.3c0.6,0,1.2-0.1,1.8-0.3
		c0.6-0.2,1.1-0.6,1.5-1c0.4-0.4,0.8-0.8,1-1.4c0.2-0.6,0.4-1.2,0.4-1.9c0-0.6-0.2-1.2-0.4-1.8c-0.2-0.6-0.6-1-1-1.4
		c-0.4-0.4-0.9-0.8-1.5-1c-0.6-0.2-1.2-0.4-1.8-0.4c-0.7,0-1.2,0.2-1.8,0.4c-0.6,0.2-1.1,0.6-1.5,1s-0.8,0.8-1,1.4
		C307.4,492.4,307.3,493,307.3,493.6z"/>
</g>
</svg>
