<?xml version="1.0" encoding="utf-8"?>
<!-- Generator: Adobe Illustrator 25.2.1, SVG Export Plug-In . SVG Version: 6.00 Build 0)  -->
<svg version="1.1" id="Layer_1" xmlns="http://www.w3.org/2000/svg" xmlns:xlink="http://www.w3.org/1999/xlink" x="0px" y="0px"
	 viewBox="0 0 1436.1 683.1" style="enable-background:new 0 0 1436.1 683.1;" xml:space="preserve">
<style type="text/css">
	.st0{fill:#FFFFFF;}
	.st1{fill:none;stroke:#FFFFFF;}
</style>
<g>
	<path class="st0" d="M209.5,89.7l-28.8,84h-2.4l-28.2-80.6l-28.2,80.6h-2.4l-28.8-84h2.6l27.5,80.2l28.1-80.2h2.4l28.2,80.4
		L207,89.7H209.5z M257.1,111.3c7.8,0,13.8,2.2,18.2,6.7c4.4,4.4,6.6,10.8,6.6,19.1v36.6h-2.4v-36.6c0-7.6-2-13.4-5.9-17.4
		c-3.8-4.1-9.3-6.1-16.4-6.1c-8.1,0-14.5,2.4-19.2,7.3c-4.6,4.8-7,11.2-7,19.1v33.7h-2.4v-89h2.4v43.6c1.9-5.3,5.1-9.4,9.6-12.4
		C245.2,112.9,250.7,111.3,257.1,111.3z M328.7,111.3c7.2,0,12.7,1.9,16.4,5.6c3.8,3.7,5.8,9,5.8,16.1v40.7h-2.4v-13.2
		c-2,4.2-5,7.6-9.1,10c-4,2.4-8.8,3.6-14.5,3.6c-6.9,0-12.3-1.6-16.2-4.7c-3.8-3.2-5.8-7.4-5.8-12.7c0-5,1.7-9,5.2-12
		c3.5-3.1,9.2-4.7,16.9-4.7h23.5v-6.8c0-6.5-1.7-11.4-5-14.6c-3.3-3.3-8.2-4.9-14.6-4.9c-4.5,0-8.7,0.8-12.6,2.4
		c-3.8,1.5-7.2,3.6-10,6.2l-1.7-1.7c3-2.9,6.6-5.1,10.8-6.7C319.6,112.2,324,111.3,328.7,111.3z M324.8,171.8
		c11.5,0,19.4-5.3,23.6-15.8v-13.7h-23.6c-6.7,0-11.7,1.3-14.9,3.8c-3.1,2.6-4.7,6-4.7,10.4c0,4.7,1.7,8.4,5.2,11.2
		S318.7,171.8,324.8,171.8z M405.8,169.7c-1.4,1.4-3.2,2.6-5.4,3.4c-2.2,0.7-4.4,1.1-6.7,1.1c-4.8,0-8.5-1.4-11.2-4.1
		c-2.6-2.8-3.8-6.5-3.8-11.2V114h-12v-2.3h12V98.1h2.4v13.6h21v2.3h-21v44.3c0,4.4,1.1,7.8,3.2,10.1c2.2,2.3,5.3,3.5,9.5,3.5
		s7.6-1.3,10.3-3.8L405.8,169.7z M478.3,145.2v28.6h-2.4v-28.6l-34.2-55.4h2.8l32.6,52.9l32.6-52.9h2.8L478.3,145.2z M543.2,174.1
		c-5.7,0-10.8-1.3-15.5-4c-4.6-2.7-8.2-6.5-10.8-11.3c-2.6-4.8-3.8-10.2-3.8-16.2s1.3-11.4,3.8-16.1c2.6-4.8,6.2-8.5,10.8-11.2
		c4.6-2.7,9.8-4.1,15.5-4.1s10.8,1.4,15.4,4.1c4.6,2.6,8.2,6.4,10.8,11.2c2.6,4.7,4,10.1,4,16.1s-1.3,11.4-4,16.2
		c-2.6,4.8-6.2,8.6-10.8,11.3C554,172.8,548.9,174.1,543.2,174.1z M543.2,171.8c5.2,0,9.9-1.2,14.2-3.7s7.6-5.9,10-10.3
		c2.4-4.5,3.6-9.5,3.6-15.1c0-5.6-1.2-10.6-3.6-15c-2.4-4.5-5.7-7.9-10-10.3c-4.2-2.5-9-3.7-14.2-3.7c-5.2,0-9.9,1.2-14.2,3.7
		c-4.2,2.4-7.6,5.8-10,10.3c-2.4,4.4-3.6,9.4-3.6,15c0,5.6,1.2,10.6,3.6,15.1c2.4,4.4,5.7,7.8,10,10.3S538,171.8,543.2,171.8z
		 M645.7,111.7v62h-2.4v-16.4c-1.8,5.3-4.9,9.4-9.2,12.4c-4.3,3-9.6,4.4-15.7,4.4c-8,0-14.2-2.2-18.7-6.6
		c-4.5-4.5-6.7-10.9-6.7-19.2v-36.6h2.4v36.6c0,7.6,2,13.4,6,17.5c4,4,9.6,6,16.9,6c7.8,0,13.9-2.4,18.4-7.2
		c4.5-4.9,6.7-11.3,6.7-19.2v-33.7H645.7z M670.4,84.3c0.9,0,1.6,0.3,2.2,1c0.6,0.6,1,1.4,1,2.2c0,0.6-0.2,1.7-0.5,3.5l-4,16.1h-2.2
		l3.5-16.4c-0.9-0.1-1.6-0.4-2.3-1c-0.6-0.6-0.8-1.4-0.8-2.2c0-0.9,0.3-1.6,0.8-2.2C668.8,84.7,669.5,84.3,670.4,84.3z M695.1,84.7
		h2.4v89h-2.4V84.7z M725.1,84.7h2.4v89h-2.4V84.7z M167.2,235.7v84h-2l-61.6-79.6v79.6h-2.4v-84h2l61.6,79.6v-79.6H167.2z
		 M247.2,288.7H192c0,5.6,1.2,10.6,3.7,15.1c2.5,4.4,5.9,7.8,10.2,10.3c4.4,2.5,9.3,3.7,14.8,3.7c4.2,0,8.2-0.8,11.9-2.4
		c3.8-1.7,6.8-4.1,9.2-7.2l1.7,1.7c-2.7,3.3-6.1,5.8-10.1,7.6c-4,1.8-8.2,2.6-12.7,2.6c-5.9,0-11.2-1.3-16-4
		c-4.6-2.7-8.3-6.5-11-11.3c-2.6-4.8-4-10.2-4-16.2s1.2-11.4,3.7-16.1c2.5-4.8,5.9-8.5,10.2-11.2c4.4-2.7,9.3-4.1,14.8-4.1
		c5.4,0,10.2,1.3,14.6,4c4.4,2.6,7.8,6.3,10.3,10.9c2.6,4.6,3.8,9.9,3.8,15.8V288.7z M218.4,259.6c-4.8,0-9.2,1.2-13.1,3.5
		s-7.1,5.5-9.5,9.6c-2.3,4.1-3.6,8.6-3.8,13.7h52.9c-0.2-5-1.6-9.6-4-13.7c-2.4-4.1-5.6-7.3-9.5-9.6S223.2,259.6,218.4,259.6z
		 M317.6,288.7h-55.2c0,5.6,1.2,10.6,3.7,15.1c2.5,4.4,5.9,7.8,10.2,10.3c4.4,2.5,9.3,3.7,14.8,3.7c4.2,0,8.2-0.8,11.9-2.4
		c3.8-1.7,6.8-4.1,9.2-7.2l1.7,1.7c-2.7,3.3-6.1,5.8-10.1,7.6c-4,1.8-8.2,2.6-12.7,2.6c-5.9,0-11.2-1.3-16-4
		c-4.6-2.7-8.3-6.5-11-11.3c-2.6-4.8-4-10.2-4-16.2s1.2-11.4,3.7-16.1c2.5-4.8,5.9-8.5,10.2-11.2c4.4-2.7,9.3-4.1,14.8-4.1
		c5.4,0,10.2,1.3,14.6,4c4.4,2.6,7.8,6.3,10.3,10.9c2.6,4.6,3.8,9.9,3.8,15.8V288.7z M288.8,259.6c-4.8,0-9.2,1.2-13.1,3.5
		c-3.9,2.3-7.1,5.5-9.5,9.6c-2.3,4.1-3.6,8.6-3.8,13.7h52.9c-0.2-5-1.6-9.6-4-13.7s-5.6-7.3-9.5-9.6
		C298,260.8,293.6,259.6,288.8,259.6z M390.8,230.7v89h-2.4v-19c-2.1,5.9-5.6,10.6-10.6,14.2c-5,3.4-10.7,5.2-17.2,5.2
		c-5.6,0-10.7-1.3-15.4-4c-4.6-2.7-8.2-6.5-10.8-11.3c-2.6-4.8-4-10.2-4-16.2s1.3-11.4,4-16.1c2.6-4.8,6.2-8.5,10.8-11.2
		c4.6-2.7,9.8-4.1,15.4-4.1c6.4,0,12.1,1.8,17,5.3c5,3.4,8.6,8.1,10.7,13.9v-45.8H390.8z M360.7,317.8c5.2,0,9.9-1.2,14.2-3.7
		c4.2-2.5,7.6-5.9,10-10.3c2.4-4.5,3.6-9.5,3.6-15.1c0-5.6-1.2-10.6-3.6-15c-2.4-4.5-5.7-7.9-10-10.3c-4.2-2.5-9-3.7-14.2-3.7
		c-5.2,0-9.9,1.2-14.2,3.7c-4.2,2.4-7.6,5.8-10,10.3c-2.4,4.4-3.6,9.4-3.6,15c0,5.6,1.2,10.6,3.6,15.1c2.4,4.4,5.7,7.8,10,10.3
		C350.8,316.6,355.5,317.8,360.7,317.8z"/>
	<path class="st0" d="M242.1,398.1v33.6h-1v-16.6h-24.5v16.6h-1v-33.6h1v16.1h24.5v-16.1H242.1z M261.9,406.8c2.9,0,5.1,0.8,6.6,2.3
		c1.5,1.5,2.3,3.6,2.3,6.4v16.3h-1v-5.3c-0.8,1.7-2,3-3.6,4c-1.6,1-3.5,1.4-5.8,1.4c-2.8,0-4.9-0.6-6.5-1.9c-1.5-1.3-2.3-3-2.3-5.1
		c0-2,0.7-3.6,2.1-4.8c1.4-1.2,3.7-1.9,6.8-1.9h9.4v-2.7c0-2.6-0.7-4.5-2-5.9c-1.3-1.3-3.3-2-5.9-2c-1.8,0-3.5,0.3-5,1
		c-1.5,0.6-2.9,1.4-4,2.5l-0.7-0.7c1.2-1.2,2.6-2,4.3-2.7C258.3,407.1,260.1,406.8,261.9,406.8z M260.4,431c4.6,0,7.8-2.1,9.5-6.3
		v-5.5h-9.5c-2.7,0-4.7,0.5-6,1.5c-1.2,1-1.9,2.4-1.9,4.2c0,1.9,0.7,3.4,2.1,4.5C256,430.4,257.9,431,260.4,431z M282.5,413.4
		c0.7-2.1,1.9-3.7,3.6-4.8c1.7-1.2,3.7-1.7,6.2-1.7v1H292c-3,0-5.3,1-7,2.9c-1.7,1.9-2.5,4.5-2.5,7.8v13.3h-1v-24.8h1V413.4z
		 M320.4,396.1v35.6h-1v-7.6c-0.8,2.4-2.2,4.3-4.2,5.7c-2,1.4-4.3,2.1-6.9,2.1c-2.2,0-4.3-0.5-6.1-1.6c-1.8-1.1-3.3-2.6-4.3-4.5
		c-1.1-1.9-1.6-4.1-1.6-6.5s0.5-4.5,1.6-6.4c1.1-1.9,2.5-3.4,4.3-4.5c1.9-1.1,3.9-1.6,6.1-1.6c2.6,0,4.8,0.7,6.8,2.1
		c2,1.4,3.4,3.2,4.3,5.6v-18.3H320.4z M308.4,431c2.1,0,4-0.5,5.7-1.5c1.7-1,3-2.4,4-4.1c1-1.8,1.4-3.8,1.4-6c0-2.2-0.5-4.2-1.4-6
		c-1-1.8-2.3-3.2-4-4.1c-1.7-1-3.6-1.5-5.7-1.5c-2.1,0-4,0.5-5.7,1.5c-1.7,1-3,2.3-4,4.1c-1,1.8-1.4,3.8-1.4,6c0,2.2,0.5,4.3,1.4,6
		c1,1.8,2.3,3.1,4,4.1C304.4,430.5,306.3,431,308.4,431z M365.6,406.9l-9.6,24.8h-0.9l-9.1-23.5l-9.2,23.5H336l-9.6-24.8h1l9,23.7
		l9.1-23.7h0.9l9.1,23.7l9-23.7H365.6z M378.9,406.8c2.9,0,5.1,0.8,6.6,2.3c1.5,1.5,2.3,3.6,2.3,6.4v16.3h-1v-5.3
		c-0.8,1.7-2,3-3.6,4c-1.6,1-3.5,1.4-5.8,1.4c-2.8,0-4.9-0.6-6.5-1.9c-1.5-1.3-2.3-3-2.3-5.1c0-2,0.7-3.6,2.1-4.8
		c1.4-1.2,3.7-1.9,6.8-1.9h9.4v-2.7c0-2.6-0.7-4.5-2-5.9c-1.3-1.3-3.3-2-5.9-2c-1.8,0-3.5,0.3-5,1c-1.5,0.6-2.9,1.4-4,2.5l-0.7-0.7
		c1.2-1.2,2.6-2,4.3-2.7C375.2,407.1,377,406.8,378.9,406.8z M377.3,431c4.6,0,7.8-2.1,9.5-6.3v-5.5h-9.5c-2.7,0-4.7,0.5-6,1.5
		c-1.2,1-1.9,2.4-1.9,4.2c0,1.9,0.7,3.4,2.1,4.5C373,430.4,374.9,431,377.3,431z M399.5,413.4c0.7-2.1,1.9-3.7,3.6-4.8
		c1.7-1.2,3.7-1.7,6.2-1.7v1h-0.3c-3,0-5.3,1-7,2.9c-1.7,1.9-2.5,4.5-2.5,7.8v13.3h-1v-24.8h1V413.4z M436.2,419.3h-22.1
		c0,2.2,0.5,4.3,1.5,6c1,1.8,2.4,3.1,4.1,4.1c1.8,1,3.7,1.5,5.9,1.5c1.7,0,3.3-0.3,4.8-1c1.5-0.7,2.7-1.6,3.7-2.9l0.7,0.7
		c-1.1,1.3-2.4,2.3-4,3c-1.6,0.7-3.3,1.1-5.1,1.1c-2.4,0-4.5-0.5-6.4-1.6c-1.9-1.1-3.3-2.6-4.4-4.5c-1.1-1.9-1.6-4.1-1.6-6.5
		s0.5-4.5,1.5-6.4c1-1.9,2.4-3.4,4.1-4.5c1.8-1.1,3.7-1.6,5.9-1.6c2.1,0,4.1,0.5,5.9,1.6c1.8,1.1,3.1,2.5,4.1,4.4
		c1,1.9,1.5,4,1.5,6.3V419.3z M424.7,407.7c-1.9,0-3.7,0.5-5.2,1.4s-2.8,2.2-3.8,3.8c-0.9,1.6-1.4,3.5-1.5,5.5h21.2
		c-0.1-2-0.6-3.8-1.6-5.5c-1-1.6-2.2-2.9-3.8-3.8C428.4,408.2,426.6,407.7,424.7,407.7z M229.4,468.2H214l-3.5,7.6h-0.8l11.7-25.2
		h0.7l11.7,25.2h-0.8L229.4,468.2z M229.1,467.5l-7.4-15.9l-7.4,15.9H229.1z M270.4,457c2.3,0,4,0.7,5.3,2c1.3,1.3,1.9,3.2,1.9,5.7
		v11h-0.7v-11c0-2.3-0.6-4-1.7-5.2c-1.1-1.2-2.7-1.8-4.8-1.8c-2.4,0-4.2,0.7-5.6,2.2c-1.4,1.4-2.1,3.3-2.1,5.7v10.1H262v-11
		c0-2.3-0.6-4-1.7-5.2c-1.1-1.2-2.7-1.8-4.8-1.8c-2.4,0-4.2,0.7-5.6,2.2c-1.4,1.4-2.1,3.3-2.1,5.7v10.1h-0.7v-18.6h0.7v4.9
		c0.6-1.6,1.5-2.8,2.8-3.7c1.3-0.9,2.9-1.3,4.8-1.3c1.9,0,3.5,0.5,4.7,1.4c1.2,0.9,2,2.3,2.4,4.1c0.5-1.7,1.4-3,2.7-4
		C266.7,457.5,268.4,457,270.4,457z M292.5,475.9c-1.7,0-3.3-0.4-4.6-1.2c-1.4-0.8-2.4-1.9-3.2-3.4c-0.8-1.4-1.2-3.1-1.2-4.9
		c0-1.8,0.4-3.4,1.2-4.8c0.8-1.4,1.9-2.6,3.2-3.3c1.4-0.8,2.9-1.2,4.6-1.2c1.7,0,3.2,0.4,4.6,1.2c1.4,0.8,2.5,1.9,3.2,3.3
		c0.8,1.4,1.2,3,1.2,4.8c0,1.8-0.4,3.4-1.2,4.9c-0.8,1.4-1.8,2.6-3.2,3.4C295.8,475.5,294.2,475.9,292.5,475.9z M292.5,475.2
		c1.6,0,3-0.4,4.2-1.1c1.3-0.7,2.3-1.8,3-3.1c0.7-1.3,1.1-2.9,1.1-4.5s-0.4-3.2-1.1-4.5c-0.7-1.3-1.7-2.4-3-3.1
		c-1.3-0.7-2.7-1.1-4.2-1.1s-3,0.4-4.2,1.1c-1.3,0.7-2.3,1.8-3,3.1c-0.7,1.3-1.1,2.8-1.1,4.5s0.4,3.2,1.1,4.5c0.7,1.3,1.7,2.4,3,3.1
		C289.5,474.8,291,475.2,292.5,475.2z M316.2,457c2.3,0,4.2,0.7,5.5,2c1.3,1.3,2,3.2,2,5.7v11h-0.7v-11c0-2.3-0.6-4-1.8-5.2
		c-1.2-1.2-2.8-1.8-4.9-1.8c-2.4,0-4.3,0.7-5.8,2.2c-1.4,1.4-2.1,3.3-2.1,5.7v10.1h-0.7v-18.6h0.7v5c0.6-1.6,1.5-2.8,2.9-3.7
		C312.6,457.5,314.2,457,316.2,457z M331.7,457.1h0.7v18.6h-0.7V457.1z M332.1,452c-0.3,0-0.5-0.1-0.7-0.3c-0.2-0.2-0.3-0.4-0.3-0.6
		c0-0.3,0.1-0.5,0.3-0.6c0.2-0.2,0.4-0.3,0.7-0.3c0.2,0,0.5,0.1,0.6,0.3c0.2,0.2,0.3,0.4,0.3,0.6c0,0.2-0.1,0.5-0.3,0.6
		C332.5,451.9,332.3,452,332.1,452z M349.1,474.5c-0.4,0.4-0.9,0.8-1.6,1c-0.6,0.2-1.3,0.3-2,0.3c-1.4,0-2.6-0.4-3.3-1.2
		c-0.8-0.8-1.2-2-1.2-3.3v-13.5h-3.6v-0.7h3.6v-4.1h0.7v4.1h6.3v0.7h-6.3v13.3c0,1.3,0.3,2.3,1,3c0.6,0.7,1.6,1,2.8,1
		c1.2,0,2.3-0.4,3.1-1.2L349.1,474.5z M360.8,475.9c-1.7,0-3.3-0.4-4.6-1.2c-1.4-0.8-2.4-1.9-3.2-3.4c-0.8-1.4-1.2-3.1-1.2-4.9
		c0-1.8,0.4-3.4,1.2-4.8c0.8-1.4,1.9-2.6,3.2-3.3c1.4-0.8,2.9-1.2,4.6-1.2s3.2,0.4,4.6,1.2c1.4,0.8,2.5,1.9,3.2,3.3
		c0.8,1.4,1.2,3,1.2,4.8c0,1.8-0.4,3.4-1.2,4.9c-0.8,1.4-1.8,2.6-3.2,3.4C364,475.5,362.5,475.9,360.8,475.9z M360.8,475.2
		c1.6,0,3-0.4,4.2-1.1c1.3-0.7,2.3-1.8,3-3.1c0.7-1.3,1.1-2.9,1.1-4.5s-0.4-3.2-1.1-4.5c-0.7-1.3-1.7-2.4-3-3.1
		c-1.3-0.7-2.7-1.1-4.2-1.1s-3,0.4-4.2,1.1c-1.3,0.7-2.3,1.8-3,3.1c-0.7,1.3-1.1,2.8-1.1,4.5s0.4,3.2,1.1,4.5c0.7,1.3,1.7,2.4,3,3.1
		C357.8,474.8,359.2,475.2,360.8,475.2z M376.6,462c0.5-1.6,1.4-2.8,2.7-3.6c1.2-0.9,2.8-1.3,4.6-1.3v0.7h-0.2c-2.2,0-4,0.7-5.2,2.2
		c-1.2,1.4-1.9,3.4-1.9,5.8v10h-0.7v-18.6h0.7V462z M424.3,457.1l-7.2,18.6h-0.6l-6.8-17.6l-6.9,17.6h-0.6l-7.2-18.6h0.7l6.7,17.7
		l6.8-17.7h0.7l6.8,17.7l6.7-17.7H424.3z M428.9,457.1h0.7v18.6h-0.7V457.1z M429.2,452c-0.3,0-0.5-0.1-0.7-0.3
		c-0.2-0.2-0.3-0.4-0.3-0.6c0-0.3,0.1-0.5,0.3-0.6c0.2-0.2,0.4-0.3,0.7-0.3c0.2,0,0.5,0.1,0.6,0.3c0.2,0.2,0.3,0.4,0.3,0.6
		c0,0.2-0.1,0.5-0.3,0.6C429.7,451.9,429.5,452,429.2,452z M446.3,474.5c-0.4,0.4-0.9,0.8-1.6,1c-0.6,0.2-1.3,0.3-2,0.3
		c-1.4,0-2.6-0.4-3.3-1.2c-0.8-0.8-1.2-2-1.2-3.3v-13.5h-3.6v-0.7h3.6v-4.1h0.7v4.1h6.3v0.7h-6.3v13.3c0,1.3,0.3,2.3,1,3
		c0.6,0.7,1.6,1,2.8,1c1.2,0,2.3-0.4,3.1-1.2L446.3,474.5z M460.4,457c2.3,0,4.2,0.7,5.5,2c1.3,1.3,2,3.2,2,5.7v11h-0.7v-11
		c0-2.3-0.6-4-1.8-5.2c-1.2-1.2-2.8-1.8-4.9-1.8c-2.4,0-4.3,0.7-5.8,2.2c-1.4,1.4-2.1,3.3-2.1,5.7v10.1h-0.7V449h0.7v13.1
		c0.6-1.6,1.5-2.8,2.9-3.7C456.8,457.5,458.4,457,460.4,457z M490.8,457c2.2,0,3.8,0.6,4.9,1.7c1.2,1.1,1.7,2.7,1.7,4.8v12.2h-0.7
		v-4c-0.6,1.3-1.5,2.3-2.7,3c-1.2,0.7-2.7,1.1-4.4,1.1c-2.1,0-3.7-0.5-4.9-1.4c-1.2-1-1.7-2.2-1.7-3.8c0-1.5,0.5-2.7,1.5-3.6
		c1.1-0.9,2.7-1.4,5.1-1.4h7.1v-2.1c0-1.9-0.5-3.4-1.5-4.4c-1-1-2.4-1.5-4.4-1.5c-1.3,0-2.6,0.2-3.8,0.7c-1.2,0.5-2.1,1.1-3,1.9
		l-0.5-0.5c0.9-0.9,2-1.5,3.2-2C488.1,457.3,489.4,457,490.8,457z M489.7,475.2c3.5,0,5.8-1.6,7.1-4.8v-4.1h-7.1
		c-2,0-3.5,0.4-4.5,1.2c-0.9,0.8-1.4,1.8-1.4,3.1c0,1.4,0.5,2.5,1.5,3.3C486.4,474.8,487.8,475.2,489.7,475.2z M521.5,475.9
		c-1.8,0-3.3-0.4-4.7-1.2c-1.4-0.8-2.5-1.9-3.3-3.3c-0.8-1.4-1.2-3.1-1.2-4.9s0.4-3.4,1.2-4.9c0.8-1.4,1.9-2.6,3.3-3.3
		c1.4-0.8,3-1.2,4.7-1.2c1.4,0,2.6,0.3,3.8,0.8c1.2,0.5,2.1,1.2,2.9,2.2l-0.5,0.5c-0.7-1-1.6-1.7-2.7-2.2c-1.1-0.5-2.3-0.7-3.5-0.7
		c-1.6,0-3.1,0.4-4.4,1.1c-1.3,0.7-2.3,1.8-3,3.1c-0.7,1.3-1.1,2.8-1.1,4.5c0,1.7,0.4,3.2,1.1,4.5c0.7,1.3,1.7,2.4,3,3.1
		c1.3,0.7,2.7,1.1,4.4,1.1c1.3,0,2.4-0.2,3.5-0.7c1.1-0.5,2-1.2,2.7-2.2l0.5,0.5c-0.8,1-1.7,1.7-2.9,2.3
		C524.1,475.6,522.9,475.9,521.5,475.9z M540.1,457c2.2,0,3.8,0.6,4.9,1.7c1.2,1.1,1.7,2.7,1.7,4.8v12.2H546v-4
		c-0.6,1.3-1.5,2.3-2.7,3c-1.2,0.7-2.7,1.1-4.4,1.1c-2.1,0-3.7-0.5-4.9-1.4c-1.2-1-1.7-2.2-1.7-3.8c0-1.5,0.5-2.7,1.5-3.6
		c1.1-0.9,2.7-1.4,5.1-1.4h7.1v-2.1c0-1.9-0.5-3.4-1.5-4.4c-1-1-2.4-1.5-4.4-1.5c-1.3,0-2.6,0.2-3.8,0.7c-1.2,0.5-2.1,1.1-3,1.9
		l-0.5-0.5c0.9-0.9,2-1.5,3.2-2C537.4,457.3,538.7,457,540.1,457z M538.9,475.2c3.5,0,5.8-1.6,7.1-4.8v-4.1h-7.1
		c-2,0-3.5,0.4-4.5,1.2c-0.9,0.8-1.4,1.8-1.4,3.1c0,1.4,0.5,2.5,1.5,3.3C535.7,474.8,537.1,475.2,538.9,475.2z M563.9,457
		c1.7,0,3.2,0.4,4.6,1.2c1.4,0.8,2.5,1.9,3.3,3.3c0.8,1.4,1.2,3,1.2,4.8c0,1.8-0.4,3.4-1.2,4.9s-1.9,2.6-3.3,3.4
		c-1.4,0.8-2.9,1.2-4.6,1.2c-1.9,0-3.7-0.5-5.1-1.5c-1.5-1.1-2.5-2.5-3.2-4.2v5.7h-0.7V449h0.7v13.8c0.6-1.8,1.7-3.1,3.2-4.2
		C560.2,457.6,561.9,457,563.9,457z M563.9,475.2c1.6,0,3-0.4,4.2-1.1c1.3-0.7,2.3-1.8,3-3.1c0.7-1.3,1.1-2.9,1.1-4.5
		s-0.4-3.2-1.1-4.5c-0.7-1.3-1.7-2.4-3-3.1c-1.3-0.7-2.7-1.1-4.2-1.1s-3,0.4-4.2,1.1c-1.3,0.7-2.3,1.8-3,3.1
		c-0.7,1.3-1.1,2.8-1.1,4.5s0.4,3.2,1.1,4.5c0.7,1.3,1.7,2.4,3,3.1C560.9,474.8,562.3,475.2,563.9,475.2z M579,449h0.7v26.7H579V449
		z M603,466.4h-16.6c0,1.7,0.4,3.2,1.1,4.5c0.7,1.3,1.8,2.4,3.1,3.1c1.3,0.7,2.8,1.1,4.4,1.1c1.3,0,2.5-0.2,3.6-0.7
		c1.1-0.5,2.1-1.2,2.8-2.2l0.5,0.5c-0.8,1-1.8,1.7-3,2.3c-1.2,0.5-2.5,0.8-3.8,0.8c-1.8,0-3.4-0.4-4.8-1.2c-1.4-0.8-2.5-1.9-3.3-3.4
		c-0.8-1.4-1.2-3.1-1.2-4.9c0-1.8,0.4-3.4,1.1-4.8c0.7-1.4,1.8-2.6,3.1-3.3c1.3-0.8,2.8-1.2,4.4-1.2c1.6,0,3.1,0.4,4.4,1.2
		c1.3,0.8,2.4,1.9,3.1,3.3c0.8,1.4,1.2,3,1.2,4.8V466.4z M594.4,457.7c-1.4,0-2.7,0.3-3.9,1c-1.2,0.7-2.1,1.7-2.8,2.9
		c-0.7,1.2-1.1,2.6-1.2,4.1h15.9c-0.1-1.5-0.5-2.9-1.2-4.1c-0.7-1.2-1.7-2.2-2.8-2.9C597.1,458.1,595.8,457.7,594.4,457.7z
		 M622.4,482.7c-1.3-2.2-2.3-4.7-3-7.6c-0.7-2.9-1-5.9-1-9.3c0-3.3,0.3-6.4,1-9.3c0.7-2.9,1.7-5.4,3-7.6h0.7c-2.6,4.4-4,10.1-4,16.8
		c0,6.8,1.3,12.4,4,16.8H622.4z M635.2,457c2.2,0,3.8,0.6,4.9,1.7c1.2,1.1,1.7,2.7,1.7,4.8v12.2h-0.7v-4c-0.6,1.3-1.5,2.3-2.7,3
		c-1.2,0.7-2.7,1.1-4.4,1.1c-2.1,0-3.7-0.5-4.9-1.4c-1.2-1-1.7-2.2-1.7-3.8c0-1.5,0.5-2.7,1.5-3.6c1.1-0.9,2.7-1.4,5.1-1.4h7.1v-2.1
		c0-1.9-0.5-3.4-1.5-4.4c-1-1-2.4-1.5-4.4-1.5c-1.3,0-2.6,0.2-3.8,0.7c-1.2,0.5-2.1,1.1-3,1.9l-0.5-0.5c0.9-0.9,2-1.5,3.2-2
		C632.5,457.3,633.8,457,635.2,457z M634.1,475.2c3.5,0,5.8-1.6,7.1-4.8v-4.1h-7.1c-2,0-3.5,0.4-4.5,1.2c-0.9,0.8-1.4,1.8-1.4,3.1
		c0,1.4,0.5,2.5,1.5,3.3C630.8,474.8,632.2,475.2,634.1,475.2z M658.5,457c2.3,0,4.2,0.7,5.5,2c1.3,1.3,2,3.2,2,5.7v11h-0.7v-11
		c0-2.3-0.6-4-1.8-5.2c-1.2-1.2-2.8-1.8-4.9-1.8c-2.4,0-4.3,0.7-5.8,2.2c-1.4,1.4-2.1,3.3-2.1,5.7v10.1H650v-18.6h0.7v5
		c0.6-1.6,1.5-2.8,2.9-3.7C654.9,457.5,656.6,457,658.5,457z M689.9,449v26.7h-0.7v-5.7c-0.6,1.8-1.7,3.2-3.2,4.2
		c-1.5,1-3.2,1.5-5.1,1.5c-1.7,0-3.2-0.4-4.6-1.2c-1.4-0.8-2.4-1.9-3.2-3.4s-1.2-3.1-1.2-4.9c0-1.8,0.4-3.4,1.2-4.8
		c0.8-1.4,1.9-2.6,3.2-3.3c1.4-0.8,2.9-1.2,4.6-1.2c1.9,0,3.6,0.5,5.1,1.6c1.5,1,2.6,2.4,3.2,4.2V449H689.9z M680.9,475.2
		c1.6,0,3-0.4,4.2-1.1c1.3-0.7,2.3-1.8,3-3.1c0.7-1.3,1.1-2.9,1.1-4.5s-0.4-3.2-1.1-4.5c-0.7-1.3-1.7-2.4-3-3.1
		c-1.3-0.7-2.7-1.1-4.2-1.1s-3,0.4-4.2,1.1c-1.3,0.7-2.3,1.8-3,3.1c-0.7,1.3-1.1,2.8-1.1,4.5s0.4,3.2,1.1,4.5c0.7,1.3,1.7,2.4,3,3.1
		C677.9,474.8,679.3,475.2,680.9,475.2z M697.3,474c0.3,0,0.5,0.1,0.6,0.3c0.2,0.2,0.3,0.4,0.3,0.6c0,0.2,0,0.5-0.1,1l-1.2,4.8h-0.6
		l1-4.9c-0.3,0-0.5-0.1-0.7-0.3c-0.2-0.2-0.3-0.4-0.3-0.6c0-0.3,0.1-0.5,0.3-0.6C696.8,474.1,697,474,697.3,474z M713.7,457.1h0.7
		v18.6h-0.7V457.1z M714.1,452c-0.3,0-0.5-0.1-0.7-0.3c-0.2-0.2-0.3-0.4-0.3-0.6c0-0.3,0.1-0.5,0.3-0.6c0.2-0.2,0.4-0.3,0.7-0.3
		c0.2,0,0.5,0.1,0.6,0.3c0.2,0.2,0.3,0.4,0.3,0.6c0,0.2-0.1,0.5-0.3,0.6C714.5,451.9,714.3,452,714.1,452z M727.5,449.6
		c-1.2,0-2.2,0.3-2.8,1c-0.6,0.7-1,1.7-1,3v3.5h6.3v0.7h-6.3v17.9H723v-17.9h-3.6v-0.7h3.6v-3.6c0-1.4,0.4-2.5,1.2-3.3
		c0.8-0.8,1.9-1.3,3.3-1.3c0.7,0,1.4,0.1,2,0.4c0.7,0.2,1.2,0.5,1.6,1l-0.5,0.5C729.8,450,728.8,449.6,727.5,449.6z M222,501
		c2.3,0,4.2,0.7,5.5,2c1.3,1.3,2,3.2,2,5.7v11h-0.7v-11c0-2.3-0.6-4-1.8-5.2c-1.2-1.2-2.8-1.8-4.9-1.8c-2.4,0-4.3,0.7-5.8,2.2
		c-1.4,1.4-2.1,3.3-2.1,5.7v10.1h-0.7v-18.6h0.7v5c0.6-1.6,1.5-2.8,2.9-3.7C218.4,501.5,220,501,222,501z M252.5,510.4H236
		c0,1.7,0.4,3.2,1.1,4.5c0.7,1.3,1.8,2.4,3.1,3.1c1.3,0.7,2.8,1.1,4.4,1.1c1.3,0,2.5-0.2,3.6-0.7c1.1-0.5,2.1-1.2,2.8-2.2l0.5,0.5
		c-0.8,1-1.8,1.7-3,2.3s-2.5,0.8-3.8,0.8c-1.8,0-3.4-0.4-4.8-1.2c-1.4-0.8-2.5-1.9-3.3-3.4c-0.8-1.4-1.2-3.1-1.2-4.9
		c0-1.8,0.4-3.4,1.1-4.8c0.7-1.4,1.8-2.6,3.1-3.3c1.3-0.8,2.8-1.2,4.4-1.2c1.6,0,3.1,0.4,4.4,1.2c1.3,0.8,2.4,1.9,3.1,3.3
		c0.8,1.4,1.2,3,1.2,4.8V510.4z M243.9,501.7c-1.4,0-2.7,0.3-3.9,1c-1.2,0.7-2.1,1.7-2.8,2.9c-0.7,1.2-1.1,2.6-1.2,4.1h15.9
		c-0.1-1.5-0.5-2.9-1.2-4.1c-0.7-1.2-1.7-2.2-2.8-2.9C246.6,502.1,245.3,501.7,243.9,501.7z M273.7,510.4h-16.6
		c0,1.7,0.4,3.2,1.1,4.5c0.7,1.3,1.8,2.4,3.1,3.1c1.3,0.7,2.8,1.1,4.4,1.1c1.3,0,2.5-0.2,3.6-0.7c1.1-0.5,2.1-1.2,2.8-2.2l0.5,0.5
		c-0.8,1-1.8,1.7-3,2.3c-1.2,0.5-2.5,0.8-3.8,0.8c-1.8,0-3.4-0.4-4.8-1.2c-1.4-0.8-2.5-1.9-3.3-3.4c-0.8-1.4-1.2-3.1-1.2-4.9
		c0-1.8,0.4-3.4,1.1-4.8c0.7-1.4,1.8-2.6,3.1-3.3c1.3-0.8,2.8-1.2,4.4-1.2c1.6,0,3.1,0.4,4.4,1.2c1.3,0.8,2.4,1.9,3.1,3.3
		c0.8,1.4,1.2,3,1.2,4.8V510.4z M265,501.7c-1.4,0-2.7,0.3-3.9,1c-1.2,0.7-2.1,1.7-2.8,2.9c-0.7,1.2-1.1,2.6-1.2,4.1H273
		c-0.1-1.5-0.5-2.9-1.2-4.1s-1.7-2.2-2.8-2.9C267.8,502.1,266.5,501.7,265,501.7z M295.6,493v26.7h-0.7v-5.7
		c-0.6,1.8-1.7,3.2-3.2,4.2c-1.5,1-3.2,1.5-5.1,1.5c-1.7,0-3.2-0.4-4.6-1.2c-1.4-0.8-2.4-1.9-3.2-3.4s-1.2-3.1-1.2-4.9
		c0-1.8,0.4-3.4,1.2-4.8c0.8-1.4,1.9-2.6,3.2-3.3c1.4-0.8,2.9-1.2,4.6-1.2c1.9,0,3.6,0.5,5.1,1.6c1.5,1,2.6,2.4,3.2,4.2V493H295.6z
		 M286.6,519.2c1.6,0,3-0.4,4.2-1.1c1.3-0.7,2.3-1.8,3-3.1c0.7-1.3,1.1-2.9,1.1-4.5c0-1.7-0.4-3.2-1.1-4.5c-0.7-1.3-1.7-2.4-3-3.1
		c-1.3-0.7-2.7-1.1-4.2-1.1s-3,0.4-4.2,1.1c-1.3,0.7-2.3,1.8-3,3.1c-0.7,1.3-1.1,2.8-1.1,4.5c0,1.7,0.4,3.2,1.1,4.5
		c0.7,1.3,1.7,2.4,3,3.1S285,519.2,286.6,519.2z M318.9,510.4h-16.6c0,1.7,0.4,3.2,1.1,4.5c0.7,1.3,1.8,2.4,3.1,3.1
		c1.3,0.7,2.8,1.1,4.4,1.1c1.3,0,2.5-0.2,3.6-0.7c1.1-0.5,2.1-1.2,2.8-2.2l0.5,0.5c-0.8,1-1.8,1.7-3,2.3s-2.5,0.8-3.8,0.8
		c-1.8,0-3.4-0.4-4.8-1.2c-1.4-0.8-2.5-1.9-3.3-3.4c-0.8-1.4-1.2-3.1-1.2-4.9c0-1.8,0.4-3.4,1.1-4.8c0.7-1.4,1.8-2.6,3.1-3.3
		c1.3-0.8,2.8-1.2,4.4-1.2c1.6,0,3.1,0.4,4.4,1.2c1.3,0.8,2.4,1.9,3.1,3.3c0.8,1.4,1.2,3,1.2,4.8V510.4z M310.3,501.7
		c-1.4,0-2.7,0.3-3.9,1c-1.2,0.7-2.1,1.7-2.8,2.9c-0.7,1.2-1.1,2.6-1.2,4.1h15.9c-0.1-1.5-0.5-2.9-1.2-4.1s-1.7-2.2-2.8-2.9
		C313,502.1,311.7,501.7,310.3,501.7z M340.9,493v26.7h-0.7v-5.7c-0.6,1.8-1.7,3.2-3.2,4.2c-1.5,1-3.2,1.5-5.1,1.5
		c-1.7,0-3.2-0.4-4.6-1.2c-1.4-0.8-2.4-1.9-3.2-3.4c-0.8-1.4-1.2-3.1-1.2-4.9c0-1.8,0.4-3.4,1.2-4.8c0.8-1.4,1.9-2.6,3.2-3.3
		c1.4-0.8,2.9-1.2,4.6-1.2c1.9,0,3.6,0.5,5.1,1.6c1.5,1,2.6,2.4,3.2,4.2V493H340.9z M331.9,519.2c1.6,0,3-0.4,4.2-1.1
		c1.3-0.7,2.3-1.8,3-3.1c0.7-1.3,1.1-2.9,1.1-4.5c0-1.7-0.4-3.2-1.1-4.5c-0.7-1.3-1.7-2.4-3-3.1c-1.3-0.7-2.7-1.1-4.2-1.1
		s-3,0.4-4.2,1.1c-1.3,0.7-2.3,1.8-3,3.1c-0.7,1.3-1.1,2.8-1.1,4.5c0,1.7,0.4,3.2,1.1,4.5c0.7,1.3,1.7,2.4,3,3.1
		C328.9,518.8,330.3,519.2,331.9,519.2z M348.3,518c0.3,0,0.5,0.1,0.6,0.3c0.2,0.2,0.3,0.4,0.3,0.6c0,0.2,0,0.5-0.1,1l-1.2,4.8h-0.6
		l1-4.9c-0.3,0-0.5-0.1-0.7-0.3c-0.2-0.2-0.3-0.4-0.3-0.6c0-0.3,0.1-0.5,0.3-0.6C347.8,518.1,348,518,348.3,518z M370.6,501
		c2.2,0,3.8,0.6,4.9,1.7c1.2,1.1,1.7,2.7,1.7,4.8v12.2h-0.7v-4c-0.6,1.3-1.5,2.3-2.7,3c-1.2,0.7-2.7,1.1-4.4,1.1
		c-2.1,0-3.7-0.5-4.9-1.4c-1.2-1-1.7-2.2-1.7-3.8c0-1.5,0.5-2.7,1.5-3.6c1.1-0.9,2.7-1.4,5.1-1.4h7.1v-2.1c0-1.9-0.5-3.4-1.5-4.4
		c-1-1-2.4-1.5-4.4-1.5c-1.3,0-2.6,0.2-3.8,0.7c-1.2,0.5-2.1,1.1-3,1.9l-0.5-0.5c0.9-0.9,2-1.5,3.2-2
		C367.9,501.3,369.3,501,370.6,501z M369.5,519.2c3.5,0,5.8-1.6,7.1-4.8v-4.1h-7.1c-2,0-3.5,0.4-4.5,1.2c-0.9,0.8-1.4,1.8-1.4,3.1
		c0,1.4,0.5,2.5,1.5,3.3C366.2,518.8,367.6,519.2,369.5,519.2z M393.9,501c2.3,0,4.2,0.7,5.5,2c1.3,1.3,2,3.2,2,5.7v11h-0.7v-11
		c0-2.3-0.6-4-1.8-5.2c-1.2-1.2-2.8-1.8-4.9-1.8c-2.4,0-4.3,0.7-5.8,2.2c-1.4,1.4-2.1,3.3-2.1,5.7v10.1h-0.7v-18.6h0.7v5
		c0.6-1.6,1.5-2.8,2.9-3.7C390.3,501.5,392,501,393.9,501z M438.9,494.5v25.2h-0.7v-12.5h-18.4v12.5h-0.7v-25.2h0.7v12.1h18.4v-12.1
		H438.9z M448.5,494.5h9.5c2.6,0,4.9,0.5,6.9,1.6c2,1.1,3.6,2.6,4.7,4.5c1.1,1.9,1.7,4.1,1.7,6.5s-0.6,4.6-1.7,6.5
		c-1.1,1.9-2.7,3.4-4.7,4.5c-2,1.1-4.3,1.6-6.9,1.6h-9.5V494.5z M457.9,519.1c2.5,0,4.7-0.5,6.6-1.5c1.9-1,3.4-2.4,4.4-4.2
		c1.1-1.8,1.6-3.9,1.6-6.2s-0.5-4.3-1.6-6.1c-1-1.8-2.5-3.2-4.4-4.2c-1.9-1-4.1-1.5-6.6-1.5h-8.7v23.8H457.9z M503,494.5v25.2h-0.7
		v-23.7l-11.5,20.1h-0.4l-11.5-20v23.6h-0.7v-25.2h0.6l11.8,20.7l11.8-20.7H503z M512.6,494.5h0.7v25.2h-0.7V494.5z M537.2,501
		c2.2,0,3.8,0.6,4.9,1.7c1.2,1.1,1.7,2.7,1.7,4.8v12.2h-0.7v-4c-0.6,1.3-1.5,2.3-2.7,3c-1.2,0.7-2.7,1.1-4.4,1.1
		c-2.1,0-3.7-0.5-4.9-1.4c-1.2-1-1.7-2.2-1.7-3.8c0-1.5,0.5-2.7,1.5-3.6c1.1-0.9,2.7-1.4,5.1-1.4h7.1v-2.1c0-1.9-0.5-3.4-1.5-4.4
		c-1-1-2.4-1.5-4.4-1.5c-1.3,0-2.6,0.2-3.8,0.7c-1.2,0.5-2.1,1.1-3,1.9l-0.5-0.5c0.9-0.9,2-1.5,3.2-2
		C534.5,501.3,535.8,501,537.2,501z M536.1,519.2c3.5,0,5.8-1.6,7.1-4.8v-4.1h-7.1c-2,0-3.5,0.4-4.5,1.2c-0.9,0.8-1.4,1.8-1.4,3.1
		c0,1.4,0.5,2.5,1.5,3.3C532.8,518.8,534.2,519.2,536.1,519.2z M567.8,493v26.7h-0.7v-5.7c-0.6,1.8-1.7,3.2-3.2,4.2
		c-1.5,1-3.2,1.5-5.1,1.5c-1.7,0-3.2-0.4-4.6-1.2c-1.4-0.8-2.4-1.9-3.2-3.4c-0.8-1.4-1.2-3.1-1.2-4.9c0-1.8,0.4-3.4,1.2-4.8
		c0.8-1.4,1.9-2.6,3.2-3.3c1.4-0.8,2.9-1.2,4.6-1.2c1.9,0,3.6,0.5,5.1,1.6c1.5,1,2.6,2.4,3.2,4.2V493H567.8z M558.8,519.2
		c1.6,0,3-0.4,4.2-1.1c1.3-0.7,2.3-1.8,3-3.1c0.7-1.3,1.1-2.9,1.1-4.5c0-1.7-0.4-3.2-1.1-4.5c-0.7-1.3-1.7-2.4-3-3.1
		c-1.3-0.7-2.7-1.1-4.2-1.1s-3,0.4-4.2,1.1c-1.3,0.7-2.3,1.8-3,3.1c-0.7,1.3-1.1,2.8-1.1,4.5c0,1.7,0.4,3.2,1.1,4.5
		c0.7,1.3,1.7,2.4,3,3.1S557.2,519.2,558.8,519.2z M582,501c2.2,0,3.8,0.6,4.9,1.7c1.2,1.1,1.7,2.7,1.7,4.8v12.2H588v-4
		c-0.6,1.3-1.5,2.3-2.7,3c-1.2,0.7-2.7,1.1-4.4,1.1c-2.1,0-3.7-0.5-4.9-1.4c-1.2-1-1.7-2.2-1.7-3.8c0-1.5,0.5-2.7,1.5-3.6
		c1.1-0.9,2.7-1.4,5.1-1.4h7.1v-2.1c0-1.9-0.5-3.4-1.5-4.4c-1-1-2.4-1.5-4.4-1.5c-1.3,0-2.6,0.2-3.8,0.7c-1.2,0.5-2.1,1.1-3,1.9
		l-0.5-0.5c0.9-0.9,2-1.5,3.2-2C579.3,501.3,580.6,501,582,501z M580.9,519.2c3.5,0,5.8-1.6,7.1-4.8v-4.1h-7.1c-2,0-3.5,0.4-4.5,1.2
		c-0.9,0.8-1.4,1.8-1.4,3.1c0,1.4,0.5,2.5,1.5,3.3C577.6,518.8,579,519.2,580.9,519.2z M605.8,501c1.7,0,3.2,0.4,4.6,1.2
		c1.4,0.8,2.5,1.9,3.3,3.3s1.2,3.1,1.2,4.9c0,1.8-0.4,3.4-1.2,4.9c-0.8,1.4-1.9,2.5-3.3,3.3c-1.4,0.8-2.9,1.2-4.6,1.2
		c-1.9,0-3.6-0.5-5.1-1.5c-1.5-1.1-2.5-2.5-3.2-4.2v12.6h-0.7v-25.6h0.7v5.7c0.6-1.8,1.7-3.2,3.2-4.2
		C602.1,501.6,603.9,501,605.8,501z M605.8,519.2c1.6,0,3-0.4,4.2-1.1c1.3-0.7,2.3-1.8,3-3.1c0.7-1.3,1.1-2.9,1.1-4.5
		c0-1.7-0.4-3.2-1.1-4.5c-0.7-1.3-1.7-2.4-3-3.1c-1.3-0.7-2.7-1.1-4.2-1.1s-3,0.4-4.2,1.1c-1.3,0.7-2.3,1.8-3,3.1
		c-0.7,1.3-1.1,2.8-1.1,4.5c0,1.7,0.4,3.2,1.1,4.5c0.7,1.3,1.7,2.4,3,3.1C602.8,518.8,604.3,519.2,605.8,519.2z M629.3,518.5
		c-0.4,0.4-0.9,0.8-1.6,1c-0.6,0.2-1.3,0.3-2,0.3c-1.4,0-2.6-0.4-3.3-1.2c-0.8-0.8-1.2-2-1.2-3.3v-13.5h-3.6v-0.7h3.6v-4.1h0.7v4.1
		h6.3v0.7h-6.3v13.3c0,1.3,0.3,2.3,1,3c0.6,0.7,1.6,1,2.8,1c1.2,0,2.3-0.4,3.1-1.2L629.3,518.5z M641,519.9c-1.7,0-3.3-0.4-4.6-1.2
		c-1.4-0.8-2.4-1.9-3.2-3.4c-0.8-1.4-1.2-3.1-1.2-4.9c0-1.8,0.4-3.4,1.2-4.8c0.8-1.4,1.9-2.6,3.2-3.3c1.4-0.8,2.9-1.2,4.6-1.2
		c1.7,0,3.2,0.4,4.6,1.2c1.4,0.8,2.5,1.9,3.2,3.3c0.8,1.4,1.2,3,1.2,4.8c0,1.8-0.4,3.4-1.2,4.9c-0.8,1.4-1.8,2.6-3.2,3.4
		C644.3,519.5,642.7,519.9,641,519.9z M641,519.2c1.6,0,3-0.4,4.2-1.1c1.3-0.7,2.3-1.8,3-3.1c0.7-1.3,1.1-2.9,1.1-4.5
		c0-1.7-0.4-3.2-1.1-4.5c-0.7-1.3-1.7-2.4-3-3.1c-1.3-0.7-2.7-1.1-4.2-1.1s-3,0.4-4.2,1.1c-1.3,0.7-2.3,1.8-3,3.1
		c-0.7,1.3-1.1,2.8-1.1,4.5c0,1.7,0.4,3.2,1.1,4.5c0.7,1.3,1.7,2.4,3,3.1C638,518.8,639.5,519.2,641,519.2z M656.9,506
		c0.5-1.6,1.4-2.8,2.7-3.6c1.2-0.9,2.8-1.3,4.6-1.3v0.7H664c-2.2,0-4,0.7-5.2,2.2c-1.2,1.4-1.9,3.4-1.9,5.8v10h-0.7v-18.6h0.7V506z
		 M667.4,526.7c2.6-4.4,4-10.1,4-16.8s-1.3-12.4-4-16.8h0.7c1.3,2.1,2.3,4.7,3,7.6c0.7,2.9,1,6,1,9.3c0,3.3-0.3,6.4-1,9.3
		c-0.7,2.9-1.7,5.4-3,7.6H667.4z M229.4,556.2H214l-3.5,7.6h-0.8l11.7-25.2h0.7l11.7,25.2h-0.8L229.4,556.2z M229.1,555.5l-7.4-15.9
		l-7.4,15.9H229.1z M257.4,563.9c-3.1,0-5.5-0.9-7.2-2.7c-1.7-1.8-2.6-4.5-2.6-8v-14.7h0.7v14.6c0,3.3,0.8,5.8,2.3,7.5
		c1.6,1.7,3.8,2.5,6.7,2.5c2.9,0,5.1-0.8,6.7-2.5c1.6-1.7,2.3-4.2,2.3-7.5v-14.6h0.7v14.7c0,3.5-0.9,6.2-2.6,8
		C262.8,563,260.4,563.9,257.4,563.9z M282.6,563.9c-1.8,0-3.5-0.3-5.1-1c-1.6-0.7-2.8-1.5-3.7-2.6l0.5-0.5c0.8,1,2,1.8,3.5,2.4
		c1.5,0.6,3.1,0.9,4.8,0.9c2.6,0,4.6-0.5,5.9-1.5c1.3-1.1,2-2.4,2-4.1c0-1.3-0.3-2.3-1-3.1c-0.7-0.8-1.6-1.3-2.6-1.7
		c-1-0.4-2.4-0.8-4.1-1.2c-1.8-0.5-3.3-0.9-4.4-1.3c-1.1-0.4-2-1.1-2.8-1.9c-0.7-0.9-1.1-2.1-1.1-3.5c0-1.2,0.3-2.2,0.9-3.2
		s1.5-1.7,2.8-2.3s2.8-0.9,4.7-0.9c1.3,0,2.7,0.2,4,0.6c1.3,0.4,2.4,1,3.3,1.7l-0.4,0.6c-1-0.7-2.1-1.3-3.3-1.6
		c-1.2-0.4-2.4-0.6-3.6-0.6c-2.5,0-4.4,0.5-5.8,1.6c-1.3,1.1-2,2.4-2,4.1c0,1.3,0.3,2.3,1,3.1c0.7,0.8,1.6,1.3,2.6,1.7
		c1,0.4,2.4,0.8,4.2,1.2c1.8,0.5,3.3,0.9,4.4,1.3c1.1,0.4,2,1,2.7,1.9c0.7,0.8,1.1,2,1.1,3.4c0,1.2-0.3,2.2-0.9,3.2
		c-0.6,1-1.6,1.7-2.9,2.3C286.1,563.6,284.5,563.9,282.6,563.9z M311.5,550.8c4.2,0.6,6.3,2.7,6.3,6.3c0,2.1-0.8,3.8-2.3,4.9
		c-1.5,1.1-3.8,1.7-6.8,1.7h-10.7v-25.2h10c2.6,0,4.7,0.6,6.2,1.7c1.5,1.1,2.3,2.7,2.3,4.7c0,1.6-0.4,2.9-1.3,3.9
		C314.3,549.8,313.1,550.5,311.5,550.8z M298.8,539.2v11.4h9.4c2.4,0,4.3-0.5,5.6-1.4c1.3-1,2-2.4,2-4.2c0-1.8-0.7-3.3-2-4.2
		c-1.3-1-3.2-1.5-5.6-1.5H298.8z M308.9,563.1c5.5,0,8.2-2,8.2-5.9c0-2-0.7-3.5-2.1-4.4c-1.4-1-3.4-1.4-6.2-1.4h-10.1v11.8H308.9z
		 M339.6,553l-5.5,5v5.8h-0.7V537h0.7v20.1l13.1-12h1l-8.1,7.4l8.9,11.2h-0.9L339.6,553z M368.2,554.4h-16.6c0,1.7,0.4,3.2,1.1,4.5
		c0.7,1.3,1.8,2.4,3.1,3.1c1.3,0.7,2.8,1.1,4.4,1.1c1.3,0,2.5-0.2,3.6-0.7c1.1-0.5,2.1-1.2,2.8-2.2l0.5,0.5c-0.8,1-1.8,1.7-3,2.3
		c-1.2,0.5-2.5,0.8-3.8,0.8c-1.8,0-3.4-0.4-4.8-1.2c-1.4-0.8-2.5-1.9-3.3-3.4c-0.8-1.4-1.2-3.1-1.2-4.9c0-1.8,0.4-3.4,1.1-4.8
		c0.7-1.4,1.8-2.6,3.1-3.3c1.3-0.8,2.8-1.2,4.4-1.2c1.6,0,3.1,0.4,4.4,1.2c1.3,0.8,2.4,1.9,3.1,3.3c0.8,1.4,1.2,3,1.2,4.8V554.4z
		 M359.6,545.7c-1.4,0-2.7,0.3-3.9,1s-2.1,1.7-2.8,2.9c-0.7,1.2-1.1,2.6-1.2,4.1h15.9c-0.1-1.5-0.5-2.9-1.2-4.1s-1.7-2.2-2.8-2.9
		C362.3,546.1,361,545.7,359.6,545.7z M387.9,545.1l-9.9,21.6c-0.7,1.5-1.4,2.5-2.3,3.2c-0.8,0.6-1.8,0.9-3,0.9c-1.7,0-3-0.6-4-1.7
		l0.5-0.6c0.5,0.6,1,0.9,1.6,1.2s1.2,0.4,1.9,0.4c1,0,1.8-0.3,2.5-0.8c0.7-0.5,1.4-1.5,2-2.8l1.3-2.8l-8.5-18.5h0.8l8.1,17.8
		l8.1-17.8H387.9z M401.3,545c1.7,0,3.2,0.4,4.6,1.2c1.4,0.8,2.5,1.9,3.3,3.3c0.8,1.4,1.2,3,1.2,4.8c0,1.8-0.4,3.4-1.2,4.9
		c-0.8,1.4-1.9,2.6-3.3,3.4c-1.4,0.8-2.9,1.2-4.6,1.2c-1.9,0-3.7-0.5-5.1-1.5c-1.5-1.1-2.5-2.5-3.2-4.2v5.7h-0.7V537h0.7v13.8
		c0.6-1.8,1.7-3.1,3.2-4.2C397.6,545.6,399.4,545,401.3,545z M401.3,563.2c1.6,0,3-0.4,4.2-1.1s2.3-1.8,3-3.1
		c0.7-1.3,1.1-2.9,1.1-4.5s-0.4-3.2-1.1-4.5c-0.7-1.3-1.7-2.4-3-3.1c-1.3-0.7-2.7-1.1-4.2-1.1s-3,0.4-4.2,1.1
		c-1.3,0.7-2.3,1.8-3,3.1c-0.7,1.3-1.1,2.8-1.1,4.5s0.4,3.2,1.1,4.5c0.7,1.3,1.7,2.4,3,3.1S399.7,563.2,401.3,563.2z M423.2,563.9
		c-1.7,0-3.3-0.4-4.6-1.2c-1.4-0.8-2.4-1.9-3.2-3.4c-0.8-1.4-1.2-3.1-1.2-4.9c0-1.8,0.4-3.4,1.2-4.8c0.8-1.4,1.9-2.6,3.2-3.3
		c1.4-0.8,2.9-1.2,4.6-1.2c1.7,0,3.2,0.4,4.6,1.2c1.4,0.8,2.5,1.9,3.2,3.3c0.8,1.4,1.2,3,1.2,4.8c0,1.8-0.4,3.4-1.2,4.9
		c-0.8,1.4-1.8,2.6-3.2,3.4C426.5,563.5,424.9,563.9,423.2,563.9z M423.2,563.2c1.6,0,3-0.4,4.2-1.1s2.3-1.8,3-3.1
		c0.7-1.3,1.1-2.9,1.1-4.5s-0.4-3.2-1.1-4.5c-0.7-1.3-1.7-2.4-3-3.1c-1.3-0.7-2.7-1.1-4.2-1.1s-3,0.4-4.2,1.1
		c-1.3,0.7-2.3,1.8-3,3.1c-0.7,1.3-1.1,2.8-1.1,4.5s0.4,3.2,1.1,4.5c0.7,1.3,1.7,2.4,3,3.1S421.7,563.2,423.2,563.2z M444.3,545
		c2.2,0,3.8,0.6,4.9,1.7c1.2,1.1,1.7,2.7,1.7,4.8v12.2h-0.7v-4c-0.6,1.3-1.5,2.3-2.7,3c-1.2,0.7-2.7,1.1-4.4,1.1
		c-2.1,0-3.7-0.5-4.9-1.4c-1.2-1-1.7-2.2-1.7-3.8c0-1.5,0.5-2.7,1.5-3.6c1.1-0.9,2.7-1.4,5.1-1.4h7.1v-2.1c0-1.9-0.5-3.4-1.5-4.4
		c-1-1-2.4-1.5-4.4-1.5c-1.3,0-2.6,0.2-3.8,0.7c-1.2,0.5-2.1,1.1-3,1.9l-0.5-0.5c0.9-0.9,2-1.5,3.2-2
		C441.6,545.3,442.9,545,444.3,545z M443.1,563.2c3.5,0,5.8-1.6,7.1-4.8v-4.1h-7.1c-2,0-3.5,0.4-4.5,1.2c-0.9,0.8-1.4,1.8-1.4,3.1
		c0,1.4,0.5,2.5,1.5,3.3C439.9,562.8,441.3,563.2,443.1,563.2z M459.8,550c0.5-1.6,1.4-2.8,2.7-3.6c1.2-0.9,2.8-1.3,4.6-1.3v0.7
		h-0.2c-2.2,0-4,0.7-5.2,2.2c-1.2,1.4-1.9,3.4-1.9,5.8v10H459v-18.6h0.7V550z M488.2,537v26.7h-0.7v-5.7c-0.6,1.8-1.7,3.2-3.2,4.2
		c-1.5,1-3.2,1.5-5.1,1.5c-1.7,0-3.2-0.4-4.6-1.2c-1.4-0.8-2.4-1.9-3.2-3.4s-1.2-3.1-1.2-4.9c0-1.8,0.4-3.4,1.2-4.8
		c0.8-1.4,1.9-2.6,3.2-3.3c1.4-0.8,2.9-1.2,4.6-1.2c1.9,0,3.6,0.5,5.1,1.6c1.5,1,2.6,2.4,3.2,4.2V537H488.2z M479.1,563.2
		c1.6,0,3-0.4,4.2-1.1s2.3-1.8,3-3.1c0.7-1.3,1.1-2.9,1.1-4.5s-0.4-3.2-1.1-4.5c-0.7-1.3-1.7-2.4-3-3.1c-1.3-0.7-2.7-1.1-4.2-1.1
		s-3,0.4-4.2,1.1c-1.3,0.7-2.3,1.8-3,3.1c-0.7,1.3-1.1,2.8-1.1,4.5s0.4,3.2,1.1,4.5c0.7,1.3,1.7,2.4,3,3.1S477.6,563.2,479.1,563.2z
		 M511.4,545c2.2,0,3.8,0.6,4.9,1.7c1.2,1.1,1.7,2.7,1.7,4.8v12.2h-0.7v-4c-0.6,1.3-1.5,2.3-2.7,3c-1.2,0.7-2.7,1.1-4.4,1.1
		c-2.1,0-3.7-0.5-4.9-1.4c-1.2-1-1.7-2.2-1.7-3.8c0-1.5,0.5-2.7,1.5-3.6c1.1-0.9,2.7-1.4,5.1-1.4h7.1v-2.1c0-1.9-0.5-3.4-1.5-4.4
		c-1-1-2.4-1.5-4.4-1.5c-1.3,0-2.6,0.2-3.8,0.7c-1.2,0.5-2.1,1.1-3,1.9l-0.5-0.5c0.9-0.9,2-1.5,3.2-2C508.7,545.3,510,545,511.4,545
		z M510.2,563.2c3.5,0,5.8-1.6,7.1-4.8v-4.1h-7.1c-2,0-3.5,0.4-4.5,1.2c-0.9,0.8-1.4,1.8-1.4,3.1c0,1.4,0.5,2.5,1.5,3.3
		C506.9,562.8,508.4,563.2,510.2,563.2z M534.6,545c2.3,0,4.2,0.7,5.5,2c1.3,1.3,2,3.2,2,5.7v11h-0.7v-11c0-2.3-0.6-4-1.8-5.2
		c-1.2-1.2-2.8-1.8-4.9-1.8c-2.4,0-4.3,0.7-5.8,2.2c-1.4,1.4-2.1,3.3-2.1,5.7v10.1h-0.7v-18.6h0.7v5c0.6-1.6,1.5-2.8,2.9-3.7
		C531.1,545.5,532.7,545,534.6,545z M566,537v26.7h-0.7v-5.7c-0.6,1.8-1.7,3.2-3.2,4.2c-1.5,1-3.2,1.5-5.1,1.5
		c-1.7,0-3.2-0.4-4.6-1.2c-1.4-0.8-2.4-1.9-3.2-3.4s-1.2-3.1-1.2-4.9c0-1.8,0.4-3.4,1.2-4.8c0.8-1.4,1.9-2.6,3.2-3.3
		c1.4-0.8,2.9-1.2,4.6-1.2c1.9,0,3.6,0.5,5.1,1.6c1.5,1,2.6,2.4,3.2,4.2V537H566z M557,563.2c1.6,0,3-0.4,4.2-1.1s2.3-1.8,3-3.1
		c0.7-1.3,1.1-2.9,1.1-4.5s-0.4-3.2-1.1-4.5c-0.7-1.3-1.7-2.4-3-3.1c-1.3-0.7-2.7-1.1-4.2-1.1s-3,0.4-4.2,1.1
		c-1.3,0.7-2.3,1.8-3,3.1c-0.7,1.3-1.1,2.8-1.1,4.5s0.4,3.2,1.1,4.5c0.7,1.3,1.7,2.4,3,3.1C554,562.8,555.4,563.2,557,563.2z
		 M606.5,545c2.3,0,4,0.7,5.3,2c1.3,1.3,1.9,3.2,1.9,5.7v11H613v-11c0-2.3-0.6-4-1.7-5.2c-1.1-1.2-2.7-1.8-4.8-1.8
		c-2.4,0-4.2,0.7-5.6,2.2c-1.4,1.4-2.1,3.3-2.1,5.7v10.1h-0.7v-11c0-2.3-0.6-4-1.7-5.2c-1.1-1.2-2.7-1.8-4.8-1.8
		c-2.4,0-4.2,0.7-5.6,2.2c-1.4,1.4-2.1,3.3-2.1,5.7v10.1h-0.7v-18.6h0.7v4.9c0.6-1.6,1.5-2.8,2.8-3.7s2.9-1.3,4.8-1.3
		c1.9,0,3.5,0.5,4.7,1.4c1.2,0.9,2,2.3,2.4,4.1c0.5-1.7,1.4-3,2.7-4C602.8,545.5,604.5,545,606.5,545z M628.6,563.9
		c-1.7,0-3.3-0.4-4.6-1.2c-1.4-0.8-2.4-1.9-3.2-3.4c-0.8-1.4-1.2-3.1-1.2-4.9c0-1.8,0.4-3.4,1.2-4.8c0.8-1.4,1.9-2.6,3.2-3.3
		c1.4-0.8,2.9-1.2,4.6-1.2s3.2,0.4,4.6,1.2c1.4,0.8,2.5,1.9,3.2,3.3c0.8,1.4,1.2,3,1.2,4.8c0,1.8-0.4,3.4-1.2,4.9
		c-0.8,1.4-1.8,2.6-3.2,3.4C631.8,563.5,630.3,563.9,628.6,563.9z M628.6,563.2c1.6,0,3-0.4,4.2-1.1c1.3-0.7,2.3-1.8,3-3.1
		c0.7-1.3,1.1-2.9,1.1-4.5s-0.4-3.2-1.1-4.5c-0.7-1.3-1.7-2.4-3-3.1c-1.3-0.7-2.7-1.1-4.2-1.1s-3,0.4-4.2,1.1
		c-1.3,0.7-2.3,1.8-3,3.1c-0.7,1.3-1.1,2.8-1.1,4.5s0.4,3.2,1.1,4.5c0.7,1.3,1.7,2.4,3,3.1C625.6,562.8,627,563.2,628.6,563.2z
		 M659.4,545.1v18.6h-0.7v-4.9c-0.6,1.6-1.5,2.8-2.8,3.7c-1.3,0.9-2.9,1.3-4.7,1.3c-2.4,0-4.3-0.7-5.6-2c-1.3-1.3-2-3.3-2-5.8v-11
		h0.7v11c0,2.3,0.6,4,1.8,5.3c1.2,1.2,2.9,1.8,5.1,1.8c2.3,0,4.2-0.7,5.5-2.2c1.3-1.5,2-3.4,2-5.8v-10.1H659.4z M671.9,563.9
		c-1.5,0-2.9-0.2-4.2-0.7c-1.3-0.5-2.3-1.1-3.1-1.8l0.4-0.6c0.7,0.7,1.7,1.3,2.9,1.8c1.2,0.5,2.5,0.7,4,0.7c2.1,0,3.7-0.4,4.7-1.1
		c1-0.7,1.5-1.8,1.5-3.1c0-0.9-0.3-1.7-0.8-2.2c-0.5-0.6-1.2-0.9-2-1.2c-0.8-0.3-1.8-0.5-3.2-0.8c-1.5-0.3-2.7-0.5-3.6-0.8
		c-0.9-0.3-1.6-0.8-2.3-1.4c-0.6-0.7-0.9-1.6-0.9-2.8c0-1.3,0.6-2.5,1.7-3.4c1.1-0.9,2.8-1.4,4.9-1.4c1.2,0,2.3,0.2,3.4,0.5
		c1.1,0.3,2,0.8,2.7,1.4l-0.4,0.6c-0.7-0.6-1.6-1-2.6-1.3c-1-0.3-2.1-0.5-3.1-0.5c-1.9,0-3.4,0.4-4.4,1.2c-1,0.7-1.4,1.7-1.4,3
		c0,1,0.3,1.8,0.8,2.3c0.6,0.6,1.2,1,2.1,1.2c0.8,0.3,1.9,0.5,3.2,0.8c1.5,0.3,2.6,0.6,3.5,0.9c0.9,0.3,1.6,0.8,2.2,1.4
		c0.6,0.6,0.9,1.5,0.9,2.6c0,1.5-0.6,2.6-1.8,3.5C675.9,563.4,674.2,563.9,671.9,563.9z M699.4,554.4h-16.6c0,1.7,0.4,3.2,1.1,4.5
		c0.7,1.3,1.8,2.4,3.1,3.1c1.3,0.7,2.8,1.1,4.4,1.1c1.3,0,2.5-0.2,3.6-0.7c1.1-0.5,2.1-1.2,2.8-2.2l0.5,0.5c-0.8,1-1.8,1.7-3,2.3
		c-1.2,0.5-2.5,0.8-3.8,0.8c-1.8,0-3.4-0.4-4.8-1.2c-1.4-0.8-2.5-1.9-3.3-3.4c-0.8-1.4-1.2-3.1-1.2-4.9c0-1.8,0.4-3.4,1.1-4.8
		c0.7-1.4,1.8-2.6,3.1-3.3c1.3-0.8,2.8-1.2,4.4-1.2c1.6,0,3.1,0.4,4.4,1.2c1.3,0.8,2.4,1.9,3.1,3.3c0.8,1.4,1.2,3,1.2,4.8V554.4z
		 M690.7,545.7c-1.4,0-2.7,0.3-3.9,1c-1.2,0.7-2.1,1.7-2.8,2.9c-0.7,1.2-1.1,2.6-1.2,4.1h15.9c-0.1-1.5-0.5-2.9-1.2-4.1
		c-0.7-1.2-1.7-2.2-2.8-2.9C693.5,546.1,692.2,545.7,690.7,545.7z M229.4,600.2H214l-3.5,7.6h-0.8l11.7-25.2h0.7l11.7,25.2h-0.8
		L229.4,600.2z M229.1,599.5l-7.4-15.9l-7.4,15.9H229.1z M256.3,589c1.7,0,3.2,0.4,4.6,1.2c1.4,0.8,2.5,1.9,3.3,3.3
		c0.8,1.4,1.2,3.1,1.2,4.9c0,1.8-0.4,3.4-1.2,4.9c-0.8,1.4-1.9,2.5-3.3,3.3c-1.4,0.8-2.9,1.2-4.6,1.2c-1.9,0-3.6-0.5-5.1-1.5
		c-1.5-1.1-2.5-2.5-3.2-4.2v12.6h-0.7v-25.6h0.7v5.7c0.6-1.8,1.7-3.2,3.2-4.2C252.6,589.6,254.3,589,256.3,589z M256.3,607.2
		c1.6,0,3-0.4,4.2-1.1c1.3-0.7,2.3-1.8,3-3.1c0.7-1.3,1.1-2.9,1.1-4.5c0-1.7-0.4-3.2-1.1-4.5c-0.7-1.3-1.7-2.4-3-3.1
		c-1.3-0.7-2.7-1.1-4.2-1.1c-1.6,0-3,0.4-4.2,1.1c-1.3,0.7-2.3,1.8-3,3.1c-0.7,1.3-1.1,2.8-1.1,4.5c0,1.7,0.4,3.2,1.1,4.5
		c0.7,1.3,1.7,2.4,3,3.1C253.3,606.8,254.7,607.2,256.3,607.2z M278.2,607.9c-1.7,0-3.3-0.4-4.6-1.2c-1.4-0.8-2.4-1.9-3.2-3.4
		c-0.8-1.4-1.2-3.1-1.2-4.9c0-1.8,0.4-3.4,1.2-4.8c0.8-1.4,1.9-2.6,3.2-3.3c1.4-0.8,2.9-1.2,4.6-1.2c1.7,0,3.2,0.4,4.6,1.2
		c1.4,0.8,2.5,1.9,3.2,3.3c0.8,1.4,1.2,3,1.2,4.8c0,1.8-0.4,3.4-1.2,4.9c-0.8,1.4-1.8,2.6-3.2,3.4
		C281.4,607.5,279.9,607.9,278.2,607.9z M278.2,607.2c1.6,0,3-0.4,4.2-1.1c1.3-0.7,2.3-1.8,3-3.1c0.7-1.3,1.1-2.9,1.1-4.5
		c0-1.7-0.4-3.2-1.1-4.5c-0.7-1.3-1.7-2.4-3-3.1c-1.3-0.7-2.7-1.1-4.2-1.1s-3,0.4-4.2,1.1c-1.3,0.7-2.3,1.8-3,3.1
		c-0.7,1.3-1.1,2.8-1.1,4.5c0,1.7,0.4,3.2,1.1,4.5c0.7,1.3,1.7,2.4,3,3.1C275.2,606.8,276.6,607.2,278.2,607.2z M318.4,589.1
		l-7.2,18.6h-0.6l-6.8-17.6l-6.9,17.6h-0.6l-7.2-18.6h0.7l6.7,17.7l6.8-17.7h0.7l6.8,17.7l6.7-17.7H318.4z M337.5,598.4h-16.6
		c0,1.7,0.4,3.2,1.1,4.5c0.7,1.3,1.8,2.4,3.1,3.1c1.3,0.7,2.8,1.1,4.4,1.1c1.3,0,2.5-0.2,3.6-0.7c1.1-0.5,2.1-1.2,2.8-2.2l0.5,0.5
		c-0.8,1-1.8,1.7-3,2.3c-1.2,0.5-2.5,0.8-3.8,0.8c-1.8,0-3.4-0.4-4.8-1.2c-1.4-0.8-2.5-1.9-3.3-3.4c-0.8-1.4-1.2-3.1-1.2-4.9
		c0-1.8,0.4-3.4,1.1-4.8c0.7-1.4,1.8-2.6,3.1-3.3c1.3-0.8,2.8-1.2,4.4-1.2c1.6,0,3.1,0.4,4.4,1.2c1.3,0.8,2.4,1.9,3.1,3.3
		c0.8,1.4,1.2,3,1.2,4.8V598.4z M328.9,589.7c-1.4,0-2.7,0.3-3.9,1s-2.1,1.7-2.8,2.9c-0.7,1.2-1.1,2.6-1.2,4.1h15.9
		c-0.1-1.5-0.5-2.9-1.2-4.1s-1.7-2.2-2.8-2.9S330.3,589.7,328.9,589.7z M344.3,594c0.5-1.6,1.4-2.8,2.7-3.6c1.2-0.9,2.8-1.3,4.6-1.3
		v0.7h-0.2c-2.2,0-4,0.7-5.2,2.2c-1.2,1.4-1.9,3.4-1.9,5.8v10h-0.7v-18.6h0.7V594z M370.6,607.9c-1.5,0-2.9-0.2-4.2-0.7
		s-2.3-1.1-3.1-1.8l0.4-0.6c0.7,0.7,1.7,1.3,2.9,1.8c1.2,0.5,2.5,0.7,4,0.7c2.1,0,3.7-0.4,4.7-1.1c1-0.7,1.5-1.8,1.5-3.1
		c0-0.9-0.3-1.7-0.8-2.2c-0.5-0.6-1.2-0.9-2-1.2c-0.8-0.3-1.8-0.5-3.2-0.8c-1.5-0.3-2.7-0.5-3.6-0.8c-0.9-0.3-1.6-0.8-2.3-1.4
		c-0.6-0.7-0.9-1.6-0.9-2.8c0-1.3,0.6-2.5,1.7-3.4c1.1-0.9,2.8-1.4,4.9-1.4c1.2,0,2.3,0.2,3.4,0.5c1.1,0.3,2,0.8,2.7,1.4l-0.4,0.6
		c-0.7-0.6-1.6-1-2.6-1.3c-1-0.3-2.1-0.5-3.1-0.5c-1.9,0-3.4,0.4-4.4,1.2c-1,0.7-1.4,1.7-1.4,3c0,1,0.3,1.8,0.8,2.3
		c0.6,0.6,1.2,1,2.1,1.2c0.8,0.3,1.9,0.5,3.2,0.8c1.5,0.3,2.6,0.6,3.5,0.9c0.9,0.3,1.6,0.8,2.2,1.4c0.6,0.6,0.9,1.5,0.9,2.6
		c0,1.5-0.6,2.6-1.8,3.5C374.6,607.4,372.9,607.9,370.6,607.9z M398.6,589.1v18.6h-0.7v-4.9c-0.6,1.6-1.5,2.8-2.8,3.7
		s-2.9,1.3-4.7,1.3c-2.4,0-4.3-0.7-5.6-2c-1.3-1.3-2-3.3-2-5.8v-11h0.7v11c0,2.3,0.6,4,1.8,5.3c1.2,1.2,2.9,1.8,5.1,1.8
		c2.3,0,4.2-0.7,5.5-2.2c1.3-1.5,2-3.4,2-5.8v-10.1H398.6z M416,589c1.7,0,3.2,0.4,4.6,1.2c1.4,0.8,2.5,1.9,3.3,3.3
		c0.8,1.4,1.2,3.1,1.2,4.9c0,1.8-0.4,3.4-1.2,4.9c-0.8,1.4-1.9,2.5-3.3,3.3c-1.4,0.8-2.9,1.2-4.6,1.2c-1.9,0-3.6-0.5-5.1-1.5
		c-1.5-1.1-2.5-2.5-3.2-4.2v12.6h-0.7v-25.6h0.7v5.7c0.6-1.8,1.7-3.2,3.2-4.2C412.3,589.6,414,589,416,589z M416,607.2
		c1.6,0,3-0.4,4.2-1.1c1.3-0.7,2.3-1.8,3-3.1c0.7-1.3,1.1-2.9,1.1-4.5c0-1.7-0.4-3.2-1.1-4.5c-0.7-1.3-1.7-2.4-3-3.1
		c-1.3-0.7-2.7-1.1-4.2-1.1s-3,0.4-4.2,1.1c-1.3,0.7-2.3,1.8-3,3.1c-0.7,1.3-1.1,2.8-1.1,4.5c0,1.7,0.4,3.2,1.1,4.5
		c0.7,1.3,1.7,2.4,3,3.1C413,606.8,414.4,607.2,416,607.2z M440.1,589c1.7,0,3.2,0.4,4.6,1.2c1.4,0.8,2.5,1.9,3.3,3.3
		s1.2,3.1,1.2,4.9c0,1.8-0.4,3.4-1.2,4.9c-0.8,1.4-1.9,2.5-3.3,3.3c-1.4,0.8-2.9,1.2-4.6,1.2c-1.9,0-3.6-0.5-5.1-1.5
		c-1.5-1.1-2.5-2.5-3.2-4.2v12.6h-0.7v-25.6h0.7v5.7c0.6-1.8,1.7-3.2,3.2-4.2C436.5,589.6,438.2,589,440.1,589z M440.1,607.2
		c1.6,0,3-0.4,4.2-1.1c1.3-0.7,2.3-1.8,3-3.1c0.7-1.3,1.1-2.9,1.1-4.5c0-1.7-0.4-3.2-1.1-4.5c-0.7-1.3-1.7-2.4-3-3.1
		c-1.3-0.7-2.7-1.1-4.2-1.1s-3,0.4-4.2,1.1c-1.3,0.7-2.3,1.8-3,3.1c-0.7,1.3-1.1,2.8-1.1,4.5c0,1.7,0.4,3.2,1.1,4.5
		c0.7,1.3,1.7,2.4,3,3.1C437.1,606.8,438.6,607.2,440.1,607.2z M455.2,581h0.7v26.7h-0.7V581z M478.2,589.1l-9.9,21.6
		c-0.7,1.5-1.4,2.5-2.3,3.2c-0.8,0.6-1.8,0.9-3,0.9c-1.7,0-3-0.6-4-1.7l0.5-0.6c0.5,0.6,1,0.9,1.6,1.2c0.6,0.2,1.2,0.4,1.9,0.4
		c1,0,1.8-0.3,2.5-0.8c0.7-0.5,1.4-1.5,2-2.8l1.3-2.8l-8.5-18.5h0.8l8.1,17.8l8.1-17.8H478.2z M232,651.8l-6.4-8.9
		c-0.8,0.2-1.8,0.3-3,0.3h-7.8v8.6h-0.7v-25.2h8.5c3.1,0,5.5,0.7,7.3,2.2c1.8,1.4,2.6,3.5,2.6,6.1c0,2-0.5,3.7-1.6,5.1
		c-1.1,1.3-2.6,2.3-4.6,2.8l6.6,9.1H232z M222.7,642.4c2.9,0,5.2-0.7,6.7-2c1.6-1.3,2.4-3.2,2.4-5.6s-0.8-4.3-2.4-5.6
		c-1.6-1.3-3.8-2-6.7-2h-7.9v15.2H222.7z M245,633c2.2,0,3.8,0.6,4.9,1.7c1.2,1.1,1.7,2.7,1.7,4.8v12.2h-0.7v-4
		c-0.6,1.3-1.5,2.3-2.7,3c-1.2,0.7-2.7,1.1-4.4,1.1c-2.1,0-3.7-0.5-4.9-1.4c-1.2-1-1.7-2.2-1.7-3.8c0-1.5,0.5-2.7,1.5-3.6
		c1.1-0.9,2.7-1.4,5.1-1.4h7.1v-2.1c0-1.9-0.5-3.4-1.5-4.4c-1-1-2.4-1.5-4.4-1.5c-1.3,0-2.6,0.2-3.8,0.7c-1.2,0.5-2.1,1.1-3,1.9
		l-0.5-0.5c0.9-0.9,2-1.5,3.2-2C242.2,633.3,243.6,633,245,633z M243.8,651.2c3.5,0,5.8-1.6,7.1-4.8v-4.1h-7.1c-2,0-3.5,0.4-4.5,1.2
		c-0.9,0.8-1.4,1.8-1.4,3.1c0,1.4,0.5,2.5,1.5,3.3C240.5,650.8,242,651.2,243.8,651.2z M264,651.9c-1.5,0-2.9-0.2-4.2-0.7
		c-1.3-0.5-2.3-1.1-3.1-1.8l0.4-0.6c0.7,0.7,1.7,1.3,2.9,1.8c1.2,0.5,2.5,0.7,4,0.7c2.1,0,3.7-0.4,4.7-1.1c1-0.7,1.5-1.8,1.5-3.1
		c0-0.9-0.3-1.7-0.8-2.2c-0.5-0.6-1.2-0.9-2-1.2c-0.8-0.3-1.8-0.5-3.2-0.8c-1.5-0.3-2.7-0.5-3.6-0.8c-0.9-0.3-1.6-0.8-2.3-1.4
		c-0.6-0.7-0.9-1.6-0.9-2.8c0-1.3,0.6-2.5,1.7-3.4c1.1-0.9,2.8-1.4,4.9-1.4c1.2,0,2.3,0.2,3.4,0.5c1.1,0.3,2,0.8,2.7,1.4l-0.4,0.6
		c-0.7-0.6-1.6-1-2.6-1.3s-2.1-0.5-3.1-0.5c-1.9,0-3.4,0.4-4.4,1.2c-1,0.7-1.4,1.7-1.4,3c0,1,0.3,1.8,0.8,2.3c0.6,0.6,1.2,1,2.1,1.2
		c0.8,0.3,1.9,0.5,3.2,0.8c1.5,0.3,2.6,0.6,3.5,0.9c0.9,0.3,1.6,0.8,2.2,1.4c0.6,0.6,0.9,1.5,0.9,2.6c0,1.5-0.6,2.6-1.8,3.5
		C268,651.4,266.2,651.9,264,651.9z M285.4,633c1.7,0,3.2,0.4,4.6,1.2c1.4,0.8,2.5,1.9,3.3,3.3s1.2,3.1,1.2,4.9
		c0,1.8-0.4,3.4-1.2,4.9c-0.8,1.4-1.9,2.5-3.3,3.3c-1.4,0.8-2.9,1.2-4.6,1.2c-1.9,0-3.6-0.5-5.1-1.5c-1.5-1.1-2.5-2.5-3.2-4.2v12.6
		h-0.7v-25.6h0.7v5.7c0.6-1.8,1.7-3.2,3.2-4.2C281.7,633.6,283.5,633,285.4,633z M285.4,651.2c1.6,0,3-0.4,4.2-1.1
		c1.3-0.7,2.3-1.8,3-3.1c0.7-1.3,1.1-2.9,1.1-4.5c0-1.7-0.4-3.2-1.1-4.5c-0.7-1.3-1.7-2.4-3-3.1c-1.3-0.7-2.7-1.1-4.2-1.1
		s-3,0.4-4.2,1.1c-1.3,0.7-2.3,1.8-3,3.1c-0.7,1.3-1.1,2.8-1.1,4.5c0,1.7,0.4,3.2,1.1,4.5c0.7,1.3,1.7,2.4,3,3.1
		C282.4,650.8,283.8,651.2,285.4,651.2z M309.5,633c1.7,0,3.2,0.4,4.6,1.2c1.4,0.8,2.5,1.9,3.3,3.3c0.8,1.4,1.2,3,1.2,4.8
		c0,1.8-0.4,3.4-1.2,4.9c-0.8,1.4-1.9,2.6-3.3,3.4c-1.4,0.8-2.9,1.2-4.6,1.2c-1.9,0-3.7-0.5-5.1-1.5c-1.5-1.1-2.5-2.5-3.2-4.2v5.7
		h-0.7V625h0.7v13.8c0.6-1.8,1.7-3.1,3.2-4.2C305.9,633.6,307.6,633,309.5,633z M309.5,651.2c1.6,0,3-0.4,4.2-1.1
		c1.3-0.7,2.3-1.8,3-3.1c0.7-1.3,1.1-2.9,1.1-4.5c0-1.7-0.4-3.2-1.1-4.5c-0.7-1.3-1.7-2.4-3-3.1c-1.3-0.7-2.7-1.1-4.2-1.1
		s-3,0.4-4.2,1.1c-1.3,0.7-2.3,1.8-3,3.1c-0.7,1.3-1.1,2.8-1.1,4.5c0,1.7,0.4,3.2,1.1,4.5c0.7,1.3,1.7,2.4,3,3.1
		C306.6,650.8,308,651.2,309.5,651.2z M339.7,642.4h-16.6c0,1.7,0.4,3.2,1.1,4.5c0.7,1.3,1.8,2.4,3.1,3.1c1.3,0.7,2.8,1.1,4.4,1.1
		c1.3,0,2.5-0.2,3.6-0.7c1.1-0.5,2.1-1.2,2.8-2.2l0.5,0.5c-0.8,1-1.8,1.7-3,2.3c-1.2,0.5-2.5,0.8-3.8,0.8c-1.8,0-3.4-0.4-4.8-1.2
		c-1.4-0.8-2.5-1.9-3.3-3.4c-0.8-1.4-1.2-3.1-1.2-4.9c0-1.8,0.4-3.4,1.1-4.8c0.7-1.4,1.8-2.6,3.1-3.3c1.3-0.8,2.8-1.2,4.4-1.2
		c1.6,0,3.1,0.4,4.4,1.2s2.4,1.9,3.1,3.3c0.8,1.4,1.2,3,1.2,4.8V642.4z M331.1,633.7c-1.4,0-2.7,0.3-3.9,1s-2.1,1.7-2.8,2.9
		c-0.7,1.2-1.1,2.6-1.2,4.1H339c-0.1-1.5-0.5-2.9-1.2-4.1s-1.7-2.2-2.8-2.9C333.8,634.1,332.5,633.7,331.1,633.7z M346.5,638
		c0.5-1.6,1.4-2.8,2.7-3.6c1.2-0.9,2.8-1.3,4.6-1.3v0.7h-0.2c-2.2,0-4,0.7-5.2,2.2c-1.2,1.4-1.9,3.4-1.9,5.8v10h-0.7v-18.6h0.7V638z
		 M359.9,638c0.5-1.6,1.4-2.8,2.7-3.6c1.2-0.9,2.8-1.3,4.6-1.3v0.7H367c-2.2,0-4,0.7-5.2,2.2c-1.2,1.4-1.9,3.4-1.9,5.8v10h-0.7
		v-18.6h0.7V638z M387.5,633.1l-9.9,21.6c-0.7,1.5-1.4,2.5-2.3,3.2c-0.8,0.6-1.8,0.9-3,0.9c-1.7,0-3-0.6-4-1.7l0.5-0.6
		c0.5,0.6,1,0.9,1.6,1.2c0.6,0.2,1.2,0.4,1.9,0.4c1,0,1.8-0.3,2.5-0.8c0.7-0.5,1.4-1.5,2-2.8l1.3-2.8l-8.5-18.5h0.8l8.1,17.8
		l8.1-17.8H387.5z M410,626.5c3.1,0,5.5,0.7,7.3,2.2c1.8,1.4,2.6,3.5,2.6,6.1c0,2.6-0.9,4.7-2.6,6.1c-1.8,1.4-4.2,2.2-7.3,2.2h-7.8
		v8.6h-0.7v-25.2H410z M410.1,642.4c2.9,0,5.2-0.7,6.7-2c1.6-1.3,2.4-3.2,2.4-5.6s-0.8-4.3-2.4-5.6c-1.6-1.3-3.8-2-6.7-2h-7.9v15.2
		H410.1z M425.3,633.1h0.7v18.6h-0.7V633.1z M425.6,628c-0.3,0-0.5-0.1-0.7-0.3c-0.2-0.2-0.3-0.4-0.3-0.6c0-0.3,0.1-0.5,0.3-0.6
		c0.2-0.2,0.4-0.3,0.7-0.3c0.2,0,0.5,0.1,0.6,0.3c0.2,0.2,0.3,0.4,0.3,0.6c0,0.2-0.1,0.5-0.3,0.6C426.1,627.9,425.9,628,425.6,628z
		 M433.4,650c0.3,0,0.5,0.1,0.6,0.3c0.2,0.2,0.3,0.4,0.3,0.6c0,0.2,0,0.5-0.1,1l-1.2,4.8h-0.6l1-4.9c-0.3,0-0.5-0.1-0.7-0.3
		c-0.2-0.2-0.3-0.4-0.3-0.6c0-0.3,0.1-0.5,0.3-0.6C432.9,650.1,433.2,650,433.4,650z M455.8,633c2.2,0,3.8,0.6,4.9,1.7
		c1.2,1.1,1.7,2.7,1.7,4.8v12.2h-0.7v-4c-0.6,1.3-1.5,2.3-2.7,3c-1.2,0.7-2.7,1.1-4.4,1.1c-2.1,0-3.7-0.5-4.9-1.4
		c-1.2-1-1.7-2.2-1.7-3.8c0-1.5,0.5-2.7,1.5-3.6c1.1-0.9,2.7-1.4,5.1-1.4h7.1v-2.1c0-1.9-0.5-3.4-1.5-4.4c-1-1-2.4-1.5-4.4-1.5
		c-1.3,0-2.6,0.2-3.8,0.7c-1.2,0.5-2.1,1.1-3,1.9l-0.5-0.5c0.9-0.9,2-1.5,3.2-2C453,633.3,454.4,633,455.8,633z M454.6,651.2
		c3.5,0,5.8-1.6,7.1-4.8v-4.1h-7.1c-2,0-3.5,0.4-4.5,1.2c-0.9,0.8-1.4,1.8-1.4,3.1c0,1.4,0.5,2.5,1.5,3.3
		C451.3,650.8,452.8,651.2,454.6,651.2z M479,633c2.3,0,4.2,0.7,5.5,2c1.3,1.3,2,3.2,2,5.7v11h-0.7v-11c0-2.3-0.6-4-1.8-5.2
		c-1.2-1.2-2.8-1.8-4.9-1.8c-2.4,0-4.3,0.7-5.8,2.2c-1.4,1.4-2.1,3.3-2.1,5.7v10.1h-0.7v-18.6h0.7v5c0.6-1.6,1.5-2.8,2.9-3.7
		C475.4,633.5,477.1,633,479,633z M510.4,625v26.7h-0.7v-5.7c-0.6,1.8-1.7,3.2-3.2,4.2c-1.5,1-3.2,1.5-5.1,1.5
		c-1.7,0-3.2-0.4-4.6-1.2c-1.4-0.8-2.4-1.9-3.2-3.4s-1.2-3.1-1.2-4.9c0-1.8,0.4-3.4,1.2-4.8c0.8-1.4,1.9-2.6,3.2-3.3
		c1.4-0.8,2.9-1.2,4.6-1.2c1.9,0,3.6,0.5,5.1,1.6c1.5,1,2.6,2.4,3.2,4.2V625H510.4z M501.4,651.2c1.6,0,3-0.4,4.2-1.1
		c1.3-0.7,2.3-1.8,3-3.1c0.7-1.3,1.1-2.9,1.1-4.5c0-1.7-0.4-3.2-1.1-4.5c-0.7-1.3-1.7-2.4-3-3.1c-1.3-0.7-2.7-1.1-4.2-1.1
		s-3,0.4-4.2,1.1c-1.3,0.7-2.3,1.8-3,3.1c-0.7,1.3-1.1,2.8-1.1,4.5c0,1.7,0.4,3.2,1.1,4.5c0.7,1.3,1.7,2.4,3,3.1
		C498.4,650.8,499.8,651.2,501.4,651.2z M534.5,651.9c-1.8,0-3.5-0.3-5.1-1c-1.6-0.7-2.8-1.5-3.7-2.6l0.5-0.5c0.8,1,2,1.8,3.5,2.4
		c1.5,0.6,3.1,0.9,4.8,0.9c2.6,0,4.6-0.5,5.9-1.5c1.3-1.1,2-2.4,2-4.1c0-1.3-0.3-2.3-1-3.1s-1.6-1.3-2.6-1.7c-1-0.4-2.4-0.8-4.1-1.2
		c-1.8-0.5-3.3-0.9-4.4-1.3c-1.1-0.4-2-1.1-2.8-1.9c-0.7-0.9-1.1-2.1-1.1-3.5c0-1.2,0.3-2.2,0.9-3.2c0.6-1,1.5-1.7,2.8-2.3
		c1.3-0.6,2.8-0.9,4.7-0.9c1.3,0,2.7,0.2,4,0.6c1.3,0.4,2.4,1,3.3,1.7l-0.4,0.6c-1-0.7-2.1-1.3-3.3-1.6c-1.2-0.4-2.4-0.6-3.6-0.6
		c-2.5,0-4.4,0.5-5.8,1.6c-1.3,1.1-2,2.4-2,4.1c0,1.3,0.3,2.3,1,3.1c0.7,0.8,1.6,1.3,2.6,1.7c1,0.4,2.4,0.8,4.2,1.2
		c1.8,0.5,3.3,0.9,4.4,1.3c1.1,0.4,2,1,2.7,1.9c0.7,0.8,1.1,2,1.1,3.4c0,1.2-0.3,2.2-0.9,3.2c-0.6,1-1.6,1.7-2.9,2.3
		C538,651.6,536.4,651.9,534.5,651.9z M550,626.5h9.5c2.6,0,4.9,0.5,6.9,1.6c2,1.1,3.6,2.6,4.7,4.5c1.1,1.9,1.7,4.1,1.7,6.5
		c0,2.4-0.6,4.6-1.7,6.5c-1.1,1.9-2.7,3.4-4.7,4.5c-2,1.1-4.3,1.6-6.9,1.6H550V626.5z M559.4,651.1c2.5,0,4.7-0.5,6.6-1.5
		c1.9-1,3.4-2.4,4.4-4.2c1.1-1.8,1.6-3.9,1.6-6.2c0-2.3-0.5-4.3-1.6-6.1c-1-1.8-2.5-3.2-4.4-4.2c-1.9-1-4.1-1.5-6.6-1.5h-8.7v23.8
		H559.4z M595,651.9c-1.8,0-3.3-0.4-4.7-1.2c-1.4-0.8-2.5-1.9-3.3-3.3c-0.8-1.4-1.2-3.1-1.2-4.9c0-1.8,0.4-3.4,1.2-4.9
		c0.8-1.4,1.9-2.6,3.3-3.3c1.4-0.8,3-1.2,4.7-1.2c1.4,0,2.6,0.3,3.8,0.8c1.2,0.5,2.1,1.2,2.9,2.2l-0.5,0.5c-0.7-1-1.6-1.7-2.7-2.2
		c-1.1-0.5-2.3-0.7-3.5-0.7c-1.6,0-3.1,0.4-4.4,1.1c-1.3,0.7-2.3,1.8-3,3.1c-0.7,1.3-1.1,2.8-1.1,4.5c0,1.7,0.4,3.2,1.1,4.5
		c0.7,1.3,1.7,2.4,3,3.1c1.3,0.7,2.7,1.1,4.4,1.1c1.3,0,2.4-0.2,3.5-0.7c1.1-0.5,2-1.2,2.7-2.2l0.5,0.5c-0.8,1-1.7,1.7-2.9,2.3
		C597.6,651.6,596.4,651.9,595,651.9z M613.6,633c2.2,0,3.8,0.6,4.9,1.7c1.2,1.1,1.7,2.7,1.7,4.8v12.2h-0.7v-4
		c-0.6,1.3-1.5,2.3-2.7,3c-1.2,0.7-2.7,1.1-4.4,1.1c-2.1,0-3.7-0.5-4.9-1.4c-1.2-1-1.7-2.2-1.7-3.8c0-1.5,0.5-2.7,1.5-3.6
		c1.1-0.9,2.7-1.4,5.1-1.4h7.1v-2.1c0-1.9-0.5-3.4-1.5-4.4c-1-1-2.4-1.5-4.4-1.5c-1.3,0-2.6,0.2-3.8,0.7c-1.2,0.5-2.1,1.1-3,1.9
		l-0.5-0.5c0.9-0.9,2-1.5,3.2-2C610.9,633.3,612.2,633,613.6,633z M612.5,651.2c3.5,0,5.8-1.6,7.1-4.8v-4.1h-7.1
		c-2,0-3.5,0.4-4.5,1.2c-0.9,0.8-1.4,1.8-1.4,3.1c0,1.4,0.5,2.5,1.5,3.3C609.2,650.8,610.6,651.2,612.5,651.2z M629.1,638
		c0.5-1.6,1.4-2.8,2.7-3.6c1.2-0.9,2.8-1.3,4.6-1.3v0.7h-0.2c-2.2,0-4,0.7-5.2,2.2c-1.2,1.4-1.9,3.4-1.9,5.8v10h-0.7v-18.6h0.7V638z
		 M657.5,625v26.7h-0.7v-5.7c-0.6,1.8-1.7,3.2-3.2,4.2c-1.5,1-3.2,1.5-5.1,1.5c-1.7,0-3.2-0.4-4.6-1.2c-1.4-0.8-2.4-1.9-3.2-3.4
		s-1.2-3.1-1.2-4.9c0-1.8,0.4-3.4,1.2-4.8c0.8-1.4,1.9-2.6,3.2-3.3c1.4-0.8,2.9-1.2,4.6-1.2c1.9,0,3.6,0.5,5.1,1.6
		c1.5,1,2.6,2.4,3.2,4.2V625H657.5z M648.4,651.2c1.6,0,3-0.4,4.2-1.1c1.3-0.7,2.3-1.8,3-3.1c0.7-1.3,1.1-2.9,1.1-4.5
		c0-1.7-0.4-3.2-1.1-4.5c-0.7-1.3-1.7-2.4-3-3.1c-1.3-0.7-2.7-1.1-4.2-1.1s-3,0.4-4.2,1.1c-1.3,0.7-2.3,1.8-3,3.1
		c-0.7,1.3-1.1,2.8-1.1,4.5c0,1.7,0.4,3.2,1.1,4.5c0.7,1.3,1.7,2.4,3,3.1C645.5,650.8,646.9,651.2,648.4,651.2z"/>
	<path class="st0" d="M829.9,431.9c-2.4,0-4.7-0.4-6.9-1.3c-2.1-0.9-3.8-2-4.9-3.5l0.7-0.6c1.1,1.3,2.6,2.4,4.7,3.2
		c2,0.8,4.2,1.2,6.4,1.2c3.5,0,6.1-0.7,7.9-2.1c1.8-1.4,2.7-3.2,2.7-5.4c0-1.7-0.5-3.1-1.4-4.1c-0.9-1-2.1-1.8-3.5-2.3
		c-1.3-0.5-3.2-1-5.5-1.6c-2.5-0.6-4.4-1.2-5.9-1.7c-1.4-0.6-2.7-1.4-3.7-2.6c-1-1.2-1.5-2.8-1.5-4.7c0-1.5,0.4-2.9,1.2-4.2
		c0.8-1.3,2-2.3,3.7-3.1c1.7-0.8,3.8-1.2,6.3-1.2c1.8,0,3.6,0.3,5.3,0.9c1.7,0.5,3.2,1.3,4.5,2.2l-0.5,0.8c-1.3-1-2.8-1.7-4.4-2.2
		c-1.6-0.5-3.2-0.8-4.8-0.8c-3.4,0-5.9,0.7-7.7,2.2c-1.8,1.4-2.6,3.2-2.6,5.4c0,1.7,0.5,3.1,1.4,4.2c0.9,1,2.1,1.8,3.5,2.3
		s3.2,1.1,5.6,1.6c2.4,0.6,4.4,1.2,5.8,1.8c1.4,0.5,2.7,1.4,3.6,2.5c1,1.1,1.5,2.6,1.5,4.6c0,1.5-0.4,2.9-1.2,4.2
		c-0.8,1.3-2.1,2.3-3.8,3.1C834.6,431.5,832.4,431.9,829.9,431.9z M858.8,431.9c-2.3,0-4.3-0.5-6.2-1.6c-1.8-1.1-3.3-2.6-4.3-4.5
		c-1-1.9-1.5-4.1-1.5-6.5s0.5-4.5,1.5-6.4c1.1-1.9,2.5-3.4,4.3-4.5c1.9-1.1,3.9-1.6,6.2-1.6c2.3,0,4.3,0.5,6.1,1.6
		c1.9,1.1,3.3,2.5,4.3,4.5c1.1,1.9,1.6,4,1.6,6.4s-0.5,4.6-1.6,6.5c-1,1.9-2.5,3.4-4.3,4.5C863.1,431.4,861,431.9,858.8,431.9z
		 M858.8,431c2.1,0,4-0.5,5.7-1.5c1.7-1,3-2.4,4-4.1c1-1.8,1.4-3.8,1.4-6c0-2.2-0.5-4.2-1.4-6c-1-1.8-2.3-3.2-4-4.1
		c-1.7-1-3.6-1.5-5.7-1.5c-2.1,0-4,0.5-5.7,1.5c-1.7,1-3,2.3-4,4.1c-1,1.8-1.4,3.8-1.4,6c0,2.2,0.5,4.3,1.4,6c1,1.8,2.3,3.1,4,4.1
		C854.8,430.5,856.7,431,858.8,431z M885.4,396.9c-1.7,0-2.9,0.5-3.8,1.4c-0.9,0.9-1.3,2.3-1.3,4v4.6h8.4v0.9h-8.4v23.9h-1v-23.9
		h-4.8v-0.9h4.8v-4.8c0-1.9,0.5-3.3,1.6-4.4c1.1-1.1,2.5-1.7,4.4-1.7c0.9,0,1.8,0.2,2.7,0.5c0.9,0.3,1.6,0.7,2.2,1.3l-0.7,0.7
		C888.4,397.4,887,396.9,885.4,396.9z M905.1,430.1c-0.5,0.6-1.3,1-2.2,1.3c-0.9,0.3-1.8,0.4-2.7,0.4c-1.9,0-3.4-0.5-4.5-1.6
		c-1-1.1-1.5-2.6-1.5-4.5v-18h-4.8v-0.9h4.8v-5.4h1v5.4h8.4v0.9h-8.4v17.7c0,1.8,0.4,3.1,1.3,4c0.9,0.9,2.1,1.4,3.8,1.4
		s3-0.5,4.1-1.5L905.1,430.1z M946.1,406.9l-9.6,24.8h-0.9l-9.1-23.5l-9.2,23.5h-0.8l-9.6-24.8h1l9,23.7l9.1-23.7h0.9l9.1,23.7
		l9-23.7H946.1z M959.4,406.8c2.9,0,5.1,0.8,6.6,2.3c1.5,1.5,2.3,3.6,2.3,6.4v16.3h-1v-5.3c-0.8,1.7-2,3-3.6,4
		c-1.6,1-3.5,1.4-5.8,1.4c-2.8,0-4.9-0.6-6.5-1.9c-1.5-1.3-2.3-3-2.3-5.1c0-2,0.7-3.6,2.1-4.8c1.4-1.2,3.7-1.9,6.8-1.9h9.4v-2.7
		c0-2.6-0.7-4.5-2-5.9c-1.3-1.3-3.3-2-5.9-2c-1.8,0-3.5,0.3-5,1c-1.5,0.6-2.9,1.4-4,2.5l-0.7-0.7c1.2-1.2,2.6-2,4.3-2.7
		C955.8,407.1,957.6,406.8,959.4,406.8z M957.9,431c4.6,0,7.8-2.1,9.5-6.3v-5.5h-9.5c-2.7,0-4.7,0.5-6,1.5c-1.2,1-1.9,2.4-1.9,4.2
		c0,1.9,0.7,3.4,2.1,4.5C953.5,430.4,955.4,431,957.9,431z M980,413.4c0.7-2.1,1.9-3.7,3.6-4.8c1.7-1.2,3.7-1.7,6.2-1.7v1h-0.3
		c-3,0-5.3,1-7,2.9c-1.7,1.9-2.5,4.5-2.5,7.8v13.3h-1v-24.8h1V413.4z M1016.8,419.3h-22.1c0,2.2,0.5,4.3,1.5,6
		c1,1.8,2.4,3.1,4.1,4.1c1.8,1,3.7,1.5,5.9,1.5c1.7,0,3.3-0.3,4.8-1c1.5-0.7,2.7-1.6,3.7-2.9l0.7,0.7c-1.1,1.3-2.4,2.3-4,3
		c-1.6,0.7-3.3,1.1-5.1,1.1c-2.4,0-4.5-0.5-6.4-1.6c-1.9-1.1-3.3-2.6-4.4-4.5c-1.1-1.9-1.6-4.1-1.6-6.5s0.5-4.5,1.5-6.4
		c1-1.9,2.4-3.4,4.1-4.5c1.8-1.1,3.7-1.6,5.9-1.6c2.1,0,4.1,0.5,5.9,1.6s3.1,2.5,4.1,4.4c1,1.9,1.5,4,1.5,6.3V419.3z M1005.3,407.7
		c-1.9,0-3.7,0.5-5.2,1.4c-1.6,0.9-2.8,2.2-3.8,3.8c-0.9,1.6-1.4,3.5-1.5,5.5h21.2c-0.1-2-0.6-3.8-1.6-5.5c-1-1.6-2.2-2.9-3.8-3.8
		S1007.2,407.7,1005.3,407.7z M838,475.8l-6.4-8.9c-0.8,0.2-1.8,0.3-3,0.3h-7.8v8.6h-0.7v-25.2h8.5c3.1,0,5.5,0.7,7.3,2.2
		c1.8,1.4,2.6,3.5,2.6,6.1c0,2-0.5,3.7-1.6,5.1c-1.1,1.3-2.6,2.3-4.6,2.8l6.6,9.1H838z M828.7,466.4c2.9,0,5.2-0.7,6.7-2
		c1.6-1.3,2.4-3.2,2.4-5.6c0-2.4-0.8-4.3-2.4-5.6c-1.6-1.3-3.8-2-6.7-2h-7.9v15.2H828.7z M851,457c2.2,0,3.8,0.6,4.9,1.7
		c1.2,1.1,1.7,2.7,1.7,4.8v12.2h-0.7v-4c-0.6,1.3-1.5,2.3-2.7,3c-1.2,0.7-2.7,1.1-4.4,1.1c-2.1,0-3.7-0.5-4.9-1.4
		c-1.2-1-1.7-2.2-1.7-3.8c0-1.5,0.5-2.7,1.5-3.6c1.1-0.9,2.7-1.4,5.1-1.4h7.1v-2.1c0-1.9-0.5-3.4-1.5-4.4c-1-1-2.4-1.5-4.4-1.5
		c-1.3,0-2.6,0.2-3.8,0.7c-1.2,0.5-2.1,1.1-3,1.9l-0.5-0.5c0.9-0.9,2-1.5,3.2-2C848.2,457.3,849.6,457,851,457z M849.8,475.2
		c3.5,0,5.8-1.6,7.1-4.8v-4.1h-7.1c-2,0-3.5,0.4-4.5,1.2c-0.9,0.8-1.4,1.8-1.4,3.1c0,1.4,0.5,2.5,1.5,3.3
		C846.5,474.8,848,475.2,849.8,475.2z M870,475.9c-1.5,0-2.9-0.2-4.2-0.7c-1.3-0.5-2.3-1.1-3.1-1.8l0.4-0.6c0.7,0.7,1.7,1.3,2.9,1.8
		c1.2,0.5,2.5,0.7,4,0.7c2.1,0,3.7-0.4,4.7-1.1c1-0.7,1.5-1.8,1.5-3.1c0-0.9-0.3-1.7-0.8-2.2c-0.5-0.6-1.2-0.9-2-1.2
		c-0.8-0.3-1.8-0.5-3.2-0.8c-1.5-0.3-2.7-0.5-3.6-0.8c-0.9-0.3-1.6-0.8-2.3-1.4c-0.6-0.7-0.9-1.6-0.9-2.8c0-1.3,0.6-2.5,1.7-3.4
		c1.1-0.9,2.8-1.4,4.9-1.4c1.2,0,2.3,0.2,3.4,0.5c1.1,0.3,2,0.8,2.7,1.4l-0.4,0.6c-0.7-0.6-1.6-1-2.6-1.3c-1-0.3-2.1-0.5-3.1-0.5
		c-1.9,0-3.4,0.4-4.4,1.2c-1,0.7-1.4,1.7-1.4,3c0,1,0.3,1.8,0.8,2.3c0.6,0.6,1.2,1,2.1,1.2c0.8,0.3,1.9,0.5,3.2,0.8
		c1.5,0.3,2.6,0.6,3.5,0.9c0.9,0.3,1.6,0.8,2.2,1.4c0.6,0.6,0.9,1.5,0.9,2.6c0,1.5-0.6,2.6-1.8,3.5C874,475.4,872.2,475.9,870,475.9
		z M891.4,457c1.7,0,3.2,0.4,4.6,1.2c1.4,0.8,2.5,1.9,3.3,3.3s1.2,3.1,1.2,4.9c0,1.8-0.4,3.4-1.2,4.9c-0.8,1.4-1.9,2.5-3.3,3.3
		c-1.4,0.8-2.9,1.2-4.6,1.2c-1.9,0-3.6-0.5-5.1-1.5c-1.5-1.1-2.5-2.5-3.2-4.2v12.6h-0.7v-25.6h0.7v5.7c0.6-1.8,1.7-3.2,3.2-4.2
		C887.7,457.6,889.5,457,891.4,457z M891.4,475.2c1.6,0,3-0.4,4.2-1.1c1.3-0.7,2.3-1.8,3-3.1c0.7-1.3,1.1-2.9,1.1-4.5
		s-0.4-3.2-1.1-4.5c-0.7-1.3-1.7-2.4-3-3.1c-1.3-0.7-2.7-1.1-4.2-1.1s-3,0.4-4.2,1.1c-1.3,0.7-2.3,1.8-3,3.1
		c-0.7,1.3-1.1,2.8-1.1,4.5s0.4,3.2,1.1,4.5c0.7,1.3,1.7,2.4,3,3.1C888.4,474.8,889.8,475.2,891.4,475.2z M915.5,457
		c1.7,0,3.2,0.4,4.6,1.2c1.4,0.8,2.5,1.9,3.3,3.3c0.8,1.4,1.2,3,1.2,4.8c0,1.8-0.4,3.4-1.2,4.9s-1.9,2.6-3.3,3.4
		c-1.4,0.8-2.9,1.2-4.6,1.2c-1.9,0-3.7-0.5-5.1-1.5c-1.5-1.1-2.5-2.5-3.2-4.2v5.7h-0.7V449h0.7v13.8c0.6-1.8,1.7-3.1,3.2-4.2
		C911.9,457.6,913.6,457,915.5,457z M915.5,475.2c1.6,0,3-0.4,4.2-1.1c1.3-0.7,2.3-1.8,3-3.1c0.7-1.3,1.1-2.9,1.1-4.5
		s-0.4-3.2-1.1-4.5c-0.7-1.3-1.7-2.4-3-3.1c-1.3-0.7-2.7-1.1-4.2-1.1s-3,0.4-4.2,1.1c-1.3,0.7-2.3,1.8-3,3.1
		c-0.7,1.3-1.1,2.8-1.1,4.5s0.4,3.2,1.1,4.5c0.7,1.3,1.7,2.4,3,3.1C912.6,474.8,914,475.2,915.5,475.2z M930.7,457.1h0.7v18.6h-0.7
		V457.1z M931,452c-0.3,0-0.5-0.1-0.7-0.3c-0.2-0.2-0.3-0.4-0.3-0.6c0-0.3,0.1-0.5,0.3-0.6c0.2-0.2,0.4-0.3,0.7-0.3
		c0.2,0,0.5,0.1,0.6,0.3c0.2,0.2,0.3,0.4,0.3,0.6c0,0.2-0.1,0.5-0.3,0.6C931.5,451.9,931.3,452,931,452z M945.6,457
		c2.2,0,3.8,0.6,4.9,1.7c1.2,1.1,1.7,2.7,1.7,4.8v12.2h-0.7v-4c-0.6,1.3-1.5,2.3-2.7,3c-1.2,0.7-2.7,1.1-4.4,1.1
		c-2.1,0-3.7-0.5-4.9-1.4c-1.2-1-1.7-2.2-1.7-3.8c0-1.5,0.5-2.7,1.5-3.6c1.1-0.9,2.7-1.4,5.1-1.4h7.1v-2.1c0-1.9-0.5-3.4-1.5-4.4
		c-1-1-2.4-1.5-4.4-1.5c-1.3,0-2.6,0.2-3.8,0.7c-1.2,0.5-2.1,1.1-3,1.9l-0.5-0.5c0.9-0.9,2-1.5,3.2-2
		C942.9,457.3,944.2,457,945.6,457z M944.5,475.2c3.5,0,5.8-1.6,7.1-4.8v-4.1h-7.1c-2,0-3.5,0.4-4.5,1.2c-0.9,0.8-1.4,1.8-1.4,3.1
		c0,1.4,0.5,2.5,1.5,3.3C941.2,474.8,942.6,475.2,944.5,475.2z M968.9,457c2.3,0,4.2,0.7,5.5,2c1.3,1.3,2,3.2,2,5.7v11h-0.7v-11
		c0-2.3-0.6-4-1.8-5.2c-1.2-1.2-2.8-1.8-4.9-1.8c-2.4,0-4.3,0.7-5.8,2.2c-1.4,1.4-2.1,3.3-2.1,5.7v10.1h-0.7v-18.6h0.7v5
		c0.6-1.6,1.5-2.8,2.9-3.7C965.3,457.5,966.9,457,968.9,457z M983.5,474c0.3,0,0.5,0.1,0.6,0.3c0.2,0.2,0.3,0.4,0.3,0.6
		c0,0.2,0,0.5-0.1,1l-1.2,4.8h-0.6l1-4.9c-0.3,0-0.5-0.1-0.7-0.3c-0.2-0.2-0.3-0.4-0.3-0.6c0-0.3,0.1-0.5,0.3-0.6
		C983,474.1,983.3,474,983.5,474z M999.9,457.1h0.7v18.6h-0.7V457.1z M1000.3,452c-0.3,0-0.5-0.1-0.7-0.3c-0.2-0.2-0.3-0.4-0.3-0.6
		c0-0.3,0.1-0.5,0.3-0.6c0.2-0.2,0.4-0.3,0.7-0.3c0.2,0,0.5,0.1,0.6,0.3c0.2,0.2,0.3,0.4,0.3,0.6c0,0.2-0.1,0.5-0.3,0.6
		C1000.7,451.9,1000.5,452,1000.3,452z M1017.5,457c2.3,0,4.2,0.7,5.5,2c1.3,1.3,2,3.2,2,5.7v11h-0.7v-11c0-2.3-0.6-4-1.8-5.2
		c-1.2-1.2-2.8-1.8-4.9-1.8c-2.4,0-4.3,0.7-5.8,2.2c-1.4,1.4-2.1,3.3-2.1,5.7v10.1h-0.7v-18.6h0.7v5c0.6-1.6,1.5-2.8,2.9-3.7
		C1013.9,457.5,1015.5,457,1017.5,457z M1037.3,475.9c-1.5,0-2.9-0.2-4.2-0.7s-2.3-1.1-3.1-1.8l0.4-0.6c0.7,0.7,1.7,1.3,2.9,1.8
		c1.2,0.5,2.5,0.7,4,0.7c2.1,0,3.7-0.4,4.7-1.1c1-0.7,1.5-1.8,1.5-3.1c0-0.9-0.3-1.7-0.8-2.2c-0.5-0.6-1.2-0.9-2-1.2
		c-0.8-0.3-1.8-0.5-3.2-0.8c-1.5-0.3-2.7-0.5-3.6-0.8c-0.9-0.3-1.6-0.8-2.3-1.4c-0.6-0.7-0.9-1.6-0.9-2.8c0-1.3,0.6-2.5,1.7-3.4
		c1.1-0.9,2.8-1.4,4.9-1.4c1.2,0,2.3,0.2,3.4,0.5c1.1,0.3,2,0.8,2.7,1.4l-0.4,0.6c-0.7-0.6-1.6-1-2.6-1.3c-1-0.3-2.1-0.5-3.1-0.5
		c-1.9,0-3.4,0.4-4.4,1.2c-1,0.7-1.4,1.7-1.4,3c0,1,0.3,1.8,0.8,2.3c0.6,0.6,1.2,1,2.1,1.2c0.8,0.3,1.9,0.5,3.2,0.8
		c1.5,0.3,2.6,0.6,3.5,0.9c0.9,0.3,1.6,0.8,2.2,1.4c0.6,0.6,0.9,1.5,0.9,2.6c0,1.5-0.6,2.6-1.8,3.5
		C1041.2,475.4,1039.5,475.9,1037.3,475.9z M1058.1,474.5c-0.4,0.4-0.9,0.8-1.6,1c-0.6,0.2-1.3,0.3-2,0.3c-1.4,0-2.6-0.4-3.3-1.2
		c-0.8-0.8-1.2-2-1.2-3.3v-13.5h-3.6v-0.7h3.6v-4.1h0.7v4.1h6.3v0.7h-6.3v13.3c0,1.3,0.3,2.3,1,3c0.6,0.7,1.6,1,2.8,1
		c1.2,0,2.3-0.4,3.1-1.2L1058.1,474.5z M1069.5,457c2.2,0,3.8,0.6,4.9,1.7c1.2,1.1,1.7,2.7,1.7,4.8v12.2h-0.7v-4
		c-0.6,1.3-1.5,2.3-2.7,3c-1.2,0.7-2.7,1.1-4.4,1.1c-2.1,0-3.7-0.5-4.9-1.4c-1.2-1-1.7-2.2-1.7-3.8c0-1.5,0.5-2.7,1.5-3.6
		c1.1-0.9,2.7-1.4,5.1-1.4h7.1v-2.1c0-1.9-0.5-3.4-1.5-4.4c-1-1-2.4-1.5-4.4-1.5c-1.3,0-2.6,0.2-3.8,0.7c-1.2,0.5-2.1,1.1-3,1.9
		l-0.5-0.5c0.9-0.9,2-1.5,3.2-2C1066.8,457.3,1068.1,457,1069.5,457z M1068.4,475.2c3.5,0,5.8-1.6,7.1-4.8v-4.1h-7.1
		c-2,0-3.5,0.4-4.5,1.2c-0.9,0.8-1.4,1.8-1.4,3.1c0,1.4,0.5,2.5,1.5,3.3C1065.1,474.8,1066.5,475.2,1068.4,475.2z M1084.3,449h0.7
		v26.7h-0.7V449z M1093.3,449h0.7v26.7h-0.7V449z M1117.3,466.4h-16.6c0,1.7,0.4,3.2,1.1,4.5c0.7,1.3,1.8,2.4,3.1,3.1
		c1.3,0.7,2.8,1.1,4.4,1.1c1.3,0,2.5-0.2,3.6-0.7c1.1-0.5,2.1-1.2,2.8-2.2l0.5,0.5c-0.8,1-1.8,1.7-3,2.3c-1.2,0.5-2.5,0.8-3.8,0.8
		c-1.8,0-3.4-0.4-4.8-1.2c-1.4-0.8-2.5-1.9-3.3-3.4c-0.8-1.4-1.2-3.1-1.2-4.9c0-1.8,0.4-3.4,1.1-4.8c0.8-1.4,1.8-2.6,3.1-3.3
		c1.3-0.8,2.8-1.2,4.4-1.2c1.6,0,3.1,0.4,4.4,1.2c1.3,0.8,2.3,1.9,3.1,3.3c0.8,1.4,1.2,3,1.2,4.8V466.4z M1108.7,457.7
		c-1.4,0-2.8,0.3-3.9,1c-1.2,0.7-2.1,1.7-2.8,2.9c-0.7,1.2-1.1,2.6-1.2,4.1h15.9c-0.1-1.5-0.5-2.9-1.2-4.1s-1.7-2.2-2.9-2.9
		C1111.4,458.1,1110.1,457.7,1108.7,457.7z M1139.3,449v26.7h-0.7v-5.7c-0.6,1.8-1.7,3.2-3.2,4.2c-1.5,1-3.2,1.5-5.2,1.5
		c-1.7,0-3.2-0.4-4.6-1.2c-1.4-0.8-2.4-1.9-3.2-3.4c-0.8-1.4-1.2-3.1-1.2-4.9c0-1.8,0.4-3.4,1.2-4.8c0.8-1.4,1.9-2.6,3.2-3.3
		c1.4-0.8,2.9-1.2,4.6-1.2c1.9,0,3.6,0.5,5.1,1.6c1.5,1,2.6,2.4,3.2,4.2V449H1139.3z M1130.2,475.2c1.6,0,3-0.4,4.3-1.1
		c1.3-0.7,2.3-1.8,3-3.1c0.7-1.3,1.1-2.9,1.1-4.5s-0.4-3.2-1.1-4.5c-0.7-1.3-1.7-2.4-3-3.1c-1.3-0.7-2.7-1.1-4.3-1.1
		c-1.6,0-3,0.4-4.3,1.1c-1.3,0.7-2.3,1.8-3,3.1c-0.7,1.3-1.1,2.8-1.1,4.5s0.4,3.2,1.1,4.5c0.7,1.3,1.7,2.4,3,3.1
		C1127.3,474.8,1128.7,475.2,1130.2,475.2z M1170.5,457.1l-8.6,18.6h-0.7l-8.6-18.6h0.8l8.1,17.8l8.1-17.8H1170.5z M1174.8,457.1
		h0.7v18.6h-0.7V457.1z M1175.2,452c-0.3,0-0.5-0.1-0.7-0.3c-0.2-0.2-0.3-0.4-0.3-0.6c0-0.3,0.1-0.5,0.3-0.6
		c0.2-0.2,0.4-0.3,0.7-0.3c0.2,0,0.5,0.1,0.7,0.3c0.2,0.2,0.3,0.4,0.3,0.6c0,0.2-0.1,0.5-0.3,0.6
		C1175.6,451.9,1175.4,452,1175.2,452z M1189.8,457c2.2,0,3.8,0.6,4.9,1.7c1.2,1.1,1.7,2.7,1.7,4.8v12.2h-0.7v-4
		c-0.6,1.3-1.5,2.3-2.7,3c-1.2,0.7-2.7,1.1-4.4,1.1c-2.1,0-3.7-0.5-4.9-1.4c-1.1-1-1.7-2.2-1.7-3.8c0-1.5,0.5-2.7,1.6-3.6
		c1.1-0.9,2.8-1.4,5.1-1.4h7.1v-2.1c0-1.9-0.5-3.4-1.5-4.4c-1-1-2.5-1.5-4.4-1.5c-1.3,0-2.6,0.2-3.8,0.7c-1.2,0.5-2.2,1.1-3,1.9
		l-0.5-0.5c0.9-0.9,2-1.5,3.2-2C1187,457.3,1188.4,457,1189.8,457z M1188.6,475.2c3.5,0,5.8-1.6,7.1-4.8v-4.1h-7.1
		c-2,0-3.5,0.4-4.5,1.2c-0.9,0.8-1.4,1.8-1.4,3.1c0,1.4,0.5,2.5,1.6,3.3C1185.3,474.8,1186.8,475.2,1188.6,475.2z M1233.9,450.5
		v25.2h-0.6l-18.5-23.9v23.9h-0.7v-25.2h0.6l18.5,23.9v-23.9H1233.9z M1253.8,475.9c-2.4,0-4.6-0.6-6.6-1.7c-2-1.1-3.5-2.6-4.7-4.5
		c-1.1-1.9-1.7-4.1-1.7-6.5s0.6-4.6,1.7-6.5c1.1-1.9,2.7-3.5,4.7-4.6c2-1.1,4.2-1.7,6.6-1.7c2.4,0,4.6,0.6,6.6,1.7
		c2,1.1,3.5,2.6,4.7,4.6c1.1,1.9,1.7,4.1,1.7,6.5s-0.6,4.6-1.7,6.5c-1.1,1.9-2.7,3.4-4.7,4.5
		C1258.4,475.3,1256.2,475.9,1253.8,475.9z M1253.8,475.2c2.3,0,4.3-0.5,6.2-1.5c1.9-1.1,3.3-2.5,4.4-4.3c1.1-1.8,1.6-3.9,1.6-6.2
		c0-2.3-0.5-4.3-1.6-6.1c-1.1-1.8-2.5-3.3-4.4-4.3c-1.8-1.1-3.9-1.6-6.2-1.6s-4.4,0.5-6.2,1.6c-1.8,1-3.3,2.5-4.4,4.3
		c-1.1,1.8-1.6,3.9-1.6,6.1c0,2.3,0.5,4.3,1.6,6.2c1.1,1.8,2.5,3.3,4.4,4.3C1249.4,474.7,1251.5,475.2,1253.8,475.2z M1283.9,475.9
		c-2.4,0-4.6-0.6-6.6-1.7s-3.5-2.6-4.6-4.5c-1.1-1.9-1.7-4.1-1.7-6.5s0.6-4.6,1.7-6.5c1.1-1.9,2.7-3.5,4.6-4.6s4.2-1.7,6.6-1.7
		c2.4,0,4.6,0.6,6.6,1.7c2,1.1,3.5,2.6,4.6,4.6c1.1,1.9,1.7,4.1,1.7,6.5s-0.6,4.6-1.7,6.5c-1.1,1.9-2.7,3.4-4.6,4.5
		C1288.5,475.3,1286.3,475.9,1283.9,475.9z M1283.9,475.2c2.3,0,4.3-0.5,6.2-1.5c1.9-1.1,3.3-2.5,4.4-4.3c1.1-1.8,1.6-3.9,1.6-6.2
		c0-2.3-0.5-4.3-1.6-6.1c-1.1-1.8-2.5-3.3-4.4-4.3c-1.9-1.1-3.9-1.6-6.2-1.6s-4.4,0.5-6.2,1.6c-1.8,1-3.3,2.5-4.4,4.3
		c-1.1,1.8-1.6,3.9-1.6,6.1c0,2.3,0.5,4.3,1.6,6.2c1.1,1.8,2.5,3.3,4.4,4.3C1279.5,474.7,1281.6,475.2,1283.9,475.2z M1317.2,462.8
		c4.2,0.6,6.3,2.7,6.3,6.3c0,2.1-0.8,3.8-2.3,4.9c-1.5,1.1-3.8,1.7-6.8,1.7h-10.7v-25.2h10c2.6,0,4.7,0.6,6.2,1.7
		c1.5,1.1,2.3,2.7,2.3,4.7c0,1.6-0.4,2.9-1.3,3.9C1320,461.8,1318.8,462.5,1317.2,462.8z M1304.4,451.2v11.4h9.4
		c2.4,0,4.3-0.5,5.6-1.4c1.3-1,2-2.4,2-4.2s-0.7-3.3-2-4.2c-1.3-1-3.2-1.5-5.6-1.5H1304.4z M1314.6,475.1c5.5,0,8.2-2,8.2-5.9
		c0-2-0.7-3.5-2.1-4.4c-1.4-1-3.4-1.4-6.2-1.4h-10.1v11.8H1314.6z M1336.8,475.9c-1.8,0-3.5-0.3-5.2-1c-1.6-0.7-2.8-1.5-3.7-2.6
		l0.5-0.5c0.8,1,2,1.8,3.5,2.4c1.5,0.6,3.1,0.9,4.8,0.9c2.6,0,4.6-0.5,5.9-1.5c1.3-1.1,2-2.4,2-4.1c0-1.3-0.3-2.3-1-3.1
		c-0.7-0.8-1.6-1.3-2.6-1.7c-1-0.4-2.4-0.8-4.1-1.2c-1.8-0.5-3.3-0.9-4.4-1.3c-1.1-0.4-2-1.1-2.8-1.9c-0.8-0.9-1.1-2.1-1.1-3.5
		c0-1.2,0.3-2.2,0.9-3.2c0.6-1,1.5-1.7,2.8-2.3s2.8-0.9,4.7-0.9c1.3,0,2.7,0.2,4,0.6c1.3,0.4,2.4,1,3.3,1.7l-0.4,0.6
		c-1-0.7-2.1-1.3-3.3-1.6c-1.2-0.4-2.4-0.6-3.6-0.6c-2.5,0-4.4,0.5-5.8,1.6c-1.3,1.1-2,2.4-2,4.1c0,1.3,0.3,2.3,1.1,3.1
		c0.7,0.8,1.6,1.3,2.6,1.7s2.4,0.8,4.2,1.2c1.8,0.5,3.3,0.9,4.4,1.3c1.1,0.4,2,1,2.7,1.9c0.7,0.8,1.1,2,1.1,3.4
		c0,1.2-0.3,2.2-0.9,3.2c-0.6,1-1.6,1.7-2.9,2.3C1340.3,475.6,1338.7,475.9,1336.8,475.9z"/>
	<line class="st1" x1="770.8" y1="397.8" x2="770.8" y2="678.8"/>
</g>
</svg>
