<?xml version="1.0" encoding="utf-8"?>
<!-- Generator: Adobe Illustrator 25.2.1, SVG Export Plug-In . SVG Version: 6.00 Build 0)  -->
<svg version="1.1" id="Layer_1" xmlns="http://www.w3.org/2000/svg" xmlns:xlink="http://www.w3.org/1999/xlink" x="0px" y="0px"
	 viewBox="0 0 1436.1 683.1" style="enable-background:new 0 0 1436.1 683.1;" xml:space="preserve">
<style type="text/css">
	.st0{fill:#FFFFFF;}
</style>
<path class="st0" d="M62.3,79.5c12.4,0,22.1,2.9,29.1,8.8c7,5.8,10.5,13.9,10.5,24.3s-3.5,18.6-10.5,24.5c-7,5.8-16.7,8.6-29.1,8.6
	H31.1v34.6h-2.9V79.5H62.3z M62.6,143c11.7,0,20.7-2.6,26.9-7.9c6.3-5.3,9.5-12.8,9.5-22.5s-3.2-17.2-9.5-22.5
	c-6.2-5.3-15.2-7.9-26.9-7.9H31.1V143H62.6z M127.8,73.5h2.9v106.8h-2.9V73.5z M187.6,105.4c8.6,0,15.2,2.3,19.7,6.8
	c4.6,4.4,6.9,10.8,6.9,19.3v48.8h-2.9v-15.8c-2.4,5.1-6,9.1-10.9,12c-4.8,2.9-10.6,4.3-17.4,4.3c-8.3,0-14.7-1.9-19.4-5.6
	c-4.6-3.8-6.9-8.9-6.9-15.3c0-6,2.1-10.8,6.2-14.4c4.2-3.7,11-5.6,20.3-5.6h28.2v-8.2c0-7.8-2-13.6-6-17.6
	c-3.9-3.9-9.8-5.9-17.6-5.9c-5.4,0-10.4,1-15.1,2.9c-4.6,1.8-8.6,4.3-12,7.5l-2-2c3.6-3.5,7.9-6.1,13-8.1
	C176.7,106.4,182,105.4,187.6,105.4z M183,178c13.8,0,23.3-6.3,28.4-19v-16.4H183c-8.1,0-14,1.5-17.9,4.6c-3.7,3.1-5.6,7.2-5.6,12.5
	c0,5.7,2.1,10.1,6.2,13.4C169.8,176.4,175.6,178,183,178z M280.2,175.4c-1.6,1.7-3.8,3.1-6.5,4c-2.6,0.9-5.3,1.3-8.1,1.3
	c-5.8,0-10.2-1.6-13.4-4.9c-3.1-3.4-4.6-7.8-4.6-13.4v-53.9h-14.4v-2.7h14.4V89.6h2.9v16.3h25.2v2.7h-25.2v53.1
	c0,5.3,1.3,9.3,3.9,12.1c2.6,2.8,6.4,4.2,11.4,4.2c5,0,9.1-1.5,12.4-4.6L280.2,175.4z M321.6,75.8c-5,0-8.8,1.4-11.4,4.2
	c-2.6,2.8-3.9,6.8-3.9,12.1v13.8h25.2v2.7h-25.2v71.7h-2.9v-71.7h-14.4v-2.7h14.4V91.3c0-5.6,1.6-10,4.8-13.2c3.2-3.4,7.6-5,13.2-5
	c2.8,0,5.5,0.5,8.1,1.4c2.7,0.9,4.8,2.2,6.5,3.9l-2,2C330.8,77.3,326.6,75.8,321.6,75.8z M373,180.7c-6.8,0-13-1.6-18.6-4.8
	c-5.5-3.3-9.8-7.8-13-13.5c-3.1-5.8-4.6-12.2-4.6-19.4s1.5-13.6,4.6-19.3c3.2-5.8,7.5-10.2,13-13.4c5.6-3.3,11.8-4.9,18.6-4.9
	s13,1.6,18.4,4.9c5.6,3.2,9.9,7.6,13,13.4c3.2,5.7,4.8,12.1,4.8,19.3s-1.6,13.7-4.8,19.4c-3.1,5.8-7.4,10.3-13,13.5
	C386,179.2,379.8,180.7,373,180.7z M373,178c6.2,0,11.9-1.5,17-4.5c5.1-3,9.1-7.1,12-12.4c2.9-5.4,4.3-11.4,4.3-18.1
	s-1.4-12.7-4.3-18c-2.9-5.4-6.9-9.5-12-12.4c-5.1-3-10.8-4.5-17-4.5s-11.9,1.5-17,4.5c-5.1,2.9-9.1,7-12,12.4
	c-2.9,5.3-4.3,11.3-4.3,18s1.4,12.8,4.3,18.1c2.9,5.3,6.9,9.4,12,12.4C361.1,176.5,366.8,178,373,178z M436.4,125.2
	c2.1-6.3,5.7-11.2,10.7-14.5c5-3.5,11.2-5.2,18.6-5.2v2.9h-0.9c-8.9,0-15.9,2.9-20.9,8.6c-5,5.7-7.5,13.4-7.5,23.3v40h-2.9v-74.4
	h2.9V125.2z M579.9,105.4c9,0,16.1,2.7,21.2,8.1c5.2,5.3,7.8,12.9,7.8,22.9v43.9h-2.9v-43.9c0-9.1-2.3-16.1-6.8-20.9
	c-4.5-4.9-10.9-7.3-19.2-7.3c-9.4,0-16.8,2.9-22.3,8.8c-5.5,5.8-8.2,13.4-8.2,22.9v40.5h-2.9v-43.9c0-9.1-2.3-16.1-6.8-20.9
	c-4.5-4.9-10.9-7.3-19.2-7.3c-9.4,0-16.8,2.9-22.3,8.8c-5.5,5.8-8.2,13.4-8.2,22.9v40.5h-2.9v-74.4h2.9v19.7
	c2.2-6.3,6-11.3,11.2-14.8c5.3-3.6,11.7-5.3,19.2-5.3c7.6,0,13.8,1.9,18.7,5.8c4.9,3.7,8.1,9.2,9.5,16.4c1.9-6.8,5.6-12.2,10.9-16.1
	C565.2,107.4,571.9,105.4,579.9,105.4z M637.6,173.2c1.1,0,1.9,0.4,2.6,1.2c0.8,0.8,1.2,1.6,1.2,2.6c0,0.7-0.2,2.1-0.6,4.2
	l-4.8,19.3h-2.6l4.2-19.7c-1.1-0.1-2-0.5-2.7-1.2c-0.7-0.8-1-1.6-1-2.6c0-1.1,0.3-1.9,1-2.6C635.7,173.6,636.6,173.2,637.6,173.2z
	 M143.7,231.9v32.3h37.1v1.8h-37.1v31.3h-1.9v-67.2h43.3v1.8H143.7z M216.8,297.6c-4.5,0-8.7-1.1-12.4-3.2c-3.6-2.2-6.5-5.2-8.6-9
	c-2-3.8-3.1-8.2-3.1-13c0-4.8,1-9.1,3.1-12.9c2.1-3.8,5-6.8,8.6-8.9c3.7-2.2,7.8-3.3,12.4-3.3s8.6,1.1,12.3,3.3
	c3.7,2.1,6.6,5.1,8.6,8.9c2.1,3.8,3.2,8.1,3.2,12.9c0,4.8-1.1,9.1-3.2,13c-2,3.8-4.9,6.8-8.6,9C225.4,296.5,221.4,297.6,216.8,297.6
	z M216.8,295.8c4.2,0,7.9-1,11.3-3c3.4-2,6-4.7,8-8.3c1.9-3.6,2.9-7.6,2.9-12.1c0-4.5-1-8.5-2.9-12c-1.9-3.6-4.6-6.3-8-8.3
	c-3.4-2-7.2-3-11.3-3s-7.9,1-11.3,3c-3.4,1.9-6,4.7-8,8.3c-1.9,3.5-2.9,7.5-2.9,12c0,4.5,1,8.5,2.9,12.1c1.9,3.5,4.6,6.3,8,8.3
	C208.9,294.8,212.6,295.8,216.8,295.8z M259.1,260.5c1.4-4.2,3.8-7.5,7.1-9.7c3.3-2.3,7.5-3.5,12.4-3.5v1.9H278
	c-6,0-10.6,1.9-13.9,5.8c-3.3,3.8-5,9-5,15.6v26.7h-1.9v-49.6h1.9V260.5z M319.6,230.1h1.9v67.2h-1.9V230.1z M368.1,247.4
	c6.2,0,11.1,1.8,14.6,5.4c3.5,3.5,5.3,8.6,5.3,15.3v29.3h-1.9V268c0-6.1-1.6-10.7-4.7-13.9c-3.1-3.3-7.5-4.9-13.2-4.9
	c-6.5,0-11.6,2-15.4,5.9c-3.7,3.8-5.6,8.9-5.6,15.3v27h-1.9v-49.6h1.9v13.2c1.5-4.2,4.1-7.5,7.7-9.9
	C358.6,248.6,362.9,247.4,368.1,247.4z M432,294c-1.1,1.2-2.5,2-4.3,2.7c-1.7,0.6-3.5,0.9-5.4,0.9c-3.8,0-6.8-1.1-8.9-3.3
	c-2-2.2-3.1-5.2-3.1-8.9v-35.9h-9.6v-1.8h9.6v-10.8h1.9v10.8H429v1.8h-16.8v35.4c0,3.5,0.9,6.2,2.6,8.1s4.3,2.8,7.6,2.8
	s6.1-1,8.3-3.1L432,294z M485,272.4h-44.2c0,4.5,1,8.5,3,12.1c2,3.5,4.7,6.3,8.2,8.3c3.5,2,7.5,3,11.8,3c3.4,0,6.6-0.6,9.5-1.9
	c3-1.3,5.5-3.3,7.4-5.8l1.3,1.3c-2.2,2.6-4.9,4.6-8.1,6c-3.2,1.4-6.6,2.1-10.2,2.1c-4.7,0-9-1.1-12.8-3.2c-3.7-2.2-6.7-5.2-8.8-9
	c-2.1-3.8-3.2-8.2-3.2-13c0-4.8,1-9.1,3-12.9c2-3.8,4.7-6.8,8.2-8.9c3.5-2.2,7.5-3.3,11.8-3.3c4.3,0,8.2,1.1,11.7,3.2s6.3,5,8.3,8.7
	c2,3.7,3.1,7.9,3.1,12.7V272.4z M461.9,249.2c-3.8,0-7.3,0.9-10.5,2.8c-3.1,1.9-5.7,4.4-7.6,7.7c-1.9,3.3-2.9,6.9-3.1,10.9h42.3
	c-0.2-4-1.2-7.7-3.2-10.9c-1.9-3.3-4.4-5.8-7.6-7.7C469.3,250.1,465.8,249.2,461.9,249.2z M503.1,260.5c1.4-4.2,3.8-7.5,7.1-9.7
	c3.3-2.3,7.5-3.5,12.4-3.5v1.9H522c-6,0-10.6,1.9-13.9,5.8c-3.3,3.8-5,9-5,15.6v26.7h-1.9v-49.6h1.9V260.5z M552.8,247.4
	c5.8,0,10.1,1.5,13.2,4.5c3.1,2.9,4.6,7.2,4.6,12.9v32.5h-1.9v-10.6c-1.6,3.4-4,6-7.3,8c-3.2,1.9-7.1,2.9-11.6,2.9
	c-5.5,0-9.8-1.2-13-3.7c-3.1-2.6-4.6-6-4.6-10.2c0-4,1.4-7.2,4.1-9.6c2.8-2.5,7.3-3.7,13.5-3.7h18.8v-5.5c0-5.2-1.3-9.1-4-11.7
	c-2.6-2.6-6.5-3.9-11.7-3.9c-3.6,0-6.9,0.6-10.1,1.9c-3.1,1.2-5.7,2.9-8,5l-1.3-1.3c2.4-2.3,5.2-4.1,8.6-5.4
	C545.6,248.1,549.1,247.4,552.8,247.4z M549.8,295.8c9.2,0,15.5-4.2,18.9-12.7v-10.9h-18.9c-5.4,0-9.3,1-11.9,3.1
	c-2.5,2-3.7,4.8-3.7,8.4c0,3.8,1.4,6.8,4.1,8.9C541,294.7,544.8,295.8,549.8,295.8z M610.7,297.6c-4.7,0-8.9-1.1-12.6-3.2
	c-3.7-2.2-6.6-5.2-8.7-8.9c-2-3.8-3.1-8.2-3.1-13.1c0-4.9,1-9.2,3.1-13c2.1-3.8,5-6.8,8.7-8.9c3.7-2.1,7.9-3.2,12.6-3.2
	c3.6,0,7,0.7,10.1,2.1c3.1,1.3,5.7,3.3,7.8,6l-1.3,1.4c-1.9-2.6-4.2-4.5-7.1-5.8s-6-1.9-9.4-1.9c-4.3,0-8.2,1-11.6,3
	c-3.4,1.9-6,4.7-8,8.3c-1.9,3.5-2.9,7.5-2.9,12c0,4.5,1,8.6,2.9,12.1s4.6,6.3,8,8.3c3.5,2,7.3,3,11.6,3c3.4,0,6.5-0.6,9.4-1.9
	s5.2-3.2,7.1-5.8l1.3,1.4c-2,2.6-4.6,4.6-7.8,6C617.7,296.9,614.3,297.6,610.7,297.6z M667.4,294c-1.1,1.2-2.5,2-4.3,2.7
	c-1.7,0.6-3.5,0.9-5.4,0.9c-3.8,0-6.8-1.1-8.9-3.3c-2-2.2-3.1-5.2-3.1-8.9v-35.9h-9.6v-1.8h9.6v-10.8h1.9v10.8h16.8v1.8h-16.8v35.4
	c0,3.5,0.9,6.2,2.6,8.1s4.3,2.8,7.6,2.8s6.1-1,8.3-3.1L667.4,294z M682.1,247.7h1.9v49.6h-1.9V247.7z M683.1,233.9
	c-0.7,0-1.3-0.3-1.8-0.8c-0.4-0.5-0.7-1.1-0.7-1.7c0-0.7,0.2-1.3,0.7-1.7c0.5-0.5,1.1-0.8,1.8-0.8c0.6,0,1.2,0.3,1.7,0.8
	c0.5,0.4,0.8,1,0.8,1.7c0,0.6-0.3,1.2-0.8,1.7C684.3,233.7,683.7,233.9,683.1,233.9z M743.3,247.7l-22.8,49.6h-1.9l-22.8-49.6h2.2
	l21.6,47.4l21.6-47.4H743.3z M793.6,272.4h-44.2c0,4.5,1,8.5,3,12.1c2,3.5,4.7,6.3,8.2,8.3c3.5,2,7.5,3,11.8,3
	c3.4,0,6.6-0.6,9.5-1.9c3-1.3,5.5-3.3,7.4-5.8l1.3,1.3c-2.2,2.6-4.9,4.6-8.1,6c-3.2,1.4-6.6,2.1-10.2,2.1c-4.7,0-9-1.1-12.8-3.2
	c-3.7-2.2-6.7-5.2-8.8-9c-2.1-3.8-3.2-8.2-3.2-13c0-4.8,1-9.1,3-12.9c2-3.8,4.7-6.8,8.2-8.9c3.5-2.2,7.5-3.3,11.8-3.3
	c4.3,0,8.2,1.1,11.7,3.2c3.5,2.1,6.3,5,8.3,8.7c2,3.7,3.1,7.9,3.1,12.7V272.4z M770.6,249.2c-3.8,0-7.3,0.9-10.5,2.8
	s-5.7,4.4-7.6,7.7c-1.9,3.3-2.9,6.9-3.1,10.9h42.3c-0.2-4-1.2-7.7-3.2-10.9c-1.9-3.3-4.4-5.8-7.6-7.7S774.4,249.2,770.6,249.2z
	 M501.8,347.1h25.4c7,0,13.1,1.4,18.4,4.3c5.4,2.9,9.5,6.9,12.5,12c3,5.1,4.5,10.9,4.5,17.3s-1.5,12.2-4.5,17.3
	c-2.9,5.1-7.1,9.1-12.5,12c-5.3,2.9-11.5,4.3-18.4,4.3h-25.4V347.1z M527,412.5c6.7,0,12.6-1.3,17.7-4c5.1-2.8,9.1-6.5,11.8-11.3
	c2.8-4.9,4.2-10.3,4.2-16.4c0-6.1-1.4-11.5-4.2-16.3c-2.8-4.9-6.7-8.6-11.8-11.3c-5.1-2.8-10.9-4.1-17.7-4.1h-23.3v63.6H527z
	 M619.5,389.4h-44.2c0,4.5,1,8.5,3,12.1c2,3.5,4.7,6.3,8.2,8.3c3.5,2,7.5,3,11.8,3c3.4,0,6.6-0.6,9.5-1.9c3-1.3,5.5-3.3,7.4-5.8
	l1.3,1.3c-2.2,2.6-4.9,4.6-8.1,6c-3.2,1.4-6.6,2.1-10.2,2.1c-4.7,0-9-1.1-12.8-3.2c-3.7-2.2-6.7-5.2-8.8-9c-2.1-3.8-3.2-8.2-3.2-13
	c0-4.8,1-9.1,3-12.9c2-3.8,4.7-6.8,8.2-8.9c3.5-2.2,7.5-3.3,11.8-3.3c4.3,0,8.2,1.1,11.7,3.2c3.5,2.1,6.3,5,8.3,8.7
	c2,3.7,3.1,7.9,3.1,12.7V389.4z M596.5,366.2c-3.8,0-7.3,0.9-10.5,2.8c-3.1,1.9-5.7,4.4-7.6,7.7c-1.9,3.3-2.9,6.9-3.1,10.9h42.3
	c-0.2-4-1.2-7.7-3.2-10.9c-1.9-3.3-4.4-5.8-7.6-7.7C603.8,367.1,600.3,366.2,596.5,366.2z M671.9,364.7l-22.8,49.6h-1.9l-22.8-49.6
	h2.2l21.6,47.4l21.6-47.4H671.9z M683.5,364.7h1.9v49.6h-1.9V364.7z M684.5,350.9c-0.7,0-1.3-0.3-1.8-0.8c-0.4-0.5-0.7-1.1-0.7-1.7
	c0-0.7,0.2-1.3,0.7-1.7c0.5-0.5,1.1-0.8,1.8-0.8c0.6,0,1.2,0.3,1.7,0.8c0.5,0.4,0.8,1,0.8,1.7c0,0.6-0.3,1.2-0.8,1.7
	C685.7,350.7,685.1,350.9,684.5,350.9z M726.1,414.6c-4.7,0-8.9-1.1-12.6-3.2c-3.7-2.2-6.6-5.2-8.7-8.9c-2-3.8-3.1-8.2-3.1-13.1
	c0-4.9,1-9.2,3.1-13c2.1-3.8,5-6.8,8.7-8.9s7.9-3.2,12.6-3.2c3.6,0,7,0.7,10.1,2.1c3.1,1.3,5.7,3.3,7.8,6l-1.3,1.4
	c-1.9-2.6-4.2-4.5-7.1-5.8s-6-1.9-9.4-1.9c-4.3,0-8.2,1-11.6,3c-3.4,1.9-6,4.7-8,8.3c-1.9,3.5-2.9,7.5-2.9,12c0,4.5,1,8.6,2.9,12.1
	c1.9,3.5,4.6,6.3,8,8.3c3.5,2,7.3,3,11.6,3c3.4,0,6.5-0.6,9.4-1.9s5.2-3.2,7.1-5.8l1.3,1.4c-2,2.6-4.6,4.6-7.8,6
	C733.1,413.9,729.7,414.6,726.1,414.6z M799,389.4h-44.2c0,4.5,1,8.5,3,12.1c2,3.5,4.7,6.3,8.2,8.3c3.5,2,7.5,3,11.8,3
	c3.4,0,6.6-0.6,9.5-1.9c3-1.3,5.5-3.3,7.4-5.8l1.3,1.3c-2.2,2.6-4.9,4.6-8.1,6c-3.2,1.4-6.6,2.1-10.2,2.1c-4.7,0-9-1.1-12.8-3.2
	c-3.7-2.2-6.7-5.2-8.8-9c-2.1-3.8-3.2-8.2-3.2-13c0-4.8,1-9.1,3-12.9c2-3.8,4.7-6.8,8.2-8.9c3.5-2.2,7.5-3.3,11.8-3.3
	c4.3,0,8.2,1.1,11.7,3.2c3.5,2.1,6.3,5,8.3,8.7c2,3.7,3.1,7.9,3.1,12.7V389.4z M776,366.2c-3.8,0-7.3,0.9-10.5,2.8
	c-3.1,1.9-5.7,4.4-7.6,7.7c-1.9,3.3-2.9,6.9-3.1,10.9h42.3c-0.2-4-1.2-7.7-3.2-10.9c-1.9-3.3-4.4-5.8-7.6-7.7
	C783.3,367.1,779.8,366.2,776,366.2z M826.7,414.6c-4,0-7.7-0.6-11.2-1.9c-3.5-1.3-6.2-2.9-8.2-4.9l1.2-1.5c1.9,1.9,4.5,3.4,7.7,4.7
	c3.3,1.2,6.8,1.8,10.6,1.8c5.6,0,9.8-1,12.5-2.9c2.7-2,4-4.7,4-8.2c0-2.5-0.7-4.4-2.2-5.9c-1.4-1.5-3.2-2.5-5.3-3.2
	c-2-0.7-4.9-1.4-8.5-2.1c-3.9-0.7-7.1-1.4-9.5-2.2c-2.4-0.8-4.4-2.1-6-3.8c-1.6-1.8-2.4-4.3-2.4-7.4c0-3.6,1.5-6.6,4.4-9
	c3-2.5,7.4-3.7,13.2-3.7c3.1,0,6.1,0.5,9.1,1.4c3,0.9,5.4,2.1,7.3,3.6L842,371c-1.9-1.5-4.2-2.7-6.9-3.6c-2.7-0.8-5.5-1.2-8.4-1.2
	c-5.2,0-9.1,1-11.7,3.1c-2.6,2-3.8,4.6-3.8,7.9c0,2.6,0.7,4.7,2.2,6.2c1.5,1.5,3.3,2.6,5.5,3.3c2.2,0.7,5.1,1.4,8.6,2
	c3.9,0.8,7,1.5,9.3,2.3s4.3,2,5.9,3.7c1.6,1.7,2.4,4,2.4,7c0,3.9-1.6,7-4.7,9.4C837.3,413.4,832.7,414.6,826.7,414.6z"/>
<path d="M1287,244.8c-13.5,0-24.9,9.3-27.7,22.1h-38.1c-1.4-14.5-6.9-28-15.9-38.7l27-27c4.5,2.8,9.3,4.5,15.2,4.5
	c15.6,0,28.4-12.8,28.4-28.3s-13.1-28.7-28.7-28.7c-15.6,0-28.4,12.8-28.4,28.3c0,5.5,1.7,10.7,4.5,15.2l-27.3,27
	c-10.7-9-23.9-14.5-38.8-15.9v-38c12.8-2.8,22.1-14.2,22.1-27.7c0-15.6-12.8-28.3-28.4-28.3s-28.4,12.8-28.4,28.3
	c0,13.5,9.3,24.9,22.1,27.7v38c-14.5,1.4-28,6.9-38.8,15.9l-27-27c2.8-4.5,4.5-9.3,4.5-15.2c0-15.6-12.8-28.3-28.4-28.3
	c-15.6,0-28.7,12.8-28.7,28.3s12.8,28.3,28.4,28.3c5.5,0,10.7-1.7,15.2-4.5l27,27c-9,10.7-14.5,23.9-15.9,38.7h-38.1
	c-2.8-12.8-14.2-22.1-27.7-22.1c-15.6,0-28.4,12.8-28.4,28.3s12.8,28.3,28.4,28.3c13.5,0,24.9-9.3,27.7-22.1h38.1
	c1.4,14.5,6.9,28,15.9,38.7l-27,27c-4.5-2.8-9.7-4.5-15.2-4.5c-15.6,0-28.4,12.8-28.4,28.3c0,15.6,12.8,28.3,28.4,28.3
	c15.6,0,28.4-12.8,28.4-28.3c0-5.5-1.7-10.7-4.5-15.2l27-27c10.7,9,23.9,14.5,38.8,15.9v38c-12.8,2.8-22.2,14.2-22.2,27.7
	c0,15.6,12.8,28.3,28.4,28.3c15.6,0,28.4-12.8,28.4-28.3c0-13.5-9.3-24.9-22.2-27.7v-38c14.5-1.4,28-6.9,38.8-15.9l27,27
	c-2.8,4.5-4.5,9.7-4.5,15.2c0,15.6,12.8,28.3,28.4,28.3c15.6,0,28.4-12.8,28.4-28.3c0-15.6-12.8-28.3-28.4-28.3
	c-5.5,0-10.7,1.7-15.2,4.5l-26.3-26.6c9-10.7,14.5-23.9,15.9-38.7h38.1c2.8,12.8,14.2,22.1,27.7,22.1c15.6,0,28.4-12.8,28.4-28.3
	C1315,257.6,1302.6,244.8,1287,244.8z M1015.1,288.7c-8.7,0-15.6-6.9-15.6-15.6c0-8.6,6.9-15.6,15.6-15.6c8.6,0,15.6,6.9,15.6,15.6
	C1031,281.8,1023.7,288.7,1015.1,288.7z M1247.2,161.5c8.7,0,15.6,6.9,15.6,15.6c0,8.6-6.9,15.6-15.6,15.6
	c-8.6,0-15.6-6.9-15.6-15.6C1231.6,168.4,1238.6,161.5,1247.2,161.5z M1197.7,238.9c-6.6,3.1-13.1,5.5-19.7,7.3
	c-1.7-10.7-4.5-20-8-27.7C1181.1,222.7,1190.8,229.6,1197.7,238.9z M1166.9,273.2c0,4.1-0.4,7.9-0.4,11.8c-10.4-1.4-20.8-1.4-30.8,0
	c-0.3-3.8-0.3-7.6-0.3-11.8c0-4.1,0.3-8,0.3-11.8c5.2,0.7,10.4,1,15.6,1c5.2,0,10.4-0.3,15.6-1
	C1166.6,265.2,1166.9,269,1166.9,273.2z M1151,330.9c-3.5,0-10.7-11.4-14.2-33.5c9.3-1.4,19-1.4,28.4,0
	C1161.8,319.5,1154.5,330.9,1151,330.9z M1136.8,248.6c3.5-22.1,10.7-33.5,14.2-33.5s10.7,11.4,14.2,33.5
	C1155.9,250,1146.2,250,1136.8,248.6z M1135.5,137.3c0-8.6,6.9-15.6,15.6-15.6s15.6,6.9,15.6,15.6c0,8.6-6.9,15.6-15.6,15.6
	S1135.5,145.9,1135.5,137.3z M1132.3,218.5c-3.5,7.6-6.2,16.9-8,27.7c-6.9-1.7-13.5-4.1-19.7-7.3
	C1111.2,229.6,1120.9,222.7,1132.3,218.5z M1054.8,193c-8.7,0-15.6-6.9-15.6-15.6c0-8.6,6.9-15.6,15.6-15.6
	c8.6,0,15.6,6.9,15.6,15.6C1070.4,186,1063.5,193,1054.8,193z M1098.1,250c8,3.8,16.3,6.9,24.9,9c-0.3,4.5-0.7,9.3-0.7,13.8
	c0,4.8,0.3,9.3,0.7,13.8c-8.7,2.1-16.9,5.2-24.9,9c-3.1-6.9-4.8-14.9-4.8-23.2C1093.2,264.9,1095,257.3,1098.1,250z M1054.8,384.8
	c-8.7,0-15.6-6.9-15.6-15.6c0-8.6,6.9-15.6,15.6-15.6c8.6,0,15.6,6.9,15.6,15.6C1070.4,377.9,1063.5,384.8,1054.8,384.8z
	 M1104.7,307.4c6.6-3.1,13.1-5.5,19.7-7.3c1.7,10.7,4.5,20,8,27.7C1120.9,323.6,1111.2,316.7,1104.7,307.4z M1166.6,409
	c0,8.6-6.9,15.6-15.6,15.6s-15.6-6.9-15.6-15.6c0-8.6,6.9-15.6,15.6-15.6S1166.6,400.4,1166.6,409z M1169.7,327.8
	c3.5-7.6,6.2-16.9,8-27.7c6.9,1.7,13.5,4.1,19.7,7.3C1190.8,316.7,1181.1,323.6,1169.7,327.8z M1247.2,353.3
	c8.7,0,15.6,6.9,15.6,15.6s-6.9,15.6-15.6,15.6c-8.6,0-15.6-6.9-15.6-15.6S1238.6,353.3,1247.2,353.3z M1204,296.3
	c-8-3.8-16.3-6.9-24.9-9c0.3-4.5,0.7-9.3,0.7-13.8c0-4.8-0.3-9.3-0.7-13.8c8.7-2.1,16.9-5.2,24.9-9c3.1,6.9,4.8,14.9,4.8,23.2
	C1208.8,281.4,1207.1,289.1,1204,296.3z M1287,288.7c-8.7,0-15.6-6.9-15.6-15.6c0-8.6,6.9-15.6,15.6-15.6s15.6,6.9,15.6,15.6
	C1302.6,281.8,1295.6,288.7,1287,288.7z"/>
<path d="M1520,147.8c-13.5,0-24.9,9.3-27.7,22.1h-38.1c-1.4-14.5-6.9-28-15.9-38.7l27-27c4.5,2.8,9.3,4.5,15.2,4.5
	c15.6,0,28.4-12.8,28.4-28.3s-13.1-28.7-28.7-28.7c-15.6,0-28.4,12.8-28.4,28.3c0,5.5,1.7,10.7,4.5,15.2l-27.3,27
	c-10.7-9-23.9-14.5-38.8-15.9v-38c12.8-2.8,22.1-14.2,22.1-27.7c0-15.6-12.8-28.3-28.4-28.3s-28.4,12.8-28.4,28.3
	c0,13.5,9.3,24.9,22.1,27.7v38c-14.5,1.4-28,6.9-38.8,15.9l-27-27c2.8-4.5,4.5-9.3,4.5-15.2c0-15.6-12.8-28.3-28.4-28.3
	c-15.6,0-28.7,12.8-28.7,28.3c0,15.6,12.8,28.3,28.4,28.3c5.5,0,10.7-1.7,15.2-4.5l27,27c-9,10.7-14.5,23.9-15.9,38.7h-38.1
	c-2.8-12.8-14.2-22.1-27.7-22.1c-15.6,0-28.4,12.8-28.4,28.3s12.8,28.3,28.4,28.3c13.5,0,24.9-9.3,27.7-22.1h38.1
	c1.4,14.5,6.9,28,15.9,38.7l-27,27c-4.5-2.8-9.7-4.5-15.2-4.5c-15.6,0-28.4,12.8-28.4,28.3c0,15.6,12.8,28.3,28.4,28.3
	c15.6,0,28.4-12.8,28.4-28.3c0-5.5-1.7-10.7-4.5-15.2l27-27c10.7,9,23.9,14.5,38.8,15.9v38c-12.8,2.8-22.2,14.2-22.2,27.7
	c0,15.6,12.8,28.3,28.4,28.3c15.6,0,28.4-12.8,28.4-28.3c0-13.5-9.3-24.9-22.2-27.7v-38c14.5-1.4,28-6.9,38.8-15.9l27,27
	c-2.8,4.5-4.5,9.7-4.5,15.2c0,15.6,12.8,28.3,28.4,28.3c15.6,0,28.4-12.8,28.4-28.3c0-15.6-12.8-28.3-28.4-28.3
	c-5.5,0-10.7,1.7-15.2,4.5l-26.3-26.6c9-10.7,14.5-23.9,15.9-38.7h38.1c2.8,12.8,14.2,22.1,27.7,22.1c15.6,0,28.4-12.8,28.4-28.3
	S1535.6,147.8,1520,147.8z M1248.1,191.7c-8.7,0-15.6-6.9-15.6-15.6c0-8.6,6.9-15.6,15.6-15.6s15.6,6.9,15.6,15.6
	C1264,184.8,1256.7,191.7,1248.1,191.7z M1480.2,64.5c8.7,0,15.6,6.9,15.6,15.6c0,8.6-6.9,15.6-15.6,15.6c-8.6,0-15.6-6.9-15.6-15.6
	C1464.6,71.4,1471.6,64.5,1480.2,64.5z M1430.7,141.9c-6.6,3.1-13.1,5.5-19.7,7.3c-1.7-10.7-4.5-20-8-27.7
	C1414.1,125.7,1423.8,132.6,1430.7,141.9z M1399.9,176.2c0,4.1-0.4,8-0.4,11.8c-10.4-1.4-20.8-1.4-30.8,0c-0.3-3.8-0.3-7.6-0.3-11.8
	c0-4.1,0.3-8,0.3-11.8c5.2,0.7,10.4,1,15.6,1c5.2,0,10.4-0.3,15.6-1C1399.6,168.2,1399.9,172,1399.9,176.2z M1384,233.9
	c-3.5,0-10.7-11.4-14.2-33.5c9.3-1.4,19-1.4,28.4,0C1394.8,222.5,1387.5,233.9,1384,233.9z M1369.8,151.6
	c3.5-22.1,10.7-33.5,14.2-33.5s10.7,11.4,14.2,33.5C1388.9,153,1379.2,153,1369.8,151.6z M1368.5,40.3c0-8.6,6.9-15.6,15.6-15.6
	s15.6,6.9,15.6,15.6c0,8.6-6.9,15.6-15.6,15.6S1368.5,48.9,1368.5,40.3z M1365.3,121.5c-3.5,7.6-6.2,16.9-8,27.7
	c-6.9-1.7-13.5-4.1-19.7-7.3C1344.2,132.6,1353.9,125.7,1365.3,121.5z M1287.8,96c-8.7,0-15.6-6.9-15.6-15.6
	c0-8.6,6.9-15.6,15.6-15.6c8.6,0,15.6,6.9,15.6,15.6C1303.4,89,1296.5,96,1287.8,96z M1331.1,153c8,3.8,16.3,6.9,24.9,9
	c-0.3,4.5-0.7,9.3-0.7,13.8c0,4.8,0.3,9.3,0.7,13.8c-8.7,2.1-16.9,5.2-24.9,9c-3.1-6.9-4.8-14.9-4.8-23.2
	C1326.2,167.9,1328,160.3,1331.1,153z M1287.8,287.8c-8.7,0-15.6-6.9-15.6-15.6c0-8.6,6.9-15.6,15.6-15.6c8.6,0,15.6,6.9,15.6,15.6
	C1303.4,280.9,1296.5,287.8,1287.8,287.8z M1337.7,210.4c6.6-3.1,13.1-5.5,19.7-7.3c1.7,10.7,4.5,20,8,27.7
	C1353.9,226.6,1344.2,219.7,1337.7,210.4z M1399.6,312c0,8.6-6.9,15.6-15.6,15.6s-15.6-6.9-15.6-15.6c0-8.6,6.9-15.6,15.6-15.6
	S1399.6,303.4,1399.6,312z M1402.7,230.8c3.5-7.6,6.2-16.9,8-27.7c6.9,1.7,13.5,4.1,19.7,7.3
	C1423.8,219.7,1414.1,226.6,1402.7,230.8z M1480.2,256.3c8.7,0,15.6,6.9,15.6,15.6s-6.9,15.6-15.6,15.6c-8.6,0-15.6-6.9-15.6-15.6
	S1471.6,256.3,1480.2,256.3z M1437,199.3c-8-3.8-16.3-6.9-24.9-9c0.3-4.5,0.7-9.3,0.7-13.8c0-4.8-0.3-9.3-0.7-13.8
	c8.7-2.1,16.9-5.2,24.9-9c3.1,6.9,4.8,14.9,4.8,23.2C1441.8,184.4,1440.1,192.1,1437,199.3z M1520,191.7c-8.7,0-15.6-6.9-15.6-15.6
	c0-8.6,6.9-15.6,15.6-15.6s15.6,6.9,15.6,15.6C1535.6,184.8,1528.6,191.7,1520,191.7z"/>
<path d="M1384,474.8c-13.5,0-24.9,9.3-27.7,22.1h-38.1c-1.4-14.5-6.9-28-15.9-38.7l27-27c4.5,2.8,9.3,4.5,15.2,4.5
	c15.6,0,28.4-12.8,28.4-28.3c0-15.6-13.1-28.7-28.7-28.7c-15.6,0-28.4,12.8-28.4,28.3c0,5.5,1.7,10.7,4.5,15.2l-27.3,27
	c-10.7-9-23.9-14.5-38.8-15.9v-38c12.8-2.8,22.1-14.2,22.1-27.7c0-15.6-12.8-28.3-28.4-28.3s-28.4,12.8-28.4,28.3
	c0,13.5,9.3,24.9,22.1,27.7v38c-14.5,1.4-28,6.9-38.8,15.9l-27-27c2.8-4.5,4.5-9.3,4.5-15.2c0-15.6-12.8-28.3-28.4-28.3
	c-15.6,0-28.7,12.8-28.7,28.3s12.8,28.3,28.4,28.3c5.5,0,10.7-1.7,15.2-4.5l27,27c-9,10.7-14.5,23.9-15.9,38.7h-38.1
	c-2.8-12.8-14.2-22.1-27.7-22.1c-15.6,0-28.4,12.8-28.4,28.3c0,15.6,12.8,28.3,28.4,28.3c13.5,0,24.9-9.3,27.7-22.1h38.1
	c1.4,14.5,6.9,28,15.9,38.7l-27,27c-4.5-2.8-9.7-4.5-15.2-4.5c-15.6,0-28.4,12.8-28.4,28.3c0,15.6,12.8,28.3,28.4,28.3
	c15.6,0,28.4-12.8,28.4-28.3c0-5.5-1.7-10.7-4.5-15.2l27-27c10.7,9,23.9,14.5,38.8,15.9v38c-12.8,2.8-22.2,14.2-22.2,27.7
	c0,15.6,12.8,28.3,28.4,28.3c15.6,0,28.4-12.8,28.4-28.3c0-13.5-9.3-24.9-22.2-27.7v-38c14.5-1.4,28-6.9,38.8-15.9l27,27
	c-2.8,4.5-4.5,9.7-4.5,15.2c0,15.6,12.8,28.3,28.4,28.3c15.6,0,28.4-12.8,28.4-28.3c0-15.6-12.8-28.3-28.4-28.3
	c-5.5,0-10.7,1.7-15.2,4.5l-26.3-26.6c9-10.7,14.5-23.9,15.9-38.7h38.1c2.8,12.8,14.2,22.1,27.7,22.1c15.6,0,28.4-12.8,28.4-28.3
	C1412,487.6,1399.6,474.8,1384,474.8z M1112.1,518.7c-8.7,0-15.6-6.9-15.6-15.6c0-8.6,6.9-15.6,15.6-15.6s15.6,6.9,15.6,15.6
	C1128,511.8,1120.7,518.7,1112.1,518.7z M1344.2,391.5c8.7,0,15.6,6.9,15.6,15.6c0,8.6-6.9,15.6-15.6,15.6
	c-8.6,0-15.6-6.9-15.6-15.6C1328.6,398.4,1335.6,391.5,1344.2,391.5z M1294.7,468.9c-6.6,3.1-13.1,5.5-19.7,7.3
	c-1.7-10.7-4.5-20-8-27.7C1278.1,452.7,1287.8,459.6,1294.7,468.9z M1263.9,503.2c0,4.1-0.4,7.9-0.4,11.8c-10.4-1.4-20.8-1.4-30.8,0
	c-0.3-3.8-0.3-7.6-0.3-11.8c0-4.1,0.3-8,0.3-11.8c5.2,0.7,10.4,1,15.6,1c5.2,0,10.4-0.3,15.6-1
	C1263.6,495.2,1263.9,499,1263.9,503.2z M1248,560.9c-3.5,0-10.7-11.4-14.2-33.5c9.3-1.4,19-1.4,28.4,0
	C1258.8,549.5,1251.5,560.9,1248,560.9z M1233.8,478.6c3.5-22.1,10.7-33.5,14.2-33.5s10.7,11.4,14.2,33.5
	C1252.9,480,1243.2,480,1233.8,478.6z M1232.5,367.3c0-8.6,6.9-15.6,15.6-15.6s15.6,6.9,15.6,15.6s-6.9,15.6-15.6,15.6
	S1232.5,375.9,1232.5,367.3z M1229.3,448.5c-3.5,7.6-6.2,16.9-8,27.7c-6.9-1.7-13.5-4.1-19.7-7.3
	C1208.2,459.6,1217.9,452.7,1229.3,448.5z M1151.8,423c-8.7,0-15.6-6.9-15.6-15.6c0-8.6,6.9-15.6,15.6-15.6
	c8.6,0,15.6,6.9,15.6,15.6C1167.4,416,1160.5,423,1151.8,423z M1195.1,480c8,3.8,16.3,6.9,24.9,9c-0.3,4.5-0.7,9.3-0.7,13.8
	c0,4.8,0.3,9.3,0.7,13.8c-8.7,2.1-16.9,5.2-24.9,9c-3.1-6.9-4.8-14.9-4.8-23.2C1190.2,494.9,1192,487.3,1195.1,480z M1151.8,614.8
	c-8.7,0-15.6-6.9-15.6-15.6c0-8.6,6.9-15.6,15.6-15.6c8.6,0,15.6,6.9,15.6,15.6C1167.4,607.9,1160.5,614.8,1151.8,614.8z
	 M1201.7,537.4c6.6-3.1,13.1-5.5,19.7-7.3c1.7,10.7,4.5,20,8,27.7C1217.9,553.6,1208.2,546.7,1201.7,537.4z M1263.6,639
	c0,8.6-6.9,15.6-15.6,15.6s-15.6-6.9-15.6-15.6c0-8.6,6.9-15.6,15.6-15.6S1263.6,630.4,1263.6,639z M1266.7,557.8
	c3.5-7.6,6.2-16.9,8-27.7c6.9,1.7,13.5,4.1,19.7,7.3C1287.8,546.7,1278.1,553.6,1266.7,557.8z M1344.2,583.3
	c8.7,0,15.6,6.9,15.6,15.6c0,8.6-6.9,15.6-15.6,15.6c-8.6,0-15.6-6.9-15.6-15.6C1328.6,590.3,1335.6,583.3,1344.2,583.3z
	 M1301,526.3c-8-3.8-16.3-6.9-24.9-9c0.3-4.5,0.7-9.3,0.7-13.8c0-4.8-0.3-9.3-0.7-13.8c8.7-2.1,16.9-5.2,24.9-9
	c3.1,6.9,4.8,14.9,4.8,23.2C1305.8,511.4,1304.1,519.1,1301,526.3z M1384,518.7c-8.7,0-15.6-6.9-15.6-15.6c0-8.6,6.9-15.6,15.6-15.6
	s15.6,6.9,15.6,15.6C1399.6,511.8,1392.6,518.7,1384,518.7z"/>
<path class="st0" d="M109.2,516h0.7v9.2c-1.1,1.1-2.3,1.9-3.9,2.4c-1.5,0.6-3.1,0.8-4.8,0.8c-2.5,0-4.7-0.6-6.7-1.7
	c-2-1.1-3.5-2.6-4.6-4.5c-1.1-1.9-1.7-4.1-1.7-6.5c0-2.4,0.6-4.6,1.7-6.5c1.1-1.9,2.7-3.5,4.6-4.6c2-1.1,4.2-1.7,6.7-1.7
	c1.8,0,3.4,0.3,4.9,0.8c1.5,0.5,2.8,1.3,3.8,2.4l-0.4,0.5c-2.1-2-4.9-3-8.2-3c-2.3,0-4.4,0.5-6.3,1.6c-1.9,1.1-3.3,2.5-4.4,4.4
	c-1.1,1.8-1.6,3.9-1.6,6.1s0.5,4.3,1.6,6.1c1.1,1.8,2.6,3.3,4.4,4.3c1.9,1.1,4,1.6,6.3,1.6c3.3,0,6-0.9,8-2.8V516z M127.2,503.1
	c3.1,0,5.5,0.7,7.3,2.2c1.8,1.4,2.6,3.5,2.6,6.1c0,2.6-0.9,4.7-2.6,6.1c-1.8,1.4-4.2,2.2-7.3,2.2h-7.8v8.6h-0.7v-25.2H127.2z
	 M127.3,519c2.9,0,5.2-0.7,6.7-2c1.6-1.3,2.4-3.2,2.4-5.6c0-2.4-0.8-4.3-2.4-5.6c-1.6-1.3-3.8-2-6.7-2h-7.9V519H127.3z M143.9,503.1
	h0.7v25.2h-0.7V503.1z M164.5,528.4c-2.4,0-4.6-0.6-6.6-1.7s-3.5-2.6-4.6-4.5c-1.1-1.9-1.7-4.1-1.7-6.5c0-2.4,0.6-4.6,1.7-6.5
	c1.1-1.9,2.7-3.5,4.6-4.6s4.2-1.7,6.6-1.7s4.6,0.6,6.6,1.7s3.5,2.6,4.6,4.6c1.1,1.9,1.7,4.1,1.7,6.5c0,2.4-0.6,4.6-1.7,6.5
	c-1.1,1.9-2.7,3.4-4.6,4.5S166.9,528.4,164.5,528.4z M164.5,527.7c2.3,0,4.3-0.5,6.2-1.5c1.9-1.1,3.3-2.5,4.4-4.3
	c1.1-1.8,1.6-3.9,1.6-6.2s-0.5-4.3-1.6-6.1c-1.1-1.8-2.5-3.3-4.4-4.3c-1.8-1.1-3.9-1.6-6.2-1.6s-4.4,0.5-6.2,1.6
	c-1.8,1-3.3,2.5-4.4,4.3c-1.1,1.8-1.6,3.9-1.6,6.1s0.5,4.3,1.6,6.2c1.1,1.8,2.5,3.3,4.4,4.3C160.1,527.2,162.2,527.7,164.5,527.7z
	 M201.7,509.6c1.7,0,3.2,0.4,4.6,1.2c1.4,0.8,2.5,1.9,3.3,3.3c0.8,1.4,1.2,3.1,1.2,4.9c0,1.8-0.4,3.4-1.2,4.9
	c-0.8,1.4-1.9,2.5-3.3,3.3c-1.4,0.8-2.9,1.2-4.6,1.2c-1.9,0-3.6-0.5-5.1-1.5c-1.5-1.1-2.5-2.5-3.2-4.2v12.6h-0.7v-25.6h0.7v5.7
	c0.6-1.8,1.7-3.2,3.2-4.2C198,510.1,199.7,509.6,201.7,509.6z M201.7,527.7c1.6,0,3-0.4,4.2-1.1c1.3-0.7,2.3-1.8,3-3.1
	c0.7-1.3,1.1-2.9,1.1-4.5s-0.4-3.2-1.1-4.5c-0.7-1.3-1.7-2.4-3-3.1c-1.3-0.7-2.7-1.1-4.2-1.1c-1.6,0-3,0.4-4.2,1.1
	c-1.3,0.7-2.3,1.8-3,3.1c-0.7,1.3-1.1,2.8-1.1,4.5s0.4,3.2,1.1,4.5c0.7,1.3,1.7,2.4,3,3.1C198.7,527.4,200.1,527.7,201.7,527.7z
	 M216.8,509.7h0.7v18.6h-0.7V509.7z M217.2,504.5c-0.3,0-0.5-0.1-0.7-0.3c-0.2-0.2-0.3-0.4-0.3-0.6c0-0.3,0.1-0.5,0.3-0.6
	c0.2-0.2,0.4-0.3,0.7-0.3c0.2,0,0.5,0.1,0.6,0.3c0.2,0.2,0.3,0.4,0.3,0.6c0,0.2-0.1,0.5-0.3,0.6
	C217.6,504.4,217.4,504.5,217.2,504.5z M234.3,509.6c2.3,0,4.2,0.7,5.5,2c1.3,1.3,2,3.2,2,5.7v11h-0.7v-11c0-2.3-0.6-4-1.8-5.2
	c-1.2-1.2-2.8-1.8-4.9-1.8c-2.4,0-4.3,0.7-5.8,2.2c-1.4,1.4-2.1,3.3-2.1,5.7v10.1h-0.7v-18.6h0.7v5c0.6-1.6,1.5-2.8,2.9-3.7
	C230.7,510,232.4,509.6,234.3,509.6z M254.1,528.4c-1.5,0-2.9-0.2-4.2-0.7c-1.3-0.5-2.3-1.1-3.1-1.8l0.4-0.6
	c0.7,0.7,1.7,1.3,2.9,1.8c1.2,0.5,2.5,0.7,4,0.7c2.1,0,3.7-0.4,4.7-1.1c1-0.7,1.5-1.8,1.5-3.1c0-0.9-0.3-1.7-0.8-2.2
	c-0.5-0.6-1.2-0.9-2-1.2c-0.8-0.3-1.8-0.5-3.2-0.8c-1.5-0.3-2.7-0.5-3.6-0.8c-0.9-0.3-1.6-0.8-2.3-1.4c-0.6-0.7-0.9-1.6-0.9-2.8
	c0-1.3,0.6-2.5,1.7-3.4c1.1-0.9,2.8-1.4,4.9-1.4c1.2,0,2.3,0.2,3.4,0.5c1.1,0.3,2,0.8,2.7,1.4l-0.4,0.6c-0.7-0.6-1.6-1-2.6-1.3
	c-1-0.3-2.1-0.5-3.1-0.5c-1.9,0-3.4,0.4-4.4,1.2c-1,0.7-1.4,1.7-1.4,3c0,1,0.3,1.8,0.8,2.3c0.6,0.6,1.2,1,2.1,1.2
	c0.8,0.3,1.9,0.5,3.2,0.8c1.5,0.3,2.6,0.6,3.5,0.9c0.9,0.3,1.6,0.8,2.2,1.4c0.6,0.6,0.9,1.5,0.9,2.6c0,1.5-0.6,2.6-1.8,3.5
	C258.1,528,256.4,528.4,254.1,528.4z M281.5,509.6c2.2,0,3.8,0.6,4.9,1.7c1.2,1.1,1.7,2.7,1.7,4.8v12.2h-0.7v-4
	c-0.6,1.3-1.5,2.3-2.7,3c-1.2,0.7-2.7,1.1-4.4,1.1c-2.1,0-3.7-0.5-4.9-1.4c-1.2-1-1.7-2.2-1.7-3.8c0-1.5,0.5-2.7,1.5-3.6
	c1.1-0.9,2.7-1.4,5.1-1.4h7.1v-2.1c0-1.9-0.5-3.4-1.5-4.4c-1-1-2.4-1.5-4.4-1.5c-1.3,0-2.6,0.2-3.8,0.7c-1.2,0.5-2.1,1.1-3,1.9
	l-0.5-0.5c0.9-0.9,2-1.5,3.2-2C278.7,509.8,280.1,509.6,281.5,509.6z M280.3,527.7c3.5,0,5.8-1.6,7.1-4.8v-4.1h-7.1
	c-2,0-3.5,0.4-4.5,1.2c-0.9,0.8-1.4,1.8-1.4,3.1c0,1.4,0.5,2.5,1.5,3.3C277,527.3,278.5,527.7,280.3,527.7z M304.7,509.6
	c2.3,0,4.2,0.7,5.5,2c1.3,1.3,2,3.2,2,5.7v11h-0.7v-11c0-2.3-0.6-4-1.8-5.2c-1.2-1.2-2.8-1.8-4.9-1.8c-2.4,0-4.3,0.7-5.8,2.2
	c-1.4,1.4-2.1,3.3-2.1,5.7v10.1h-0.7v-18.6h0.7v5c0.6-1.6,1.5-2.8,2.9-3.7C301.1,510,302.8,509.6,304.7,509.6z M336.1,501.6v26.7
	h-0.7v-5.7c-0.6,1.8-1.7,3.2-3.2,4.2c-1.5,1-3.2,1.5-5.1,1.5c-1.7,0-3.2-0.4-4.6-1.2c-1.4-0.8-2.4-1.9-3.2-3.4s-1.2-3.1-1.2-4.9
	s0.4-3.4,1.2-4.8c0.8-1.4,1.9-2.6,3.2-3.3c1.4-0.8,2.9-1.2,4.6-1.2c1.9,0,3.6,0.5,5.1,1.6c1.5,1,2.6,2.4,3.2,4.2v-13.8H336.1z
	 M327.1,527.7c1.6,0,3-0.4,4.2-1.1c1.3-0.7,2.3-1.8,3-3.1c0.7-1.3,1.1-2.9,1.1-4.5s-0.4-3.2-1.1-4.5c-0.7-1.3-1.7-2.4-3-3.1
	c-1.3-0.7-2.7-1.1-4.2-1.1s-3,0.4-4.2,1.1c-1.3,0.7-2.3,1.8-3,3.1c-0.7,1.3-1.1,2.8-1.1,4.5s0.4,3.2,1.1,4.5c0.7,1.3,1.7,2.4,3,3.1
	C324.1,527.4,325.5,527.7,327.1,527.7z M373.8,503.1v25.2h-0.7v-12.5h-18.4v12.5H354v-25.2h0.7v12.1h18.4v-12.1H373.8z M398.7,520.7
	h-15.4l-3.5,7.6H379l11.7-25.2h0.7l11.7,25.2h-0.8L398.7,520.7z M398.4,520l-7.4-15.9l-7.4,15.9H398.4z M411.7,503.8h-9.4v-0.7h19.4
	v0.7h-9.4v24.5h-0.7V503.8z M450.1,519h-16.6c0,1.7,0.4,3.2,1.1,4.5c0.7,1.3,1.8,2.4,3.1,3.1c1.3,0.7,2.8,1.1,4.4,1.1
	c1.3,0,2.5-0.2,3.6-0.7c1.1-0.5,2.1-1.2,2.8-2.2l0.5,0.5c-0.8,1-1.8,1.7-3,2.3c-1.2,0.5-2.5,0.8-3.8,0.8c-1.8,0-3.4-0.4-4.8-1.2
	c-1.4-0.8-2.5-1.9-3.3-3.4c-0.8-1.4-1.2-3.1-1.2-4.9s0.4-3.4,1.1-4.8c0.7-1.4,1.8-2.6,3.1-3.3c1.3-0.8,2.8-1.2,4.4-1.2
	c1.6,0,3.1,0.4,4.4,1.2c1.3,0.8,2.4,1.9,3.1,3.3c0.8,1.4,1.2,3,1.2,4.8V519z M441.4,510.3c-1.4,0-2.7,0.3-3.9,1
	c-1.2,0.7-2.1,1.7-2.8,2.9c-0.7,1.2-1.1,2.6-1.2,4.1h15.9c-0.1-1.5-0.5-2.9-1.2-4.1s-1.7-2.2-2.8-2.9
	C444.2,510.6,442.9,510.3,441.4,510.3z M467.5,528.3l-7-9.1l-7.1,9.1h-0.9l7.5-9.6l-7.1-9h0.9l6.6,8.5l6.6-8.5h0.9l-7,9l7.6,9.6
	H467.5z M482,527.1c-0.4,0.4-0.9,0.8-1.6,1c-0.6,0.2-1.3,0.3-2,0.3c-1.4,0-2.6-0.4-3.3-1.2c-0.8-0.8-1.2-2-1.2-3.3v-13.5h-3.6v-0.7
	h3.6v-4.1h0.7v4.1h6.3v0.7h-6.3v13.3c0,1.3,0.3,2.3,1,3c0.6,0.7,1.6,1,2.8,1c1.2,0,2.3-0.4,3.1-1.2L482,527.1z M501.8,519h-16.6
	c0,1.7,0.4,3.2,1.1,4.5c0.7,1.3,1.8,2.4,3.1,3.1c1.3,0.7,2.8,1.1,4.4,1.1c1.3,0,2.5-0.2,3.6-0.7c1.1-0.5,2.1-1.2,2.8-2.2l0.5,0.5
	c-0.8,1-1.8,1.7-3,2.3c-1.2,0.5-2.5,0.8-3.8,0.8c-1.8,0-3.4-0.4-4.8-1.2c-1.4-0.8-2.5-1.9-3.3-3.4c-0.8-1.4-1.2-3.1-1.2-4.9
	s0.4-3.4,1.1-4.8c0.7-1.4,1.8-2.6,3.1-3.3c1.3-0.8,2.8-1.2,4.4-1.2c1.6,0,3.1,0.4,4.4,1.2c1.3,0.8,2.4,1.9,3.1,3.3
	c0.8,1.4,1.2,3,1.2,4.8V519z M493.2,510.3c-1.4,0-2.7,0.3-3.9,1c-1.2,0.7-2.1,1.7-2.8,2.9c-0.7,1.2-1.1,2.6-1.2,4.1h15.9
	c-0.1-1.5-0.5-2.9-1.2-4.1s-1.7-2.2-2.8-2.9C496,510.6,494.6,510.3,493.2,510.3z M516.5,509.6c2.3,0,4.2,0.7,5.5,2
	c1.3,1.3,2,3.2,2,5.7v11h-0.7v-11c0-2.3-0.6-4-1.8-5.2c-1.2-1.2-2.8-1.8-4.9-1.8c-2.4,0-4.3,0.7-5.8,2.2c-1.4,1.4-2.1,3.3-2.1,5.7
	v10.1h-0.7v-18.6h0.7v5c0.6-1.6,1.5-2.8,2.9-3.7C512.9,510,514.5,509.6,516.5,509.6z M536.3,528.4c-1.5,0-2.9-0.2-4.2-0.7
	c-1.3-0.5-2.3-1.1-3.1-1.8l0.4-0.6c0.7,0.7,1.7,1.3,2.9,1.8c1.2,0.5,2.5,0.7,4,0.7c2.1,0,3.7-0.4,4.7-1.1c1-0.7,1.5-1.8,1.5-3.1
	c0-0.9-0.3-1.7-0.8-2.2c-0.5-0.6-1.2-0.9-2-1.2c-0.8-0.3-1.8-0.5-3.2-0.8c-1.5-0.3-2.7-0.5-3.6-0.8c-0.9-0.3-1.6-0.8-2.3-1.4
	c-0.6-0.7-0.9-1.6-0.9-2.8c0-1.3,0.6-2.5,1.7-3.4c1.1-0.9,2.8-1.4,4.9-1.4c1.2,0,2.3,0.2,3.4,0.5c1.1,0.3,2,0.8,2.7,1.4l-0.4,0.6
	c-0.7-0.6-1.6-1-2.6-1.3c-1-0.3-2.1-0.5-3.1-0.5c-1.9,0-3.4,0.4-4.4,1.2c-1,0.7-1.4,1.7-1.4,3c0,1,0.3,1.8,0.8,2.3
	c0.6,0.6,1.2,1,2.1,1.2c0.8,0.3,1.9,0.5,3.2,0.8c1.5,0.3,2.6,0.6,3.5,0.9s1.6,0.8,2.2,1.4c0.6,0.6,0.9,1.5,0.9,2.6
	c0,1.5-0.6,2.6-1.8,3.5C540.2,528,538.5,528.4,536.3,528.4z M548.6,509.7h0.7v18.6h-0.7V509.7z M549,504.5c-0.3,0-0.5-0.1-0.7-0.3
	c-0.2-0.2-0.3-0.4-0.3-0.6c0-0.3,0.1-0.5,0.3-0.6c0.2-0.2,0.4-0.3,0.7-0.3c0.2,0,0.5,0.1,0.6,0.3c0.2,0.2,0.3,0.4,0.3,0.6
	c0,0.2-0.1,0.5-0.3,0.6C549.5,504.4,549.2,504.5,549,504.5z M564.5,528.4c-1.7,0-3.3-0.4-4.6-1.2c-1.4-0.8-2.4-1.9-3.2-3.4
	c-0.8-1.4-1.2-3.1-1.2-4.9s0.4-3.4,1.2-4.8c0.8-1.4,1.9-2.6,3.2-3.3c1.4-0.8,2.9-1.2,4.6-1.2s3.2,0.4,4.6,1.2
	c1.4,0.8,2.5,1.9,3.2,3.3c0.8,1.4,1.2,3,1.2,4.8s-0.4,3.4-1.2,4.9c-0.8,1.4-1.8,2.6-3.2,3.4C567.7,528,566.2,528.4,564.5,528.4z
	 M564.5,527.7c1.6,0,3-0.4,4.2-1.1c1.3-0.7,2.3-1.8,3-3.1c0.7-1.3,1.1-2.9,1.1-4.5s-0.4-3.2-1.1-4.5c-0.7-1.3-1.7-2.4-3-3.1
	c-1.3-0.7-2.7-1.1-4.2-1.1s-3,0.4-4.2,1.1c-1.3,0.7-2.3,1.8-3,3.1c-0.7,1.3-1.1,2.8-1.1,4.5s0.4,3.2,1.1,4.5c0.7,1.3,1.7,2.4,3,3.1
	C561.5,527.4,562.9,527.7,564.5,527.7z M588.1,509.6c2.3,0,4.2,0.7,5.5,2c1.3,1.3,2,3.2,2,5.7v11h-0.7v-11c0-2.3-0.6-4-1.8-5.2
	c-1.2-1.2-2.8-1.8-4.9-1.8c-2.4,0-4.3,0.7-5.8,2.2c-1.4,1.4-2.1,3.3-2.1,5.7v10.1h-0.7v-18.6h0.7v5c0.6-1.6,1.5-2.8,2.9-3.7
	C584.6,510,586.2,509.6,588.1,509.6z M607.9,528.4c-1.5,0-2.9-0.2-4.2-0.7c-1.3-0.5-2.3-1.1-3.1-1.8l0.4-0.6
	c0.7,0.7,1.7,1.3,2.9,1.8c1.2,0.5,2.5,0.7,4,0.7c2.1,0,3.7-0.4,4.7-1.1c1-0.7,1.5-1.8,1.5-3.1c0-0.9-0.3-1.7-0.8-2.2
	c-0.5-0.6-1.2-0.9-2-1.2c-0.8-0.3-1.8-0.5-3.2-0.8c-1.5-0.3-2.7-0.5-3.6-0.8c-0.9-0.3-1.6-0.8-2.3-1.4c-0.6-0.7-0.9-1.6-0.9-2.8
	c0-1.3,0.6-2.5,1.7-3.4c1.1-0.9,2.8-1.4,4.9-1.4c1.2,0,2.3,0.2,3.4,0.5c1.1,0.3,2,0.8,2.7,1.4l-0.4,0.6c-0.7-0.6-1.6-1-2.6-1.3
	c-1-0.3-2.1-0.5-3.1-0.5c-1.9,0-3.4,0.4-4.4,1.2c-1,0.7-1.4,1.7-1.4,3c0,1,0.3,1.8,0.8,2.3c0.6,0.6,1.2,1,2.1,1.2s1.9,0.5,3.2,0.8
	c1.5,0.3,2.6,0.6,3.5,0.9s1.6,0.8,2.2,1.4c0.6,0.6,0.9,1.5,0.9,2.6c0,1.5-0.6,2.6-1.8,3.5C611.9,528,610.2,528.4,607.9,528.4z
	 M652.5,509.6c2.3,0,4,0.7,5.3,2c1.3,1.3,1.9,3.2,1.9,5.7v11H659v-11c0-2.3-0.6-4-1.7-5.2c-1.1-1.2-2.7-1.8-4.8-1.8
	c-2.4,0-4.2,0.7-5.6,2.2c-1.4,1.4-2.1,3.3-2.1,5.7v10.1h-0.7v-11c0-2.3-0.6-4-1.7-5.2c-1.1-1.2-2.7-1.8-4.8-1.8
	c-2.4,0-4.2,0.7-5.6,2.2c-1.4,1.4-2.1,3.3-2.1,5.7v10.1h-0.7v-18.6h0.7v4.9c0.6-1.6,1.5-2.8,2.8-3.7c1.3-0.9,2.9-1.3,4.8-1.3
	c1.9,0,3.5,0.5,4.7,1.4c1.2,0.9,2,2.3,2.4,4.1c0.5-1.7,1.4-3,2.7-4C648.8,510.1,650.5,509.6,652.5,509.6z M673.7,509.6
	c2.2,0,3.8,0.6,4.9,1.7c1.2,1.1,1.7,2.7,1.7,4.8v12.2h-0.7v-4c-0.6,1.3-1.5,2.3-2.7,3c-1.2,0.7-2.7,1.1-4.4,1.1
	c-2.1,0-3.7-0.5-4.9-1.4c-1.2-1-1.7-2.2-1.7-3.8c0-1.5,0.5-2.7,1.5-3.6c1.1-0.9,2.7-1.4,5.1-1.4h7.1v-2.1c0-1.9-0.5-3.4-1.5-4.4
	c-1-1-2.4-1.5-4.4-1.5c-1.3,0-2.6,0.2-3.8,0.7c-1.2,0.5-2.1,1.1-3,1.9l-0.5-0.5c0.9-0.9,2-1.5,3.2-2
	C671,509.8,672.3,509.6,673.7,509.6z M672.6,527.7c3.5,0,5.8-1.6,7.1-4.8v-4.1h-7.1c-2,0-3.5,0.4-4.5,1.2c-0.9,0.8-1.4,1.8-1.4,3.1
	c0,1.4,0.5,2.5,1.5,3.3C669.3,527.3,670.7,527.7,672.6,527.7z M694.7,517.5l-5.5,5v5.8h-0.7v-26.7h0.7v20.1l13.1-12h1l-8.1,7.4
	l8.9,11.2h-0.9L694.7,517.5z M723.3,519h-16.6c0,1.7,0.4,3.2,1.1,4.5c0.7,1.3,1.8,2.4,3.1,3.1c1.3,0.7,2.8,1.1,4.4,1.1
	c1.3,0,2.5-0.2,3.6-0.7c1.1-0.5,2.1-1.2,2.8-2.2l0.5,0.5c-0.8,1-1.8,1.7-3,2.3c-1.2,0.5-2.5,0.8-3.8,0.8c-1.8,0-3.4-0.4-4.8-1.2
	c-1.4-0.8-2.5-1.9-3.3-3.4c-0.8-1.4-1.2-3.1-1.2-4.9s0.4-3.4,1.1-4.8c0.7-1.4,1.8-2.6,3.1-3.3c1.3-0.8,2.8-1.2,4.4-1.2
	c1.6,0,3.1,0.4,4.4,1.2c1.3,0.8,2.4,1.9,3.1,3.3c0.8,1.4,1.2,3,1.2,4.8V519z M714.7,510.3c-1.4,0-2.7,0.3-3.9,1
	c-1.2,0.7-2.1,1.7-2.8,2.9c-0.7,1.2-1.1,2.6-1.2,4.1h15.9c-0.1-1.5-0.5-2.9-1.2-4.1c-0.7-1.2-1.7-2.2-2.8-2.9
	C717.4,510.6,716.1,510.3,714.7,510.3z M738.4,509.7h0.7v18.6h-0.7V509.7z M738.8,504.5c-0.3,0-0.5-0.1-0.7-0.3
	c-0.2-0.2-0.3-0.4-0.3-0.6c0-0.3,0.1-0.5,0.3-0.6c0.2-0.2,0.4-0.3,0.7-0.3c0.2,0,0.5,0.1,0.6,0.3c0.2,0.2,0.3,0.4,0.3,0.6
	c0,0.2-0.1,0.5-0.3,0.6C739.2,504.4,739,504.5,738.8,504.5z M755.8,527.1c-0.4,0.4-0.9,0.8-1.6,1c-0.6,0.2-1.3,0.3-2,0.3
	c-1.4,0-2.6-0.4-3.3-1.2c-0.8-0.8-1.2-2-1.2-3.3v-13.5h-3.6v-0.7h3.6v-4.1h0.7v4.1h6.3v0.7h-6.3v13.3c0,1.3,0.3,2.3,1,3
	c0.6,0.7,1.6,1,2.8,1c1.2,0,2.3-0.4,3.1-1.2L755.8,527.1z M105.2,563H88.7c0,1.7,0.4,3.2,1.1,4.5c0.7,1.3,1.8,2.4,3.1,3.1
	c1.3,0.7,2.8,1.1,4.4,1.1c1.3,0,2.5-0.2,3.6-0.7c1.1-0.5,2.1-1.2,2.8-2.2l0.5,0.5c-0.8,1-1.8,1.7-3,2.3c-1.2,0.5-2.5,0.8-3.8,0.8
	c-1.8,0-3.4-0.4-4.8-1.2c-1.4-0.8-2.5-1.9-3.3-3.4c-0.8-1.4-1.2-3.1-1.2-4.9c0-1.8,0.4-3.4,1.1-4.8c0.7-1.4,1.8-2.6,3.1-3.3
	c1.3-0.8,2.8-1.2,4.4-1.2c1.6,0,3.1,0.4,4.4,1.2s2.4,1.9,3.1,3.3c0.8,1.4,1.2,3,1.2,4.8V563z M96.6,554.3c-1.4,0-2.7,0.3-3.9,1
	s-2.1,1.7-2.8,2.9c-0.7,1.2-1.1,2.6-1.2,4.1h15.9c-0.1-1.5-0.5-2.9-1.2-4.1s-1.7-2.2-2.8-2.9S98,554.3,96.6,554.3z M116.7,553.6
	c2.2,0,3.8,0.6,4.9,1.7c1.2,1.1,1.7,2.7,1.7,4.8v12.2h-0.7v-4c-0.6,1.3-1.5,2.3-2.7,3c-1.2,0.7-2.7,1.1-4.4,1.1
	c-2.1,0-3.7-0.5-4.9-1.4c-1.2-1-1.7-2.2-1.7-3.8c0-1.5,0.5-2.7,1.5-3.6c1.1-0.9,2.7-1.4,5.1-1.4h7.1v-2.1c0-1.9-0.5-3.4-1.5-4.4
	c-1-1-2.4-1.5-4.4-1.5c-1.3,0-2.6,0.2-3.8,0.7c-1.2,0.5-2.1,1.1-3,1.9l-0.5-0.5c0.9-0.9,2-1.5,3.2-2
	C114,553.8,115.3,553.6,116.7,553.6z M115.6,571.7c3.5,0,5.8-1.6,7.1-4.8v-4.1h-7.1c-2,0-3.5,0.4-4.5,1.2c-0.9,0.8-1.4,1.8-1.4,3.1
	c0,1.4,0.5,2.5,1.5,3.3C112.3,571.3,113.7,571.7,115.6,571.7z M135.7,572.4c-1.5,0-2.9-0.2-4.2-0.7c-1.3-0.5-2.3-1.1-3.1-1.8
	l0.4-0.6c0.7,0.7,1.7,1.3,2.9,1.8c1.2,0.5,2.5,0.7,4,0.7c2.1,0,3.7-0.4,4.7-1.1c1-0.7,1.5-1.8,1.5-3.1c0-0.9-0.3-1.7-0.8-2.2
	c-0.5-0.6-1.2-0.9-2-1.2c-0.8-0.3-1.8-0.5-3.2-0.8c-1.5-0.3-2.7-0.5-3.6-0.8c-0.9-0.3-1.6-0.8-2.3-1.4c-0.6-0.7-0.9-1.6-0.9-2.8
	c0-1.3,0.6-2.5,1.7-3.4c1.1-0.9,2.8-1.4,4.9-1.4c1.2,0,2.3,0.2,3.4,0.5c1.1,0.3,2,0.8,2.7,1.4l-0.4,0.6c-0.7-0.6-1.6-1-2.6-1.3
	c-1-0.3-2.1-0.5-3.1-0.5c-1.9,0-3.4,0.4-4.4,1.2c-1,0.7-1.4,1.7-1.4,3c0,1,0.3,1.8,0.8,2.3c0.6,0.6,1.2,1,2.1,1.2
	c0.8,0.3,1.9,0.5,3.2,0.8c1.5,0.3,2.6,0.6,3.5,0.9c0.9,0.3,1.6,0.8,2.2,1.4c0.6,0.6,0.9,1.5,0.9,2.6c0,1.5-0.6,2.6-1.8,3.5
	C139.7,572,138,572.4,135.7,572.4z M161.7,553.7l-9.9,21.6c-0.7,1.5-1.4,2.5-2.3,3.2c-0.8,0.6-1.8,0.9-3,0.9c-1.7,0-3-0.6-4-1.7
	l0.5-0.6c0.5,0.6,1,0.9,1.6,1.2c0.6,0.2,1.2,0.4,1.9,0.4c1,0,1.8-0.3,2.5-0.8c0.7-0.5,1.4-1.5,2-2.8l1.3-2.8l-8.5-18.5h0.8l8.1,17.8
	l8.1-17.8H161.7z M183.5,571.1c-0.4,0.4-0.9,0.8-1.6,1c-0.6,0.2-1.3,0.3-2,0.3c-1.4,0-2.6-0.4-3.3-1.2c-0.8-0.8-1.2-2-1.2-3.3v-13.5
	h-3.6v-0.7h3.6v-4.1h0.7v4.1h6.3v0.7H176v13.3c0,1.3,0.3,2.3,1,3s1.6,1,2.8,1s2.3-0.4,3.1-1.2L183.5,571.1z M195.1,572.4
	c-1.7,0-3.3-0.4-4.6-1.2c-1.4-0.8-2.4-1.9-3.2-3.4c-0.8-1.4-1.2-3.1-1.2-4.9c0-1.8,0.4-3.4,1.2-4.8c0.8-1.4,1.9-2.6,3.2-3.3
	c1.4-0.8,2.9-1.2,4.6-1.2s3.2,0.4,4.6,1.2c1.4,0.8,2.5,1.9,3.2,3.3c0.8,1.4,1.2,3,1.2,4.8c0,1.8-0.4,3.4-1.2,4.9
	c-0.8,1.4-1.8,2.6-3.2,3.4C198.4,572,196.8,572.4,195.1,572.4z M195.1,571.7c1.6,0,3-0.4,4.2-1.1c1.3-0.7,2.3-1.8,3-3.1
	c0.7-1.3,1.1-2.9,1.1-4.5c0-1.7-0.4-3.2-1.1-4.5c-0.7-1.3-1.7-2.4-3-3.1c-1.3-0.7-2.7-1.1-4.2-1.1s-3,0.4-4.2,1.1
	c-1.3,0.7-2.3,1.8-3,3.1c-0.7,1.3-1.1,2.8-1.1,4.5c0,1.7,0.4,3.2,1.1,4.5c0.7,1.3,1.7,2.4,3,3.1
	C192.2,571.4,193.6,571.7,195.1,571.7z M225.2,553.6c2.2,0,3.8,0.6,4.9,1.7c1.2,1.1,1.7,2.7,1.7,4.8v12.2h-0.7v-4
	c-0.6,1.3-1.5,2.3-2.7,3c-1.2,0.7-2.7,1.1-4.4,1.1c-2.1,0-3.7-0.5-4.9-1.4c-1.2-1-1.7-2.2-1.7-3.8c0-1.5,0.5-2.7,1.5-3.6
	c1.1-0.9,2.7-1.4,5.1-1.4h7.1v-2.1c0-1.9-0.5-3.4-1.5-4.4c-1-1-2.4-1.5-4.4-1.5c-1.3,0-2.6,0.2-3.8,0.7c-1.2,0.5-2.1,1.1-3,1.9
	l-0.5-0.5c0.9-0.9,2-1.5,3.2-2C222.5,553.8,223.8,553.6,225.2,553.6z M224,571.7c3.5,0,5.8-1.6,7.1-4.8v-4.1H224
	c-2,0-3.5,0.4-4.5,1.2c-0.9,0.8-1.4,1.8-1.4,3.1c0,1.4,0.5,2.5,1.5,3.3C220.8,571.3,222.2,571.7,224,571.7z M255.8,545.6v26.7h-0.7
	v-5.7c-0.6,1.8-1.7,3.2-3.2,4.2c-1.5,1-3.2,1.5-5.1,1.5c-1.7,0-3.2-0.4-4.6-1.2c-1.4-0.8-2.4-1.9-3.2-3.4c-0.8-1.4-1.2-3.1-1.2-4.9
	c0-1.8,0.4-3.4,1.2-4.8c0.8-1.4,1.9-2.6,3.2-3.3c1.4-0.8,2.9-1.2,4.6-1.2c1.9,0,3.6,0.5,5.1,1.6c1.5,1,2.6,2.4,3.2,4.2v-13.8H255.8z
	 M246.8,571.7c1.6,0,3-0.4,4.2-1.1c1.3-0.7,2.3-1.8,3-3.1c0.7-1.3,1.1-2.9,1.1-4.5c0-1.7-0.4-3.2-1.1-4.5c-0.7-1.3-1.7-2.4-3-3.1
	c-1.3-0.7-2.7-1.1-4.2-1.1s-3,0.4-4.2,1.1c-1.3,0.7-2.3,1.8-3,3.1c-0.7,1.3-1.1,2.8-1.1,4.5c0,1.7,0.4,3.2,1.1,4.5
	c0.7,1.3,1.7,2.4,3,3.1C243.8,571.4,245.2,571.7,246.8,571.7z M280,545.6v26.7h-0.7v-5.7c-0.6,1.8-1.7,3.2-3.2,4.2
	c-1.5,1-3.2,1.5-5.1,1.5c-1.7,0-3.2-0.4-4.6-1.2c-1.4-0.8-2.4-1.9-3.2-3.4s-1.2-3.1-1.2-4.9c0-1.8,0.4-3.4,1.2-4.8
	c0.8-1.4,1.9-2.6,3.2-3.3c1.4-0.8,2.9-1.2,4.6-1.2c1.9,0,3.6,0.5,5.1,1.6c1.5,1,2.6,2.4,3.2,4.2v-13.8H280z M270.9,571.7
	c1.6,0,3-0.4,4.2-1.1c1.3-0.7,2.3-1.8,3-3.1c0.7-1.3,1.1-2.9,1.1-4.5c0-1.7-0.4-3.2-1.1-4.5c-0.7-1.3-1.7-2.4-3-3.1
	c-1.3-0.7-2.7-1.1-4.2-1.1s-3,0.4-4.2,1.1c-1.3,0.7-2.3,1.8-3,3.1c-0.7,1.3-1.1,2.8-1.1,4.5c0,1.7,0.4,3.2,1.1,4.5
	c0.7,1.3,1.7,2.4,3,3.1C267.9,571.4,269.4,571.7,270.9,571.7z M310.5,572.4c-1.5,0-2.9-0.2-4.2-0.7c-1.3-0.5-2.3-1.1-3.1-1.8
	l0.4-0.6c0.7,0.7,1.7,1.3,2.9,1.8c1.2,0.5,2.5,0.7,4,0.7c2.1,0,3.7-0.4,4.7-1.1c1-0.7,1.5-1.8,1.5-3.1c0-0.9-0.3-1.7-0.8-2.2
	c-0.5-0.6-1.2-0.9-2-1.2c-0.8-0.3-1.8-0.5-3.2-0.8c-1.5-0.3-2.7-0.5-3.6-0.8c-0.9-0.3-1.6-0.8-2.3-1.4c-0.6-0.7-0.9-1.6-0.9-2.8
	c0-1.3,0.6-2.5,1.7-3.4c1.1-0.9,2.8-1.4,4.9-1.4c1.2,0,2.3,0.2,3.4,0.5c1.1,0.3,2,0.8,2.7,1.4l-0.4,0.6c-0.7-0.6-1.6-1-2.6-1.3
	c-1-0.3-2.1-0.5-3.1-0.5c-1.9,0-3.4,0.4-4.4,1.2c-1,0.7-1.4,1.7-1.4,3c0,1,0.3,1.8,0.8,2.3c0.6,0.6,1.2,1,2.1,1.2
	c0.8,0.3,1.9,0.5,3.2,0.8c1.5,0.3,2.6,0.6,3.5,0.9c0.9,0.3,1.6,0.8,2.2,1.4c0.6,0.6,0.9,1.5,0.9,2.6c0,1.5-0.6,2.6-1.8,3.5
	C314.5,572,312.8,572.4,310.5,572.4z M337.9,563h-16.6c0,1.7,0.4,3.2,1.1,4.5c0.7,1.3,1.8,2.4,3.1,3.1c1.3,0.7,2.8,1.1,4.4,1.1
	c1.3,0,2.5-0.2,3.6-0.7c1.1-0.5,2.1-1.2,2.8-2.2l0.5,0.5c-0.8,1-1.8,1.7-3,2.3c-1.2,0.5-2.5,0.8-3.8,0.8c-1.8,0-3.4-0.4-4.8-1.2
	c-1.4-0.8-2.5-1.9-3.3-3.4c-0.8-1.4-1.2-3.1-1.2-4.9c0-1.8,0.4-3.4,1.1-4.8c0.7-1.4,1.8-2.6,3.1-3.3c1.3-0.8,2.8-1.2,4.4-1.2
	c1.6,0,3.1,0.4,4.4,1.2c1.3,0.8,2.4,1.9,3.1,3.3c0.8,1.4,1.2,3,1.2,4.8V563z M329.3,554.3c-1.4,0-2.7,0.3-3.9,1s-2.1,1.7-2.8,2.9
	c-0.7,1.2-1.1,2.6-1.2,4.1h15.9c-0.1-1.5-0.5-2.9-1.2-4.1s-1.7-2.2-2.8-2.9S330.7,554.3,329.3,554.3z M352.6,553.6
	c2.3,0,4.2,0.7,5.5,2c1.3,1.3,2,3.2,2,5.7v11h-0.7v-11c0-2.3-0.6-4-1.8-5.2c-1.2-1.2-2.8-1.8-4.9-1.8c-2.4,0-4.3,0.7-5.8,2.2
	c-1.4,1.4-2.1,3.3-2.1,5.7v10.1H344v-18.6h0.7v5c0.6-1.6,1.5-2.8,2.9-3.7C349,554,350.6,553.6,352.6,553.6z M372.4,572.4
	c-1.5,0-2.9-0.2-4.2-0.7c-1.3-0.5-2.3-1.1-3.1-1.8l0.4-0.6c0.7,0.7,1.7,1.3,2.9,1.8c1.2,0.5,2.5,0.7,4,0.7c2.1,0,3.7-0.4,4.7-1.1
	c1-0.7,1.5-1.8,1.5-3.1c0-0.9-0.3-1.7-0.8-2.2c-0.5-0.6-1.2-0.9-2-1.2c-0.8-0.3-1.8-0.5-3.2-0.8c-1.5-0.3-2.7-0.5-3.6-0.8
	c-0.9-0.3-1.6-0.8-2.3-1.4c-0.6-0.7-0.9-1.6-0.9-2.8c0-1.3,0.6-2.5,1.7-3.4c1.1-0.9,2.8-1.4,4.9-1.4c1.2,0,2.3,0.2,3.4,0.5
	c1.1,0.3,2,0.8,2.7,1.4l-0.4,0.6c-0.7-0.6-1.6-1-2.6-1.3c-1-0.3-2.1-0.5-3.1-0.5c-1.9,0-3.4,0.4-4.4,1.2c-1,0.7-1.4,1.7-1.4,3
	c0,1,0.3,1.8,0.8,2.3c0.6,0.6,1.2,1,2.1,1.2c0.8,0.3,1.9,0.5,3.2,0.8c1.5,0.3,2.6,0.6,3.5,0.9c0.9,0.3,1.6,0.8,2.2,1.4
	c0.6,0.6,0.9,1.5,0.9,2.6c0,1.5-0.6,2.6-1.8,3.5C376.3,572,374.6,572.4,372.4,572.4z M391.6,572.4c-1.7,0-3.3-0.4-4.6-1.2
	c-1.4-0.8-2.4-1.9-3.2-3.4c-0.8-1.4-1.2-3.1-1.2-4.9c0-1.8,0.4-3.4,1.2-4.8c0.8-1.4,1.9-2.6,3.2-3.3c1.4-0.8,2.9-1.2,4.6-1.2
	c1.7,0,3.2,0.4,4.6,1.2c1.4,0.8,2.5,1.9,3.2,3.3c0.8,1.4,1.2,3,1.2,4.8c0,1.8-0.4,3.4-1.2,4.9c-0.8,1.4-1.8,2.6-3.2,3.4
	C394.8,572,393.3,572.4,391.6,572.4z M391.6,571.7c1.6,0,3-0.4,4.2-1.1c1.3-0.7,2.3-1.8,3-3.1c0.7-1.3,1.1-2.9,1.1-4.5
	c0-1.7-0.4-3.2-1.1-4.5c-0.7-1.3-1.7-2.4-3-3.1c-1.3-0.7-2.7-1.1-4.2-1.1c-1.6,0-3,0.4-4.2,1.1c-1.3,0.7-2.3,1.8-3,3.1
	c-0.7,1.3-1.1,2.8-1.1,4.5c0,1.7,0.4,3.2,1.1,4.5c0.7,1.3,1.7,2.4,3,3.1C388.6,571.4,390,571.7,391.6,571.7z M407.4,558.5
	c0.5-1.6,1.4-2.8,2.7-3.6c1.2-0.9,2.8-1.3,4.6-1.3v0.7h-0.2c-2.2,0-4,0.7-5.2,2.2c-1.2,1.4-1.9,3.4-1.9,5.8v10h-0.7v-18.6h0.7V558.5
	z M424.6,572.4c-1.5,0-2.9-0.2-4.2-0.7c-1.3-0.5-2.3-1.1-3.1-1.8l0.4-0.6c0.7,0.7,1.7,1.3,2.9,1.8c1.2,0.5,2.5,0.7,4,0.7
	c2.1,0,3.7-0.4,4.7-1.1c1-0.7,1.5-1.8,1.5-3.1c0-0.9-0.3-1.7-0.8-2.2c-0.5-0.6-1.2-0.9-2-1.2c-0.8-0.3-1.8-0.5-3.2-0.8
	c-1.5-0.3-2.7-0.5-3.6-0.8c-0.9-0.3-1.6-0.8-2.3-1.4c-0.6-0.7-0.9-1.6-0.9-2.8c0-1.3,0.6-2.5,1.7-3.4c1.1-0.9,2.8-1.4,4.9-1.4
	c1.2,0,2.3,0.2,3.4,0.5c1.1,0.3,2,0.8,2.7,1.4l-0.4,0.6c-0.7-0.6-1.6-1-2.6-1.3c-1-0.3-2.1-0.5-3.1-0.5c-1.9,0-3.4,0.4-4.4,1.2
	c-1,0.7-1.4,1.7-1.4,3c0,1,0.3,1.8,0.8,2.3c0.6,0.6,1.2,1,2.1,1.2c0.8,0.3,1.9,0.5,3.2,0.8c1.5,0.3,2.6,0.6,3.5,0.9
	c0.9,0.3,1.6,0.8,2.2,1.4c0.6,0.6,0.9,1.5,0.9,2.6c0,1.5-0.6,2.6-1.8,3.5C428.6,572,426.9,572.4,424.6,572.4z M436.1,570.5
	c0.3,0,0.5,0.1,0.6,0.3c0.2,0.2,0.3,0.4,0.3,0.6c0,0.2,0,0.5-0.1,1l-1.2,4.8h-0.6l1-4.9c-0.3,0-0.5-0.1-0.7-0.3
	c-0.2-0.2-0.3-0.4-0.3-0.6c0-0.3,0.1-0.5,0.3-0.6C435.6,570.6,435.9,570.5,436.1,570.5z M461.6,553.6c1.7,0,3.2,0.4,4.6,1.2
	c1.4,0.8,2.5,1.9,3.3,3.3s1.2,3.1,1.2,4.9c0,1.8-0.4,3.4-1.2,4.9c-0.8,1.4-1.9,2.5-3.3,3.3c-1.4,0.8-2.9,1.2-4.6,1.2
	c-1.9,0-3.6-0.5-5.1-1.5c-1.5-1.1-2.5-2.5-3.2-4.2v12.6h-0.7v-25.6h0.7v5.7c0.6-1.8,1.7-3.2,3.2-4.2
	C457.9,554.1,459.6,553.6,461.6,553.6z M461.6,571.7c1.6,0,3-0.4,4.2-1.1c1.3-0.7,2.3-1.8,3-3.1c0.7-1.3,1.1-2.9,1.1-4.5
	c0-1.7-0.4-3.2-1.1-4.5c-0.7-1.3-1.7-2.4-3-3.1c-1.3-0.7-2.7-1.1-4.2-1.1s-3,0.4-4.2,1.1c-1.3,0.7-2.3,1.8-3,3.1
	c-0.7,1.3-1.1,2.8-1.1,4.5c0,1.7,0.4,3.2,1.1,4.5c0.7,1.3,1.7,2.4,3,3.1C458.6,571.4,460,571.7,461.6,571.7z M485.2,553.6
	c2.3,0,4.2,0.7,5.5,2c1.3,1.3,2,3.2,2,5.7v11h-0.7v-11c0-2.3-0.6-4-1.8-5.2c-1.2-1.2-2.8-1.8-4.9-1.8c-2.4,0-4.3,0.7-5.8,2.2
	c-1.4,1.4-2.1,3.3-2.1,5.7v10.1h-0.7v-26.7h0.7v13.1c0.6-1.6,1.5-2.8,2.9-3.7C481.6,554,483.3,553.6,485.2,553.6z M514.3,553.7
	l-9.9,21.6c-0.7,1.5-1.4,2.5-2.3,3.2s-1.8,0.9-3,0.9c-1.7,0-3-0.6-4-1.7l0.5-0.6c0.5,0.6,1,0.9,1.6,1.2c0.6,0.2,1.2,0.4,1.9,0.4
	c1,0,1.8-0.3,2.5-0.8c0.7-0.5,1.4-1.5,2-2.8l1.3-2.8l-8.5-18.5h0.8l8.1,17.8l8.1-17.8H514.3z M522.8,572.4c-1.5,0-2.9-0.2-4.2-0.7
	s-2.3-1.1-3.1-1.8l0.4-0.6c0.7,0.7,1.7,1.3,2.9,1.8c1.2,0.5,2.5,0.7,4,0.7c2.1,0,3.7-0.4,4.7-1.1c1-0.7,1.5-1.8,1.5-3.1
	c0-0.9-0.3-1.7-0.8-2.2c-0.5-0.6-1.2-0.9-2-1.2c-0.8-0.3-1.8-0.5-3.2-0.8c-1.5-0.3-2.7-0.5-3.6-0.8c-0.9-0.3-1.6-0.8-2.3-1.4
	c-0.6-0.7-0.9-1.6-0.9-2.8c0-1.3,0.6-2.5,1.7-3.4c1.1-0.9,2.8-1.4,4.9-1.4c1.2,0,2.3,0.2,3.4,0.5c1.1,0.3,2,0.8,2.7,1.4l-0.4,0.6
	c-0.7-0.6-1.6-1-2.6-1.3s-2.1-0.5-3.1-0.5c-1.9,0-3.4,0.4-4.4,1.2c-1,0.7-1.4,1.7-1.4,3c0,1,0.3,1.8,0.8,2.3c0.6,0.6,1.2,1,2.1,1.2
	c0.8,0.3,1.9,0.5,3.2,0.8c1.5,0.3,2.6,0.6,3.5,0.9c0.9,0.3,1.6,0.8,2.2,1.4c0.6,0.6,0.9,1.5,0.9,2.6c0,1.5-0.6,2.6-1.8,3.5
	C526.7,572,525,572.4,522.8,572.4z M535.1,553.7h0.7v18.6h-0.7V553.7z M535.5,548.5c-0.3,0-0.5-0.1-0.7-0.3
	c-0.2-0.2-0.3-0.4-0.3-0.6c0-0.3,0.1-0.5,0.3-0.6c0.2-0.2,0.4-0.3,0.7-0.3c0.2,0,0.5,0.1,0.6,0.3c0.2,0.2,0.3,0.4,0.3,0.6
	c0,0.2-0.1,0.5-0.3,0.6C536,548.4,535.7,548.5,535.5,548.5z M551.1,572.4c-1.8,0-3.3-0.4-4.7-1.2c-1.4-0.8-2.5-1.9-3.3-3.3
	c-0.8-1.4-1.2-3.1-1.2-4.9c0-1.8,0.4-3.4,1.2-4.9c0.8-1.4,1.9-2.6,3.3-3.3c1.4-0.8,3-1.2,4.7-1.2c1.4,0,2.6,0.3,3.8,0.8
	c1.2,0.5,2.1,1.2,2.9,2.2l-0.5,0.5c-0.7-1-1.6-1.7-2.7-2.2c-1.1-0.5-2.3-0.7-3.5-0.7c-1.6,0-3.1,0.4-4.4,1.1c-1.3,0.7-2.3,1.8-3,3.1
	c-0.7,1.3-1.1,2.8-1.1,4.5c0,1.7,0.4,3.2,1.1,4.5c0.7,1.3,1.7,2.4,3,3.1c1.3,0.7,2.7,1.1,4.4,1.1c1.3,0,2.4-0.2,3.5-0.7
	c1.1-0.5,2-1.2,2.7-2.2l0.5,0.5c-0.8,1-1.7,1.7-2.9,2.3C553.7,572.2,552.5,572.4,551.1,572.4z M569.7,553.6c2.2,0,3.8,0.6,4.9,1.7
	c1.2,1.1,1.7,2.7,1.7,4.8v12.2h-0.7v-4c-0.6,1.3-1.5,2.3-2.7,3c-1.2,0.7-2.7,1.1-4.4,1.1c-2.1,0-3.7-0.5-4.9-1.4
	c-1.2-1-1.7-2.2-1.7-3.8c0-1.5,0.5-2.7,1.5-3.6c1.1-0.9,2.7-1.4,5.1-1.4h7.1v-2.1c0-1.9-0.5-3.4-1.5-4.4c-1-1-2.4-1.5-4.4-1.5
	c-1.3,0-2.6,0.2-3.8,0.7c-1.2,0.5-2.1,1.1-3,1.9l-0.5-0.5c0.9-0.9,2-1.5,3.2-2C567,553.8,568.3,553.6,569.7,553.6z M568.5,571.7
	c3.5,0,5.8-1.6,7.1-4.8v-4.1h-7.1c-2,0-3.5,0.4-4.5,1.2c-0.9,0.8-1.4,1.8-1.4,3.1c0,1.4,0.5,2.5,1.5,3.3
	C565.3,571.3,566.7,571.7,568.5,571.7z M584.4,545.6h0.7v26.7h-0.7V545.6z M609.4,572.4c-1.8,0-3.3-0.4-4.7-1.2
	c-1.4-0.8-2.5-1.9-3.3-3.3c-0.8-1.4-1.2-3.1-1.2-4.9c0-1.8,0.4-3.4,1.2-4.9c0.8-1.4,1.9-2.6,3.3-3.3c1.4-0.8,3-1.2,4.7-1.2
	c1.4,0,2.6,0.3,3.8,0.8c1.2,0.5,2.1,1.2,2.9,2.2l-0.5,0.5c-0.7-1-1.6-1.7-2.7-2.2c-1.1-0.5-2.3-0.7-3.5-0.7c-1.6,0-3.1,0.4-4.4,1.1
	c-1.3,0.7-2.3,1.8-3,3.1c-0.7,1.3-1.1,2.8-1.1,4.5c0,1.7,0.4,3.2,1.1,4.5c0.7,1.3,1.7,2.4,3,3.1c1.3,0.7,2.7,1.1,4.4,1.1
	c1.3,0,2.4-0.2,3.5-0.7c1.1-0.5,2-1.2,2.7-2.2l0.5,0.5c-0.8,1-1.7,1.7-2.9,2.3C612,572.2,610.7,572.4,609.4,572.4z M628.5,572.4
	c-1.7,0-3.3-0.4-4.6-1.2c-1.4-0.8-2.4-1.9-3.2-3.4c-0.8-1.4-1.2-3.1-1.2-4.9c0-1.8,0.4-3.4,1.2-4.8c0.8-1.4,1.9-2.6,3.2-3.3
	c1.4-0.8,2.9-1.2,4.6-1.2c1.7,0,3.2,0.4,4.6,1.2c1.4,0.8,2.5,1.9,3.2,3.3c0.8,1.4,1.2,3,1.2,4.8c0,1.8-0.4,3.4-1.2,4.9
	c-0.8,1.4-1.8,2.6-3.2,3.4C631.8,572,630.2,572.4,628.5,572.4z M628.5,571.7c1.6,0,3-0.4,4.2-1.1c1.3-0.7,2.3-1.8,3-3.1
	c0.7-1.3,1.1-2.9,1.1-4.5c0-1.7-0.4-3.2-1.1-4.5c-0.7-1.3-1.7-2.4-3-3.1c-1.3-0.7-2.7-1.1-4.2-1.1s-3,0.4-4.2,1.1
	c-1.3,0.7-2.3,1.8-3,3.1c-0.7,1.3-1.1,2.8-1.1,4.5c0,1.7,0.4,3.2,1.1,4.5c0.7,1.3,1.7,2.4,3,3.1C625.6,571.4,627,571.7,628.5,571.7z
	 M652.2,553.6c2.3,0,4.2,0.7,5.5,2c1.3,1.3,2,3.2,2,5.7v11h-0.7v-11c0-2.3-0.6-4-1.8-5.2c-1.2-1.2-2.8-1.8-4.9-1.8
	c-2.4,0-4.3,0.7-5.8,2.2c-1.4,1.4-2.1,3.3-2.1,5.7v10.1h-0.7v-18.6h0.7v5c0.6-1.6,1.5-2.8,2.9-3.7
	C648.6,554,650.3,553.6,652.2,553.6z M676.1,571.1c-0.4,0.4-0.9,0.8-1.6,1c-0.6,0.2-1.3,0.3-2,0.3c-1.4,0-2.6-0.4-3.3-1.2
	c-0.8-0.8-1.2-2-1.2-3.3v-13.5h-3.6v-0.7h3.6v-4.1h0.7v4.1h6.3v0.7h-6.3v13.3c0,1.3,0.3,2.3,1,3s1.6,1,2.8,1s2.3-0.4,3.1-1.2
	L676.1,571.1z M682.4,558.5c0.5-1.6,1.4-2.8,2.7-3.6c1.2-0.9,2.8-1.3,4.6-1.3v0.7h-0.2c-2.2,0-4,0.7-5.2,2.2
	c-1.2,1.4-1.9,3.4-1.9,5.8v10h-0.7v-18.6h0.7V558.5z M701.8,572.4c-1.7,0-3.3-0.4-4.6-1.2c-1.4-0.8-2.4-1.9-3.2-3.4
	c-0.8-1.4-1.2-3.1-1.2-4.9c0-1.8,0.4-3.4,1.2-4.8c0.8-1.4,1.9-2.6,3.2-3.3c1.4-0.8,2.9-1.2,4.6-1.2c1.7,0,3.2,0.4,4.6,1.2
	c1.4,0.8,2.5,1.9,3.2,3.3c0.8,1.4,1.2,3,1.2,4.8c0,1.8-0.4,3.4-1.2,4.9c-0.8,1.4-1.8,2.6-3.2,3.4C705,572,703.5,572.4,701.8,572.4z
	 M701.8,571.7c1.6,0,3-0.4,4.2-1.1c1.3-0.7,2.3-1.8,3-3.1c0.7-1.3,1.1-2.9,1.1-4.5c0-1.7-0.4-3.2-1.1-4.5c-0.7-1.3-1.7-2.4-3-3.1
	c-1.3-0.7-2.7-1.1-4.2-1.1s-3,0.4-4.2,1.1c-1.3,0.7-2.3,1.8-3,3.1c-0.7,1.3-1.1,2.8-1.1,4.5c0,1.7,0.4,3.2,1.1,4.5
	c0.7,1.3,1.7,2.4,3,3.1C698.8,571.4,700.2,571.7,701.8,571.7z M716.9,545.6h0.7v26.7h-0.7V545.6z M730.2,572.4
	c-1.5,0-2.9-0.2-4.2-0.7s-2.3-1.1-3.1-1.8l0.4-0.6c0.7,0.7,1.7,1.3,2.9,1.8c1.2,0.5,2.5,0.7,4,0.7c2.1,0,3.7-0.4,4.7-1.1
	c1-0.7,1.5-1.8,1.5-3.1c0-0.9-0.3-1.7-0.8-2.2c-0.5-0.6-1.2-0.9-2-1.2c-0.8-0.3-1.8-0.5-3.2-0.8c-1.5-0.3-2.7-0.5-3.6-0.8
	c-0.9-0.3-1.6-0.8-2.3-1.4c-0.6-0.7-0.9-1.6-0.9-2.8c0-1.3,0.6-2.5,1.7-3.4c1.1-0.9,2.8-1.4,4.9-1.4c1.2,0,2.3,0.2,3.4,0.5
	c1.1,0.3,2,0.8,2.7,1.4l-0.4,0.6c-0.7-0.6-1.6-1-2.6-1.3s-2.1-0.5-3.1-0.5c-1.9,0-3.4,0.4-4.4,1.2c-1,0.7-1.4,1.7-1.4,3
	c0,1,0.3,1.8,0.8,2.3c0.6,0.6,1.2,1,2.1,1.2c0.8,0.3,1.9,0.5,3.2,0.8c1.5,0.3,2.6,0.6,3.5,0.9c0.9,0.3,1.6,0.8,2.2,1.4
	c0.6,0.6,0.9,1.5,0.9,2.6c0,1.5-0.6,2.6-1.8,3.5C734.2,572,732.4,572.4,730.2,572.4z M741.7,570.5c0.3,0,0.5,0.1,0.6,0.3
	c0.2,0.2,0.3,0.4,0.3,0.6c0,0.2,0,0.5-0.1,1l-1.2,4.8h-0.6l1-4.9c-0.3,0-0.5-0.1-0.7-0.3c-0.2-0.2-0.3-0.4-0.3-0.6
	c0-0.3,0.1-0.5,0.3-0.6C741.2,570.6,741.4,570.5,741.7,570.5z M97,616.4c-1.7,0-3.3-0.4-4.6-1.2c-1.4-0.8-2.4-1.9-3.2-3.4
	c-0.8-1.4-1.2-3.1-1.2-4.9c0-1.8,0.4-3.4,1.2-4.8c0.8-1.4,1.9-2.6,3.2-3.3c1.4-0.8,2.9-1.2,4.6-1.2c1.7,0,3.2,0.4,4.6,1.2
	c1.4,0.8,2.5,1.9,3.2,3.3c0.8,1.4,1.2,3,1.2,4.8c0,1.8-0.4,3.4-1.2,4.9c-0.8,1.4-1.8,2.6-3.2,3.4C100.2,616,98.7,616.4,97,616.4z
	 M97,615.7c1.6,0,3-0.4,4.2-1.1c1.3-0.7,2.3-1.8,3-3.1c0.7-1.3,1.1-2.9,1.1-4.5c0-1.7-0.4-3.2-1.1-4.5c-0.7-1.3-1.7-2.4-3-3.1
	c-1.3-0.7-2.7-1.1-4.2-1.1c-1.6,0-3,0.4-4.2,1.1c-1.3,0.7-2.3,1.8-3,3.1c-0.7,1.3-1.1,2.8-1.1,4.5c0,1.7,0.4,3.2,1.1,4.5
	c0.7,1.3,1.7,2.4,3,3.1C94,615.4,95.4,615.7,97,615.7z M127.8,597.7v18.6H127v-4.9c-0.6,1.6-1.5,2.8-2.8,3.7
	c-1.3,0.9-2.9,1.3-4.7,1.3c-2.4,0-4.3-0.7-5.6-2c-1.3-1.3-2-3.3-2-5.8v-11h0.7v11c0,2.3,0.6,4,1.8,5.3c1.2,1.2,2.9,1.8,5.1,1.8
	c2.3,0,4.2-0.7,5.5-2.2c1.3-1.5,2-3.4,2-5.8v-10.1H127.8z M144.5,615.1c-0.4,0.4-0.9,0.8-1.6,1c-0.6,0.2-1.3,0.3-2,0.3
	c-1.4,0-2.6-0.4-3.3-1.2c-0.8-0.8-1.2-2-1.2-3.3v-13.5h-3.6v-0.7h3.6v-4.1h0.7v4.1h6.3v0.7h-6.3v13.3c0,1.3,0.3,2.3,1,3
	c0.6,0.7,1.6,1,2.8,1s2.3-0.4,3.1-1.2L144.5,615.1z M159,597.6c1.7,0,3.2,0.4,4.6,1.2c1.4,0.8,2.5,1.9,3.3,3.3
	c0.8,1.4,1.2,3.1,1.2,4.9c0,1.8-0.4,3.4-1.2,4.9c-0.8,1.4-1.9,2.5-3.3,3.3c-1.4,0.8-2.9,1.2-4.6,1.2c-1.9,0-3.6-0.5-5.1-1.5
	c-1.5-1.1-2.5-2.5-3.2-4.2v12.6H150v-25.6h0.7v5.7c0.6-1.8,1.7-3.2,3.2-4.2C155.4,598.1,157.1,597.6,159,597.6z M159,615.7
	c1.6,0,3-0.4,4.2-1.1c1.3-0.7,2.3-1.8,3-3.1c0.7-1.3,1.1-2.9,1.1-4.5c0-1.7-0.4-3.2-1.1-4.5c-0.7-1.3-1.7-2.4-3-3.1
	c-1.3-0.7-2.7-1.1-4.2-1.1c-1.6,0-3,0.4-4.2,1.1c-1.3,0.7-2.3,1.8-3,3.1c-0.7,1.3-1.1,2.8-1.1,4.5c0,1.7,0.4,3.2,1.1,4.5
	c0.7,1.3,1.7,2.4,3,3.1C156.1,615.4,157.5,615.7,159,615.7z M189.8,597.7v18.6h-0.7v-4.9c-0.6,1.6-1.5,2.8-2.8,3.7
	c-1.3,0.9-2.9,1.3-4.7,1.3c-2.4,0-4.3-0.7-5.6-2c-1.3-1.3-2-3.3-2-5.8v-11h0.7v11c0,2.3,0.6,4,1.8,5.3c1.2,1.2,2.9,1.8,5.1,1.8
	c2.3,0,4.2-0.7,5.5-2.2c1.3-1.5,2-3.4,2-5.8v-10.1H189.8z M206.5,615.1c-0.4,0.4-0.9,0.8-1.6,1c-0.6,0.2-1.3,0.3-2,0.3
	c-1.4,0-2.6-0.4-3.3-1.2c-0.8-0.8-1.2-2-1.2-3.3v-13.5h-3.6v-0.7h3.6v-4.1h0.7v4.1h6.3v0.7h-6.3v13.3c0,1.3,0.3,2.3,1,3s1.6,1,2.8,1
	s2.3-0.4,3.1-1.2L206.5,615.1z M216.3,616.4c-1.5,0-2.9-0.2-4.2-0.7c-1.3-0.5-2.3-1.1-3.1-1.8l0.4-0.6c0.7,0.7,1.7,1.3,2.9,1.8
	c1.2,0.5,2.5,0.7,4,0.7c2.1,0,3.7-0.4,4.7-1.1c1-0.7,1.5-1.8,1.5-3.1c0-0.9-0.3-1.7-0.8-2.2c-0.5-0.6-1.2-0.9-2-1.2
	c-0.8-0.3-1.8-0.5-3.2-0.8c-1.5-0.3-2.7-0.5-3.6-0.8c-0.9-0.3-1.6-0.8-2.3-1.4c-0.6-0.7-0.9-1.6-0.9-2.8c0-1.3,0.6-2.5,1.7-3.4
	c1.1-0.9,2.8-1.4,4.9-1.4c1.2,0,2.3,0.2,3.4,0.5c1.1,0.3,2,0.8,2.7,1.4l-0.4,0.6c-0.7-0.6-1.6-1-2.6-1.3s-2.1-0.5-3.1-0.5
	c-1.9,0-3.4,0.4-4.4,1.2c-1,0.7-1.4,1.7-1.4,3c0,1,0.3,1.8,0.8,2.3c0.6,0.6,1.2,1,2.1,1.2c0.8,0.3,1.9,0.5,3.2,0.8
	c1.5,0.3,2.6,0.6,3.5,0.9c0.9,0.3,1.6,0.8,2.2,1.4c0.6,0.6,0.9,1.5,0.9,2.6c0,1.5-0.6,2.6-1.8,3.5
	C220.3,616,218.6,616.4,216.3,616.4z M243.6,597.6c2.2,0,3.8,0.6,4.9,1.7c1.2,1.1,1.7,2.7,1.7,4.8v12.2h-0.7v-4
	c-0.6,1.3-1.5,2.3-2.7,3c-1.2,0.7-2.7,1.1-4.4,1.1c-2.1,0-3.7-0.5-4.9-1.4c-1.2-1-1.7-2.2-1.7-3.8c0-1.5,0.5-2.7,1.5-3.6
	c1.1-0.9,2.7-1.4,5.1-1.4h7.1v-2.1c0-1.9-0.5-3.4-1.5-4.4c-1-1-2.4-1.5-4.4-1.5c-1.3,0-2.6,0.2-3.8,0.7c-1.2,0.5-2.1,1.1-3,1.9
	l-0.5-0.5c0.9-0.9,2-1.5,3.2-2C240.9,597.8,242.2,597.6,243.6,597.6z M242.5,615.7c3.5,0,5.8-1.6,7.1-4.8v-4.1h-7.1
	c-2,0-3.5,0.4-4.5,1.2c-0.9,0.8-1.4,1.8-1.4,3.1c0,1.4,0.5,2.5,1.5,3.3C239.2,615.3,240.6,615.7,242.5,615.7z M266.9,597.6
	c2.3,0,4.2,0.7,5.5,2c1.3,1.3,2,3.2,2,5.7v11h-0.7v-11c0-2.3-0.6-4-1.8-5.2c-1.2-1.2-2.8-1.8-4.9-1.8c-2.4,0-4.3,0.7-5.8,2.2
	c-1.4,1.4-2.1,3.3-2.1,5.7v10.1h-0.7v-18.6h0.7v5c0.6-1.6,1.5-2.8,2.9-3.7C263.3,598,264.9,597.6,266.9,597.6z M298.3,589.6v26.7
	h-0.7v-5.7c-0.6,1.8-1.7,3.2-3.2,4.2c-1.5,1-3.2,1.5-5.1,1.5c-1.7,0-3.2-0.4-4.6-1.2c-1.4-0.8-2.4-1.9-3.2-3.4s-1.2-3.1-1.2-4.9
	c0-1.8,0.4-3.4,1.2-4.8c0.8-1.4,1.9-2.6,3.2-3.3c1.4-0.8,2.9-1.2,4.6-1.2c1.9,0,3.6,0.5,5.1,1.6c1.5,1,2.6,2.4,3.2,4.2v-13.8H298.3z
	 M289.2,615.7c1.6,0,3-0.4,4.2-1.1c1.3-0.7,2.3-1.8,3-3.1c0.7-1.3,1.1-2.9,1.1-4.5c0-1.7-0.4-3.2-1.1-4.5c-0.7-1.3-1.7-2.4-3-3.1
	c-1.3-0.7-2.7-1.1-4.2-1.1s-3,0.4-4.2,1.1c-1.3,0.7-2.3,1.8-3,3.1c-0.7,1.3-1.1,2.8-1.1,4.5c0,1.7,0.4,3.2,1.1,4.5
	c0.7,1.3,1.7,2.4,3,3.1C286.3,615.4,287.7,615.7,289.2,615.7z M315.6,597.7h0.7v18.6h-0.7V597.7z M315.9,592.5
	c-0.3,0-0.5-0.1-0.7-0.3c-0.2-0.2-0.3-0.4-0.3-0.6c0-0.3,0.1-0.5,0.3-0.6c0.2-0.2,0.4-0.3,0.7-0.3c0.2,0,0.5,0.1,0.6,0.3
	c0.2,0.2,0.3,0.4,0.3,0.6c0,0.2-0.1,0.5-0.3,0.6C316.4,592.4,316.2,592.5,315.9,592.5z M333.1,597.6c2.3,0,4.2,0.7,5.5,2
	c1.3,1.3,2,3.2,2,5.7v11h-0.7v-11c0-2.3-0.6-4-1.8-5.2c-1.2-1.2-2.8-1.8-4.9-1.8c-2.4,0-4.3,0.7-5.8,2.2c-1.4,1.4-2.1,3.3-2.1,5.7
	v10.1h-0.7v-18.6h0.7v5c0.6-1.6,1.5-2.8,2.9-3.7C329.5,598,331.1,597.6,333.1,597.6z M357,615.1c-0.4,0.4-0.9,0.8-1.6,1
	c-0.6,0.2-1.3,0.3-2,0.3c-1.4,0-2.6-0.4-3.3-1.2c-0.8-0.8-1.2-2-1.2-3.3v-13.5h-3.6v-0.7h3.6v-4.1h0.7v4.1h6.3v0.7h-6.3v13.3
	c0,1.3,0.3,2.3,1,3c0.6,0.7,1.6,1,2.8,1c1.2,0,2.3-0.4,3.1-1.2L357,615.1z M376.9,607h-16.6c0,1.7,0.4,3.2,1.1,4.5
	c0.7,1.3,1.8,2.4,3.1,3.1c1.3,0.7,2.8,1.1,4.4,1.1c1.3,0,2.5-0.2,3.6-0.7c1.1-0.5,2.1-1.2,2.8-2.2l0.5,0.5c-0.8,1-1.8,1.7-3,2.3
	c-1.2,0.5-2.5,0.8-3.8,0.8c-1.8,0-3.4-0.4-4.8-1.2c-1.4-0.8-2.5-1.9-3.3-3.4c-0.8-1.4-1.2-3.1-1.2-4.9c0-1.8,0.4-3.4,1.1-4.8
	c0.7-1.4,1.8-2.6,3.1-3.3c1.3-0.8,2.8-1.2,4.4-1.2c1.6,0,3.1,0.4,4.4,1.2c1.3,0.8,2.4,1.9,3.1,3.3c0.8,1.4,1.2,3,1.2,4.8V607z
	 M368.3,598.3c-1.4,0-2.7,0.3-3.9,1c-1.2,0.7-2.1,1.7-2.8,2.9c-0.7,1.2-1.1,2.6-1.2,4.1h15.9c-0.1-1.5-0.5-2.9-1.2-4.1
	s-1.7-2.2-2.8-2.9S369.7,598.3,368.3,598.3z M383.7,602.5c0.5-1.6,1.4-2.8,2.7-3.6c1.2-0.9,2.8-1.3,4.6-1.3v0.7h-0.2
	c-2.2,0-4,0.7-5.2,2.2c-1.2,1.4-1.9,3.4-1.9,5.8v10H383v-18.6h0.7V602.5z M401.6,590.2c-1.2,0-2.2,0.3-2.8,1c-0.6,0.7-1,1.7-1,3v3.5
	h6.3v0.7h-6.3v17.9h-0.7v-17.9h-3.6v-0.7h3.6v-3.6c0-1.4,0.4-2.5,1.2-3.3c0.8-0.8,1.9-1.3,3.3-1.3c0.7,0,1.4,0.1,2,0.4
	c0.7,0.2,1.2,0.5,1.6,1l-0.5,0.5C403.9,590.6,402.8,590.2,401.6,590.2z M413.5,597.6c2.2,0,3.8,0.6,4.9,1.7c1.2,1.1,1.7,2.7,1.7,4.8
	v12.2h-0.7v-4c-0.6,1.3-1.5,2.3-2.7,3c-1.2,0.7-2.7,1.1-4.4,1.1c-2.1,0-3.7-0.5-4.9-1.4c-1.2-1-1.7-2.2-1.7-3.8
	c0-1.5,0.5-2.7,1.5-3.6c1.1-0.9,2.7-1.4,5.1-1.4h7.1v-2.1c0-1.9-0.5-3.4-1.5-4.4c-1-1-2.4-1.5-4.4-1.5c-1.3,0-2.6,0.2-3.8,0.7
	c-1.2,0.5-2.1,1.1-3,1.9l-0.5-0.5c0.9-0.9,2-1.5,3.2-2C410.8,597.8,412.1,597.6,413.5,597.6z M412.4,615.7c3.5,0,5.8-1.6,7.1-4.8
	v-4.1h-7.1c-2,0-3.5,0.4-4.5,1.2c-0.9,0.8-1.4,1.8-1.4,3.1c0,1.4,0.5,2.5,1.5,3.3C409.1,615.3,410.5,615.7,412.4,615.7z
	 M435.2,616.4c-1.8,0-3.3-0.4-4.7-1.2c-1.4-0.8-2.5-1.9-3.3-3.3c-0.8-1.4-1.2-3.1-1.2-4.9c0-1.8,0.4-3.4,1.2-4.9
	c0.8-1.4,1.9-2.6,3.3-3.3s3-1.2,4.7-1.2c1.4,0,2.6,0.3,3.8,0.8c1.2,0.5,2.1,1.2,2.9,2.2l-0.5,0.5c-0.7-1-1.6-1.7-2.7-2.2
	c-1.1-0.5-2.3-0.7-3.5-0.7c-1.6,0-3.1,0.4-4.4,1.1c-1.3,0.7-2.3,1.8-3,3.1c-0.7,1.3-1.1,2.8-1.1,4.5c0,1.7,0.4,3.2,1.1,4.5
	c0.7,1.3,1.7,2.4,3,3.1c1.3,0.7,2.7,1.1,4.4,1.1c1.3,0,2.4-0.2,3.5-0.7c1.1-0.5,2-1.2,2.7-2.2l0.5,0.5c-0.8,1-1.7,1.7-2.9,2.3
	C437.8,616.2,436.6,616.4,435.2,616.4z M462.6,607H446c0,1.7,0.4,3.2,1.1,4.5c0.7,1.3,1.8,2.4,3.1,3.1c1.3,0.7,2.8,1.1,4.4,1.1
	c1.3,0,2.5-0.2,3.6-0.7c1.1-0.5,2.1-1.2,2.8-2.2l0.5,0.5c-0.8,1-1.8,1.7-3,2.3c-1.2,0.5-2.5,0.8-3.8,0.8c-1.8,0-3.4-0.4-4.8-1.2
	c-1.4-0.8-2.5-1.9-3.3-3.4c-0.8-1.4-1.2-3.1-1.2-4.9c0-1.8,0.4-3.4,1.1-4.8c0.7-1.4,1.8-2.6,3.1-3.3c1.3-0.8,2.8-1.2,4.4-1.2
	c1.6,0,3.1,0.4,4.4,1.2c1.3,0.8,2.4,1.9,3.1,3.3c0.8,1.4,1.2,3,1.2,4.8V607z M453.9,598.3c-1.4,0-2.7,0.3-3.9,1s-2.1,1.7-2.8,2.9
	c-0.7,1.2-1.1,2.6-1.2,4.1h15.9c-0.1-1.5-0.5-2.9-1.2-4.1c-0.7-1.2-1.7-2.2-2.8-2.9S455.4,598.3,453.9,598.3z M472.9,616.4
	c-1.5,0-2.9-0.2-4.2-0.7c-1.3-0.5-2.3-1.1-3.1-1.8l0.4-0.6c0.7,0.7,1.7,1.3,2.9,1.8c1.2,0.5,2.5,0.7,4,0.7c2.1,0,3.7-0.4,4.7-1.1
	c1-0.7,1.5-1.8,1.5-3.1c0-0.9-0.3-1.7-0.8-2.2c-0.5-0.6-1.2-0.9-2-1.2c-0.8-0.3-1.8-0.5-3.2-0.8c-1.5-0.3-2.7-0.5-3.6-0.8
	c-0.9-0.3-1.6-0.8-2.3-1.4c-0.6-0.7-0.9-1.6-0.9-2.8c0-1.3,0.6-2.5,1.7-3.4c1.1-0.9,2.8-1.4,4.9-1.4c1.2,0,2.3,0.2,3.4,0.5
	c1.1,0.3,2,0.8,2.7,1.4l-0.4,0.6c-0.7-0.6-1.6-1-2.6-1.3c-1-0.3-2.1-0.5-3.1-0.5c-1.9,0-3.4,0.4-4.4,1.2c-1,0.7-1.4,1.7-1.4,3
	c0,1,0.3,1.8,0.8,2.3c0.6,0.6,1.2,1,2.1,1.2c0.8,0.3,1.9,0.5,3.2,0.8c1.5,0.3,2.6,0.6,3.5,0.9c0.9,0.3,1.6,0.8,2.2,1.4
	c0.6,0.6,0.9,1.5,0.9,2.6c0,1.5-0.6,2.6-1.8,3.5C476.9,616,475.2,616.4,472.9,616.4z M502.7,615.1c-0.4,0.4-0.9,0.8-1.6,1
	c-0.6,0.2-1.3,0.3-2,0.3c-1.4,0-2.6-0.4-3.3-1.2c-0.8-0.8-1.2-2-1.2-3.3v-13.5H491v-0.7h3.6v-4.1h0.7v4.1h6.3v0.7h-6.3v13.3
	c0,1.3,0.3,2.3,1,3s1.6,1,2.8,1c1.2,0,2.3-0.4,3.1-1.2L502.7,615.1z M514.4,616.4c-1.7,0-3.3-0.4-4.6-1.2c-1.4-0.8-2.4-1.9-3.2-3.4
	c-0.8-1.4-1.2-3.1-1.2-4.9c0-1.8,0.4-3.4,1.2-4.8c0.8-1.4,1.9-2.6,3.2-3.3c1.4-0.8,2.9-1.2,4.6-1.2c1.7,0,3.2,0.4,4.6,1.2
	c1.4,0.8,2.5,1.9,3.2,3.3c0.8,1.4,1.2,3,1.2,4.8c0,1.8-0.4,3.4-1.2,4.9c-0.8,1.4-1.8,2.6-3.2,3.4C517.7,616,516.1,616.4,514.4,616.4
	z M514.4,615.7c1.6,0,3-0.4,4.2-1.1c1.3-0.7,2.3-1.8,3-3.1c0.7-1.3,1.1-2.9,1.1-4.5c0-1.7-0.4-3.2-1.1-4.5c-0.7-1.3-1.7-2.4-3-3.1
	c-1.3-0.7-2.7-1.1-4.2-1.1c-1.6,0-3,0.4-4.2,1.1c-1.3,0.7-2.3,1.8-3,3.1c-0.7,1.3-1.1,2.8-1.1,4.5c0,1.7,0.4,3.2,1.1,4.5
	c0.7,1.3,1.7,2.4,3,3.1C511.4,615.4,512.9,615.7,514.4,615.7z M552.5,597.7l-9.9,21.6c-0.7,1.5-1.4,2.5-2.3,3.2
	c-0.8,0.6-1.8,0.9-3,0.9c-1.7,0-3-0.6-4-1.7l0.5-0.6c0.5,0.6,1,0.9,1.6,1.2c0.6,0.2,1.2,0.4,1.9,0.4c1,0,1.8-0.3,2.5-0.8
	c0.7-0.5,1.4-1.5,2-2.8l1.3-2.8l-8.5-18.5h0.8l8.1,17.8l8.1-17.8H552.5z M563.1,616.4c-1.7,0-3.3-0.4-4.6-1.2
	c-1.4-0.8-2.4-1.9-3.2-3.4c-0.8-1.4-1.2-3.1-1.2-4.9c0-1.8,0.4-3.4,1.2-4.8c0.8-1.4,1.9-2.6,3.2-3.3c1.4-0.8,2.9-1.2,4.6-1.2
	s3.2,0.4,4.6,1.2c1.4,0.8,2.5,1.9,3.2,3.3c0.8,1.4,1.2,3,1.2,4.8c0,1.8-0.4,3.4-1.2,4.9c-0.8,1.4-1.8,2.6-3.2,3.4
	C566.4,616,564.8,616.4,563.1,616.4z M563.1,615.7c1.6,0,3-0.4,4.2-1.1c1.3-0.7,2.3-1.8,3-3.1c0.7-1.3,1.1-2.9,1.1-4.5
	c0-1.7-0.4-3.2-1.1-4.5c-0.7-1.3-1.7-2.4-3-3.1c-1.3-0.7-2.7-1.1-4.2-1.1s-3,0.4-4.2,1.1c-1.3,0.7-2.3,1.8-3,3.1
	c-0.7,1.3-1.1,2.8-1.1,4.5c0,1.7,0.4,3.2,1.1,4.5c0.7,1.3,1.7,2.4,3,3.1C560.2,615.4,561.6,615.7,563.1,615.7z M593.9,597.7v18.6
	h-0.7v-4.9c-0.6,1.6-1.5,2.8-2.8,3.7c-1.3,0.9-2.9,1.3-4.7,1.3c-2.4,0-4.3-0.7-5.6-2c-1.3-1.3-2-3.3-2-5.8v-11h0.7v11
	c0,2.3,0.6,4,1.8,5.3c1.2,1.2,2.9,1.8,5.1,1.8c2.3,0,4.2-0.7,5.5-2.2c1.3-1.5,2-3.4,2-5.8v-10.1H593.9z M602.9,602.5
	c0.5-1.6,1.4-2.8,2.7-3.6c1.2-0.9,2.8-1.3,4.6-1.3v0.7H610c-2.2,0-4,0.7-5.2,2.2c-1.2,1.4-1.9,3.4-1.9,5.8v10h-0.7v-18.6h0.7V602.5z
	 M634,597.6c1.7,0,3.2,0.4,4.6,1.2c1.4,0.8,2.5,1.9,3.3,3.3s1.2,3.1,1.2,4.9c0,1.8-0.4,3.4-1.2,4.9c-0.8,1.4-1.9,2.5-3.3,3.3
	c-1.4,0.8-2.9,1.2-4.6,1.2c-1.9,0-3.6-0.5-5.1-1.5c-1.5-1.1-2.5-2.5-3.2-4.2v12.6H625v-25.6h0.7v5.7c0.6-1.8,1.7-3.2,3.2-4.2
	C630.3,598.1,632.1,597.6,634,597.6z M634,615.7c1.6,0,3-0.4,4.2-1.1c1.3-0.7,2.3-1.8,3-3.1c0.7-1.3,1.1-2.9,1.1-4.5
	c0-1.7-0.4-3.2-1.1-4.5c-0.7-1.3-1.7-2.4-3-3.1c-1.3-0.7-2.7-1.1-4.2-1.1s-3,0.4-4.2,1.1c-1.3,0.7-2.3,1.8-3,3.1
	c-0.7,1.3-1.1,2.8-1.1,4.5c0,1.7,0.4,3.2,1.1,4.5c0.7,1.3,1.7,2.4,3,3.1C631,615.4,632.4,615.7,634,615.7z M649.8,602.5
	c0.5-1.6,1.4-2.8,2.7-3.6c1.2-0.9,2.8-1.3,4.6-1.3v0.7h-0.2c-2.2,0-4,0.7-5.2,2.2c-1.2,1.4-1.9,3.4-1.9,5.8v10h-0.7v-18.6h0.7V602.5
	z M669.2,616.4c-1.7,0-3.3-0.4-4.6-1.2c-1.4-0.8-2.4-1.9-3.2-3.4c-0.8-1.4-1.2-3.1-1.2-4.9c0-1.8,0.4-3.4,1.2-4.8
	c0.8-1.4,1.9-2.6,3.2-3.3c1.4-0.8,2.9-1.2,4.6-1.2c1.7,0,3.2,0.4,4.6,1.2c1.4,0.8,2.5,1.9,3.2,3.3c0.8,1.4,1.2,3,1.2,4.8
	c0,1.8-0.4,3.4-1.2,4.9c-0.8,1.4-1.8,2.6-3.2,3.4C672.5,616,670.9,616.4,669.2,616.4z M669.2,615.7c1.6,0,3-0.4,4.2-1.1
	c1.3-0.7,2.3-1.8,3-3.1c0.7-1.3,1.1-2.9,1.1-4.5c0-1.7-0.4-3.2-1.1-4.5c-0.7-1.3-1.7-2.4-3-3.1c-1.3-0.7-2.7-1.1-4.2-1.1
	s-3,0.4-4.2,1.1c-1.3,0.7-2.3,1.8-3,3.1c-0.7,1.3-1.1,2.8-1.1,4.5c0,1.7,0.4,3.2,1.1,4.5c0.7,1.3,1.7,2.4,3,3.1
	C666.2,615.4,667.7,615.7,669.2,615.7z M680.9,623.4c-0.7,0-1.5-0.1-2.1-0.4c-0.7-0.2-1.2-0.5-1.6-1l0.5-0.5
	c0.8,0.8,1.9,1.2,3.2,1.2c1.2,0,2.1-0.3,2.7-1c0.6-0.7,1-1.7,1-3v-21h0.7v21.1c0,1.4-0.4,2.5-1.2,3.3
	C683.3,623,682.2,623.4,680.9,623.4z M684.9,592.5c-0.3,0-0.5-0.1-0.7-0.3c-0.2-0.2-0.3-0.4-0.3-0.6c0-0.3,0.1-0.5,0.3-0.6
	c0.2-0.2,0.4-0.3,0.7-0.3c0.2,0,0.5,0.1,0.6,0.3c0.2,0.2,0.3,0.4,0.3,0.6c0,0.2-0.1,0.5-0.3,0.6
	C685.3,592.4,685.1,592.5,684.9,592.5z M708.6,607H692c0,1.7,0.4,3.2,1.1,4.5c0.7,1.3,1.8,2.4,3.1,3.1c1.3,0.7,2.8,1.1,4.4,1.1
	c1.3,0,2.5-0.2,3.6-0.7c1.1-0.5,2.1-1.2,2.8-2.2l0.5,0.5c-0.8,1-1.8,1.7-3,2.3c-1.2,0.5-2.5,0.8-3.8,0.8c-1.8,0-3.4-0.4-4.8-1.2
	c-1.4-0.8-2.5-1.9-3.3-3.4c-0.8-1.4-1.2-3.1-1.2-4.9c0-1.8,0.4-3.4,1.1-4.8c0.7-1.4,1.8-2.6,3.1-3.3c1.3-0.8,2.8-1.2,4.4-1.2
	c1.6,0,3.1,0.4,4.4,1.2s2.4,1.9,3.1,3.3c0.8,1.4,1.2,3,1.2,4.8V607z M699.9,598.3c-1.4,0-2.7,0.3-3.9,1c-1.2,0.7-2.1,1.7-2.8,2.9
	c-0.7,1.2-1.1,2.6-1.2,4.1h15.9c-0.1-1.5-0.5-2.9-1.2-4.1c-0.7-1.2-1.7-2.2-2.8-2.9C702.7,598.6,701.4,598.3,699.9,598.3z
	 M721.6,616.4c-1.8,0-3.3-0.4-4.7-1.2c-1.4-0.8-2.5-1.9-3.3-3.3c-0.8-1.4-1.2-3.1-1.2-4.9c0-1.8,0.4-3.4,1.2-4.9
	c0.8-1.4,1.9-2.6,3.3-3.3c1.4-0.8,3-1.2,4.7-1.2c1.4,0,2.6,0.3,3.8,0.8c1.2,0.5,2.1,1.2,2.9,2.2l-0.5,0.5c-0.7-1-1.6-1.7-2.7-2.2
	c-1.1-0.5-2.3-0.7-3.5-0.7c-1.6,0-3.1,0.4-4.4,1.1c-1.3,0.7-2.3,1.8-3,3.1c-0.7,1.3-1.1,2.8-1.1,4.5c0,1.7,0.4,3.2,1.1,4.5
	c0.7,1.3,1.7,2.4,3,3.1c1.3,0.7,2.7,1.1,4.4,1.1c1.3,0,2.4-0.2,3.5-0.7c1.1-0.5,2-1.2,2.7-2.2l0.5,0.5c-0.8,1-1.7,1.7-2.9,2.3
	C724.2,616.2,723,616.4,721.6,616.4z M742.9,615.1c-0.4,0.4-0.9,0.8-1.6,1c-0.6,0.2-1.3,0.3-2,0.3c-1.4,0-2.6-0.4-3.3-1.2
	c-0.8-0.8-1.2-2-1.2-3.3v-13.5h-3.6v-0.7h3.6v-4.1h0.7v4.1h6.3v0.7h-6.3v13.3c0,1.3,0.3,2.3,1,3s1.6,1,2.8,1s2.3-0.4,3.1-1.2
	L742.9,615.1z M752.7,616.4c-1.5,0-2.9-0.2-4.2-0.7s-2.3-1.1-3.1-1.8l0.4-0.6c0.7,0.7,1.7,1.3,2.9,1.8c1.2,0.5,2.5,0.7,4,0.7
	c2.1,0,3.7-0.4,4.7-1.1c1-0.7,1.5-1.8,1.5-3.1c0-0.9-0.3-1.7-0.8-2.2c-0.5-0.6-1.2-0.9-2-1.2c-0.8-0.3-1.8-0.5-3.2-0.8
	c-1.5-0.3-2.7-0.5-3.6-0.8c-0.9-0.3-1.6-0.8-2.3-1.4c-0.6-0.7-0.9-1.6-0.9-2.8c0-1.3,0.6-2.5,1.7-3.4c1.1-0.9,2.8-1.4,4.9-1.4
	c1.2,0,2.3,0.2,3.4,0.5c1.1,0.3,2,0.8,2.7,1.4l-0.4,0.6c-0.7-0.6-1.6-1-2.6-1.3s-2.1-0.5-3.1-0.5c-1.9,0-3.4,0.4-4.4,1.2
	c-1,0.7-1.4,1.7-1.4,3c0,1,0.3,1.8,0.8,2.3c0.6,0.6,1.2,1,2.1,1.2c0.8,0.3,1.9,0.5,3.2,0.8c1.5,0.3,2.6,0.6,3.5,0.9
	c0.9,0.3,1.6,0.8,2.2,1.4c0.6,0.6,0.9,1.5,0.9,2.6c0,1.5-0.6,2.6-1.8,3.5C756.7,616,754.9,616.4,752.7,616.4z M764.2,616.4
	c-0.2,0-0.5-0.1-0.6-0.3s-0.3-0.4-0.3-0.6c0-0.3,0.1-0.5,0.3-0.6c0.2-0.2,0.4-0.3,0.6-0.3c0.3,0,0.5,0.1,0.6,0.3
	c0.2,0.2,0.3,0.4,0.3,0.6c0,0.2-0.1,0.5-0.3,0.6C764.7,616.3,764.5,616.4,764.2,616.4z"/>
<path d="M1616,378.8c-13.5,0-24.9,9.3-27.7,22.1h-38.1c-1.4-14.5-6.9-28-15.9-38.7l27-27c4.5,2.8,9.3,4.5,15.2,4.5
	c15.6,0,28.4-12.8,28.4-28.3c0-15.6-13.1-28.7-28.7-28.7c-15.6,0-28.4,12.8-28.4,28.3c0,5.5,1.7,10.7,4.5,15.2l-27.3,27
	c-10.7-9-23.9-14.5-38.8-15.9v-38c12.8-2.8,22.1-14.2,22.1-27.7c0-15.6-12.8-28.3-28.4-28.3s-28.4,12.8-28.4,28.3
	c0,13.5,9.3,24.9,22.1,27.7v38c-14.5,1.4-28,6.9-38.8,15.9l-27-27c2.8-4.5,4.5-9.3,4.5-15.2c0-15.6-12.8-28.3-28.4-28.3
	c-15.6,0-28.7,12.8-28.7,28.3s12.8,28.3,28.4,28.3c5.5,0,10.7-1.7,15.2-4.5l27,27c-9,10.7-14.5,23.9-15.9,38.7h-38.1
	c-2.8-12.8-14.2-22.1-27.7-22.1c-15.6,0-28.4,12.8-28.4,28.3s12.8,28.3,28.4,28.3c13.5,0,24.9-9.3,27.7-22.1h38.1
	c1.4,14.5,6.9,28,15.9,38.7l-27,27c-4.5-2.8-9.7-4.5-15.2-4.5c-15.6,0-28.4,12.8-28.4,28.3c0,15.6,12.8,28.3,28.4,28.3
	c15.6,0,28.4-12.8,28.4-28.3c0-5.5-1.7-10.7-4.5-15.2l27-27c10.7,9,23.9,14.5,38.8,15.9v38c-12.8,2.8-22.2,14.2-22.2,27.7
	c0,15.6,12.8,28.3,28.4,28.3c15.6,0,28.4-12.8,28.4-28.3c0-13.5-9.3-24.9-22.2-27.7v-38c14.5-1.4,28-6.9,38.8-15.9l27,27
	c-2.8,4.5-4.5,9.7-4.5,15.2c0,15.6,12.8,28.3,28.4,28.3c15.6,0,28.4-12.8,28.4-28.3c0-15.6-12.8-28.3-28.4-28.3
	c-5.5,0-10.7,1.7-15.2,4.5l-26.3-26.6c9-10.7,14.5-23.9,15.9-38.7h38.1c2.8,12.8,14.2,22.1,27.7,22.1c15.6,0,28.4-12.8,28.4-28.3
	C1644,391.6,1631.6,378.8,1616,378.8z M1344.1,422.7c-8.7,0-15.6-6.9-15.6-15.6c0-8.6,6.9-15.6,15.6-15.6s15.6,6.9,15.6,15.6
	C1360,415.8,1352.7,422.7,1344.1,422.7z M1576.2,295.5c8.7,0,15.6,6.9,15.6,15.6c0,8.6-6.9,15.6-15.6,15.6
	c-8.6,0-15.6-6.9-15.6-15.6C1560.6,302.4,1567.6,295.5,1576.2,295.5z M1526.7,372.9c-6.6,3.1-13.1,5.5-19.7,7.3
	c-1.7-10.7-4.5-20-8-27.7C1510.1,356.7,1519.8,363.6,1526.7,372.9z M1495.9,407.2c0,4.1-0.4,7.9-0.4,11.8c-10.4-1.4-20.8-1.4-30.8,0
	c-0.3-3.8-0.3-7.6-0.3-11.8c0-4.1,0.3-8,0.3-11.8c5.2,0.7,10.4,1,15.6,1c5.2,0,10.4-0.3,15.6-1
	C1495.6,399.2,1495.9,403,1495.9,407.2z M1480,464.9c-3.5,0-10.7-11.4-14.2-33.5c9.3-1.4,19-1.4,28.4,0
	C1490.8,453.5,1483.5,464.9,1480,464.9z M1465.8,382.6c3.5-22.1,10.7-33.5,14.2-33.5s10.7,11.4,14.2,33.5
	C1484.9,384,1475.2,384,1465.8,382.6z M1464.5,271.3c0-8.6,6.9-15.6,15.6-15.6s15.6,6.9,15.6,15.6s-6.9,15.6-15.6,15.6
	S1464.5,279.9,1464.5,271.3z M1461.3,352.5c-3.5,7.6-6.2,16.9-8,27.7c-6.9-1.7-13.5-4.1-19.7-7.3
	C1440.2,363.6,1449.9,356.7,1461.3,352.5z M1383.8,327c-8.7,0-15.6-6.9-15.6-15.6c0-8.6,6.9-15.6,15.6-15.6
	c8.6,0,15.6,6.9,15.6,15.6C1399.4,320,1392.5,327,1383.8,327z M1427.1,384c8,3.8,16.3,6.9,24.9,9c-0.3,4.5-0.7,9.3-0.7,13.8
	c0,4.8,0.3,9.3,0.7,13.8c-8.7,2.1-16.9,5.2-24.9,9c-3.1-6.9-4.8-14.9-4.8-23.2C1422.2,398.9,1424,391.3,1427.1,384z M1383.8,518.8
	c-8.7,0-15.6-6.9-15.6-15.6c0-8.6,6.9-15.6,15.6-15.6c8.6,0,15.6,6.9,15.6,15.6C1399.4,511.9,1392.5,518.8,1383.8,518.8z
	 M1433.7,441.4c6.6-3.1,13.1-5.5,19.7-7.3c1.7,10.7,4.5,20,8,27.7C1449.9,457.6,1440.2,450.7,1433.7,441.4z M1495.6,543
	c0,8.6-6.9,15.6-15.6,15.6s-15.6-6.9-15.6-15.6c0-8.6,6.9-15.6,15.6-15.6S1495.6,534.4,1495.6,543z M1498.7,461.8
	c3.5-7.6,6.2-16.9,8-27.7c6.9,1.7,13.5,4.1,19.7,7.3C1519.8,450.7,1510.1,457.6,1498.7,461.8z M1576.2,487.3
	c8.7,0,15.6,6.9,15.6,15.6s-6.9,15.6-15.6,15.6c-8.6,0-15.6-6.9-15.6-15.6S1567.6,487.3,1576.2,487.3z M1533,430.3
	c-8-3.8-16.3-6.9-24.9-9c0.3-4.5,0.7-9.3,0.7-13.8c0-4.8-0.3-9.3-0.7-13.8c8.7-2.1,16.9-5.2,24.9-9c3.1,6.9,4.8,14.9,4.8,23.2
	C1537.8,415.4,1536.1,423.1,1533,430.3z M1616,422.7c-8.7,0-15.6-6.9-15.6-15.6c0-8.6,6.9-15.6,15.6-15.6s15.6,6.9,15.6,15.6
	C1631.6,415.8,1624.6,422.7,1616,422.7z"/>
</svg>
