<?xml version="1.0" encoding="utf-8"?>
<!-- Generator: Adobe Illustrator 25.2.1, SVG Export Plug-In . SVG Version: 6.00 Build 0)  -->
<svg version="1.1" id="Layer_1" xmlns="http://www.w3.org/2000/svg" xmlns:xlink="http://www.w3.org/1999/xlink" x="0px" y="0px"
	 viewBox="0 0 1436.1 683.1" style="enable-background:new 0 0 1436.1 683.1;" xml:space="preserve">
<style type="text/css">
	.st0{fill:#FFFFFF;}
	.st1{fill-rule:evenodd;clip-rule:evenodd;}
</style>
<path class="st0" d="M57.1,87.1H60v98.1h60v2.7H57.1V87.1z M164,188.4c-6.8,0-13-1.6-18.6-4.8c-5.5-3.3-9.8-7.8-13-13.5
	c-3.1-5.8-4.6-12.2-4.6-19.4c0-7.2,1.5-13.6,4.6-19.3c3.2-5.8,7.5-10.2,13-13.4c5.6-3.3,11.8-5,18.6-5s13,1.6,18.4,4.9
	c5.6,3.2,9.9,7.6,13,13.4c3.2,5.7,4.8,12.1,4.8,19.3c0,7.2-1.6,13.7-4.8,19.4c-3.1,5.8-7.4,10.3-13,13.5
	C177,186.8,170.8,188.4,164,188.4z M164,185.6c6.2,0,11.9-1.5,17-4.5s9.1-7.1,12-12.4c2.9-5.4,4.3-11.4,4.3-18.1
	c0-6.7-1.4-12.7-4.3-18c-2.9-5.4-6.9-9.5-12-12.4c-5.1-3-10.8-4.5-17-4.5s-11.9,1.5-17,4.5c-5.1,2.9-9.1,7-12,12.4
	c-2.9,5.3-4.3,11.3-4.3,18c0,6.7,1.4,12.8,4.3,18.1c2.9,5.3,6.9,9.4,12,12.4S157.8,185.6,164,185.6z M324.8,113.5l-28.7,74.4h-2.6
	l-27.4-70.4l-27.5,70.4h-2.4l-28.7-74.4h2.9l26.9,71l27.4-71h2.7l27.4,71l26.9-71H324.8z M406.9,188.4c-7,0-13.3-1.6-18.9-4.8
	c-5.6-3.3-9.9-7.7-13.1-13.4c-3.1-5.8-4.6-12.3-4.6-19.6c0-7.3,1.5-13.8,4.6-19.4c3.2-5.8,7.5-10.2,13.1-13.4s11.9-4.8,18.9-4.8
	c5.5,0,10.5,1.1,15.1,3.2c4.7,2,8.6,5,11.7,8.9l-2,2.2c-2.8-3.8-6.3-6.7-10.7-8.6c-4.3-1.9-9-2.9-14.1-2.9c-6.4,0-12.2,1.5-17.4,4.5
	c-5.1,2.9-9.1,7-12,12.4c-2.9,5.3-4.3,11.3-4.3,18c0,6.8,1.4,12.9,4.3,18.1c2.9,5.3,6.9,9.4,12,12.4c5.2,3,11,4.5,17.4,4.5
	c5.1,0,9.8-1,14.1-2.9c4.3-1.9,7.9-4.8,10.7-8.6l2,2.2c-3.1,3.9-7,7-11.7,9.1C417.4,187.4,412.4,188.4,406.9,188.4z M483.5,188.4
	c-6.8,0-13-1.6-18.6-4.8c-5.5-3.3-9.8-7.8-13-13.5c-3.1-5.8-4.6-12.2-4.6-19.4c0-7.2,1.5-13.6,4.6-19.3c3.2-5.8,7.5-10.2,13-13.4
	c5.6-3.3,11.8-4.9,18.6-4.9c6.8,0,13,1.6,18.4,4.9c5.6,3.2,9.9,7.6,13,13.4c3.2,5.7,4.8,12.1,4.8,19.3s-1.6,13.7-4.8,19.4
	c-3.1,5.8-7.4,10.3-13,13.5C496.5,186.8,490.3,188.4,483.5,188.4z M483.5,185.6c6.2,0,11.9-1.5,17-4.5s9.1-7.1,12-12.4
	c2.9-5.4,4.3-11.4,4.3-18.1c0-6.7-1.4-12.7-4.3-18c-2.9-5.4-6.9-9.5-12-12.4c-5.1-3-10.8-4.5-17-4.5s-11.9,1.5-17,4.5
	c-5.1,2.9-9.1,7-12,12.4c-2.9,5.3-4.3,11.3-4.3,18c0,6.7,1.4,12.8,4.3,18.1c2.9,5.3,6.9,9.4,12,12.4S477.3,185.6,483.5,185.6z
	 M561.2,188.4c-6,0-11.6-1-16.8-2.9c-5.3-1.9-9.4-4.4-12.2-7.3l1.7-2.3c2.9,2.8,6.7,5.1,11.5,7.1c4.9,1.8,10.2,2.7,15.8,2.7
	c8.4,0,14.7-1.4,18.7-4.3c4-3,6-7.1,6-12.2c0-3.7-1.1-6.7-3.3-8.8c-2.1-2.2-4.8-3.8-7.9-4.8c-3.1-1.1-7.3-2.1-12.8-3.2
	c-5.9-1.1-10.6-2.2-14.3-3.3c-3.6-1.2-6.6-3.2-9.1-5.8c-2.4-2.7-3.6-6.4-3.6-11.1c0-5.4,2.2-9.9,6.6-13.5c4.5-3.7,11.1-5.6,19.7-5.6
	c4.6,0,9.2,0.7,13.7,2.2c4.5,1.3,8.2,3.2,10.9,5.5l-1.7,2.3c-2.9-2.3-6.3-4.1-10.4-5.3c-4-1.2-8.2-1.9-12.5-1.9
	c-7.8,0-13.6,1.5-17.6,4.6c-3.8,3-5.8,6.9-5.8,11.8c0,3.9,1.1,7.1,3.3,9.4c2.2,2.2,4.9,3.8,8.2,4.9s7.6,2.1,13,3
	c5.9,1.2,10.5,2.3,14,3.5s6.4,3,8.8,5.6c2.4,2.5,3.6,6,3.6,10.5c0,5.9-2.4,10.6-7.1,14.1C577.1,186.6,570.2,188.4,561.2,188.4z
	 M644.4,183c-1.6,1.7-3.8,3.1-6.5,4c-2.6,0.9-5.3,1.3-8.1,1.3c-5.8,0-10.2-1.6-13.4-4.9c-3.1-3.4-4.6-7.8-4.6-13.4v-53.8h-14.4v-2.7
	h14.4V97.2h2.9v16.3h25.2v2.7h-25.2v53.1c0,5.3,1.3,9.3,3.9,12.1c2.6,2.8,6.4,4.2,11.4,4.2s9.1-1.5,12.4-4.6L644.4,183z
	 M664.5,180.9c1.1,0,1.9,0.4,2.6,1.2c0.8,0.8,1.2,1.6,1.2,2.6c0,0.7-0.2,2.1-0.6,4.2l-4.8,19.3h-2.6l4.2-19.7
	c-1.1-0.1-2-0.5-2.7-1.2c-0.7-0.8-1-1.6-1-2.6c0-1.1,0.3-1.9,1-2.6C662.5,181.3,663.4,180.9,664.5,180.9z M126.1,305.2
	c-6.5,0-12.3-1.5-17.6-4.4s-9.4-7-12.4-12.1c-3-5.2-4.5-11-4.5-17.4s1.5-12.2,4.5-17.3c3-5.2,7.1-9.2,12.4-12.2s11.1-4.4,17.6-4.4
	c4.5,0,8.8,0.7,12.7,2.2c4,1.4,7.4,3.5,10.2,6.3l-1.2,1.3c-5.6-5.4-12.9-8.1-21.7-8.1c-6.1,0-11.6,1.4-16.6,4.2
	c-4.9,2.8-8.8,6.7-11.7,11.6c-2.8,4.9-4.2,10.3-4.2,16.2c0,6,1.4,11.4,4.2,16.3c2.9,4.9,6.8,8.7,11.7,11.5c5,2.8,10.5,4.2,16.6,4.2
	c8.8,0,16-2.7,21.7-8.2l1.2,1.3c-2.8,2.8-6.2,5-10.2,6.4C134.8,304.5,130.6,305.2,126.1,305.2z M167.2,268.2
	c1.4-4.2,3.8-7.5,7.1-9.7c3.3-2.3,7.5-3.5,12.4-3.5v1.9h-0.6c-6,0-10.6,1.9-13.9,5.8c-3.3,3.8-5,9-5,15.6V305h-1.9v-49.6h1.9V268.2z
	 M240.7,280.1h-44.2c0,4.5,1,8.5,3,12.1c2,3.5,4.7,6.3,8.2,8.3s7.5,3,11.8,3c3.4,0,6.6-0.6,9.5-1.9c3-1.3,5.5-3.3,7.4-5.8l1.3,1.3
	c-2.2,2.6-4.9,4.6-8.1,6c-3.2,1.4-6.6,2.1-10.2,2.1c-4.7,0-9-1.1-12.8-3.2c-3.7-2.2-6.7-5.2-8.8-9s-3.2-8.2-3.2-13s1-9.1,3-12.9
	c2-3.8,4.7-6.8,8.2-8.9c3.5-2.2,7.5-3.3,11.8-3.3s8.2,1.1,11.7,3.2s6.3,5,8.3,8.7c2,3.7,3.1,7.9,3.1,12.7V280.1z M217.7,256.8
	c-3.8,0-7.3,0.9-10.5,2.8s-5.7,4.4-7.6,7.7c-1.9,3.3-2.9,6.9-3.1,10.9h42.3c-0.2-4-1.2-7.7-3.2-10.9c-1.9-3.3-4.4-5.8-7.6-7.7
	S221.5,256.8,217.7,256.8z M299.3,233.7v71.2h-1.9v-15.2c-1.7,4.7-4.5,8.5-8.4,11.3c-4,2.8-8.5,4.1-13.7,4.1
	c-4.5,0-8.6-1.1-12.3-3.2c-3.6-2.2-6.5-5.2-8.6-9c-2.1-3.8-3.2-8.2-3.2-13s1.1-9.1,3.2-12.9c2.1-3.8,5-6.8,8.6-8.9
	c3.7-2.2,7.8-3.3,12.3-3.3c5.1,0,9.7,1.4,13.6,4.2c4,2.8,6.9,6.5,8.5,11.1v-36.7h1.9V233.7z M275.2,303.4c4.2,0,7.9-1,11.3-3
	s6-4.7,8-8.3c1.9-3.6,2.9-7.6,2.9-12.1s-1-8.5-2.9-12c-1.9-3.6-4.6-6.3-8-8.3s-7.2-3-11.3-3s-7.9,1-11.3,3c-3.4,1.9-6,4.7-8,8.3
	c-1.9,3.5-2.9,7.5-2.9,12s1,8.5,2.9,12.1c1.9,3.5,4.6,6.3,8,8.3S271,303.4,275.2,303.4z M321.4,255.3h1.9v49.6h-1.9V255.3z
	 M322.3,241.6c-0.7,0-1.3-0.3-1.8-0.8c-0.4-0.5-0.7-1.1-0.7-1.7c0-0.7,0.2-1.3,0.7-1.7c0.5-0.5,1.1-0.8,1.8-0.8
	c0.6,0,1.2,0.3,1.7,0.8c0.5,0.4,0.8,1,0.8,1.7c0,0.6-0.3,1.2-0.8,1.7S323,241.6,322.3,241.6z M367.8,301.7c-1.1,1.2-2.5,2-4.3,2.7
	c-1.7,0.6-3.5,0.9-5.4,0.9c-3.8,0-6.8-1.1-8.9-3.3c-2-2.2-3.1-5.2-3.1-8.9v-35.9h-9.6v-1.8h9.6v-10.8h1.9v10.8h16.8v1.8H348v35.4
	c0,3.5,0.9,6.2,2.6,8.1s4.3,2.8,7.6,2.8c3.3,0,6.1-1,8.3-3.1L367.8,301.7z M435.7,305.2c-6.5,0-12.3-1.5-17.6-4.4
	c-5.2-2.9-9.4-7-12.4-12.1c-3-5.2-4.5-11-4.5-17.4s1.5-12.2,4.5-17.3c3-5.2,7.1-9.2,12.4-12.2c5.2-2.9,11.1-4.4,17.6-4.4
	c4.5,0,8.8,0.7,12.7,2.2c4,1.4,7.4,3.5,10.2,6.3l-1.2,1.3c-5.6-5.4-12.9-8.1-21.7-8.1c-6.1,0-11.6,1.4-16.6,4.2
	c-4.9,2.8-8.8,6.7-11.7,11.6c-2.8,4.9-4.2,10.3-4.2,16.2c0,6,1.4,11.4,4.2,16.3c2.9,4.9,6.8,8.7,11.7,11.5c5,2.8,10.5,4.2,16.6,4.2
	c8.8,0,16-2.7,21.7-8.2l1.2,1.3c-2.8,2.8-6.2,5-10.2,6.4C444.4,304.5,440.1,305.2,435.7,305.2z M489.7,255c5.8,0,10.1,1.5,13.2,4.5
	c3.1,2.9,4.6,7.2,4.6,12.9v32.5h-1.9v-10.6c-1.6,3.4-4,6-7.3,8c-3.2,1.9-7.1,2.9-11.6,2.9c-5.5,0-9.8-1.2-13-3.7
	c-3.1-2.6-4.6-6-4.6-10.2c0-4,1.4-7.2,4.1-9.6c2.8-2.5,7.3-3.7,13.5-3.7h18.8v-5.5c0-5.2-1.3-9.1-4-11.7c-2.6-2.6-6.5-3.9-11.7-3.9
	c-3.6,0-6.9,0.6-10.1,1.9c-3.1,1.2-5.7,2.9-8,5l-1.3-1.3c2.4-2.3,5.2-4.1,8.6-5.4C482.5,255.7,486,255,489.7,255z M486.7,303.4
	c9.2,0,15.5-4.2,18.9-12.7v-10.9h-18.9c-5.4,0-9.3,1-11.9,3.1c-2.5,2-3.7,4.8-3.7,8.4c0,3.8,1.4,6.8,4.1,8.9
	C477.9,302.3,481.7,303.4,486.7,303.4z M530.9,268.2c1.4-4.2,3.8-7.5,7.1-9.7c3.3-2.3,7.5-3.5,12.4-3.5v1.9h-0.6
	c-6,0-10.6,1.9-13.9,5.8c-3.3,3.8-5,9-5,15.6V305H529v-49.6h1.9V268.2z M606.7,233.7v71.2h-1.9v-15.2c-1.7,4.7-4.5,8.5-8.4,11.3
	c-4,2.8-8.5,4.1-13.7,4.1c-4.5,0-8.6-1.1-12.3-3.2c-3.6-2.2-6.5-5.2-8.6-9c-2.1-3.8-3.2-8.2-3.2-13s1.1-9.1,3.2-12.9
	c2.1-3.8,5-6.8,8.6-8.9c3.7-2.2,7.8-3.3,12.3-3.3c5.1,0,9.7,1.4,13.6,4.2c4,2.8,6.9,6.5,8.5,11.1v-36.7h1.9V233.7z M582.6,303.4
	c4.2,0,7.9-1,11.3-3c3.4-2,6-4.7,8-8.3c1.9-3.6,2.9-7.6,2.9-12.1s-1-8.5-2.9-12c-1.9-3.6-4.6-6.3-8-8.3s-7.2-3-11.3-3
	c-4.2,0-7.9,1-11.3,3c-3.4,1.9-6,4.7-8,8.3c-1.9,3.5-2.9,7.5-2.9,12s1,8.5,2.9,12.1c1.9,3.5,4.6,6.3,8,8.3S578.4,303.4,582.6,303.4z
	 M670.9,305.2c-4.9,0-9.4-0.9-13.7-2.6c-4.3-1.8-7.6-4.1-9.9-6.9l1.3-1.2c2.2,2.6,5.3,4.7,9.3,6.4s8.3,2.5,12.9,2.5
	c7,0,12.2-1.4,15.7-4.1c3.6-2.8,5.4-6.4,5.4-10.8c0-3.5-0.9-6.2-2.8-8.3c-1.9-2-4.2-3.6-6.9-4.6s-6.3-2.1-10.9-3.2
	c-4.9-1.2-8.8-2.4-11.7-3.5c-2.9-1.2-5.3-2.9-7.4-5.2c-2-2.4-3-5.5-3-9.4c0-3.1,0.8-5.9,2.4-8.4c1.6-2.6,4.1-4.6,7.5-6.1
	s7.6-2.3,12.6-2.3c3.6,0,7.1,0.6,10.6,1.7c3.5,1.1,6.4,2.6,8.9,4.4l-1.1,1.5c-2.6-1.9-5.6-3.4-8.8-4.3c-3.2-1-6.4-1.5-9.5-1.5
	c-6.7,0-11.8,1.4-15.4,4.3c-3.5,2.8-5.3,6.4-5.3,10.8c0,3.5,0.9,6.2,2.8,8.4c1.9,2,4.2,3.6,6.9,4.6s6.5,2.1,11.1,3.3
	c4.9,1.2,8.7,2.4,11.6,3.6c2.9,1.1,5.3,2.8,7.3,5.1c2,2.2,3,5.3,3,9.1c0,3.1-0.8,5.9-2.5,8.4s-4.2,4.6-7.7,6.1
	C680.3,304.5,676,305.2,670.9,305.2z M710.4,255.3h1.9v49.6h-1.9V255.3z M711.4,241.6c-0.7,0-1.3-0.3-1.8-0.8
	c-0.4-0.5-0.7-1.1-0.7-1.7c0-0.7,0.2-1.3,0.7-1.7c0.5-0.5,1.1-0.8,1.8-0.8c0.6,0,1.2,0.3,1.7,0.8c0.5,0.4,0.8,1,0.8,1.7
	c0,0.6-0.3,1.2-0.8,1.7C712.6,241.3,712,241.6,711.4,241.6z M765.9,303.1v1.8h-38.1v-1.4l34.9-46.4h-34.5v-1.8h37.2v1.4l-34.9,46.4
	H765.9z M820.8,280.1h-44.2c0,4.5,1,8.5,3,12.1c2,3.5,4.7,6.3,8.2,8.3s7.5,3,11.8,3c3.4,0,6.6-0.6,9.5-1.9c3-1.3,5.5-3.3,7.4-5.8
	l1.3,1.3c-2.2,2.6-4.9,4.6-8.1,6c-3.2,1.4-6.6,2.1-10.2,2.1c-4.7,0-9-1.1-12.8-3.2c-3.7-2.2-6.7-5.2-8.8-9s-3.2-8.2-3.2-13
	s1-9.1,3-12.9c2-3.8,4.7-6.8,8.2-8.9c3.5-2.2,7.5-3.3,11.8-3.3s8.2,1.1,11.7,3.2s6.3,5,8.3,8.7c2,3.7,3.1,7.9,3.1,12.7V280.1z
	 M797.7,256.8c-3.8,0-7.3,0.9-10.5,2.8s-5.7,4.4-7.6,7.7c-1.9,3.3-2.9,6.9-3.1,10.9h42.3c-0.2-4-1.2-7.7-3.2-10.9
	c-1.9-3.3-4.4-5.8-7.6-7.7C805.1,257.8,801.6,256.8,797.7,256.8z M879.3,233.7v71.2h-1.9v-15.2c-1.7,4.7-4.5,8.5-8.4,11.3
	c-4,2.8-8.5,4.1-13.7,4.1c-4.5,0-8.6-1.1-12.3-3.2c-3.6-2.2-6.5-5.2-8.6-9c-2.1-3.8-3.2-8.2-3.2-13s1.1-9.1,3.2-12.9
	c2.1-3.8,5-6.8,8.6-8.9c3.7-2.2,7.8-3.3,12.3-3.3c5.1,0,9.7,1.4,13.6,4.2c4,2.8,6.9,6.5,8.5,11.1v-36.7h1.9V233.7z M855.2,303.4
	c4.2,0,7.9-1,11.3-3c3.4-2,6-4.7,8-8.3c1.9-3.6,2.9-7.6,2.9-12.1s-1-8.5-2.9-12c-1.9-3.6-4.6-6.3-8-8.3s-7.2-3-11.3-3
	c-4.2,0-7.9,1-11.3,3c-3.4,1.9-6,4.7-8,8.3c-1.9,3.5-2.9,7.5-2.9,12s1,8.5,2.9,12.1c1.9,3.5,4.6,6.3,8,8.3
	C847.3,302.4,851.1,303.4,855.2,303.4z M486.1,422.2c-6.5,0-12.3-1.5-17.6-4.4c-5.2-2.9-9.4-7-12.4-12.1c-3-5.2-4.5-11-4.5-17.4
	s1.5-12.2,4.5-17.3c3-5.2,7.1-9.2,12.4-12.2c5.2-2.9,11.1-4.4,17.6-4.4c4.5,0,8.8,0.7,12.7,2.2c4,1.4,7.4,3.5,10.2,6.3l-1.2,1.3
	c-5.6-5.4-12.9-8.1-21.7-8.1c-6.1,0-11.6,1.4-16.6,4.2c-4.9,2.8-8.8,6.7-11.7,11.6c-2.8,4.9-4.2,10.3-4.2,16.2s1.4,11.4,4.2,16.3
	c2.9,4.9,6.8,8.7,11.7,11.5c5,2.8,10.5,4.2,16.6,4.2c8.8,0,16-2.7,21.7-8.2l1.2,1.3c-2.8,2.8-6.2,5-10.2,6.4
	C494.8,421.5,490.6,422.2,486.1,422.2z M541.1,422.2c-4.5,0-8.7-1.1-12.4-3.2c-3.6-2.2-6.5-5.2-8.6-9c-2-3.8-3.1-8.2-3.1-13
	s1-9.1,3.1-12.9s5-6.8,8.6-8.9c3.7-2.2,7.8-3.3,12.4-3.3c4.5,0,8.6,1.1,12.3,3.3c3.7,2.1,6.6,5.1,8.6,8.9c2.1,3.8,3.2,8.1,3.2,12.9
	s-1.1,9.1-3.2,13c-2,3.8-4.9,6.8-8.6,9S545.6,422.2,541.1,422.2z M541.1,420.4c4.2,0,7.9-1,11.3-3c3.4-2,6-4.7,8-8.3
	c1.9-3.6,2.9-7.6,2.9-12.1s-1-8.5-2.9-12c-1.9-3.6-4.6-6.3-8-8.3s-7.2-3-11.3-3c-4.2,0-7.9,1-11.3,3c-3.4,1.9-6,4.7-8,8.3
	c-1.9,3.5-2.9,7.5-2.9,12s1,8.5,2.9,12.1c1.9,3.5,4.6,6.3,8,8.3C533.1,419.4,536.9,420.4,541.1,420.4z M643.1,372
	c6,0,10.7,1.8,14.1,5.4c3.5,3.5,5.2,8.6,5.2,15.3V422h-1.9v-29.3c0-6.1-1.5-10.7-4.5-13.9c-3-3.3-7.3-4.9-12.8-4.9
	c-6.3,0-11.2,2-14.9,5.9c-3.6,3.8-5.5,8.9-5.5,15.3v27H621v-29.3c0-6.1-1.5-10.7-4.5-13.9c-3-3.3-7.3-4.9-12.8-4.9
	c-6.3,0-11.2,2-14.9,5.9c-3.6,3.8-5.5,8.9-5.5,15.3v27h-1.9v-49.6h1.9v13.2c1.5-4.2,4-7.5,7.5-9.9s7.8-3.6,12.8-3.6
	c5.1,0,9.2,1.3,12.5,3.8s5.4,6.1,6.3,10.9c1.3-4.5,3.7-8.1,7.3-10.8C633.4,373.4,637.8,372,643.1,372z M708.1,372
	c4.5,0,8.5,1.1,12.2,3.3c3.7,2.1,6.6,5.1,8.7,8.9s3.2,8.2,3.2,13s-1.1,9.1-3.2,13c-2.1,3.8-5,6.8-8.7,8.9c-3.6,2.1-7.7,3.2-12.2,3.2
	c-5.1,0-9.7-1.4-13.7-4.1c-4-2.8-6.8-6.6-8.4-11.2v33.7h-2v-68.3h1.9v15.2c1.7-4.7,4.5-8.5,8.4-11.2
	C698.3,373.4,702.9,372,708.1,372z M708.1,420.4c4.2,0,7.9-1,11.3-2.9c3.4-2,6-4.7,8-8.3c1.9-3.6,2.9-7.6,2.9-12.1s-1-8.5-2.9-12
	c-1.9-3.6-4.6-6.4-8-8.4s-7.2-3-11.3-3c-4.2,0-7.9,1-11.3,3c-3.4,2-6,4.8-8,8.4c-1.9,3.5-2.9,7.5-2.9,12s1,8.5,2.9,12.1
	c1.9,3.5,4.6,6.3,8,8.3C700.1,419.4,703.9,420.4,708.1,420.4z M790.1,372.3v49.6h-1.9v-13.2c-1.5,4.2-3.9,7.5-7.4,9.9
	s-7.6,3.6-12.6,3.6c-6.4,0-11.4-1.8-15-5.3c-3.6-3.6-5.4-8.7-5.4-15.4v-29.3h1.9v29.3c0,6.1,1.6,10.8,4.8,14s7.7,4.8,13.5,4.8
	c6.2,0,11.1-1.9,14.7-5.8c3.6-3.9,5.4-9,5.4-15.4v-27h2V372.3z M834.6,418.7c-1.1,1.2-2.5,2-4.3,2.7c-1.7,0.6-3.5,0.9-5.4,0.9
	c-3.8,0-6.8-1.1-8.9-3.3c-2-2.2-3.1-5.2-3.1-8.9v-35.9h-9.6v-1.8h9.6v-10.8h1.9v10.8h16.8v1.8h-16.8v35.4c0,3.5,0.9,6.2,2.6,8.1
	c1.7,1.9,4.3,2.8,7.6,2.8s6.1-1,8.3-3.1L834.6,418.7z M887.6,397.1h-44.2c0,4.5,1,8.5,3,12.1c2,3.5,4.7,6.3,8.2,8.3s7.5,3,11.8,3
	c3.4,0,6.6-0.6,9.5-1.9c3-1.3,5.5-3.3,7.4-5.8l1.3,1.3c-2.2,2.6-4.9,4.6-8.1,6c-3.2,1.4-6.6,2.1-10.2,2.1c-4.7,0-9-1.1-12.8-3.2
	c-3.7-2.2-6.7-5.2-8.8-9s-3.2-8.2-3.2-13s1-9.1,3-12.9s4.7-6.8,8.2-8.9c3.5-2.2,7.5-3.3,11.8-3.3s8.2,1.1,11.7,3.2s6.3,5,8.3,8.7
	s3.1,7.9,3.1,12.7V397.1z M864.6,373.8c-3.8,0-7.3,0.9-10.5,2.8c-3.1,1.9-5.7,4.4-7.6,7.7c-1.9,3.3-2.9,6.9-3.1,10.9h42.3
	c-0.2-4-1.2-7.7-3.2-10.9c-1.9-3.3-4.4-5.8-7.6-7.7C871.9,374.8,868.4,373.8,864.6,373.8z M905.7,385.2c1.4-4.2,3.8-7.5,7.1-9.7
	c3.3-2.3,7.5-3.5,12.4-3.5v1.9h-0.6c-6,0-10.6,1.9-13.9,5.8c-3.3,3.8-5,9-5,15.6V422h-1.9v-49.6h1.9V385.2z"/>
<path d="M1367.7,109.3V68.8c0-15.8-12.4-28.2-28.1-28.2h-326.5C997.4,40.6,985,53,985,68.8v217.3c0,11.3,6.8,21.4,16.9,25.9v2.3
	v11.3h11.3h11.3h11.3h11.3h11.3h11.3h11.3v-11.3h12.4v11.3h11.3h57.4h11.3v-11.3h17.4v0.6v11.3h11.3h23.1h11.3v-11.3v-0.6h103
	c15.8,0,28.1-12.4,28.1-28.2h0.6h11.3v-11.3v-57.4v-11.3h-11.3v-28.7h11.3v-11.3v-45.6v-11.3h-11.8V109.3z M1104.3,314.3V303v-34.3
	h57.4V303v11.3H1104.3z M1224.8,314.8h-23.1v-0.6V303v-34.3h23.1V303V314.8z M1367.7,274.8h-11.8h-62.5v-57.4h63h11.3V274.8z
	 M1356.5,206.1h-63h-11.3v11.3v57.4v11.3h11.3h62.5c0,9-7.3,16.9-16.9,16.9h-103v-34.3v-11.3h-11.3h-23.1h-11.3v11.3V303H1173v-34.3
	v-11.3h-11.3h-57.4H1093v11.3V303h-23.6v11.3h-11.3V303h-11.3v11.3h-11.3V303h-11.3v11.3h-11.3V303c-9,0-16.9-7.3-16.9-16.9V68.8
	c0-9,7.3-16.9,16.9-16.9h326.5c9,0,16.9,7.3,16.9,16.9v40.5h-51.8h-11.3v11.3v45.6v11.3h11.3h51.8v28.6H1356.5z M1367.7,166.2h-11.3
	h-51.8v-45.6h51.8h11.3V166.2z"/>
<path d="M1076.7,227c3.1,0,5.6-2.5,5.6-5.6s-2.5-5.6-5.6-5.6s-5.6,2.5-5.6,5.6S1073.6,227,1076.7,227z"/>
<path d="M1035.6,123.9h-22.5v16.9h22.5V123.9z"/>
<path d="M1035.6,232h-11.3v-11.8h11.3V209h-11.3v-11.8h11.3v-11.3h-11.3v-11.3h11.3v-11.3h-22.5v80.5h22.5V232z"/>
<path d="M1024.9,286.1c6.2,0,11.3-5,11.3-11.3s-5-11.3-11.3-11.3c-6.2,0-11.3,5-11.3,11.3S1018.7,286.1,1024.9,286.1z"/>
<path d="M1024.9,69.3c-6.2,0-11.3,5.1-11.3,11.3c0,6.2,5.1,11.3,11.3,11.3c6.2,0,11.3-5.6,11.3-11.3
	C1036.2,74.4,1031.1,69.3,1024.9,69.3z"/>
<path d="M1181.4,63.1h-11.3v11.3h11.3V63.1z"/>
<path d="M1181.4,85.7h-11.3V97h11.3V85.7z"/>
<path d="M1158.9,63.1h-11.3v11.3h11.3V63.1z"/>
<path d="M1068.8,63.1h-11.3v11.3h11.3V63.1z"/>
<path d="M1068.8,85.7h-11.3V97h11.3V85.7z"/>
<path d="M1076.2,123.9h-22.5v11.8h11.3V147h-11.3v11.8h11.3v11.3h-11.3v10.7h22.5V123.9z"/>
<path d="M1053.6,243.9h45.6v-45.6h-45.6V243.9z M1064.9,209.5h23.1v23.1h-23.1V209.5z"/>
<path d="M1091.4,85.7h-11.3V97h11.3V85.7z"/>
<path d="M1091.4,63.1h-11.3v11.3h11.3V63.1z"/>
<path d="M1113.9,85.7h-11.3V97h11.3V85.7z"/>
<path d="M1113.9,63.1h-11.3v11.3h11.3V63.1z"/>
<path d="M1136.4,85.7h-11.3V97h11.3V85.7z"/>
<path d="M1136.4,63.1h-11.3v11.3h11.3V63.1z"/>
<path d="M1158.9,85.7h-11.3V97h11.3V85.7z"/>
<path d="M1150.5,291.7h-11.3V303h11.3V291.7z"/>
<path d="M1162.3,123.9h-4.5l-3.4,3.4l-11.3,11.3l-3.4,3.4v4.5v40v11.3h11.3h51.2h11.3v-11.3v-51.2V124h-11.3L1162.3,123.9
	L1162.3,123.9z M1202.2,186.4H1151v-40l11.3-11.3h40v51.3H1202.2z"/>
<path d="M1203.9,85.7h-11.3V97h11.3V85.7z"/>
<path d="M1203.9,63.1h-11.3v11.3h11.3V63.1z"/>
<path d="M1226.4,85.7h-11.3V97h11.3V85.7z"/>
<path d="M1226.4,63.1h-11.3v11.3h11.3V63.1z"/>
<path d="M1259.1,286.1c6.2,0,11.3-5,11.3-11.3s-5-11.3-11.3-11.3s-11.3,5-11.3,11.3S1252.9,286.1,1259.1,286.1z"/>
<path d="M1259.1,69.3c-6.2,0-11.3,5.1-11.3,11.3c0,6.2,5.1,11.3,11.3,11.3c6.2,0,11.3-5.6,11.3-11.3
	C1270.3,74.4,1265.3,69.3,1259.1,69.3z"/>
<path d="M1331.1,149.3l10.1,4.5v-5.6l-4.5-3.9v-1.7l4.5-3.9V133l-10.1,4.5V149.3z"/>
<path d="M1325.5,252.3l10.1,4.5v-5.6l-4.5-3.9V245l4.5-3.4V236l-10.1,4.5V252.3z"/>
<path class="st1" d="M998.4,396.9c-8.9,0-15.4,7.9-15.4,16.7v212.3c0,8.7,6.6,16.7,15.4,16.7h365.1c8.9,0,15.4-7.9,15.4-16.7V413.6
	c0-8.7-6.6-16.7-15.4-16.7H998.4z M998.4,409.1h365.1c1.5,0,3.2,1.5,3.2,4.5v18.3H995.2v-18.3C995.2,410.6,996.9,409.1,998.4,409.1
	L998.4,409.1z M995.2,486.9h371.6v138.9c0,3-1.8,4.5-3.3,4.5H998.4c-1.5,0-3.2-1.5-3.2-4.5V486.9L995.2,486.9z M1265.4,548.3
	c-9.7,0-19,3.8-25.8,10.7c-6.8,6.8-10.7,16.1-10.7,25.8s3.9,19,10.7,25.8c6.8,6.8,16.1,10.7,25.8,10.7c7.2,0,14.3-2.2,20.3-6.2
	c-5-3.3-9-7.8-11.9-13.1c-2.8-5.3-4.3-11.2-4.3-17.2s1.5-11.9,4.3-17.2s6.9-9.8,11.9-13.1C1279.7,550.4,1272.6,548.3,1265.4,548.3z
	 M1310.8,548.3c-9.7,0-19,3.8-25.8,10.7c-6.8,6.8-10.7,16.1-10.7,25.8s3.8,19,10.7,25.8c6.8,6.8,16.1,10.7,25.8,10.7
	c9.7,0,18.9-3.8,25.8-10.7c6.8-6.8,10.7-16.1,10.7-25.8s-3.8-19-10.7-25.8C1329.7,552.1,1320.4,548.3,1310.8,548.3z M1009.1,600.2
	c-2.5,0-4.6,1.5-4.6,3.4v9.3c0,1.9,2,3.4,4.6,3.4h103.8c2.5,0,4.6-1.5,4.6-3.4v-9.3c0-1.9-2-3.4-4.6-3.4H1009.1z"/>
<path class="st0" d="M147.5,533.4v12.1h13.9v0.7h-13.9v11.7h-0.7v-25.2H163v0.7H147.5L147.5,533.4z M183.7,539.3v18.6H183V553
	c-0.6,1.6-1.5,2.8-2.8,3.7s-2.9,1.3-4.7,1.3c-2.4,0-4.3-0.7-5.6-2s-2-3.3-2-5.8v-11h0.7v11c0,2.3,0.6,4,1.8,5.3
	c1.2,1.2,2.9,1.8,5.1,1.8c2.3,0,4.2-0.7,5.5-2.2s2-3.4,2-5.8v-10.1h0.7V539.3z M192,531.2h0.7v26.7H192V531.2z M201,531.2h0.7v26.7
	H201V531.2z M223.9,539.3l-9.9,21.6c-0.7,1.5-1.4,2.5-2.3,3.2s-1.8,0.9-3,0.9c-1.7,0-3-0.6-4-1.7l0.5-0.6c0.5,0.6,1,0.9,1.6,1.2
	c0.6,0.2,1.2,0.4,1.9,0.4c1,0,1.8-0.3,2.5-0.8s1.4-1.5,2-2.8l1.3-2.8l-8.5-18.5h0.8l8.1,17.8l8.1-17.8h0.9V539.3z M242.1,531.8
	c-1.2,0-2.2,0.3-2.8,1s-1,1.7-1,3v3.5h6.3v0.7h-6.3v17.9h-0.7V540H234v-0.7h3.6v-3.6c0-1.4,0.4-2.5,1.2-3.3c0.8-0.8,1.9-1.3,3.3-1.3
	c0.7,0,1.4,0.1,2,0.4c0.7,0.2,1.2,0.5,1.6,1l-0.5,0.5C244.3,532.2,243.3,531.8,242.1,531.8z M263.1,548.6h-16.6
	c0,1.7,0.4,3.2,1.1,4.5c0.7,1.3,1.8,2.4,3.1,3.1c1.3,0.7,2.8,1.1,4.4,1.1c1.3,0,2.5-0.2,3.6-0.7s2.1-1.2,2.8-2.2l0.5,0.5
	c-0.8,1-1.8,1.7-3,2.3c-1.2,0.5-2.5,0.8-3.8,0.8c-1.8,0-3.4-0.4-4.8-1.2c-1.4-0.8-2.5-1.9-3.3-3.4c-0.8-1.4-1.2-3.1-1.2-4.9
	c0-1.8,0.4-3.4,1.1-4.8c0.7-1.4,1.8-2.6,3.1-3.3c1.3-0.8,2.8-1.2,4.4-1.2c1.6,0,3.1,0.4,4.4,1.2c1.3,0.8,2.4,1.9,3.1,3.3
	c0.8,1.4,1.2,3,1.2,4.8v0.1H263.1z M254.5,539.9c-1.4,0-2.7,0.3-3.9,1c-1.2,0.7-2.1,1.7-2.8,2.9s-1.1,2.6-1.2,4.1h15.9
	c-0.1-1.5-0.5-2.9-1.2-4.1s-1.7-2.2-2.8-2.9C257.2,540.2,255.9,539.9,254.5,539.9z M274.6,539.2c2.2,0,3.8,0.6,4.9,1.7
	c1.2,1.1,1.7,2.7,1.7,4.8v12.2h-0.7v-4c-0.6,1.3-1.5,2.3-2.7,3s-2.7,1.1-4.4,1.1c-2.1,0-3.7-0.5-4.9-1.4c-1.2-1-1.7-2.2-1.7-3.8
	c0-1.5,0.5-2.7,1.5-3.6c1.1-0.9,2.7-1.4,5.1-1.4h7.1v-2.1c0-1.9-0.5-3.4-1.5-4.4s-2.4-1.5-4.4-1.5c-1.3,0-2.6,0.2-3.8,0.7
	c-1.2,0.5-2.1,1.1-3,1.9l-0.5-0.5c0.9-0.9,2-1.5,3.2-2C271.9,539.5,273.2,539.2,274.6,539.2z M273.5,557.4c3.5,0,5.8-1.6,7.1-4.8
	v-4.1h-7.1c-2,0-3.5,0.4-4.5,1.2c-0.9,0.8-1.4,1.8-1.4,3.1c0,1.4,0.5,2.5,1.5,3.3S271.6,557.4,273.5,557.4z M297.8,556.7
	c-0.4,0.4-0.9,0.8-1.6,1c-0.6,0.2-1.3,0.3-2,0.3c-1.4,0-2.6-0.4-3.3-1.2c-0.8-0.8-1.2-2-1.2-3.3V540H286v-0.7h3.6v-4.1h0.7v4.1h6.3
	v0.7h-6.3v13.3c0,1.3,0.3,2.3,1,3c0.6,0.7,1.6,1,2.8,1c1.2,0,2.3-0.4,3.1-1.2L297.8,556.7z M318.9,539.3v18.6h-0.7V553
	c-0.6,1.6-1.5,2.8-2.8,3.7s-2.9,1.3-4.7,1.3c-2.4,0-4.3-0.7-5.6-2c-1.3-1.3-2-3.3-2-5.8v-11h0.7v11c0,2.3,0.6,4,1.8,5.3
	c1.2,1.2,2.9,1.8,5.1,1.8c2.3,0,4.2-0.7,5.5-2.2s2-3.4,2-5.8v-10.1h0.7V539.3z M327.9,544.1c0.5-1.6,1.4-2.8,2.7-3.6
	c1.2-0.9,2.8-1.3,4.6-1.3v0.7H335c-2.2,0-4,0.7-5.2,2.2c-1.2,1.4-1.9,3.4-1.9,5.8v10h-0.7v-18.6h0.7V544.1z M355.5,548.6h-16.6
	c0,1.7,0.4,3.2,1.1,4.5c0.7,1.3,1.8,2.4,3.1,3.1c1.3,0.7,2.8,1.1,4.4,1.1c1.3,0,2.5-0.2,3.6-0.7s2.1-1.2,2.8-2.2l0.5,0.5
	c-0.8,1-1.8,1.7-3,2.3c-1.2,0.5-2.5,0.8-3.8,0.8c-1.8,0-3.4-0.4-4.8-1.2s-2.5-1.9-3.3-3.4c-0.8-1.4-1.2-3.1-1.2-4.9
	c0-1.8,0.4-3.4,1.1-4.8c0.7-1.4,1.8-2.6,3.1-3.3c1.3-0.8,2.8-1.2,4.4-1.2s3.1,0.4,4.4,1.2c1.3,0.8,2.4,1.9,3.1,3.3
	c0.8,1.4,1.2,3,1.2,4.8v0.1H355.5z M346.9,539.9c-1.4,0-2.7,0.3-3.9,1c-1.2,0.7-2.1,1.7-2.8,2.9c-0.7,1.2-1.1,2.6-1.2,4.1h15.9
	c-0.1-1.5-0.5-2.9-1.2-4.1s-1.7-2.2-2.8-2.9C349.6,540.2,348.3,539.9,346.9,539.9z M377.5,531.2v26.7h-0.7v-5.7
	c-0.6,1.8-1.7,3.2-3.2,4.2s-3.2,1.5-5.1,1.5c-1.7,0-3.2-0.4-4.6-1.2s-2.4-1.9-3.2-3.4c-0.8-1.4-1.2-3.1-1.2-4.9
	c0-1.8,0.4-3.4,1.2-4.8c0.8-1.4,1.9-2.6,3.2-3.3c1.4-0.8,2.9-1.2,4.6-1.2c1.9,0,3.6,0.5,5.1,1.6c1.5,1,2.6,2.4,3.2,4.2v-13.8
	L377.5,531.2L377.5,531.2z M368.4,557.4c1.6,0,3-0.4,4.2-1.1c1.3-0.7,2.3-1.8,3-3.1s1.1-2.9,1.1-4.5s-0.4-3.2-1.1-4.5
	s-1.7-2.4-3-3.1c-1.3-0.7-2.7-1.1-4.2-1.1s-3,0.4-4.2,1.1c-1.3,0.7-2.3,1.8-3,3.1c-0.7,1.3-1.1,2.8-1.1,4.5s0.4,3.2,1.1,4.5
	s1.7,2.4,3,3.1C365.5,557,366.9,557.4,368.4,557.4z M384.9,556.2c0.3,0,0.5,0.1,0.6,0.3c0.2,0.2,0.3,0.4,0.3,0.6c0,0.2,0,0.5-0.1,1
	l-1.2,4.8h-0.6l1-4.9c-0.3,0-0.5-0.1-0.7-0.3s-0.3-0.4-0.3-0.6c0-0.3,0.1-0.5,0.3-0.6C384.4,556.3,384.6,556.2,384.9,556.2z
	 M401.3,539.3h0.7v18.6h-0.7V539.3z M401.6,534.2c-0.3,0-0.5-0.1-0.7-0.3c-0.2-0.2-0.3-0.4-0.3-0.6c0-0.3,0.1-0.5,0.3-0.6
	c0.2-0.2,0.4-0.3,0.7-0.3c0.2,0,0.5,0.1,0.6,0.3c0.2,0.2,0.3,0.4,0.3,0.6c0,0.2-0.1,0.5-0.3,0.6
	C402.1,534.1,401.9,534.2,401.6,534.2z M418.8,539.2c2.3,0,4.2,0.7,5.5,2s2,3.2,2,5.7v11h-0.7v-11c0-2.3-0.6-4-1.8-5.2
	c-1.2-1.2-2.8-1.8-4.9-1.8c-2.4,0-4.3,0.7-5.8,2.2c-1.4,1.4-2.1,3.3-2.1,5.7v10.1h-0.7v-18.6h0.7v5c0.6-1.6,1.5-2.8,2.9-3.7
	C415.2,539.7,416.9,539.2,418.8,539.2z M442.7,556.7c-0.4,0.4-0.9,0.8-1.6,1c-0.6,0.2-1.3,0.3-2,0.3c-1.4,0-2.6-0.4-3.3-1.2
	c-0.8-0.8-1.2-2-1.2-3.3V540H431v-0.7h3.6v-4.1h0.7v4.1h6.3v0.7h-6.3v13.3c0,1.3,0.3,2.3,1,3c0.6,0.7,1.6,1,2.8,1
	c1.2,0,2.3-0.4,3.1-1.2L442.7,556.7z M462.6,548.6H446c0,1.7,0.4,3.2,1.1,4.5c0.7,1.3,1.8,2.4,3.1,3.1c1.3,0.7,2.8,1.1,4.4,1.1
	c1.3,0,2.5-0.2,3.6-0.7s2.1-1.2,2.8-2.2l0.5,0.5c-0.8,1-1.8,1.7-3,2.3c-1.2,0.5-2.5,0.8-3.8,0.8c-1.8,0-3.4-0.4-4.8-1.2
	s-2.5-1.9-3.3-3.4c-0.8-1.4-1.2-3.1-1.2-4.9c0-1.8,0.4-3.4,1.1-4.8c0.7-1.4,1.8-2.6,3.1-3.3c1.3-0.8,2.8-1.2,4.4-1.2
	s3.1,0.4,4.4,1.2c1.3,0.8,2.4,1.9,3.1,3.3c0.8,1.4,1.2,3,1.2,4.8v0.1H462.6z M454,539.9c-1.4,0-2.7,0.3-3.9,1
	c-1.2,0.7-2.1,1.7-2.8,2.9c-0.7,1.2-1.1,2.6-1.2,4.1H462c-0.1-1.5-0.5-2.9-1.2-4.1s-1.7-2.2-2.8-2.9
	C456.7,540.2,455.4,539.9,454,539.9z M469.4,544.1c0.5-1.6,1.4-2.8,2.7-3.6c1.2-0.9,2.8-1.3,4.6-1.3v0.7h-0.2c-2.2,0-4,0.7-5.2,2.2
	c-1.2,1.4-1.9,3.4-1.9,5.8v10h-0.7v-18.6h0.7V544.1z M490.7,539.2c2.3,0,4.2,0.7,5.5,2s2,3.2,2,5.7v11h-0.7v-11c0-2.3-0.6-4-1.8-5.2
	c-1.2-1.2-2.8-1.8-4.9-1.8c-2.4,0-4.3,0.7-5.8,2.2c-1.4,1.4-2.1,3.3-2.1,5.7v10.1h-0.7v-18.6h0.7v5c0.6-1.6,1.5-2.8,2.9-3.7
	C487.1,539.7,488.7,539.2,490.7,539.2z M521.2,548.6h-16.6c0,1.7,0.4,3.2,1.1,4.5c0.7,1.3,1.8,2.4,3.1,3.1c1.3,0.7,2.8,1.1,4.4,1.1
	c1.3,0,2.5-0.2,3.6-0.7s2.1-1.2,2.8-2.2l0.5,0.5c-0.8,1-1.8,1.7-3,2.3c-1.2,0.5-2.5,0.8-3.8,0.8c-1.8,0-3.4-0.4-4.8-1.2
	s-2.5-1.9-3.3-3.4c-0.8-1.4-1.2-3.1-1.2-4.9c0-1.8,0.4-3.4,1.1-4.8c0.7-1.4,1.8-2.6,3.1-3.3c1.3-0.8,2.8-1.2,4.4-1.2
	c1.6,0,3.1,0.4,4.4,1.2c1.3,0.8,2.4,1.9,3.1,3.3c0.8,1.4,1.2,3,1.2,4.8v0.1H521.2z M512.6,539.9c-1.4,0-2.7,0.3-3.9,1
	c-1.2,0.7-2.1,1.7-2.8,2.9c-0.7,1.2-1.1,2.6-1.2,4.1h15.9c-0.1-1.5-0.5-2.9-1.2-4.1s-1.7-2.2-2.8-2.9
	C515.3,540.2,514,539.9,512.6,539.9z M535.7,556.7c-0.4,0.4-0.9,0.8-1.6,1c-0.6,0.2-1.3,0.3-2,0.3c-1.4,0-2.6-0.4-3.3-1.2
	c-0.8-0.8-1.2-2-1.2-3.3V540H524v-0.7h3.6v-4.1h0.7v4.1h6.3v0.7h-6.3v13.3c0,1.3,0.3,2.3,1,3s1.6,1,2.8,1s2.3-0.4,3.1-1.2
	L535.7,556.7z M557.2,558c-1.8,0-3.3-0.4-4.7-1.2s-2.5-1.9-3.3-3.3c-0.8-1.4-1.2-3.1-1.2-4.9c0-1.8,0.4-3.4,1.2-4.9
	c0.8-1.4,1.9-2.6,3.3-3.3c1.4-0.8,3-1.2,4.7-1.2c1.4,0,2.6,0.3,3.8,0.8s2.1,1.2,2.9,2.2l-0.5,0.5c-0.7-1-1.6-1.7-2.7-2.2
	c-1.1-0.5-2.3-0.7-3.5-0.7c-1.6,0-3.1,0.4-4.4,1.1c-1.3,0.7-2.3,1.8-3,3.1c-0.7,1.3-1.1,2.8-1.1,4.5s0.4,3.2,1.1,4.5
	c0.7,1.3,1.7,2.4,3,3.1c1.3,0.7,2.7,1.1,4.4,1.1c1.3,0,2.4-0.2,3.5-0.7s2-1.2,2.7-2.2l0.5,0.5c-0.8,1-1.7,1.7-2.9,2.3
	C559.8,557.8,558.6,558,557.2,558z M576.4,558c-1.7,0-3.3-0.4-4.6-1.2c-1.4-0.8-2.4-1.9-3.2-3.4c-0.8-1.4-1.2-3.1-1.2-4.9
	c0-1.8,0.4-3.4,1.2-4.8c0.8-1.4,1.9-2.6,3.2-3.3c1.4-0.8,2.9-1.2,4.6-1.2c1.7,0,3.2,0.4,4.6,1.2c1.4,0.8,2.5,1.9,3.2,3.3
	c0.8,1.4,1.2,3,1.2,4.8c0,1.8-0.4,3.4-1.2,4.9c-0.8,1.4-1.8,2.6-3.2,3.4C579.6,557.6,578.1,558,576.4,558z M576.4,557.4
	c1.6,0,3-0.4,4.2-1.1c1.3-0.7,2.3-1.8,3-3.1s1.1-2.9,1.1-4.5s-0.4-3.2-1.1-4.5c-0.7-1.3-1.7-2.4-3-3.1c-1.3-0.7-2.7-1.1-4.2-1.1
	s-3,0.4-4.2,1.1c-1.3,0.7-2.3,1.8-3,3.1c-0.7,1.3-1.1,2.8-1.1,4.5s0.4,3.2,1.1,4.5c0.7,1.3,1.7,2.4,3,3.1
	C573.4,557,574.8,557.4,576.4,557.4z M600,539.2c2.3,0,4.2,0.7,5.5,2s2,3.2,2,5.7v11h-0.7v-11c0-2.3-0.6-4-1.8-5.2s-2.8-1.8-4.9-1.8
	c-2.4,0-4.3,0.7-5.8,2.2c-1.4,1.4-2.1,3.3-2.1,5.7v10.1h-0.7v-18.6h0.7v5c0.6-1.6,1.5-2.8,2.9-3.7
	C596.5,539.7,598.1,539.2,600,539.2z M624.1,539.2c2.3,0,4.2,0.7,5.5,2s2,3.2,2,5.7v11h-0.7v-11c0-2.3-0.6-4-1.8-5.2
	s-2.8-1.8-4.9-1.8c-2.4,0-4.3,0.7-5.8,2.2c-1.4,1.4-2.1,3.3-2.1,5.7v10.1h-0.7v-18.6h0.7v5c0.6-1.6,1.5-2.8,2.9-3.7
	C620.5,539.7,622.1,539.2,624.1,539.2z M654.7,548.6h-16.6c0,1.7,0.4,3.2,1.1,4.5c0.7,1.3,1.8,2.4,3.1,3.1c1.3,0.7,2.8,1.1,4.4,1.1
	c1.3,0,2.5-0.2,3.6-0.7s2.1-1.2,2.8-2.2l0.5,0.5c-0.8,1-1.8,1.7-3,2.3c-1.2,0.5-2.5,0.8-3.8,0.8c-1.8,0-3.4-0.4-4.8-1.2
	c-1.4-0.8-2.5-1.9-3.3-3.4c-0.8-1.4-1.2-3.1-1.2-4.9c0-1.8,0.4-3.4,1.1-4.8c0.7-1.4,1.8-2.6,3.1-3.3c1.3-0.8,2.8-1.2,4.4-1.2
	c1.6,0,3.1,0.4,4.4,1.2c1.3,0.8,2.4,1.9,3.1,3.3c0.8,1.4,1.2,3,1.2,4.8L654.7,548.6L654.7,548.6z M646,539.9c-1.4,0-2.7,0.3-3.9,1
	c-1.2,0.7-2.1,1.7-2.8,2.9s-1.1,2.6-1.2,4.1H654c-0.1-1.5-0.5-2.9-1.2-4.1s-1.7-2.2-2.8-2.9C648.8,540.2,647.5,539.9,646,539.9z
	 M667.7,558c-1.8,0-3.3-0.4-4.7-1.2s-2.5-1.9-3.3-3.3c-0.8-1.4-1.2-3.1-1.2-4.9c0-1.8,0.4-3.4,1.2-4.9c0.8-1.4,1.9-2.6,3.3-3.3
	c1.4-0.8,3-1.2,4.7-1.2c1.4,0,2.6,0.3,3.8,0.8s2.1,1.2,2.9,2.2l-0.5,0.5c-0.7-1-1.6-1.7-2.7-2.2c-1.1-0.5-2.3-0.7-3.5-0.7
	c-1.6,0-3.1,0.4-4.4,1.1c-1.3,0.7-2.3,1.8-3,3.1c-0.7,1.3-1.1,2.8-1.1,4.5s0.4,3.2,1.1,4.5c0.7,1.3,1.7,2.4,3,3.1
	c1.3,0.7,2.7,1.1,4.4,1.1c1.3,0,2.4-0.2,3.5-0.7s2-1.2,2.7-2.2l0.5,0.5c-0.8,1-1.7,1.7-2.9,2.3C670.3,557.8,669,558,667.7,558z
	 M688.9,556.7c-0.4,0.4-0.9,0.8-1.6,1c-0.6,0.2-1.3,0.3-2,0.3c-1.4,0-2.6-0.4-3.3-1.2c-0.8-0.8-1.2-2-1.2-3.3V540h-3.6v-0.7h3.6
	v-4.1h0.7v4.1h6.3v0.7h-6.3v13.3c0,1.3,0.3,2.3,1,3c0.6,0.7,1.6,1,2.8,1s2.3-0.4,3.1-1.2L688.9,556.7z M708.8,548.6h-16.6
	c0,1.7,0.4,3.2,1.1,4.5c0.7,1.3,1.8,2.4,3.1,3.1c1.3,0.7,2.8,1.1,4.4,1.1c1.3,0,2.5-0.2,3.6-0.7s2.1-1.2,2.8-2.2l0.5,0.5
	c-0.8,1-1.8,1.7-3,2.3c-1.2,0.5-2.5,0.8-3.8,0.8c-1.8,0-3.4-0.4-4.8-1.2c-1.4-0.8-2.5-1.9-3.3-3.4c-0.8-1.4-1.2-3.1-1.2-4.9
	c0-1.8,0.4-3.4,1.1-4.8c0.7-1.4,1.8-2.6,3.1-3.3c1.3-0.8,2.8-1.2,4.4-1.2c1.6,0,3.1,0.4,4.4,1.2c1.3,0.8,2.4,1.9,3.1,3.3
	c0.8,1.4,1.2,3,1.2,4.8L708.8,548.6L708.8,548.6z M700.2,539.9c-1.4,0-2.7,0.3-3.9,1c-1.2,0.7-2.1,1.7-2.8,2.9s-1.1,2.6-1.2,4.1
	h15.9c-0.1-1.5-0.5-2.9-1.2-4.1s-1.7-2.2-2.8-2.9C702.9,540.2,701.6,539.9,700.2,539.9z M730.8,531.2v26.7h-0.7v-5.7
	c-0.6,1.8-1.7,3.2-3.2,4.2s-3.2,1.5-5.1,1.5c-1.7,0-3.2-0.4-4.6-1.2c-1.4-0.8-2.4-1.9-3.2-3.4s-1.2-3.1-1.2-4.9
	c0-1.8,0.4-3.4,1.2-4.8c0.8-1.4,1.9-2.6,3.2-3.3c1.4-0.8,2.9-1.2,4.6-1.2c1.9,0,3.6,0.5,5.1,1.6c1.5,1,2.6,2.4,3.2,4.2v-13.8
	L730.8,531.2L730.8,531.2z M721.7,557.4c1.6,0,3-0.4,4.2-1.1c1.3-0.7,2.3-1.8,3-3.1s1.1-2.9,1.1-4.5s-0.4-3.2-1.1-4.5
	c-0.7-1.3-1.7-2.4-3-3.1c-1.3-0.7-2.7-1.1-4.2-1.1s-3,0.4-4.2,1.1c-1.3,0.7-2.3,1.8-3,3.1c-0.7,1.3-1.1,2.8-1.1,4.5s0.4,3.2,1.1,4.5
	c0.7,1.3,1.7,2.4,3,3.1S720.2,557.4,721.7,557.4z M748.7,532.7h0.7v24.5h15v0.7h-15.7V532.7z M768.9,539.3h0.7v18.6h-0.7V539.3z
	 M769.3,534.2c-0.3,0-0.5-0.1-0.7-0.3c-0.2-0.2-0.3-0.4-0.3-0.6c0-0.3,0.1-0.5,0.3-0.6c0.2-0.2,0.4-0.3,0.7-0.3
	c0.2,0,0.5,0.1,0.6,0.3c0.2,0.2,0.3,0.4,0.3,0.6c0,0.2-0.1,0.5-0.3,0.6C769.8,534.1,769.5,534.2,769.3,534.2z M786.5,539.2
	c2.3,0,4.2,0.7,5.5,2s2,3.2,2,5.7v11h-0.7v-11c0-2.3-0.6-4-1.8-5.2s-2.8-1.8-4.9-1.8c-2.4,0-4.3,0.7-5.8,2.2
	c-1.4,1.4-2.1,3.3-2.1,5.7v10.1H778v-18.6h0.7v5c0.6-1.6,1.5-2.8,2.9-3.7C782.9,539.7,784.5,539.2,786.5,539.2z M817.6,539.3v18.6
	h-0.7V553c-0.6,1.6-1.5,2.8-2.8,3.7s-2.9,1.3-4.7,1.3c-2.4,0-4.3-0.7-5.6-2s-2-3.3-2-5.8v-11h0.7v11c0,2.3,0.6,4,1.8,5.3
	c1.2,1.2,2.9,1.8,5.1,1.8c2.3,0,4.2-0.7,5.5-2.2s2-3.4,2-5.8v-10.1h0.7V539.3z M837.7,557.9l-7-9.1l-7.1,9.1h-0.9l7.5-9.6l-7.1-9
	h0.9l6.6,8.5l6.6-8.5h0.9l-7,9l7.6,9.6H837.7z M153.1,602c-1.8,0-3.3-0.4-4.7-1.2s-2.5-1.9-3.3-3.3c-0.8-1.4-1.2-3.1-1.2-4.9
	c0-1.8,0.4-3.4,1.2-4.9c0.8-1.4,1.9-2.6,3.3-3.3s3-1.2,4.7-1.2c1.4,0,2.6,0.3,3.8,0.8s2.1,1.2,2.9,2.2l-0.5,0.5
	c-0.7-1-1.6-1.7-2.7-2.2c-1.1-0.5-2.3-0.7-3.5-0.7c-1.6,0-3.1,0.4-4.4,1.1c-1.3,0.7-2.3,1.8-3,3.1s-1.1,2.8-1.1,4.5s0.4,3.2,1.1,4.5
	c0.7,1.3,1.7,2.4,3,3.1c1.3,0.7,2.7,1.1,4.4,1.1c1.3,0,2.4-0.2,3.5-0.7s2-1.2,2.7-2.2l0.5,0.5c-0.8,1-1.7,1.7-2.9,2.3
	C155.7,601.8,154.4,602,153.1,602z M172.2,602c-1.7,0-3.3-0.4-4.6-1.2c-1.4-0.8-2.4-1.9-3.2-3.4c-0.8-1.4-1.2-3.1-1.2-4.9
	c0-1.8,0.4-3.4,1.2-4.8c0.8-1.4,1.9-2.6,3.2-3.3c1.4-0.8,2.9-1.2,4.6-1.2s3.2,0.4,4.6,1.2c1.4,0.8,2.5,1.9,3.2,3.3
	c0.8,1.4,1.2,3,1.2,4.8s-0.4,3.4-1.2,4.9c-0.8,1.4-1.8,2.6-3.2,3.4C175.5,601.6,173.9,602,172.2,602z M172.2,601.4
	c1.6,0,3-0.4,4.2-1.1c1.3-0.7,2.3-1.8,3-3.1s1.1-2.9,1.1-4.5c0-1.7-0.4-3.2-1.1-4.5c-0.7-1.3-1.7-2.4-3-3.1
	c-1.3-0.7-2.7-1.1-4.2-1.1s-3,0.4-4.2,1.1c-1.3,0.7-2.3,1.8-3,3.1s-1.1,2.8-1.1,4.5s0.4,3.2,1.1,4.5c0.7,1.3,1.7,2.4,3,3.1
	C169.2,601,170.7,601.4,172.2,601.4z M210.5,583.2c2.3,0,4,0.7,5.3,2s1.9,3.2,1.9,5.7v11H217v-11c0-2.3-0.6-4-1.7-5.2
	c-1.1-1.2-2.7-1.8-4.8-1.8c-2.4,0-4.2,0.7-5.6,2.2c-1.4,1.4-2.1,3.3-2.1,5.7v10.1h-0.7v-11c0-2.3-0.6-4-1.7-5.2
	c-1.1-1.2-2.7-1.8-4.8-1.8c-2.4,0-4.2,0.7-5.6,2.2c-1.4,1.4-2.1,3.3-2.1,5.7v10.1h-0.7v-18.6h0.7v4.9c0.6-1.6,1.5-2.8,2.8-3.7
	s2.9-1.3,4.8-1.3c1.9,0,3.5,0.5,4.7,1.4s2,2.3,2.4,4.1c0.5-1.7,1.4-3,2.7-4C206.8,583.7,208.5,583.2,210.5,583.2z M234.8,583.2
	c1.7,0,3.2,0.4,4.6,1.2c1.4,0.8,2.5,1.9,3.3,3.3c0.8,1.4,1.2,3.1,1.2,4.9c0,1.8-0.4,3.4-1.2,4.9c-0.8,1.4-1.9,2.5-3.3,3.3
	c-1.4,0.8-2.9,1.2-4.6,1.2c-1.9,0-3.6-0.5-5.1-1.5c-1.5-1.1-2.5-2.5-3.2-4.2v12.6h-0.7v-25.6h0.7v5.7c0.6-1.8,1.7-3.2,3.2-4.2
	C231.2,583.7,232.9,583.2,234.8,583.2z M234.8,601.4c1.6,0,3-0.4,4.2-1.1c1.3-0.7,2.3-1.8,3-3.1s1.1-2.9,1.1-4.5
	c0-1.7-0.4-3.2-1.1-4.5c-0.7-1.3-1.7-2.4-3-3.1c-1.3-0.7-2.7-1.1-4.2-1.1s-3,0.4-4.2,1.1c-1.3,0.7-2.3,1.8-3,3.1s-1.1,2.8-1.1,4.5
	s0.4,3.2,1.1,4.5c0.7,1.3,1.7,2.4,3,3.1C231.9,601,233.3,601.4,234.8,601.4z M265.6,583.3v18.6h-0.7V597c-0.6,1.6-1.5,2.8-2.8,3.7
	s-2.9,1.3-4.7,1.3c-2.4,0-4.3-0.7-5.6-2s-2-3.3-2-5.8v-11h0.7v11c0,2.3,0.6,4,1.8,5.3c1.2,1.2,2.9,1.8,5.1,1.8
	c2.3,0,4.2-0.7,5.5-2.2s2-3.4,2-5.8v-10.1L265.6,583.3L265.6,583.3z M282.3,600.7c-0.4,0.4-0.9,0.8-1.6,1c-0.6,0.2-1.3,0.3-2,0.3
	c-1.4,0-2.6-0.4-3.3-1.2c-0.8-0.8-1.2-2-1.2-3.3V584h-3.6v-0.7h3.6v-4.1h0.7v4.1h6.3v0.7h-6.3v13.3c0,1.3,0.3,2.3,1,3s1.6,1,2.8,1
	c1.2,0,2.3-0.4,3.1-1.2L282.3,600.7z M302.2,592.6h-16.6c0,1.7,0.4,3.2,1.1,4.5s1.8,2.4,3.1,3.1c1.3,0.7,2.8,1.1,4.4,1.1
	c1.3,0,2.5-0.2,3.6-0.7s2.1-1.2,2.8-2.2l0.5,0.5c-0.8,1-1.8,1.7-3,2.3c-1.2,0.5-2.5,0.8-3.8,0.8c-1.8,0-3.4-0.4-4.8-1.2
	s-2.5-1.9-3.3-3.4c-0.8-1.4-1.2-3.1-1.2-4.9c0-1.8,0.4-3.4,1.1-4.8c0.7-1.4,1.8-2.6,3.1-3.3c1.3-0.8,2.8-1.2,4.4-1.2
	s3.1,0.4,4.4,1.2s2.4,1.9,3.1,3.3c0.8,1.4,1.2,3,1.2,4.8v0.1H302.2z M293.5,583.9c-1.4,0-2.7,0.3-3.9,1s-2.1,1.7-2.8,2.9
	c-0.7,1.2-1.1,2.6-1.2,4.1h15.9c-0.1-1.5-0.5-2.9-1.2-4.1s-1.7-2.2-2.8-2.9S295,583.9,293.5,583.9z M309,588.1
	c0.5-1.6,1.4-2.8,2.7-3.6c1.2-0.9,2.8-1.3,4.6-1.3v0.7h-0.2c-2.2,0-4,0.7-5.2,2.2c-1.2,1.4-1.9,3.4-1.9,5.8v10h-0.7v-18.6h0.7V588.1
	z M339.5,600.7c-0.4,0.4-0.9,0.8-1.6,1c-0.6,0.2-1.3,0.3-2,0.3c-1.4,0-2.6-0.4-3.3-1.2c-0.8-0.8-1.2-2-1.2-3.3V584h-3.6v-0.7h3.6
	v-4.1h0.7v4.1h6.3v0.7H332v13.3c0,1.3,0.3,2.3,1,3c0.6,0.7,1.6,1,2.8,1c1.2,0,2.3-0.4,3.1-1.2L339.5,600.7z M353.5,583.2
	c2.3,0,4.2,0.7,5.5,2s2,3.2,2,5.7v11h-0.7v-11c0-2.3-0.6-4-1.8-5.2c-1.2-1.2-2.8-1.8-4.9-1.8c-2.4,0-4.3,0.7-5.8,2.2
	c-1.4,1.4-2.1,3.3-2.1,5.7v10.1H345v-26.7h0.7v13.1c0.6-1.6,1.5-2.8,2.9-3.7C349.9,583.7,351.6,583.2,353.5,583.2z M375,583.2
	c2.2,0,3.8,0.6,4.9,1.7c1.2,1.1,1.7,2.7,1.7,4.8v12.2h-0.7v-4c-0.6,1.3-1.5,2.3-2.7,3s-2.7,1.1-4.4,1.1c-2.1,0-3.7-0.5-4.9-1.4
	c-1.2-1-1.7-2.2-1.7-3.8c0-1.5,0.5-2.7,1.5-3.6c1.1-0.9,2.7-1.4,5.1-1.4h7.1v-2.1c0-1.9-0.5-3.4-1.5-4.4s-2.4-1.5-4.4-1.5
	c-1.3,0-2.6,0.2-3.8,0.7c-1.2,0.5-2.1,1.1-3,1.9l-0.5-0.5c0.9-0.9,2-1.5,3.2-2C372.3,583.5,373.6,583.2,375,583.2z M373.8,601.4
	c3.5,0,5.8-1.6,7.1-4.8v-4.1h-7.1c-2,0-3.5,0.4-4.5,1.2c-0.9,0.8-1.4,1.8-1.4,3.1c0,1.4,0.5,2.5,1.5,3.3
	C370.5,600.9,372,601.4,373.8,601.4z M398.1,600.7c-0.4,0.4-0.9,0.8-1.6,1c-0.6,0.2-1.3,0.3-2,0.3c-1.4,0-2.6-0.4-3.3-1.2
	c-0.8-0.8-1.2-2-1.2-3.3V584h-3.6v-0.7h3.6v-4.1h0.7v4.1h6.3v0.7h-6.3v13.3c0,1.3,0.3,2.3,1,3c0.6,0.7,1.6,1,2.8,1
	c1.2,0,2.3-0.4,3.1-1.2L398.1,600.7z M412.7,583.3h0.7v18.6h-0.7V583.3z M413,578.2c-0.3,0-0.5-0.1-0.7-0.3s-0.3-0.4-0.3-0.6
	c0-0.3,0.1-0.5,0.3-0.6c0.2-0.2,0.4-0.3,0.7-0.3c0.2,0,0.5,0.1,0.6,0.3c0.2,0.2,0.3,0.4,0.3,0.6c0,0.2-0.1,0.5-0.3,0.6
	C413.5,578.1,413.3,578.2,413,578.2z M426,602c-1.5,0-2.9-0.2-4.2-0.7s-2.3-1.1-3.1-1.8l0.4-0.6c0.7,0.7,1.7,1.3,2.9,1.8
	c1.2,0.5,2.5,0.7,4,0.7c2.1,0,3.7-0.4,4.7-1.1c1-0.7,1.5-1.8,1.5-3.1c0-0.9-0.3-1.7-0.8-2.2c-0.5-0.6-1.2-0.9-2-1.2
	s-1.8-0.5-3.2-0.8c-1.5-0.3-2.7-0.5-3.6-0.8s-1.6-0.8-2.3-1.4c-0.6-0.7-0.9-1.6-0.9-2.8c0-1.3,0.6-2.5,1.7-3.4s2.8-1.4,4.9-1.4
	c1.2,0,2.3,0.2,3.4,0.5s2,0.8,2.7,1.4l-0.4,0.6c-0.7-0.6-1.6-1-2.6-1.3s-2.1-0.5-3.1-0.5c-1.9,0-3.4,0.4-4.4,1.2
	c-1,0.7-1.4,1.7-1.4,3c0,1,0.3,1.8,0.8,2.3c0.6,0.6,1.2,1,2.1,1.2c0.8,0.3,1.9,0.5,3.2,0.8c1.5,0.3,2.6,0.6,3.5,0.9
	c0.9,0.3,1.6,0.8,2.2,1.4c0.6,0.6,0.9,1.5,0.9,2.6c0,1.5-0.6,2.6-1.8,3.5C429.9,601.6,428.2,602,426,602z M462.4,592.6h-16.6
	c0,1.7,0.4,3.2,1.1,4.5s1.8,2.4,3.1,3.1c1.3,0.7,2.8,1.1,4.4,1.1c1.3,0,2.5-0.2,3.6-0.7s2.1-1.2,2.8-2.2l0.5,0.5
	c-0.8,1-1.8,1.7-3,2.3c-1.2,0.5-2.5,0.8-3.8,0.8c-1.8,0-3.4-0.4-4.8-1.2s-2.5-1.9-3.3-3.4c-0.8-1.4-1.2-3.1-1.2-4.9
	c0-1.8,0.4-3.4,1.1-4.8c0.7-1.4,1.8-2.6,3.1-3.3c1.3-0.8,2.8-1.2,4.4-1.2s3.1,0.4,4.4,1.2s2.4,1.9,3.1,3.3c0.8,1.4,1.2,3,1.2,4.8
	v0.1H462.4z M453.7,583.9c-1.4,0-2.7,0.3-3.9,1c-1.2,0.7-2.1,1.7-2.8,2.9c-0.7,1.2-1.1,2.6-1.2,4.1h15.9c-0.1-1.5-0.5-2.9-1.2-4.1
	s-1.7-2.2-2.8-2.9S455.2,583.9,453.7,583.9z M473.9,583.2c2.2,0,3.8,0.6,4.9,1.7c1.2,1.1,1.7,2.7,1.7,4.8v12.2h-0.7v-4
	c-0.6,1.3-1.5,2.3-2.7,3s-2.7,1.1-4.4,1.1c-2.1,0-3.7-0.5-4.9-1.4c-1.2-1-1.7-2.2-1.7-3.8c0-1.5,0.5-2.7,1.5-3.6
	c1.1-0.9,2.7-1.4,5.1-1.4h7.1v-2.1c0-1.9-0.5-3.4-1.5-4.4s-2.4-1.5-4.4-1.5c-1.3,0-2.6,0.2-3.8,0.7c-1.2,0.5-2.1,1.1-3,1.9l-0.5-0.5
	c0.9-0.9,2-1.5,3.2-2C471.1,583.5,472.5,583.2,473.9,583.2z M472.7,601.4c3.5,0,5.8-1.6,7.1-4.8v-4.1h-7.1c-2,0-3.5,0.4-4.5,1.2
	c-0.9,0.8-1.4,1.8-1.4,3.1c0,1.4,0.5,2.5,1.5,3.3C469.4,600.9,470.9,601.4,472.7,601.4z M492.9,602c-1.5,0-2.9-0.2-4.2-0.7
	c-1.3-0.5-2.3-1.1-3.1-1.8l0.4-0.6c0.7,0.7,1.7,1.3,2.9,1.8c1.2,0.5,2.5,0.7,4,0.7c2.1,0,3.7-0.4,4.7-1.1c1-0.7,1.5-1.8,1.5-3.1
	c0-0.9-0.3-1.7-0.8-2.2c-0.5-0.6-1.2-0.9-2-1.2s-1.8-0.5-3.2-0.8c-1.5-0.3-2.7-0.5-3.6-0.8s-1.6-0.8-2.3-1.4
	c-0.6-0.7-0.9-1.6-0.9-2.8c0-1.3,0.6-2.5,1.7-3.4s2.8-1.4,4.9-1.4c1.2,0,2.3,0.2,3.4,0.5s2,0.8,2.7,1.4l-0.4,0.6
	c-0.7-0.6-1.6-1-2.6-1.3s-2.1-0.5-3.1-0.5c-1.9,0-3.4,0.4-4.4,1.2c-1,0.7-1.4,1.7-1.4,3c0,1,0.3,1.8,0.8,2.3c0.6,0.6,1.2,1,2.1,1.2
	c0.8,0.3,1.9,0.5,3.2,0.8c1.5,0.3,2.6,0.6,3.5,0.9c0.9,0.3,1.6,0.8,2.2,1.4c0.6,0.6,0.9,1.5,0.9,2.6c0,1.5-0.6,2.6-1.8,3.5
	C496.9,601.6,495.1,602,492.9,602z M518.9,583.3l-9.9,21.6c-0.7,1.5-1.4,2.5-2.3,3.2c-0.8,0.6-1.8,0.9-3,0.9c-1.7,0-3-0.6-4-1.7
	l0.5-0.6c0.5,0.6,1,0.9,1.6,1.2c0.6,0.2,1.2,0.4,1.9,0.4c1,0,1.8-0.3,2.5-0.8s1.4-1.5,2-2.8l1.3-2.8l-8.5-18.5h0.8l8.1,17.8
	l8.1-17.8h0.9V583.3z M540.6,600.7c-0.4,0.4-0.9,0.8-1.6,1c-0.6,0.2-1.3,0.3-2,0.3c-1.4,0-2.6-0.4-3.3-1.2c-0.8-0.8-1.2-2-1.2-3.3
	V584h-3.6v-0.7h3.6v-4.1h0.7v4.1h6.3v0.7h-6.3v13.3c0,1.3,0.3,2.3,1,3s1.6,1,2.8,1s2.3-0.4,3.1-1.2L540.6,600.7z M552.3,602
	c-1.7,0-3.3-0.4-4.6-1.2c-1.4-0.8-2.4-1.9-3.2-3.4c-0.8-1.4-1.2-3.1-1.2-4.9c0-1.8,0.4-3.4,1.2-4.8c0.8-1.4,1.9-2.6,3.2-3.3
	c1.4-0.8,2.9-1.2,4.6-1.2s3.2,0.4,4.6,1.2c1.4,0.8,2.5,1.9,3.2,3.3c0.8,1.4,1.2,3,1.2,4.8s-0.4,3.4-1.2,4.9
	c-0.8,1.4-1.8,2.6-3.2,3.4C555.5,601.6,554,602,552.3,602z M552.3,601.4c1.6,0,3-0.4,4.2-1.1c1.3-0.7,2.3-1.8,3-3.1s1.1-2.9,1.1-4.5
	c0-1.7-0.4-3.2-1.1-4.5c-0.7-1.3-1.7-2.4-3-3.1c-1.3-0.7-2.7-1.1-4.2-1.1s-3,0.4-4.2,1.1c-1.3,0.7-2.3,1.8-3,3.1s-1.1,2.8-1.1,4.5
	s0.4,3.2,1.1,4.5c0.7,1.3,1.7,2.4,3,3.1C549.3,601,550.7,601.4,552.3,601.4z M591.5,592.6h-16.6c0,1.7,0.4,3.2,1.1,4.5
	c0.7,1.3,1.8,2.4,3.1,3.1c1.3,0.7,2.8,1.1,4.4,1.1c1.3,0,2.5-0.2,3.6-0.7s2.1-1.2,2.8-2.2l0.5,0.5c-0.8,1-1.8,1.7-3,2.3
	c-1.2,0.5-2.5,0.8-3.8,0.8c-1.8,0-3.4-0.4-4.8-1.2c-1.4-0.8-2.5-1.9-3.3-3.4c-0.8-1.4-1.2-3.1-1.2-4.9c0-1.8,0.4-3.4,1.1-4.8
	c0.7-1.4,1.8-2.6,3.1-3.3c1.3-0.8,2.8-1.2,4.4-1.2c1.6,0,3.1,0.4,4.4,1.2s2.4,1.9,3.1,3.3c0.8,1.4,1.2,3,1.2,4.8L591.5,592.6
	L591.5,592.6z M582.8,583.9c-1.4,0-2.7,0.3-3.9,1s-2.1,1.7-2.8,2.9s-1.1,2.6-1.2,4.1h15.9c-0.1-1.5-0.5-2.9-1.2-4.1
	c-0.7-1.2-1.7-2.2-2.8-2.9C585.6,584.2,584.3,583.9,582.8,583.9z M620.7,583.2c2.3,0,4,0.7,5.3,2s1.9,3.2,1.9,5.7v11h-0.7v-11
	c0-2.3-0.6-4-1.7-5.2c-1.1-1.2-2.7-1.8-4.8-1.8c-2.4,0-4.2,0.7-5.6,2.2c-1.4,1.4-2.1,3.3-2.1,5.7v10.1h-0.7v-11c0-2.3-0.6-4-1.7-5.2
	c-1.1-1.2-2.7-1.8-4.8-1.8c-2.4,0-4.2,0.7-5.6,2.2c-1.4,1.4-2.1,3.3-2.1,5.7v10.1h-0.7v-18.6h0.7v4.9c0.6-1.6,1.5-2.8,2.8-3.7
	s2.9-1.3,4.8-1.3c1.9,0,3.5,0.5,4.7,1.4s2,2.3,2.4,4.1c0.5-1.7,1.4-3,2.7-4C617,583.7,618.7,583.2,620.7,583.2z M645.1,583.2
	c1.7,0,3.2,0.4,4.6,1.2c1.4,0.8,2.5,1.9,3.3,3.3c0.8,1.4,1.2,3,1.2,4.8s-0.4,3.4-1.2,4.9c-0.8,1.4-1.9,2.6-3.3,3.4
	c-1.4,0.8-2.9,1.2-4.6,1.2c-1.9,0-3.7-0.5-5.1-1.5c-1.5-1.1-2.5-2.5-3.2-4.2v5.7H636v-26.7h0.7V589c0.6-1.8,1.7-3.1,3.2-4.2
	C641.4,583.7,643.1,583.2,645.1,583.2z M645.1,601.4c1.6,0,3-0.4,4.2-1.1c1.3-0.7,2.3-1.8,3-3.1s1.1-2.9,1.1-4.5
	c0-1.7-0.4-3.2-1.1-4.5c-0.7-1.3-1.7-2.4-3-3.1c-1.3-0.7-2.7-1.1-4.2-1.1s-3,0.4-4.2,1.1c-1.3,0.7-2.3,1.8-3,3.1s-1.1,2.8-1.1,4.5
	s0.4,3.2,1.1,4.5c0.7,1.3,1.7,2.4,3,3.1C642.1,601,643.5,601.4,645.1,601.4z M675.2,592.6h-16.6c0,1.7,0.4,3.2,1.1,4.5
	c0.7,1.3,1.8,2.4,3.1,3.1c1.3,0.7,2.8,1.1,4.4,1.1c1.3,0,2.5-0.2,3.6-0.7s2.1-1.2,2.8-2.2l0.5,0.5c-0.8,1-1.8,1.7-3,2.3
	c-1.2,0.5-2.5,0.8-3.8,0.8c-1.8,0-3.4-0.4-4.8-1.2c-1.4-0.8-2.5-1.9-3.3-3.4c-0.8-1.4-1.2-3.1-1.2-4.9c0-1.8,0.4-3.4,1.1-4.8
	c0.7-1.4,1.8-2.6,3.1-3.3c1.3-0.8,2.8-1.2,4.4-1.2c1.6,0,3.1,0.4,4.4,1.2s2.4,1.9,3.1,3.3c0.8,1.4,1.2,3,1.2,4.8L675.2,592.6
	L675.2,592.6z M666.6,583.9c-1.4,0-2.7,0.3-3.9,1s-2.1,1.7-2.8,2.9s-1.1,2.6-1.2,4.1h15.9c-0.1-1.5-0.5-2.9-1.2-4.1
	c-0.7-1.2-1.7-2.2-2.8-2.9C669.3,584.2,668,583.9,666.6,583.9z M697.2,575.2v26.7h-0.7v-5.7c-0.6,1.8-1.7,3.2-3.2,4.2
	s-3.2,1.5-5.1,1.5c-1.7,0-3.2-0.4-4.6-1.2c-1.4-0.8-2.4-1.9-3.2-3.4s-1.2-3.1-1.2-4.9c0-1.8,0.4-3.4,1.2-4.8
	c0.8-1.4,1.9-2.6,3.2-3.3c1.4-0.8,2.9-1.2,4.6-1.2c1.9,0,3.6,0.5,5.1,1.6c1.5,1,2.6,2.4,3.2,4.2v-13.8h0.7V575.2z M688.1,601.4
	c1.6,0,3-0.4,4.2-1.1c1.3-0.7,2.3-1.8,3-3.1s1.1-2.9,1.1-4.5c0-1.7-0.4-3.2-1.1-4.5c-0.7-1.3-1.7-2.4-3-3.1
	c-1.3-0.7-2.7-1.1-4.2-1.1s-3,0.4-4.2,1.1c-1.3,0.7-2.3,1.8-3,3.1s-1.1,2.8-1.1,4.5s0.4,3.2,1.1,4.5c0.7,1.3,1.7,2.4,3,3.1
	C685.2,601,686.6,601.4,688.1,601.4z M714.5,583.3h0.7v18.6h-0.7V583.3z M714.8,578.2c-0.3,0-0.5-0.1-0.7-0.3s-0.3-0.4-0.3-0.6
	c0-0.3,0.1-0.5,0.3-0.6c0.2-0.2,0.4-0.3,0.7-0.3c0.2,0,0.5,0.1,0.6,0.3c0.2,0.2,0.3,0.4,0.3,0.6c0,0.2-0.1,0.5-0.3,0.6
	C715.3,578.1,715,578.2,714.8,578.2z M732,583.2c2.3,0,4.2,0.7,5.5,2s2,3.2,2,5.7v11h-0.7v-11c0-2.3-0.6-4-1.8-5.2s-2.8-1.8-4.9-1.8
	c-2.4,0-4.3,0.7-5.8,2.2c-1.4,1.4-2.1,3.3-2.1,5.7v10.1h-0.7v-18.6h0.7v5c0.6-1.6,1.5-2.8,2.9-3.7C728.4,583.7,730,583.2,732,583.2z
	 M755.9,600.7c-0.4,0.4-0.9,0.8-1.6,1c-0.6,0.2-1.3,0.3-2,0.3c-1.4,0-2.6-0.4-3.3-1.2c-0.8-0.8-1.2-2-1.2-3.3V584h-3.6v-0.7h3.6
	v-4.1h0.7v4.1h6.3v0.7h-6.3v13.3c0,1.3,0.3,2.3,1,3s1.6,1,2.8,1s2.3-0.4,3.1-1.2L755.9,600.7z M767.6,602c-1.7,0-3.3-0.4-4.6-1.2
	c-1.4-0.8-2.4-1.9-3.2-3.4c-0.8-1.4-1.2-3.1-1.2-4.9c0-1.8,0.4-3.4,1.2-4.8c0.8-1.4,1.9-2.6,3.2-3.3c1.4-0.8,2.9-1.2,4.6-1.2
	s3.2,0.4,4.6,1.2c1.4,0.8,2.5,1.9,3.2,3.3c0.8,1.4,1.2,3,1.2,4.8s-0.4,3.4-1.2,4.9c-0.8,1.4-1.8,2.6-3.2,3.4
	C770.8,601.6,769.3,602,767.6,602z M767.6,601.4c1.6,0,3-0.4,4.2-1.1c1.3-0.7,2.3-1.8,3-3.1s1.1-2.9,1.1-4.5c0-1.7-0.4-3.2-1.1-4.5
	c-0.7-1.3-1.7-2.4-3-3.1c-1.3-0.7-2.7-1.1-4.2-1.1s-3,0.4-4.2,1.1c-1.3,0.7-2.3,1.8-3,3.1s-1.1,2.8-1.1,4.5s0.4,3.2,1.1,4.5
	c0.7,1.3,1.7,2.4,3,3.1C764.6,601,766,601.4,767.6,601.4z M155.1,627.2c1.7,0,3.2,0.4,4.6,1.2c1.4,0.8,2.5,1.9,3.3,3.3
	c0.8,1.4,1.2,3.1,1.2,4.9c0,1.8-0.4,3.4-1.2,4.9c-0.8,1.4-1.9,2.5-3.3,3.3c-1.4,0.8-2.9,1.2-4.6,1.2c-1.9,0-3.6-0.5-5.1-1.5
	c-1.5-1.1-2.5-2.5-3.2-4.2v12.6h-0.7v-25.6h0.7v5.7c0.6-1.8,1.7-3.2,3.2-4.2C151.5,627.7,153.2,627.2,155.1,627.2z M155.1,645.4
	c1.6,0,3-0.4,4.2-1.1c1.3-0.7,2.3-1.8,3-3.1s1.1-2.9,1.1-4.5c0-1.7-0.4-3.2-1.1-4.5c-0.7-1.3-1.7-2.4-3-3.1
	c-1.3-0.7-2.7-1.1-4.2-1.1c-1.6,0-3,0.4-4.2,1.1c-1.3,0.7-2.3,1.8-3,3.1s-1.1,2.8-1.1,4.5s0.4,3.2,1.1,4.5c0.7,1.3,1.7,2.4,3,3.1
	C152.2,645,153.6,645.4,155.1,645.4z M171,632.1c0.5-1.6,1.4-2.8,2.7-3.6c1.2-0.9,2.8-1.3,4.6-1.3v0.7h-0.2c-2.2,0-4,0.7-5.2,2.2
	c-1.2,1.4-1.9,3.4-1.9,5.8v10h-0.7v-18.6h0.7L171,632.1L171,632.1z M190.4,646c-1.7,0-3.3-0.4-4.6-1.2c-1.4-0.8-2.4-1.9-3.2-3.4
	c-0.8-1.4-1.2-3.1-1.2-4.9c0-1.8,0.4-3.4,1.2-4.8c0.8-1.4,1.9-2.6,3.2-3.3c1.4-0.8,2.9-1.2,4.6-1.2s3.2,0.4,4.6,1.2
	c1.4,0.8,2.5,1.9,3.2,3.3c0.8,1.4,1.2,3,1.2,4.8s-0.4,3.4-1.2,4.9c-0.8,1.4-1.8,2.6-3.2,3.4C193.6,645.6,192.1,646,190.4,646z
	 M190.4,645.4c1.6,0,3-0.4,4.2-1.1c1.3-0.7,2.3-1.8,3-3.1s1.1-2.9,1.1-4.5c0-1.7-0.4-3.2-1.1-4.5c-0.7-1.3-1.7-2.4-3-3.1
	c-1.3-0.7-2.7-1.1-4.2-1.1s-3,0.4-4.2,1.1c-1.3,0.7-2.3,1.8-3,3.1s-1.1,2.8-1.1,4.5s0.4,3.2,1.1,4.5c0.7,1.3,1.7,2.4,3,3.1
	C187.4,645,188.8,645.4,190.4,645.4z M213.9,644.7c-0.4,0.4-0.9,0.8-1.6,1c-0.6,0.2-1.3,0.3-2,0.3c-1.4,0-2.6-0.4-3.3-1.2
	c-0.8-0.8-1.2-2-1.2-3.3V628h-3.6v-0.7h3.6v-4.1h0.7v4.1h6.3v0.7h-6.3v13.3c0,1.3,0.3,2.3,1,3c0.6,0.7,1.6,1,2.8,1s2.3-0.4,3.1-1.2
	L213.9,644.7z M225.6,646c-1.7,0-3.3-0.4-4.6-1.2c-1.4-0.8-2.4-1.9-3.2-3.4c-0.8-1.4-1.2-3.1-1.2-4.9c0-1.8,0.4-3.4,1.2-4.8
	c0.8-1.4,1.9-2.6,3.2-3.3c1.4-0.8,2.9-1.2,4.6-1.2c1.7,0,3.2,0.4,4.6,1.2c1.4,0.8,2.5,1.9,3.2,3.3c0.8,1.4,1.2,3,1.2,4.8
	s-0.4,3.4-1.2,4.9c-0.8,1.4-1.8,2.6-3.2,3.4C228.8,645.6,227.3,646,225.6,646z M225.6,645.4c1.6,0,3-0.4,4.2-1.1
	c1.3-0.7,2.3-1.8,3-3.1s1.1-2.9,1.1-4.5c0-1.7-0.4-3.2-1.1-4.5c-0.7-1.3-1.7-2.4-3-3.1c-1.3-0.7-2.7-1.1-4.2-1.1
	c-1.6,0-3,0.4-4.2,1.1c-1.3,0.7-2.3,1.8-3,3.1s-1.1,2.8-1.1,4.5s0.4,3.2,1.1,4.5c0.7,1.3,1.7,2.4,3,3.1
	C222.6,645,224,645.4,225.6,645.4z M249.1,644.7c-0.4,0.4-0.9,0.8-1.6,1c-0.6,0.2-1.3,0.3-2,0.3c-1.4,0-2.6-0.4-3.3-1.2
	c-0.8-0.8-1.2-2-1.2-3.3V628h-3.6v-0.7h3.6v-4.1h0.7v4.1h6.3v0.7h-6.3v13.3c0,1.3,0.3,2.3,1,3c0.6,0.7,1.6,1,2.8,1s2.3-0.4,3.1-1.2
	L249.1,644.7z M268.3,627.3l-9.9,21.6c-0.7,1.5-1.4,2.5-2.3,3.2c-0.8,0.6-1.8,0.9-3,0.9c-1.7,0-3-0.6-4-1.7l0.5-0.6
	c0.5,0.6,1,0.9,1.6,1.2c0.6,0.2,1.2,0.4,1.9,0.4c1,0,1.8-0.3,2.5-0.8c0.7-0.5,1.4-1.5,2-2.8l1.3-2.8l-8.5-18.5h0.8l8.1,17.8
	l8.1-17.8h0.9V627.3z M281.6,627.2c1.7,0,3.2,0.4,4.6,1.2s2.5,1.9,3.3,3.3s1.2,3.1,1.2,4.9c0,1.8-0.4,3.4-1.2,4.9
	c-0.8,1.4-1.9,2.5-3.3,3.3s-2.9,1.2-4.6,1.2c-1.9,0-3.6-0.5-5.1-1.5c-1.5-1.1-2.5-2.5-3.2-4.2v12.6h-0.7v-25.6h0.7v5.7
	c0.6-1.8,1.7-3.2,3.2-4.2C278,627.7,279.7,627.2,281.6,627.2z M281.6,645.4c1.6,0,3-0.4,4.2-1.1c1.3-0.7,2.3-1.8,3-3.1
	s1.1-2.9,1.1-4.5c0-1.7-0.4-3.2-1.1-4.5s-1.7-2.4-3-3.1c-1.3-0.7-2.7-1.1-4.2-1.1s-3,0.4-4.2,1.1c-1.3,0.7-2.3,1.8-3,3.1
	s-1.1,2.8-1.1,4.5s0.4,3.2,1.1,4.5s1.7,2.4,3,3.1C278.7,645,280.1,645.4,281.6,645.4z M311.8,636.6h-16.6c0,1.7,0.4,3.2,1.1,4.5
	s1.8,2.4,3.1,3.1c1.3,0.7,2.8,1.1,4.4,1.1c1.3,0,2.5-0.2,3.6-0.7s2.1-1.2,2.8-2.2l0.5,0.5c-0.8,1-1.8,1.7-3,2.3
	c-1.2,0.5-2.5,0.8-3.8,0.8c-1.8,0-3.4-0.4-4.8-1.2s-2.5-1.9-3.3-3.4c-0.8-1.4-1.2-3.1-1.2-4.9c0-1.8,0.4-3.4,1.1-4.8
	c0.7-1.4,1.8-2.6,3.1-3.3c1.3-0.8,2.8-1.2,4.4-1.2s3.1,0.4,4.4,1.2s2.4,1.9,3.1,3.3c0.8,1.4,1.2,3,1.2,4.8v0.1H311.8z M303.2,627.9
	c-1.4,0-2.7,0.3-3.9,1c-1.2,0.7-2.1,1.7-2.8,2.9c-0.7,1.2-1.1,2.6-1.2,4.1h15.9c-0.1-1.5-0.5-2.9-1.2-4.1s-1.7-2.2-2.8-2.9
	S304.6,627.9,303.2,627.9z M322.2,646c-1.5,0-2.9-0.2-4.2-0.7c-1.3-0.5-2.3-1.1-3.1-1.8l0.4-0.6c0.7,0.7,1.7,1.3,2.9,1.8
	c1.2,0.5,2.5,0.7,4,0.7c2.1,0,3.7-0.4,4.7-1.1c1-0.7,1.5-1.8,1.5-3.1c0-0.9-0.3-1.7-0.8-2.2c-0.5-0.6-1.2-0.9-2-1.2
	s-1.8-0.5-3.2-0.8c-1.5-0.3-2.7-0.5-3.6-0.8s-1.6-0.8-2.3-1.4c-0.6-0.7-0.9-1.6-0.9-2.8c0-1.3,0.6-2.5,1.7-3.4s2.8-1.4,4.9-1.4
	c1.2,0,2.3,0.2,3.4,0.5s2,0.8,2.7,1.4l-0.4,0.6c-0.7-0.6-1.6-1-2.6-1.3s-2.1-0.5-3.1-0.5c-1.9,0-3.4,0.4-4.4,1.2
	c-1,0.7-1.4,1.7-1.4,3c0,1,0.3,1.8,0.8,2.3c0.6,0.6,1.2,1,2.1,1.2c0.8,0.3,1.9,0.5,3.2,0.8c1.5,0.3,2.6,0.6,3.5,0.9
	c0.9,0.3,1.6,0.8,2.2,1.4c0.6,0.6,0.9,1.5,0.9,2.6c0,1.5-0.6,2.6-1.8,3.5C326.1,645.6,324.4,646,322.2,646z M333.7,646
	c-0.2,0-0.5-0.1-0.6-0.3c-0.2-0.2-0.3-0.4-0.3-0.6c0-0.3,0.1-0.5,0.3-0.6c0.2-0.2,0.4-0.3,0.6-0.3c0.3,0,0.5,0.1,0.6,0.3
	c0.2,0.2,0.3,0.4,0.3,0.6c0,0.2-0.1,0.5-0.3,0.6C334.2,645.9,334,646,333.7,646z"/>
</svg>
